<svg width="100" height="160" viewBox="0 0 100 160" fill="none" xmlns="http://www.w3.org/2000/svg">
<rect x="1" y="1" width="98" height="158" rx="13" fill="#F7F7F7" stroke="#D5D5D5" stroke-width="2" stroke-linecap="round" stroke-dasharray="8 8"/>
<mask id="mask0_730_867" style="mask-type:alpha" maskUnits="userSpaceOnUse" x="1" y="1" width="98" height="158">
<rect x="2" y="2" width="96" height="156" rx="12" fill="#F7F7F7" stroke="#D5D5D5" stroke-width="2" stroke-linecap="round" stroke-dasharray="8 8"/>
</mask>
<g mask="url(#mask0_730_867)">
<path d="M82.7458 27.0863C76.3653 28.1472 71.8101 33.3784 72.1958 39.8809C72.6972 41.7519 80.7896 42.2376 87.6133 40.4092C94.4369 38.5808 99.4353 32.5821 99.1109 31.3714C98.7718 30.1057 92.828 25.0926 82.7458 27.0863V27.0863ZM40.6485 38.3663C30.9202 41.6808 28.0621 48.4036 28.5487 50.2195C28.8878 51.4852 36.8213 54.0189 43.0396 52.3527C49.2579 50.6865 56.6286 46.0574 56.1273 44.1864C53.2102 38.3623 46.0443 36.2717 40.6485 38.3663V38.3663ZM98.0363 59.498C87.5257 62.3143 77.3845 51.7611 67.4792 54.4152C57.5739 57.0693 53.4626 71.4415 43.5574 74.0956C30.5705 77.5754 18.1151 68.2911 12.4825 47.2699C9.00266 34.283 11.742 29.5384 28.4158 25.0706C45.0897 20.6029 51.3204 26.2469 59.3547 24.0941C67.389 21.9413 70.5132 13.7907 86.6368 9.47036C102.76 5.15006 108.217 8.34726 111.535 20.7288C117.168 41.75 111.023 56.0182 98.0363 59.498Z" fill="#DADADA"/>
<path d="M14.4485 86.8658C14.177 86.885 13.9461 86.9193 13.7558 86.9686C13.7689 87.5097 13.8502 88.8358 13.9995 90.9467C14.0622 91.8325 14.1447 92.3382 14.2469 92.4638C14.3488 92.5858 14.6766 92.6272 15.2303 92.5881C15.8768 92.5423 16.3451 92.3118 16.6351 91.8964C16.9286 91.4772 17.0372 90.73 16.9612 89.6549C16.8831 88.5512 16.6412 87.7965 16.2356 87.3909C15.8336 86.985 15.2379 86.8099 14.4485 86.8658ZM12.0358 86.2503L14.2003 86.0972C15.6397 85.9954 16.6528 86.1839 17.2395 86.6629C17.8259 87.1384 18.161 87.9672 18.2446 89.1495C18.3384 90.4746 18.1303 91.4908 17.6203 92.1982C17.1104 92.9055 16.2143 93.3046 14.932 93.3953L12.3821 93.5811C12.3271 93.4629 12.2958 93.3503 12.2882 93.2431C12.2831 93.1717 12.2973 93.1186 12.3308 93.084C12.3676 93.0455 12.4288 93.0232 12.5145 93.0171L12.911 92.9891C12.9006 92.4872 12.8229 91.2112 12.6778 89.161C12.6003 88.0645 12.5314 87.2688 12.4713 86.7741L11.9034 86.8143C11.8483 86.6962 11.8172 86.5853 11.8098 86.4817C11.8045 86.4067 11.8186 86.3519 11.852 86.3172C11.8888 86.2787 11.95 86.2564 12.0358 86.2503ZM22.1265 92.2725C22.5337 92.2436 22.8175 92.0692 22.9779 91.7491C23.1383 91.4291 23.1959 90.9494 23.1507 90.31C23.0986 89.5742 22.9653 89.0344 22.7507 88.6907C22.5397 88.3466 22.2056 88.1908 21.7484 88.2231C21.3413 88.2519 21.0575 88.4264 20.897 88.7464C20.7366 89.0665 20.6791 89.548 20.7246 90.1909C20.7764 90.9231 20.9078 91.4613 21.1188 91.8053C21.3334 92.1491 21.6693 92.3048 22.1265 92.2725ZM21.9737 93.0048C21.1986 93.0596 20.6144 92.8946 20.221 92.5096C19.8276 92.1246 19.6016 91.5178 19.543 90.6891C19.4755 89.7354 19.6427 88.9788 20.0446 88.419C20.4502 87.8591 21.069 87.5497 21.9012 87.4908C22.6763 87.4359 23.2606 87.601 23.6539 87.986C24.0473 88.371 24.2735 88.9796 24.3323 89.8118C24.3996 90.7619 24.2304 91.5169 23.8249 92.0769C23.423 92.6366 22.8059 92.9459 21.9737 93.0048ZM32.6571 87.4729C32.5228 88.01 32.2562 89.1381 31.8573 90.8571C31.462 92.5758 31.1501 93.5958 30.9215 93.9171C30.6966 94.2381 30.43 94.4526 30.1217 94.5606C29.817 94.6683 29.4647 94.7363 29.0646 94.7646C28.6753 94.7921 28.4197 94.7815 28.2978 94.7327C28.1794 94.6836 28.1148 94.5823 28.1039 94.4287C28.0906 94.2394 28.1391 94.0637 28.2497 93.9015C28.9308 93.9897 29.4291 94.0047 29.7444 93.9465C30.06 93.8919 30.3401 93.3605 30.5847 92.3525C30.2875 92.3627 30.1257 92.3598 30.0995 92.3437C30.0732 92.3276 29.8431 91.7391 29.4092 90.578C28.9752 89.4169 28.7044 88.7092 28.5967 88.4547C28.4922 88.1965 28.4097 88.0193 28.349 87.923C28.2917 87.823 28.223 87.765 28.1429 87.7492C28.0625 87.7297 27.9599 87.7244 27.8349 87.7333C27.7801 87.6187 27.7492 87.5114 27.7421 87.4114C27.7335 87.2899 27.7892 87.2142 27.9091 87.1842C28.0288 87.1506 28.2743 87.1207 28.6458 87.0944C28.9315 87.0742 29.1257 87.0784 29.2282 87.107C29.3305 87.1321 29.4046 87.1897 29.4504 87.2797C29.496 87.3663 29.5728 87.6139 29.6807 88.0227C29.7921 88.4312 30.0107 89.1103 30.3364 90.0601C30.6653 91.006 30.8459 91.4779 30.878 91.4756C30.9102 91.4733 31.0334 90.9064 31.2477 89.7748C31.4617 88.6397 31.5779 87.8974 31.5963 87.5479L31.307 87.5684C31.2568 87.4678 31.2279 87.364 31.2203 87.2568C31.2127 87.1497 31.2271 87.0733 31.2633 87.0276C31.3032 86.9817 31.3695 86.9555 31.4624 86.9489L32.9732 86.842C33.0268 86.9388 33.0576 87.0443 33.0656 87.1586C33.0735 87.2693 33.0556 87.346 33.0119 87.3885C32.9683 87.4311 32.8893 87.4564 32.775 87.4645L32.6571 87.4729ZM36.5531 91.2518C36.9603 91.223 37.2441 91.0485 37.4045 90.7285C37.5649 90.4084 37.6225 89.9287 37.5773 89.2893C37.5252 88.5535 37.3919 88.0138 37.1773 87.67C36.9663 87.3259 36.6322 87.1701 36.175 87.2024C35.7679 87.2312 35.484 87.4057 35.3236 87.7257C35.1632 88.0458 35.1057 88.5273 35.1512 89.1702C35.203 89.9024 35.3344 90.4406 35.5454 90.7846C35.76 91.1284 36.0959 91.2841 36.5531 91.2518ZM36.4003 91.9841C35.6252 92.0389 35.041 91.8739 34.6476 91.4889C34.2542 91.1039 34.0282 90.4971 33.9696 89.6684C33.9021 88.7148 34.0693 87.9581 34.4712 87.3984C34.8767 86.8384 35.4956 86.529 36.3278 86.4701C37.1029 86.4153 37.6872 86.5803 38.0805 86.9653C38.4739 87.3503 38.7001 87.9589 38.7589 88.7911C38.8262 89.7412 38.657 90.4963 38.2515 91.0562C37.8496 91.6159 37.2325 91.9252 36.4003 91.9841ZM44.4102 89.1451C44.461 89.8631 44.5208 90.3022 44.5896 90.4624C44.6584 90.6227 44.7778 90.6878 44.948 90.6578C44.997 90.7405 45.0243 90.8229 45.0301 90.9051C45.0395 91.0372 44.9449 91.1462 44.7463 91.2321C44.5478 91.3179 44.3521 91.3677 44.1592 91.3813C44.0342 91.3902 43.9414 91.3716 43.8807 91.3256C43.82 91.2797 43.7211 91.1503 43.584 90.9374C43.3099 91.1219 43.0226 91.2733 42.7223 91.3914C42.4255 91.5094 42.1092 91.5802 41.7735 91.6039C41.3306 91.6353 40.9773 91.5382 40.7137 91.3128C40.4534 91.0835 40.3001 90.6421 40.2538 89.9884C40.1636 88.7133 40.1018 87.9405 40.0683 87.67C40.0381 87.3958 39.9961 87.2085 39.9424 87.1082C39.8886 87.0079 39.8233 86.9479 39.7465 86.9282C39.6698 86.9085 39.5867 86.9018 39.4974 86.9081C39.4457 86.8364 39.4165 86.7541 39.41 86.6613C39.4011 86.5362 39.4826 86.4443 39.6543 86.3855C39.826 86.3267 40.0673 86.2863 40.378 86.2643C40.6245 86.2469 40.7935 86.2511 40.8851 86.2769C40.9799 86.2989 41.0406 86.3449 41.0671 86.4148C41.0969 86.4809 41.126 86.7139 41.1543 87.114L41.2972 89.1338C41.349 89.8661 41.4632 90.339 41.6399 90.5526C41.8201 90.766 42.0549 90.8625 42.3442 90.842C42.5478 90.8276 42.743 90.7708 42.9298 90.6714C43.1166 90.572 43.2367 90.4433 43.2901 90.2851C43.3471 90.1267 43.3601 89.8279 43.329 89.3885C43.2567 88.367 43.2059 87.7245 43.1765 87.4609C43.1506 87.1971 43.1124 87.0113 43.0617 86.9037C43.0143 86.7921 42.9558 86.7263 42.8862 86.7061C42.8165 86.6859 42.7281 86.6796 42.621 86.6871C42.5692 86.6154 42.5401 86.5331 42.5335 86.4403C42.5247 86.3152 42.6097 86.2231 42.7886 86.1638C42.971 86.1042 43.1997 86.0647 43.4748 86.0452C43.7212 86.0278 43.8902 86.032 43.9818 86.0578C44.0767 86.0798 44.1376 86.1293 44.1646 86.2064C44.1952 86.2832 44.2246 86.5216 44.2529 86.9217L44.4102 89.1451ZM46.2678 85.8799C46.2491 85.6156 46.222 85.3339 46.1865 85.0349C46.1543 84.7321 46.1142 84.5195 46.066 84.3973C46.0215 84.2748 45.9533 84.1989 45.8615 84.1695C45.7732 84.1398 45.6612 84.1298 45.5255 84.1394C45.4712 84.0319 45.4403 83.9246 45.4327 83.8175C45.4249 83.7068 45.4646 83.634 45.5519 83.5991C45.6391 83.5642 45.9328 83.529 46.4329 83.4937C46.715 83.4737 46.9071 83.4745 47.0092 83.496C47.1109 83.5139 47.1716 83.5599 47.1912 83.6338C47.2106 83.7043 47.2266 83.8288 47.2392 84.0074L47.3995 86.2737C47.6106 86.1116 47.8694 85.964 48.1759 85.8311C48.4857 85.6943 48.812 85.6138 49.1549 85.5895C49.5943 85.5584 49.9414 85.6451 50.1964 85.8496C50.4547 86.0503 50.6057 86.4597 50.6494 87.0776C50.7854 88.9992 50.8842 90.0153 50.9459 90.1258C51.0111 90.236 51.1436 90.2823 51.3434 90.2646C51.39 90.3654 51.417 90.4676 51.4243 90.5712C51.4311 90.6676 51.4053 90.734 51.3469 90.7705C51.2884 90.8069 51.177 90.8309 51.0127 90.8426C50.5162 90.8777 50.2123 90.8938 50.1008 90.8909C49.989 90.8845 49.9114 90.8523 49.8678 90.7943C49.824 90.7328 49.7969 90.6289 49.7865 90.4824L49.6231 88.1732C49.5711 87.4375 49.4579 86.9537 49.2835 86.7219C49.1128 86.4899 48.8541 86.3861 48.5077 86.4107C48.2112 86.4316 47.96 86.5338 47.754 86.7171C47.5515 86.9001 47.4657 87.2095 47.4966 87.6453L47.5766 88.7757C47.6213 89.4079 47.675 89.9893 47.7376 90.5197L48.3323 90.4776C48.3818 90.5674 48.4103 90.6659 48.4179 90.7731C48.4247 90.8695 48.4097 90.937 48.3729 90.9755C48.3362 91.014 48.2624 91.0372 48.1517 91.045L46.0461 91.194C45.9916 91.0829 45.9608 90.9774 45.9537 90.8774C45.9482 90.7988 45.9638 90.7403 46.0006 90.7018C46.0371 90.6597 46.1 90.6355 46.1893 90.6292L46.5589 90.6031C46.5473 90.0331 46.5179 89.4142 46.4706 88.7463L46.2678 85.8799ZM55.6859 90.0812C55.3983 90.2774 55.0988 90.4332 54.7874 90.5486C54.4794 90.6601 54.1736 90.7266 53.87 90.7481C53.3879 90.7822 53.0209 90.6951 52.7693 90.4868C52.5174 90.2748 52.3756 89.9457 52.344 89.4992C52.3053 88.9527 52.4704 88.521 52.8393 88.2042C53.2082 87.8873 53.7998 87.7001 54.6141 87.6424L55.4017 87.5867C55.3358 86.9596 55.2138 86.5285 55.0356 86.2934C54.861 86.0581 54.5719 85.9547 54.1683 85.9832C53.954 85.9984 53.7501 86.0344 53.5567 86.0911C53.4678 86.3056 53.4131 86.4208 53.3927 86.4366C53.3758 86.4521 53.2763 86.4915 53.0941 86.5546C52.9117 86.6142 52.7807 86.6145 52.7011 86.5555C52.6249 86.4927 52.5413 86.3766 52.4503 86.2071C52.3629 86.0374 52.3154 85.899 52.3079 85.7918C52.3028 85.7204 52.3275 85.663 52.3818 85.6196C52.4398 85.5761 52.6775 85.5108 53.0949 85.4238C53.5123 85.3368 53.9586 85.2766 54.4336 85.2429C55.0658 85.1982 55.5396 85.2742 55.8551 85.4708C56.1741 85.6672 56.3542 86.0565 56.3954 86.6387L56.5122 88.2889C56.5662 89.0533 56.6314 89.5171 56.7075 89.6804C56.7873 89.8435 56.9028 89.9035 57.0541 89.8605C57.1025 89.9361 57.1294 90.0114 57.1347 90.0864C57.1433 90.2078 57.0731 90.3061 56.924 90.3813C56.7786 90.4562 56.5772 90.5027 56.3201 90.5209C56.1951 90.5298 56.0975 90.5205 56.0274 90.4932C55.961 90.4691 55.8472 90.3318 55.6859 90.0812ZM55.4506 88.2779C55.1397 88.246 54.8199 88.2417 54.4913 88.265C54.0841 88.2938 53.8031 88.3819 53.6484 88.5292C53.4973 88.6763 53.4321 88.8963 53.4528 89.1892C53.473 89.4749 53.5598 89.686 53.713 89.8223C53.8696 89.9548 54.0996 90.0103 54.4032 89.9889C54.639 89.9722 54.8554 89.9102 55.0524 89.8029C55.2494 89.6957 55.3742 89.5576 55.4269 89.3887C55.4829 89.2161 55.4983 88.9511 55.473 88.594L55.4506 88.2779ZM61.5109 85.4314L61.2216 85.4519C61.1714 85.3514 61.1425 85.2475 61.1349 85.1404C61.1273 85.0332 61.1417 84.9568 61.1779 84.9112C61.2177 84.8653 61.2841 84.839 61.377 84.8325L62.7807 84.7332C62.8342 84.8299 62.865 84.9354 62.8731 85.0497C62.8809 85.1604 62.863 85.2371 62.8193 85.2796C62.7757 85.3222 62.6967 85.3475 62.5824 85.3556L62.4967 85.3617C62.3901 85.7318 62.1716 86.5513 61.8414 87.8203C61.5148 89.0891 61.2948 89.81 61.1814 89.9831C61.0716 90.156 60.8863 90.2517 60.6255 90.2702C60.2005 90.3002 59.9705 90.2968 59.9356 90.2597C59.9042 90.2225 59.6488 89.6052 59.1692 88.4078C58.6932 87.2103 58.4044 86.502 58.3027 86.283C58.2008 86.0605 58.1179 85.903 58.0539 85.8106C57.9899 85.7182 57.9215 85.6639 57.8485 85.6475C57.7753 85.6275 57.6762 85.622 57.5512 85.6308C57.4967 85.5198 57.4659 85.4143 57.4588 85.3143C57.4512 85.2071 57.5017 85.1336 57.6101 85.0936C57.7221 85.0534 58.0317 85.0153 58.5389 84.9794C58.7604 84.9637 58.9152 84.9707 59.0035 85.0004C59.0917 85.03 59.1605 85.088 59.2096 85.1743C59.2624 85.2603 59.3309 85.4672 59.4151 85.7951C59.5026 86.1192 59.7312 86.7868 60.1006 87.7981C60.4737 88.8091 60.6763 89.3135 60.7085 89.3112C60.7442 89.3087 60.881 88.757 61.119 87.6561C61.3604 86.5513 61.491 85.8098 61.5109 85.4314ZM66.0575 85.0882C65.7003 85.1135 65.4379 85.2613 65.2704 85.5316C65.1026 85.7983 65.029 86.2038 65.0495 86.748L65.6014 86.7089C66.1872 86.6675 66.5847 86.6286 66.7939 86.5923C67.0064 86.5521 67.1269 86.5041 67.1552 86.4482C67.1871 86.3921 67.1979 86.2909 67.1876 86.1444C67.1625 85.7908 67.0537 85.5203 66.8609 85.3329C66.6682 85.1455 66.4004 85.064 66.0575 85.0882ZM66.2103 84.3559C66.8746 84.3089 67.3787 84.4312 67.7224 84.7228C68.0661 85.0143 68.2634 85.5209 68.3145 86.2424C68.337 86.5603 68.2955 86.7858 68.19 86.9189C68.0846 87.052 67.839 87.1322 67.4532 87.1594L65.0851 87.327C65.1335 87.9087 65.2819 88.3577 65.5304 88.6739C65.7825 88.9899 66.1961 89.1276 66.7711 89.0869C67.3069 89.049 67.7953 88.8744 68.2364 88.5632C68.4008 88.706 68.4891 88.863 68.5013 89.0345C68.5182 89.2738 68.3318 89.4557 67.9422 89.5802C67.5561 89.7044 67.1148 89.7841 66.6183 89.8192C65.704 89.8839 65.0331 89.7376 64.6058 89.3801C64.1818 89.0188 63.9373 88.3792 63.8723 87.4613C63.8084 86.5576 63.9812 85.8292 64.3908 85.2762C64.8037 84.7193 65.4102 84.4125 66.2103 84.3559ZM17.766 102.781C17.8719 104.278 17.9523 105.236 18.0071 105.656L18.575 105.615C18.628 105.705 18.6583 105.803 18.6659 105.911C18.6727 106.007 18.6577 106.074 18.621 106.113C18.5842 106.151 18.5087 106.175 18.3944 106.183L16.5031 106.317C16.4522 106.205 16.4231 106.1 16.4161 106C16.4105 105.921 16.4243 105.863 16.4575 105.824C16.494 105.782 16.5587 105.758 16.6516 105.752L16.8337 105.739C16.8216 105.212 16.7822 104.477 16.7155 103.534C16.6634 102.798 16.5502 102.314 16.3759 102.083C16.2051 101.851 15.9465 101.747 15.6 101.771C15.375 101.787 15.1595 101.887 14.9535 102.07C14.751 102.253 14.6652 102.563 14.6961 102.998L14.776 104.129C14.8208 104.761 14.8745 105.342 14.9371 105.873L15.3711 105.842C15.4205 105.932 15.449 106.03 15.4566 106.138C15.4634 106.234 15.4485 106.302 15.4117 106.34C15.3749 106.379 15.3012 106.402 15.1905 106.41L13.2456 106.547C13.1911 106.436 13.1603 106.331 13.1532 106.231C13.1477 106.152 13.1633 106.093 13.2 106.055C13.2365 106.013 13.2994 105.989 13.3887 105.982L13.7584 105.956C13.7468 105.386 13.7118 104.689 13.6534 103.864C13.5789 102.81 13.4946 102.202 13.4006 102.04C13.3066 101.878 13.1435 101.805 12.9113 101.822C12.8578 101.725 12.8272 101.623 12.8197 101.516C12.8128 101.419 12.846 101.356 12.9193 101.326C12.9923 101.292 13.4635 101.23 14.333 101.14C14.3661 101.302 14.381 101.513 14.3777 101.772C14.7147 101.511 15.0417 101.314 15.3589 101.18C15.6797 101.046 15.9794 100.969 16.258 100.949C16.6116 100.924 16.8875 100.968 17.0856 101.079C17.2835 101.187 17.4231 101.334 17.5044 101.518C17.8104 101.278 18.1204 101.092 18.4342 100.962C18.7514 100.829 19.0458 100.752 19.3172 100.733C19.7566 100.702 20.1037 100.789 20.3587 100.993C20.617 101.194 20.768 101.603 20.8117 102.221C20.9477 104.143 21.0465 105.159 21.1082 105.269C21.1734 105.38 21.3059 105.426 21.5057 105.408C21.5523 105.509 21.5792 105.611 21.5866 105.715C21.5934 105.811 21.5676 105.878 21.5091 105.914C21.4507 105.95 21.3393 105.974 21.175 105.986C20.6785 106.021 20.3746 106.037 20.2631 106.034C20.1513 106.028 20.0737 105.996 20.0301 105.938C19.9862 105.876 19.9592 105.772 19.9488 105.626L19.7854 103.317C19.7334 102.581 19.6202 102.097 19.4458 101.865C19.275 101.633 19.0164 101.53 18.67 101.554C18.4449 101.57 18.2294 101.67 18.0234 101.853C17.821 102.036 17.7352 102.345 17.766 102.781ZM24.6643 101.049C24.3072 101.075 24.0448 101.222 23.8773 101.493C23.7095 101.759 23.6358 102.165 23.6564 102.709L24.2082 102.67C24.794 102.629 25.1915 102.59 25.4007 102.553C25.6133 102.513 25.7337 102.465 25.7621 102.409C25.794 102.353 25.8048 102.252 25.7944 102.105C25.7694 101.752 25.6605 101.481 25.4678 101.294C25.275 101.107 25.0072 101.025 24.6643 101.049ZM24.8171 100.317C25.4815 100.27 25.9855 100.392 26.3292 100.684C26.6729 100.975 26.8703 101.482 26.9213 102.203C26.9438 102.521 26.9023 102.747 26.7969 102.88C26.6914 103.013 26.4458 103.093 26.0601 103.121L23.692 103.288C23.7403 103.87 23.8887 104.319 24.1373 104.635C24.3894 104.951 24.8029 105.089 25.378 105.048C25.9138 105.01 26.4022 104.836 26.8432 104.524C27.0077 104.667 27.096 104.824 27.1081 104.996C27.125 105.235 26.9387 105.417 26.549 105.541C26.163 105.666 25.7217 105.745 25.2252 105.78C24.3108 105.845 23.64 105.699 23.2126 105.341C22.7886 104.98 22.5441 104.34 22.4792 103.422C22.4153 102.519 22.5881 101.79 22.9977 101.237C23.4106 100.68 24.017 100.374 24.8171 100.317ZM32.8307 101.715C32.9366 103.212 33.017 104.17 33.0718 104.59L33.6397 104.55C33.6927 104.639 33.723 104.738 33.7306 104.845C33.7374 104.941 33.7225 105.009 33.6857 105.047C33.6489 105.086 33.5734 105.109 33.4591 105.117L31.5678 105.251C31.5169 105.14 31.4879 105.034 31.4808 104.934C31.4752 104.855 31.489 104.797 31.5222 104.759C31.5587 104.717 31.6234 104.692 31.7163 104.686L31.8985 104.673C31.8863 104.146 31.8469 103.411 31.7802 102.468C31.7281 101.732 31.6149 101.249 31.4406 101.017C31.2698 100.785 31.0112 100.681 30.6647 100.706C30.4397 100.721 30.2242 100.821 30.0182 101.004C29.8158 101.187 29.73 101.497 29.7608 101.933L29.8408 103.063C29.8855 103.695 29.9392 104.277 30.0018 104.807L30.4358 104.776C30.4852 104.866 30.5138 104.965 30.5213 105.072C30.5282 105.168 30.5132 105.236 30.4764 105.274C30.4397 105.313 30.3659 105.336 30.2552 105.344L28.3103 105.481C28.2558 105.37 28.225 105.265 28.218 105.165C28.2124 105.086 28.228 105.028 28.2648 104.989C28.3013 104.947 28.3642 104.923 28.4535 104.917L28.8231 104.89C28.8115 104.32 28.7765 103.623 28.7182 102.798C28.6436 101.744 28.5593 101.136 28.4653 100.974C28.3713 100.812 28.2082 100.739 27.976 100.756C27.9225 100.659 27.892 100.557 27.8844 100.45C27.8776 100.354 27.9108 100.29 27.984 100.26C28.057 100.226 28.5282 100.164 29.3977 100.074C29.4308 100.236 29.4457 100.447 29.4425 100.706C29.7794 100.445 30.1065 100.248 30.4237 100.114C30.7444 99.9802 31.0441 99.9033 31.3227 99.8836C31.6763 99.8586 31.9522 99.9019 32.1503 100.014C32.3482 100.122 32.4878 100.268 32.5691 100.452C32.8751 100.212 33.1851 100.026 33.499 99.8966C33.8162 99.7629 34.1105 99.6864 34.382 99.6672C34.8213 99.6361 35.1684 99.7228 35.4234 99.9273C35.6817 100.128 35.8327 100.537 35.8764 101.155C36.0124 103.077 36.1112 104.093 36.1729 104.203C36.2381 104.314 36.3706 104.36 36.5704 104.342C36.617 104.443 36.644 104.545 36.6513 104.649C36.6581 104.745 36.6323 104.812 36.5739 104.848C36.5154 104.885 36.404 104.909 36.2397 104.92C35.7433 104.955 35.4393 104.972 35.3278 104.969C35.2161 104.962 35.1384 104.93 35.0948 104.872C35.051 104.811 35.0239 104.707 35.0135 104.56L34.8501 102.251C34.7981 101.515 34.6849 101.031 34.5105 100.8C34.3398 100.568 34.0811 100.464 33.7347 100.488C33.5097 100.504 33.2941 100.604 33.0881 100.787C32.8857 100.97 32.7999 101.28 32.8307 101.715ZM40.1339 104.031C40.5411 104.002 40.8249 103.828 40.9853 103.508C41.1457 103.188 41.2033 102.708 41.1581 102.068C41.106 101.333 40.9727 100.793 40.7581 100.449C40.5471 100.105 40.213 99.9492 39.7558 99.9816C39.3487 100.01 39.0649 100.185 38.9044 100.505C38.744 100.825 38.6865 101.306 38.732 101.949C38.7838 102.682 38.9152 103.22 39.1262 103.564C39.3408 103.908 39.6767 104.063 40.1339 104.031ZM39.9811 104.763C39.206 104.818 38.6218 104.653 38.2284 104.268C37.835 103.883 37.609 103.276 37.5504 102.448C37.4829 101.494 37.6501 100.737 38.052 100.178C38.4576 99.6175 39.0764 99.3081 39.9086 99.2492C40.6837 99.1944 41.268 99.3595 41.6613 99.7445C42.0547 100.129 42.2809 100.738 42.3397 101.57C42.407 102.52 42.2378 103.275 41.8323 103.835C41.4304 104.395 40.8133 104.704 39.9811 104.763ZM43.2277 99.3644C43.2209 99.268 43.2541 99.2046 43.3273 99.1743C43.4003 99.1404 43.8716 99.0784 44.7411 98.9881C44.7741 99.1509 44.7897 99.3706 44.7877 99.6471C45.1652 99.3512 45.5325 99.1385 45.8894 99.0092C46.25 98.8796 46.5803 98.8041 46.8803 98.7829C46.9804 98.7758 47.0473 98.7837 47.0812 98.8064C47.1185 98.8253 47.1399 98.874 47.1454 98.9526C47.1563 99.1062 47.1429 99.2723 47.1053 99.4508C47.0712 99.6291 47.0219 99.7439 46.9573 99.7951C46.8928 99.8464 46.7828 99.8901 46.6274 99.9262C46.472 99.9623 46.3795 99.9742 46.3499 99.962C46.3239 99.9494 46.2366 99.8569 46.088 99.6843C45.7701 99.7068 45.5201 99.8268 45.3381 100.044C45.1558 100.258 45.0862 100.671 45.1295 101.281C45.2106 102.378 45.2825 103.191 45.3452 103.721L46.1006 103.668C46.15 103.758 46.1785 103.856 46.1861 103.963C46.1929 104.06 46.178 104.127 46.1412 104.166C46.1045 104.204 46.0307 104.228 45.92 104.235L43.6537 104.396C43.5992 104.285 43.5684 104.179 43.5613 104.079C43.5557 104.001 43.5713 103.942 43.6081 103.904C43.6446 103.862 43.7075 103.837 43.7968 103.831L44.1665 103.805C44.1574 103.271 44.1224 102.573 44.0615 101.712C43.987 100.659 43.9027 100.051 43.8086 99.8887C43.7146 99.7266 43.5515 99.6538 43.3193 99.6702C43.2658 99.5735 43.2353 99.4716 43.2277 99.3644ZM51.4397 103.414C51.152 103.61 50.8525 103.766 50.5412 103.882C50.2332 103.993 49.9274 104.06 49.6238 104.081C49.1416 104.115 48.7747 104.028 48.523 103.82C48.2711 103.608 48.1294 103.279 48.0978 102.832C48.0591 102.286 48.2242 101.854 48.5931 101.537C48.9619 101.22 49.5535 101.033 50.3679 100.975L51.1555 100.92C51.0896 100.293 50.9676 99.8614 50.7894 99.6263C50.6148 99.391 50.3257 99.2876 49.9221 99.3162C49.7078 99.3313 49.5039 99.3673 49.3105 99.424C49.2216 99.6385 49.1669 99.7537 49.1465 99.7695C49.1296 99.785 49.0301 99.8244 48.8479 99.8875C48.6655 99.9471 48.5344 99.9474 48.4549 99.8884C48.3787 99.8256 48.2951 99.7095 48.2041 99.54C48.1167 99.3703 48.0692 99.2319 48.0616 99.1247C48.0566 99.0533 48.0812 98.9959 48.1356 98.9526C48.1935 98.909 48.4312 98.8437 48.8487 98.7567C49.2661 98.6698 49.7123 98.6095 50.1874 98.5759C50.8196 98.5311 51.2934 98.6071 51.6089 98.8038C51.9279 99.0002 52.108 99.3895 52.1492 99.9717L52.2659 101.622C52.32 102.386 52.3851 102.85 52.4613 103.013C52.541 103.176 52.6566 103.236 52.8079 103.193C52.8563 103.269 52.8832 103.344 52.8885 103.419C52.8971 103.541 52.8268 103.639 52.6778 103.714C52.5323 103.789 52.331 103.836 52.0738 103.854C51.9488 103.863 51.8513 103.853 51.7811 103.826C51.7148 103.802 51.601 103.665 51.4397 103.414ZM51.2044 101.611C50.8934 101.579 50.5736 101.575 50.245 101.598C49.8379 101.627 49.5569 101.715 49.4022 101.862C49.2511 102.009 49.1859 102.229 49.2066 102.522C49.2268 102.808 49.3135 103.019 49.4668 103.155C49.6233 103.288 49.8534 103.343 50.157 103.322C50.3927 103.305 50.6091 103.243 50.8061 103.136C51.0032 103.029 51.128 102.891 51.1807 102.722C51.2367 102.549 51.252 102.284 51.2268 101.927L51.2044 101.611ZM55.2461 100.905L55.3739 102.635C55.4986 102.723 55.654 102.789 55.8403 102.834C56.03 102.878 56.2374 102.892 56.4625 102.876C56.9125 102.844 57.2219 102.677 57.3908 102.374C57.5629 102.067 57.6226 101.541 57.5698 100.794C57.5182 100.116 57.3855 99.6102 57.1717 99.2771C56.9576 98.9404 56.6452 98.7867 56.2344 98.8157C55.9666 98.8347 55.7526 98.9054 55.5926 99.028C55.4323 99.1471 55.3217 99.3093 55.2608 99.5146C55.2035 99.7197 55.1986 100.183 55.2461 100.905ZM54.124 100.57C54.0171 99.0587 53.9419 98.0984 53.8986 97.6887C53.8586 97.2751 53.8145 97.0072 53.7663 96.885C53.7218 96.7625 53.6536 96.6866 53.5618 96.6572C53.4735 96.6275 53.3615 96.6175 53.2258 96.6271C53.1715 96.5196 53.1406 96.4123 53.133 96.3052C53.1252 96.1945 53.1649 96.1217 53.2522 96.0868C53.3395 96.0519 53.6331 96.0167 54.1332 95.9814C54.4153 95.9614 54.6074 95.9622 54.7095 95.9837C54.8113 96.0016 54.8719 96.0475 54.8915 96.1215C54.9109 96.192 54.9269 96.3165 54.9395 96.4951L55.0176 98.6649C55.2318 98.4954 55.4788 98.3594 55.7588 98.2571C56.042 98.1509 56.3622 98.0851 56.7194 98.0599C57.2873 98.0197 57.7524 98.1752 58.1147 98.5265C58.4803 98.874 58.6943 99.4888 58.7567 100.371C58.8275 101.371 58.6598 102.146 58.2535 102.695C57.8506 103.241 57.2258 103.543 56.3793 103.603C56.0864 103.624 55.8168 103.618 55.5703 103.585C55.3275 103.552 55.1359 103.508 54.9957 103.453L54.8413 103.631C54.602 103.648 54.4501 103.632 54.3856 103.583C54.3246 103.533 54.289 103.435 54.2786 103.289C54.2698 103.164 54.2537 102.86 54.2303 102.377C54.2104 101.893 54.175 101.291 54.124 100.57ZM60.3812 100.127C60.2743 98.616 60.1992 97.6557 60.1558 97.246C60.1122 96.8327 60.0664 96.5649 60.0182 96.4427C59.9737 96.3202 59.9072 96.2441 59.819 96.2145C59.7307 96.1848 59.617 96.1749 59.4777 96.1848C59.4234 96.0773 59.3925 95.97 59.3849 95.8629C59.3771 95.7521 59.4168 95.6793 59.5041 95.6444C59.5949 95.6093 59.8886 95.5742 60.385 95.539C60.6672 95.5191 60.8593 95.5198 60.9614 95.5413C61.0631 95.5593 61.1238 95.6052 61.1434 95.6792C61.1628 95.7496 61.1787 95.8742 61.1914 96.0527L61.5087 100.537C61.5729 101.394 61.635 102.07 61.6952 102.565L62.2899 102.523C62.3393 102.612 62.3678 102.711 62.3754 102.818C62.3822 102.915 62.3673 102.982 62.3305 103.02C62.2937 103.059 62.22 103.082 62.1093 103.09L59.9769 103.241C59.9224 103.13 59.8916 103.024 59.8845 102.924C59.8789 102.846 59.8945 102.787 59.9313 102.749C59.9678 102.707 60.0307 102.682 60.12 102.676L60.5165 102.648C60.5099 102.15 60.4648 101.309 60.3812 100.127ZM65.3307 98.1722C64.9735 98.1974 64.7111 98.3452 64.5436 98.6155C64.3758 98.8823 64.3022 99.2877 64.3228 99.8319L64.8746 99.7929C65.4604 99.7514 65.8579 99.7125 66.0671 99.6762C66.2796 99.636 66.4001 99.588 66.4284 99.5322C66.4604 99.476 66.4711 99.3748 66.4608 99.2283C66.4358 98.8747 66.3269 98.6042 66.1341 98.4168C65.9414 98.2295 65.6736 98.1479 65.3307 98.1722ZM65.4835 97.4398C66.1478 97.3928 66.6519 97.5151 66.9956 97.8067C67.3393 98.0982 67.5366 98.6048 67.5877 99.3263C67.6102 99.6442 67.5687 99.8697 67.4632 100.003C67.3578 100.136 67.1122 100.216 66.7264 100.243L64.3583 100.411C64.4067 100.993 64.5551 101.442 64.8036 101.758C65.0557 102.074 65.4693 102.212 66.0444 102.171C66.5801 102.133 67.0685 101.958 67.5096 101.647C67.674 101.79 67.7623 101.947 67.7745 102.118C67.7914 102.358 67.605 102.54 67.2154 102.664C66.8293 102.788 66.388 102.868 65.8916 102.903C64.9772 102.968 64.3063 102.821 63.879 102.464C63.455 102.103 63.2105 101.463 63.1455 100.545C63.0816 99.6415 63.2544 98.9131 63.664 98.3601C64.0769 97.8032 64.6834 97.4964 65.4835 97.4398ZM15.744 119.485C15.8825 119.565 16.043 119.627 16.2257 119.671C16.4083 119.716 16.6086 119.73 16.8264 119.715C17.3015 119.681 17.6199 119.513 17.7815 119.211C17.9432 118.909 17.9989 118.403 17.9487 117.692C17.8938 116.917 17.7587 116.377 17.5433 116.073C17.3313 115.765 17.0127 115.626 16.5877 115.656C16.377 115.671 16.187 115.725 16.0178 115.82C15.8522 115.914 15.7299 116.063 15.6509 116.266C15.5752 116.465 15.5498 116.74 15.5746 117.09L15.744 119.485ZM15.155 115.116C15.187 115.265 15.1981 115.422 15.1883 115.588C15.441 115.405 15.7156 115.253 16.0121 115.131C16.3084 115.006 16.6459 114.93 17.0245 114.903C17.6745 114.857 18.1711 115.002 18.5143 115.336C18.8575 115.671 19.0585 116.255 19.1174 117.087C19.1937 118.165 19.0341 118.979 18.6385 119.527C18.2466 120.076 17.6291 120.38 16.7861 120.439C16.5576 120.455 16.3638 120.457 16.2049 120.443C16.0459 120.429 15.9135 120.41 15.8077 120.385C15.8595 121.067 15.9168 121.673 15.9794 122.203L16.6813 122.154C16.7307 122.243 16.7592 122.342 16.7668 122.449C16.7736 122.546 16.7587 122.613 16.7219 122.652C16.6851 122.69 16.6114 122.713 16.5007 122.721L14.2879 122.878C14.2334 122.767 14.2026 122.661 14.1955 122.561C14.19 122.482 14.2055 122.422 14.242 122.38C14.2787 122.342 14.3418 122.319 14.4311 122.313L14.8007 122.287C14.7917 121.752 14.7549 121.03 14.6905 120.119L14.529 117.837C14.4544 116.783 14.3701 116.175 14.2761 116.013C14.1821 115.851 14.019 115.778 13.7868 115.795C13.7333 115.698 13.7028 115.596 13.6952 115.489C13.6884 115.392 13.7216 115.329 13.7948 115.299C13.8678 115.265 14.3212 115.204 15.155 115.116ZM20.5787 114.765C20.56 114.501 20.5328 114.219 20.4973 113.92C20.4651 113.617 20.425 113.405 20.3768 113.282C20.3323 113.16 20.2641 113.084 20.1723 113.054C20.084 113.025 19.972 113.015 19.8363 113.024C19.782 112.917 19.7511 112.81 19.7435 112.703C19.7357 112.592 19.7754 112.519 19.8627 112.484C19.95 112.449 20.2436 112.414 20.7437 112.379C21.0258 112.359 21.2179 112.359 21.32 112.381C21.4218 112.399 21.4824 112.445 21.502 112.519C21.5214 112.589 21.5374 112.714 21.55 112.892L21.7103 115.159C21.9214 114.997 22.1802 114.849 22.4867 114.716C22.7965 114.579 23.1229 114.499 23.4657 114.475C23.9051 114.443 24.2522 114.53 24.5072 114.735C24.7655 114.935 24.9165 115.345 24.9602 115.963C25.0962 117.884 25.195 118.9 25.2567 119.011C25.3219 119.121 25.4544 119.167 25.6542 119.15C25.7008 119.25 25.7278 119.353 25.7351 119.456C25.7419 119.553 25.7161 119.619 25.6577 119.655C25.5992 119.692 25.4878 119.716 25.3235 119.728C24.8271 119.763 24.5231 119.779 24.4116 119.776C24.2999 119.77 24.2222 119.737 24.1786 119.679C24.1348 119.618 24.1077 119.514 24.0973 119.367L23.9339 117.058C23.8819 116.322 23.7687 115.839 23.5943 115.607C23.4236 115.375 23.1649 115.271 22.8185 115.296C22.522 115.317 22.2708 115.419 22.0648 115.602C21.8624 115.785 21.7766 116.095 21.8074 116.53L21.8874 117.661C21.9321 118.293 21.9858 118.874 22.0484 119.405L22.6431 119.363C22.6926 119.452 22.7211 119.551 22.7287 119.658C22.7355 119.755 22.7205 119.822 22.6838 119.861C22.647 119.899 22.5732 119.922 22.4625 119.93L20.3569 120.079C20.3024 119.968 20.2716 119.862 20.2646 119.762C20.259 119.684 20.2746 119.625 20.3114 119.587C20.3479 119.545 20.4108 119.521 20.5001 119.514L20.8697 119.488C20.8581 118.918 20.8287 118.299 20.7815 117.631L20.5787 114.765ZM29.2123 118.839C29.6195 118.81 29.9033 118.635 30.0637 118.315C30.2242 117.995 30.2818 117.516 30.2365 116.876C30.1845 116.14 30.0511 115.601 29.8366 115.257C29.6256 114.913 29.2915 114.757 28.8343 114.789C28.4271 114.818 28.1433 114.993 27.9829 115.313C27.8224 115.633 27.765 116.114 27.8104 116.757C27.8623 117.489 27.9937 118.027 28.2047 118.371C28.4192 118.715 28.7551 118.871 29.2123 118.839ZM29.0595 119.571C28.2844 119.626 27.7002 119.461 27.3068 119.076C26.9134 118.691 26.6874 118.084 26.6288 117.255C26.5613 116.302 26.7285 115.545 27.1305 114.985C27.536 114.425 28.1548 114.116 28.9871 114.057C29.7622 114.002 30.3464 114.167 30.7398 114.552C31.1332 114.937 31.3593 115.546 31.4182 116.378C31.4854 117.328 31.3163 118.083 30.9108 118.643C30.5088 119.203 29.8917 119.512 29.0595 119.571ZM32.5106 113.942L32.875 113.916L33.2013 112.364C33.3546 112.4 33.4853 112.446 33.5934 112.503C33.7051 112.56 33.7891 112.631 33.8455 112.717C33.9015 112.799 33.9479 113.099 33.9845 113.617L34.0001 113.837L35.7628 113.712C35.814 113.827 35.8442 113.951 35.8536 114.083C35.8609 114.186 35.8462 114.257 35.8094 114.296C35.7724 114.331 35.695 114.352 35.5771 114.361L34.0448 114.469L34.2241 117.003C34.2668 117.607 34.3504 118.001 34.4747 118.186C34.5988 118.368 34.772 118.456 34.9942 118.451C35.22 118.446 35.4898 118.353 35.8038 118.173C35.8907 118.285 35.9391 118.411 35.9489 118.55C35.9623 118.74 35.8659 118.874 35.6597 118.953C35.4571 119.032 35.1308 119.088 34.6807 119.119C34.1914 119.154 33.8271 119.079 33.588 118.895C33.3524 118.711 33.2152 118.345 33.1766 117.799L33.0875 116.54C33.039 115.854 32.9723 115.191 32.8875 114.551L32.3625 114.588C32.3105 114.463 32.2803 114.339 32.2717 114.218C32.2653 114.128 32.2804 114.063 32.317 114.021C32.3532 113.975 32.4178 113.949 32.5106 113.942ZM39.4551 118.114C39.8623 118.085 40.1461 117.911 40.3065 117.591C40.467 117.271 40.5246 116.791 40.4793 116.152C40.4273 115.416 40.2939 114.876 40.0794 114.532C39.8684 114.188 39.5343 114.032 39.0771 114.065C38.6699 114.093 38.3861 114.268 38.2257 114.588C38.0652 114.908 38.0078 115.389 38.0532 116.032C38.105 116.765 38.2364 117.303 38.4475 117.647C38.662 117.991 38.9979 118.146 39.4551 118.114ZM39.3023 118.846C38.5272 118.901 37.943 118.736 37.5496 118.351C37.1562 117.966 36.9302 117.359 36.8716 116.531C36.8041 115.577 36.9713 114.82 37.3733 114.261C37.7788 113.701 38.3976 113.391 39.2299 113.332C40.005 113.277 40.5892 113.443 40.9826 113.827C41.376 114.212 41.6021 114.821 41.661 115.653C41.7282 116.603 41.559 117.358 41.1535 117.918C40.7516 118.478 40.1345 118.787 39.3023 118.846ZM44.8549 112.934C45.3264 112.901 45.7029 112.921 45.9845 112.994C46.2694 113.064 46.4191 113.201 46.4335 113.404C46.4484 113.615 46.3739 113.83 46.21 114.05C45.4869 113.774 44.9218 113.651 44.5146 113.68C44.2395 113.699 44.036 113.766 43.9041 113.879C43.7757 113.992 43.7184 114.147 43.7323 114.344C43.7467 114.547 43.8354 114.71 43.9983 114.831C44.1648 114.952 44.4955 115.085 44.9903 115.229C45.6127 115.401 46.0607 115.593 46.3343 115.807C46.6076 116.018 46.7586 116.325 46.7871 116.728C46.8233 117.239 46.6545 117.644 46.2808 117.943C45.9071 118.243 45.3577 118.418 44.6327 118.469C44.079 118.508 43.653 118.499 43.3545 118.441C43.0597 118.383 42.9034 118.229 42.8857 117.979C42.8728 117.797 42.9298 117.613 43.0567 117.428C43.6877 117.671 44.2658 117.774 44.7908 117.736C45.1194 117.713 45.3603 117.642 45.5134 117.524C45.6666 117.405 45.7348 117.228 45.7181 116.992C45.7002 116.739 45.5628 116.547 45.306 116.418C45.0525 116.286 44.6578 116.136 44.1219 115.969C43.5937 115.809 43.2236 115.627 43.0118 115.423C42.7999 115.219 42.6821 114.949 42.6584 114.614C42.6263 114.16 42.795 113.78 43.1646 113.474C43.5343 113.168 44.0977 112.988 44.8549 112.934ZM49.7606 111.273C49.4141 111.298 49.1442 111.339 48.9508 111.395C48.8654 111.61 48.8125 111.725 48.7921 111.74C48.7717 111.756 48.6704 111.796 48.4882 111.859C48.3093 111.918 48.1801 111.918 48.1005 111.859C48.0207 111.797 47.9352 111.679 47.844 111.506C47.7563 111.333 47.7087 111.192 47.7011 111.085C47.6961 111.014 47.7207 110.956 47.7751 110.913C47.8331 110.87 48.0707 110.804 48.4882 110.717C48.9056 110.63 49.4161 110.565 50.0198 110.523C50.6413 110.479 51.1729 110.56 51.6146 110.765C52.0596 110.967 52.3035 111.37 52.3462 111.974C52.3909 112.606 52.1056 113.215 51.4901 113.8C50.8779 114.382 50.5024 114.807 50.3634 115.075C50.2278 115.34 50.1697 115.609 50.1891 115.885L50.202 116.067C49.9491 116.146 49.678 116.195 49.3887 116.216C49.1387 116.233 49.0045 116.112 48.986 115.851C48.9709 115.637 49.0339 115.387 49.1752 115.1C49.3198 114.81 49.68 114.397 50.2559 113.861C50.8318 113.324 51.103 112.819 51.0694 112.344C51.0413 111.947 50.9046 111.664 50.6593 111.495C50.4173 111.322 50.1178 111.248 49.7606 111.273ZM50.0166 118.088C49.7451 118.107 49.5414 118.07 49.4055 117.975C49.2729 117.877 49.1996 117.728 49.1854 117.528C49.1713 117.328 49.23 117.169 49.3618 117.052C49.4935 116.935 49.6826 116.868 49.929 116.851C50.2005 116.831 50.4043 116.871 50.5404 116.969C50.6766 117.067 50.7518 117.216 50.7659 117.416C50.7801 117.616 50.7213 117.775 50.5896 117.892C50.4576 118.005 50.2666 118.071 50.0166 118.088ZM61.0429 112.532C60.9086 113.069 60.642 114.197 60.2431 115.916C59.8478 117.635 59.5359 118.655 59.3073 118.976C59.0824 119.297 58.8157 119.512 58.5075 119.62C58.2028 119.727 57.8505 119.795 57.4504 119.824C57.0611 119.851 56.8055 119.841 56.6836 119.792C56.5652 119.743 56.5006 119.642 56.4897 119.488C56.4763 119.299 56.5249 119.123 56.6355 118.961C57.3166 119.049 57.8148 119.064 58.1302 119.006C58.4458 118.951 58.7259 118.42 58.9705 117.412C58.6733 117.422 58.5115 117.419 58.4853 117.403C58.459 117.387 58.2289 116.798 57.795 115.637C57.361 114.476 57.0902 113.768 56.9824 113.514C56.878 113.256 56.7955 113.078 56.7348 112.982C56.6775 112.882 56.6088 112.824 56.5287 112.808C56.4483 112.789 56.3457 112.784 56.2206 112.792C56.1659 112.678 56.1349 112.571 56.1279 112.471C56.1193 112.349 56.1749 112.273 56.2949 112.243C56.4145 112.21 56.6601 112.18 57.0316 112.154C57.3173 112.133 57.5115 112.138 57.614 112.166C57.7163 112.191 57.7904 112.249 57.8362 112.339C57.8818 112.425 57.9586 112.673 58.0665 113.082C58.1779 113.49 58.3965 114.17 58.7222 115.119C59.0511 116.065 59.2317 116.537 59.2638 116.535C59.296 116.532 59.4192 115.966 59.6335 114.834C59.8475 113.699 59.9637 112.957 59.9821 112.607L59.6928 112.628C59.6426 112.527 59.6137 112.423 59.6061 112.316C59.5985 112.209 59.6129 112.132 59.6491 112.087C59.689 112.041 59.7553 112.015 59.8482 112.008L61.359 111.901C61.4125 111.998 61.4433 112.103 61.4514 112.218C61.4593 112.328 61.4414 112.405 61.3977 112.448C61.354 112.49 61.2751 112.516 61.1608 112.524L61.0429 112.532ZM64.9389 116.311C65.3461 116.282 65.6299 116.108 65.7903 115.788C65.9507 115.468 66.0083 114.988 65.9631 114.349C65.911 113.613 65.7777 113.073 65.5631 112.729C65.3521 112.385 65.018 112.229 64.5608 112.262C64.1537 112.29 63.8698 112.465 63.7094 112.785C63.549 113.105 63.4915 113.586 63.537 114.229C63.5888 114.962 63.7202 115.5 63.9312 115.844C64.1458 116.188 64.4817 116.343 64.9389 116.311ZM64.7861 117.043C64.011 117.098 63.4268 116.933 63.0334 116.548C62.64 116.163 62.414 115.556 62.3553 114.728C62.2879 113.774 62.4551 113.017 62.857 112.458C63.2625 111.898 63.8814 111.588 64.7136 111.529C65.4887 111.474 66.0729 111.64 66.4663 112.024C66.8597 112.409 67.0859 113.018 67.1447 113.85C67.212 114.8 67.0428 115.555 66.6373 116.115C66.2354 116.675 65.6183 116.984 64.7861 117.043ZM72.796 114.204C72.8468 114.922 72.9066 115.361 72.9754 115.522C73.0442 115.682 73.1636 115.747 73.3338 115.717C73.3827 115.8 73.4101 115.882 73.4159 115.964C73.4253 116.096 73.3307 116.205 73.1321 116.291C72.9336 116.377 72.7379 116.427 72.545 116.44C72.42 116.449 72.3272 116.431 72.2665 116.385C72.2058 116.339 72.1069 116.209 71.9698 115.997C71.6957 116.181 71.4084 116.332 71.1081 116.451C70.8113 116.569 70.495 116.639 70.1593 116.663C69.7164 116.694 69.3631 116.597 69.0995 116.372C68.8391 116.143 68.6859 115.701 68.6396 115.048C68.5494 113.772 68.4875 113 68.4541 112.729C68.4239 112.455 68.3819 112.268 68.3281 112.167C68.2744 112.067 68.2091 112.007 68.1323 111.987C68.0556 111.968 67.9725 111.961 67.8832 111.967C67.8315 111.896 67.8023 111.813 67.7958 111.72C67.7869 111.595 67.8684 111.504 68.0401 111.445C68.2118 111.386 68.4531 111.345 68.7638 111.323C69.0103 111.306 69.1793 111.31 69.2709 111.336C69.3657 111.358 69.4264 111.404 69.4529 111.474C69.4827 111.54 69.5118 111.773 69.5401 112.173L69.683 114.193C69.7348 114.925 69.849 115.398 70.0257 115.612C70.2059 115.825 70.4407 115.922 70.73 115.901C70.9336 115.887 71.1288 115.83 71.3156 115.731C71.5024 115.631 71.6225 115.502 71.6759 115.344C71.7329 115.186 71.7459 114.887 71.7148 114.448C71.6425 113.426 71.5917 112.784 71.5623 112.52C71.5364 112.256 71.4982 112.071 71.4475 111.963C71.4001 111.851 71.3416 111.785 71.272 111.765C71.2023 111.745 71.1139 111.739 71.0068 111.746C70.955 111.675 70.9259 111.592 70.9193 111.499C70.9105 111.374 70.9955 111.282 71.1744 111.223C71.3568 111.163 71.5855 111.124 71.8606 111.104C72.107 111.087 72.276 111.091 72.3676 111.117C72.4625 111.139 72.5234 111.189 72.5504 111.266C72.581 111.342 72.6104 111.581 72.6387 111.981L72.796 114.204ZM17.5214 133.42C16.6428 133.482 16.0047 133.342 15.6072 133.001C15.2095 132.655 14.979 132.036 14.9158 131.143C14.8458 130.154 15.0265 129.384 15.4577 128.833C15.8887 128.278 16.5829 127.967 17.5401 127.899C18.008 127.866 18.3505 127.887 18.5675 127.961C18.7843 128.032 18.9007 128.155 18.9167 128.33C18.9318 128.544 18.8712 128.753 18.7349 128.956C18.1794 128.716 17.7123 128.609 17.3337 128.635C16.8372 128.671 16.4949 128.855 16.3066 129.187C16.1217 129.516 16.0531 130.018 16.1009 130.693C16.1499 131.386 16.2887 131.902 16.5173 132.242C16.7457 132.577 17.1295 132.726 17.6689 132.688C18.0796 132.659 18.5468 132.488 19.0702 132.174C19.1997 132.33 19.2705 132.494 19.2826 132.665C19.297 132.869 19.1223 133.037 18.7584 133.171C18.3981 133.304 17.9858 133.387 17.5214 133.42ZM23.4943 132.459C23.2067 132.655 22.9072 132.811 22.5959 132.926C22.2879 133.038 21.9821 133.104 21.6785 133.126C21.1963 133.16 20.8293 133.073 20.5777 132.864C20.3258 132.652 20.184 132.323 20.1524 131.877C20.1138 131.33 20.2789 130.899 20.6477 130.582C21.0166 130.265 21.6082 130.078 22.4226 130.02L23.2101 129.964C23.1442 129.337 23.0222 128.906 22.844 128.671C22.6694 128.436 22.3803 128.332 21.9767 128.361C21.7624 128.376 21.5585 128.412 21.3651 128.469C21.2762 128.683 21.2215 128.798 21.2011 128.814C21.1843 128.83 21.0847 128.869 20.9025 128.932C20.7201 128.992 20.5891 128.992 20.5095 128.933C20.4333 128.87 20.3497 128.754 20.2587 128.585C20.1713 128.415 20.1239 128.277 20.1163 128.169C20.1112 128.098 20.1359 128.041 20.1903 127.997C20.2482 127.954 20.4859 127.888 20.9033 127.801C21.3207 127.714 21.767 127.654 22.242 127.621C22.8742 127.576 23.3481 127.652 23.6635 127.848C23.9825 128.045 24.1626 128.434 24.2038 129.016L24.3206 130.666C24.3747 131.431 24.4398 131.895 24.5159 132.058C24.5957 132.221 24.7112 132.281 24.8625 132.238C24.9109 132.314 24.9378 132.389 24.9431 132.464C24.9517 132.585 24.8815 132.684 24.7325 132.759C24.587 132.834 24.3857 132.88 24.1285 132.898C24.0035 132.907 23.9059 132.898 23.8358 132.871C23.7695 132.847 23.6556 132.709 23.4943 132.459ZM23.259 130.655C22.9481 130.624 22.6283 130.619 22.2997 130.643C21.8925 130.671 21.6116 130.759 21.4569 130.907C21.3057 131.054 21.2405 131.274 21.2612 131.567C21.2815 131.852 21.3682 132.064 21.5214 132.2C21.678 132.332 21.9081 132.388 22.2117 132.366C22.4474 132.35 22.6638 132.288 22.8608 132.18C23.0578 132.073 23.1827 131.935 23.2353 131.766C23.2913 131.594 23.3067 131.329 23.2814 130.972L23.259 130.655ZM27.1797 127.933C27.5166 127.673 27.8526 127.475 28.1876 127.34C28.5263 127.205 28.8313 127.127 29.1028 127.108C29.5778 127.075 29.9428 127.16 30.1978 127.365C30.4561 127.565 30.6071 127.975 30.6508 128.592C30.7868 130.514 30.8856 131.53 30.9473 131.641C31.0125 131.751 31.145 131.797 31.3448 131.779C31.3914 131.88 31.4184 131.982 31.4257 132.086C31.4325 132.182 31.4067 132.249 31.3483 132.285C31.2898 132.322 31.1784 132.346 31.0141 132.357C30.5177 132.393 30.2137 132.409 30.1022 132.406C29.9905 132.399 29.9128 132.367 29.8692 132.309C29.8254 132.248 29.7983 132.144 29.7879 131.997L29.6245 129.688C29.5725 128.952 29.4593 128.469 29.2849 128.237C29.1142 128.005 28.8555 127.901 28.5091 127.926C28.2126 127.947 27.9614 128.049 27.7554 128.232C27.553 128.415 27.4672 128.724 27.498 129.16L27.578 130.291C27.6227 130.923 27.6764 131.504 27.739 132.035L28.3338 131.993C28.3832 132.082 28.4117 132.181 28.4193 132.288C28.4261 132.384 28.4111 132.452 28.3744 132.49C28.3376 132.529 28.2639 132.552 28.1531 132.56L26.0476 132.709C25.993 132.598 25.9622 132.492 25.9552 132.392C25.9496 132.314 25.9652 132.255 26.002 132.217C26.0385 132.175 26.1014 132.15 26.1907 132.144L26.5604 132.118C26.5487 131.548 26.5138 130.851 26.4554 130.025C26.3808 128.972 26.2965 128.364 26.2025 128.202C26.1085 128.04 25.9454 127.967 25.7132 127.983C25.6597 127.887 25.6292 127.785 25.6216 127.678C25.6148 127.581 25.648 127.518 25.7212 127.487C25.7942 127.454 26.2654 127.391 27.1349 127.301C27.168 127.464 27.1829 127.675 27.1797 127.933ZM36.9649 131.016C37.1034 131.096 37.2639 131.158 37.4466 131.202C37.6292 131.247 37.8294 131.261 38.0473 131.246C38.5224 131.212 38.8407 131.045 39.0024 130.742C39.1641 130.44 39.2198 129.934 39.1695 129.223C39.1147 128.448 38.9796 127.908 38.7642 127.604C38.5522 127.296 38.2336 127.157 37.8086 127.187C37.5979 127.202 37.4079 127.256 37.2387 127.351C37.073 127.445 36.9507 127.594 36.8718 127.797C36.7961 127.996 36.7707 128.271 36.7955 128.621L36.9649 131.016ZM36.3758 126.647C36.4079 126.796 36.419 126.953 36.4092 127.119C36.6619 126.936 36.9365 126.784 37.233 126.662C37.5293 126.537 37.8667 126.461 38.2454 126.434C38.8954 126.388 39.392 126.533 39.7352 126.867C40.0784 127.202 40.2794 127.786 40.3383 128.618C40.4146 129.697 40.255 130.51 39.8594 131.059C39.4674 131.607 38.85 131.911 38.007 131.97C37.7784 131.987 37.5847 131.988 37.4258 131.974C37.2668 131.96 37.1344 131.941 37.0286 131.916C37.0804 132.598 37.1377 133.204 37.2003 133.734L37.9022 133.685C37.9516 133.775 37.9801 133.873 37.9877 133.98C37.9945 134.077 37.9795 134.144 37.9428 134.183C37.906 134.221 37.8323 134.244 37.7216 134.252L35.5088 134.409C35.4543 134.298 35.4235 134.192 35.4164 134.092C35.4109 134.014 35.4263 133.953 35.4629 133.911C35.4996 133.873 35.5626 133.85 35.6519 133.844L36.0216 133.818C36.0125 133.284 35.9758 132.561 35.9113 131.65L35.7499 129.368C35.6753 128.314 35.591 127.706 35.497 127.544C35.403 127.382 35.2399 127.309 35.0077 127.326C34.9542 127.229 34.9237 127.127 34.9161 127.02C34.9092 126.924 34.9425 126.86 35.0157 126.83C35.0887 126.796 35.5421 126.735 36.3758 126.647ZM46.0116 129.132C46.0624 129.85 46.1222 130.289 46.191 130.449C46.2598 130.609 46.3792 130.674 46.5494 130.645C46.5984 130.727 46.6257 130.81 46.6315 130.892C46.6409 131.024 46.5463 131.133 46.3478 131.219C46.1492 131.305 45.9535 131.354 45.7606 131.368C45.6356 131.377 45.5428 131.358 45.4821 131.312C45.4214 131.266 45.3225 131.137 45.1854 130.924C44.9113 131.109 44.624 131.26 44.3237 131.378C44.0269 131.496 43.7106 131.567 43.3749 131.591C42.932 131.622 42.5787 131.525 42.3151 131.299C42.0548 131.07 41.9015 130.629 41.8552 129.975C41.765 128.7 41.7032 127.927 41.6697 127.657C41.6395 127.382 41.5975 127.195 41.5438 127.095C41.49 126.995 41.4247 126.935 41.348 126.915C41.2712 126.895 41.1881 126.889 41.0988 126.895C41.0471 126.823 41.018 126.741 41.0114 126.648C41.0025 126.523 41.084 126.431 41.2557 126.372C41.4274 126.313 41.6687 126.273 41.9794 126.251C42.2259 126.234 42.3949 126.238 42.4865 126.264C42.5814 126.286 42.642 126.332 42.6685 126.401C42.6983 126.468 42.7274 126.701 42.7557 127.101L42.8986 129.121C42.9504 129.853 43.0646 130.326 43.2413 130.539C43.4215 130.753 43.6563 130.849 43.9456 130.829C44.1492 130.814 44.3444 130.757 44.5312 130.658C44.718 130.559 44.8381 130.43 44.8916 130.272C44.9486 130.113 44.9615 129.815 44.9304 129.375C44.8582 128.354 44.8073 127.711 44.7779 127.448C44.752 127.184 44.7138 126.998 44.6631 126.89C44.6157 126.779 44.5572 126.713 44.4876 126.693C44.4179 126.673 44.3295 126.666 44.2224 126.674C44.1706 126.602 44.1415 126.52 44.1349 126.427C44.1261 126.302 44.2111 126.21 44.39 126.15C44.5724 126.091 44.8012 126.051 45.0762 126.032C45.3226 126.014 45.4916 126.019 45.5832 126.044C45.6781 126.066 45.739 126.116 45.766 126.193C45.7966 126.27 45.826 126.508 45.8543 126.908L46.0116 129.132ZM47.5225 125.913L47.8868 125.887L48.2132 124.335C48.3665 124.37 48.4972 124.417 48.6053 124.474C48.717 124.53 48.801 124.602 48.8574 124.687C48.9134 124.77 48.9598 125.07 48.9964 125.588L49.012 125.807L50.7746 125.683C50.8258 125.797 50.8561 125.921 50.8655 126.053C50.8728 126.157 50.8581 126.228 50.8213 126.266C50.7843 126.301 50.7069 126.323 50.589 126.331L49.0567 126.439L49.236 128.974C49.2787 129.577 49.3622 129.972 49.4866 130.157C49.6107 130.338 49.7839 130.426 50.0061 130.421C50.2319 130.416 50.5017 130.324 50.8156 130.143C50.9026 130.256 50.9509 130.382 50.9608 130.521C50.9742 130.71 50.8778 130.844 50.6716 130.924C50.469 131.003 50.1427 131.058 49.6926 131.09C49.2033 131.124 48.839 131.05 48.5999 130.866C48.3642 130.681 48.2271 130.316 48.1885 129.769L48.0994 128.51C48.0509 127.824 47.9842 127.162 47.8994 126.521L47.3744 126.559C47.3224 126.433 47.2921 126.309 47.2835 126.188C47.2772 126.099 47.2923 126.033 47.3288 125.991C47.3651 125.945 47.4297 125.919 47.5225 125.913ZM56.529 129.632C56.6674 129.711 56.828 129.774 57.0106 129.818C57.1933 129.863 57.3935 129.877 57.6114 129.862C58.0864 129.828 58.4048 129.66 58.5665 129.358C58.7282 129.056 58.7839 128.549 58.7336 127.839C58.6788 127.064 58.5437 126.524 58.3283 126.22C58.1163 125.912 57.7977 125.773 57.3727 125.803C57.1619 125.818 56.972 125.872 56.8027 125.967C56.6371 126.061 56.5148 126.21 56.4358 126.413C56.3602 126.612 56.3348 126.887 56.3595 127.237L56.529 129.632ZM55.9399 125.263C55.972 125.412 55.9831 125.569 55.9733 125.735C56.226 125.552 56.5006 125.4 56.7971 125.278C57.0934 125.153 57.4308 125.077 57.8094 125.05C58.4595 125.004 58.9561 125.149 59.2993 125.483C59.6424 125.818 59.8434 126.401 59.9023 127.234C59.9786 128.312 59.819 129.126 59.4235 129.674C59.0315 130.223 58.414 130.527 57.5711 130.586C57.3425 130.602 57.1487 130.604 56.9898 130.59C56.8309 130.576 56.6985 130.556 56.5926 130.532C56.6445 131.214 56.7017 131.82 56.7644 132.35L57.4662 132.301C57.5157 132.39 57.5442 132.489 57.5518 132.596C57.5586 132.692 57.5436 132.76 57.5069 132.798C57.4701 132.837 57.3963 132.86 57.2856 132.868L55.0729 133.024C55.0184 132.913 54.9876 132.808 54.9805 132.708C54.9749 132.629 54.9904 132.569 55.0269 132.527C55.0637 132.488 55.1267 132.466 55.216 132.46L55.5857 132.434C55.5766 131.899 55.5398 131.177 55.4754 130.266L55.3139 127.984C55.2394 126.93 55.1551 126.322 55.0611 126.16C54.967 125.998 54.8039 125.925 54.5718 125.942C54.5183 125.845 54.4877 125.743 54.4801 125.636C54.4733 125.539 54.5065 125.476 54.5798 125.446C54.6527 125.412 55.1061 125.351 55.9399 125.263ZM61.3636 124.912C61.3449 124.648 61.3178 124.366 61.2823 124.067C61.2501 123.764 61.2099 123.551 61.1618 123.429C61.1172 123.307 61.049 123.231 60.9572 123.201C60.869 123.172 60.757 123.162 60.6212 123.171C60.567 123.064 60.5361 122.957 60.5285 122.849C60.5206 122.739 60.5604 122.666 60.6476 122.631C60.7349 122.596 61.0286 122.561 61.5286 122.526C61.8108 122.506 62.0029 122.506 62.1049 122.528C62.2067 122.546 62.2674 122.592 62.287 122.666C62.3063 122.736 62.3223 122.861 62.335 123.039L62.4953 125.306C62.7064 125.144 62.9652 124.996 63.2717 124.863C63.5815 124.726 63.9078 124.646 64.2507 124.621C64.69 124.59 65.0372 124.677 65.2922 124.882C65.5505 125.082 65.7015 125.492 65.7452 126.11C65.8812 128.031 65.98 129.047 66.0416 129.158C66.1069 129.268 66.2394 129.314 66.4391 129.297C66.4857 129.397 66.5127 129.5 66.52 129.603C66.5269 129.7 66.5011 129.766 66.4426 129.802C66.3842 129.839 66.2728 129.863 66.1085 129.875C65.612 129.91 65.308 129.926 65.1965 129.923C65.0848 129.916 65.0071 129.884 64.9636 129.826C64.9197 129.765 64.8926 129.661 64.8823 129.514L64.7189 127.205C64.6668 126.469 64.5536 125.986 64.3793 125.754C64.2085 125.522 63.9499 125.418 63.6034 125.443C63.307 125.464 63.0557 125.566 62.8497 125.749C62.6473 125.932 62.5615 126.241 62.5923 126.677L62.6723 127.808C62.717 128.44 62.7707 129.021 62.8334 129.552L63.4281 129.51C63.4775 129.599 63.506 129.698 63.5136 129.805C63.5204 129.901 63.5055 129.969 63.4687 130.007C63.4319 130.046 63.3582 130.069 63.2475 130.077L61.1419 130.226C61.0874 130.115 61.0566 130.009 61.0495 129.909C61.0439 129.831 61.0596 129.772 61.0963 129.734C61.1328 129.692 61.1957 129.668 61.285 129.661L61.6547 129.635C61.6431 129.065 61.6137 128.446 61.5664 127.778L61.3636 124.912ZM69.9973 128.986C70.4044 128.957 70.6883 128.782 70.8487 128.462C71.0091 128.142 71.0667 127.662 71.0215 127.023C70.9694 126.287 70.8361 125.748 70.6215 125.404C70.4105 125.06 70.0764 124.904 69.6192 124.936C69.212 124.965 68.9282 125.139 68.7678 125.46C68.6074 125.78 68.5499 126.261 68.5954 126.904C68.6472 127.636 68.7786 128.174 68.9896 128.518C69.2042 128.862 69.5401 129.018 69.9973 128.986ZM69.8445 129.718C69.0694 129.773 68.4852 129.608 68.0918 129.223C67.6984 128.838 67.4724 128.231 67.4137 127.402C67.3463 126.449 67.5135 125.692 67.9154 125.132C68.3209 124.572 68.9398 124.263 69.772 124.204C70.5471 124.149 71.1313 124.314 71.5247 124.699C71.9181 125.084 72.1442 125.693 72.2031 126.525C72.2703 127.475 72.1012 128.23 71.6957 128.79C71.2938 129.35 70.6767 129.659 69.8445 129.718ZM73.2956 124.089L73.6599 124.063L73.9862 122.511C74.1395 122.547 74.2703 122.593 74.3784 122.65C74.4901 122.707 74.5741 122.778 74.6304 122.864C74.6865 122.946 74.7329 123.246 74.7695 123.764L74.785 123.984L76.5477 123.859C76.5989 123.974 76.6292 124.097 76.6385 124.23C76.6459 124.333 76.6312 124.404 76.5944 124.443C76.5574 124.478 76.4799 124.499 76.3621 124.508L74.8298 124.616L75.0091 127.15C75.0518 127.754 75.1353 128.148 75.2597 128.333C75.3838 128.515 75.557 128.603 75.7792 128.598C76.005 128.593 76.2748 128.5 76.5887 128.32C76.6756 128.432 76.724 128.558 76.7339 128.697C76.7473 128.887 76.6509 129.021 76.4447 129.1C76.2421 129.179 75.9157 129.235 75.4657 129.266C74.9764 129.301 74.6121 129.226 74.3729 129.042C74.1373 128.858 74.0002 128.492 73.9615 127.946L73.8724 126.687C73.8239 126.001 73.7573 125.338 73.6725 124.698L73.1475 124.735C73.0955 124.61 73.0652 124.486 73.0566 124.365C73.0503 124.275 73.0654 124.21 73.1019 124.168C73.1382 124.122 73.2027 124.096 73.2956 124.089ZM80.2401 128.261C80.6472 128.232 80.9311 128.058 81.0915 127.738C81.2519 127.418 81.3095 126.938 81.2643 126.298C81.2122 125.563 81.0789 125.023 80.8643 124.679C80.6533 124.335 80.3192 124.179 79.862 124.212C79.4548 124.24 79.171 124.415 79.0106 124.735C78.8502 125.055 78.7927 125.536 78.8382 126.179C78.89 126.912 79.0214 127.45 79.2324 127.794C79.447 128.138 79.7829 128.293 80.2401 128.261ZM80.0873 128.993C79.3122 129.048 78.7279 128.883 78.3346 128.498C77.9412 128.113 77.7152 127.506 77.6565 126.678C77.5891 125.724 77.7563 124.967 78.1582 124.407C78.5637 123.848 79.1826 123.538 80.0148 123.479C80.7899 123.424 81.3741 123.589 81.7675 123.974C82.1609 124.359 82.387 124.968 82.4459 125.8C82.5131 126.75 82.344 127.505 81.9385 128.065C81.5366 128.625 80.9195 128.934 80.0873 128.993ZM85.6399 123.081C86.1113 123.048 86.4879 123.068 86.7695 123.141C87.0544 123.211 87.204 123.347 87.2184 123.551C87.2334 123.762 87.1588 123.977 86.9949 124.197C86.2718 123.921 85.7067 123.798 85.2995 123.827C85.0245 123.846 84.821 123.913 84.689 124.026C84.5606 124.139 84.5034 124.294 84.5173 124.491C84.5317 124.694 84.6204 124.857 84.7833 124.978C84.9498 125.099 85.2805 125.232 85.7753 125.376C86.3977 125.548 86.8457 125.74 87.1192 125.954C87.3926 126.165 87.5435 126.472 87.5721 126.875C87.6082 127.386 87.4395 127.791 87.0658 128.09C86.6921 128.39 86.1427 128.565 85.4176 128.616C84.864 128.655 84.4379 128.646 84.1395 128.588C83.8446 128.53 83.6883 128.376 83.6706 128.126C83.6578 127.944 83.7148 127.76 83.8417 127.575C84.4727 127.818 85.0507 127.921 85.5758 127.883C85.9044 127.86 86.1452 127.789 86.2984 127.671C86.4515 127.552 86.5198 127.375 86.5031 127.139C86.4852 126.886 86.3478 126.694 86.091 126.565C85.8375 126.433 85.4428 126.283 84.9069 126.116C84.3787 125.956 84.0086 125.774 83.7967 125.57C83.5849 125.366 83.4671 125.096 83.4433 124.76C83.4112 124.307 83.58 123.927 83.9496 123.621C84.3192 123.315 84.8826 123.135 85.6399 123.081ZM16.2644 142.138C16.2457 141.873 16.2186 141.592 16.1831 141.293C16.1509 140.99 16.1107 140.777 16.0626 140.655C16.018 140.533 15.9499 140.457 15.858 140.427C15.7698 140.398 15.6578 140.388 15.5221 140.397C15.4678 140.29 15.4369 140.182 15.4293 140.075C15.4215 139.965 15.4612 139.892 15.5485 139.857C15.6357 139.822 15.9294 139.787 16.4294 139.751C16.7116 139.731 16.9037 139.732 17.0057 139.754C17.1075 139.772 17.1682 139.818 17.1878 139.892C17.2071 139.962 17.2231 140.087 17.2358 140.265L17.3961 142.531C17.6072 142.369 17.866 142.222 18.1725 142.089C18.4823 141.952 18.8086 141.871 19.1515 141.847C19.5909 141.816 19.938 141.903 20.193 142.107C20.4513 142.308 20.6023 142.717 20.646 143.335C20.782 145.257 20.8808 146.273 20.9424 146.384C21.0077 146.494 21.1402 146.54 21.3399 146.522C21.3866 146.623 21.4135 146.725 21.4209 146.829C21.4277 146.925 21.4019 146.992 21.3434 147.028C21.285 147.065 21.1736 147.089 21.0093 147.1C20.5128 147.135 20.2088 147.152 20.0974 147.149C19.9856 147.142 19.908 147.11 19.8644 147.052C19.8205 146.991 19.7934 146.887 19.7831 146.74L19.6197 144.431C19.5676 143.695 19.4544 143.211 19.2801 142.98C19.1093 142.748 18.8507 142.644 18.5042 142.668C18.2078 142.689 17.9566 142.792 17.7506 142.975C17.5481 143.158 17.4623 143.467 17.4932 143.903L17.5731 145.033C17.6179 145.666 17.6716 146.247 17.7342 146.777L18.3289 146.735C18.3783 146.825 18.4069 146.924 18.4144 147.031C18.4213 147.127 18.4063 147.195 18.3695 147.233C18.3328 147.272 18.259 147.295 18.1483 147.303L16.0427 147.452C15.9882 147.341 15.9574 147.235 15.9503 147.135C15.9448 147.057 15.9604 146.998 15.9971 146.96C16.0336 146.917 16.0965 146.893 16.1858 146.887L16.5555 146.861C16.5439 146.291 16.5145 145.672 16.4672 145.004L16.2644 142.138ZM24.4933 142.164C24.1361 142.189 23.8737 142.337 23.7062 142.607C23.5384 142.874 23.4648 143.279 23.4853 143.824L24.0372 143.785C24.6229 143.743 25.0204 143.704 25.2297 143.668C25.4422 143.628 25.5627 143.58 25.591 143.524C25.6229 143.468 25.6337 143.367 25.6234 143.22C25.5983 142.866 25.4895 142.596 25.2967 142.409C25.104 142.221 24.8362 142.14 24.4933 142.164ZM24.6461 141.432C25.3104 141.385 25.8144 141.507 26.1581 141.798C26.5018 142.09 26.6992 142.597 26.7503 143.318C26.7728 143.636 26.7313 143.861 26.6258 143.995C26.5204 144.128 26.2748 144.208 25.889 144.235L23.5209 144.403C23.5692 144.984 23.7177 145.433 23.9662 145.75C24.2183 146.066 24.6319 146.203 25.2069 146.163C25.7427 146.125 26.2311 145.95 26.6722 145.639C26.8366 145.782 26.9249 145.939 26.937 146.11C26.954 146.349 26.7676 146.531 26.378 146.656C25.9919 146.78 25.5506 146.86 25.0541 146.895C24.1398 146.96 23.4689 146.813 23.0416 146.456C22.6175 146.094 22.3731 145.455 22.3081 144.537C22.2442 143.633 22.417 142.905 22.8266 142.352C23.2395 141.795 23.846 141.488 24.6461 141.432ZM27.7133 141.565C27.7065 141.468 27.7397 141.405 27.8129 141.374C27.8859 141.341 28.3572 141.278 29.2267 141.188C29.2597 141.351 29.2753 141.571 29.2733 141.847C29.6508 141.551 30.0181 141.339 30.3751 141.209C30.7356 141.08 31.0659 141.004 31.366 140.983C31.466 140.976 31.5329 140.984 31.5668 141.007C31.6041 141.025 31.6255 141.074 31.631 141.153C31.6419 141.306 31.6285 141.472 31.5909 141.651C31.5568 141.829 31.5075 141.944 31.443 141.995C31.3784 142.047 31.2684 142.09 31.113 142.126C30.9576 142.162 30.8651 142.174 30.8355 142.162C30.8095 142.15 30.7222 142.057 30.5736 141.884C30.2557 141.907 30.0057 142.027 29.8237 142.244C29.6414 142.458 29.5718 142.871 29.6151 143.482C29.6962 144.578 29.7681 145.391 29.8308 145.922L30.5862 145.868C30.6356 145.958 30.6641 146.056 30.6717 146.164C30.6786 146.26 30.6636 146.328 30.6268 146.366C30.5901 146.405 30.5163 146.428 30.4056 146.436L28.1393 146.596C28.0848 146.485 28.054 146.379 28.0469 146.279C28.0413 146.201 28.0569 146.142 28.0937 146.104C28.1302 146.062 28.1931 146.037 28.2824 146.031L28.6521 146.005C28.643 145.471 28.608 144.773 28.5471 143.912C28.4726 142.859 28.3883 142.251 28.2942 142.089C28.2002 141.927 28.0371 141.854 27.8049 141.87C27.7514 141.774 27.7209 141.672 27.7133 141.565ZM34.7361 141.439C34.3789 141.464 34.1165 141.612 33.949 141.883C33.7812 142.149 33.7076 142.555 33.7281 143.099L34.28 143.06C34.8657 143.018 35.2632 142.98 35.4725 142.943C35.685 142.903 35.8054 142.855 35.8338 142.799C35.8657 142.743 35.8765 142.642 35.8662 142.495C35.8411 142.142 35.7323 141.871 35.5395 141.684C35.3468 141.497 35.079 141.415 34.7361 141.439ZM34.8889 140.707C35.5532 140.66 36.0572 140.782 36.4009 141.074C36.7446 141.365 36.942 141.872 36.9931 142.593C37.0156 142.911 36.9741 143.137 36.8686 143.27C36.7632 143.403 36.5176 143.483 36.1318 143.51L33.7637 143.678C33.812 144.26 33.9605 144.709 34.209 145.025C34.4611 145.341 34.8747 145.479 35.4497 145.438C35.9855 145.4 36.4739 145.225 36.915 144.914C37.0794 145.057 37.1677 145.214 37.1798 145.385C37.1968 145.625 37.0104 145.807 36.6208 145.931C36.2347 146.055 35.7934 146.135 35.2969 146.17C34.3825 146.235 33.7117 146.089 33.2844 145.731C32.8603 145.37 32.6159 144.73 32.5509 143.812C32.487 142.909 32.6598 142.18 33.0694 141.627C33.4823 141.07 34.0888 140.763 34.8889 140.707Z" fill="#BFBFBF"/>
</g>
</svg>
