<svg width="100" height="160" viewBox="0 0 100 160" fill="none" xmlns="http://www.w3.org/2000/svg">
<rect x="1" y="1" width="98" height="158" rx="13" fill="#F7F7F7" stroke="#D5D5D5" stroke-width="2" stroke-linecap="round" stroke-dasharray="8 8"/>
<mask id="mask0_730_852" style="mask-type:alpha" maskUnits="userSpaceOnUse" x="1" y="1" width="98" height="158">
<rect x="2" y="2" width="96" height="156" rx="12" fill="#F7F7F7" stroke="#D5D5D5" stroke-width="2" stroke-linecap="round" stroke-dasharray="8 8"/>
</mask>
<g mask="url(#mask0_730_852)">
<path d="M82.7458 27.0863C76.3653 28.1472 71.8101 33.3784 72.1958 39.8809C72.6972 41.7519 80.7896 42.2376 87.6133 40.4092C94.4369 38.5808 99.4353 32.5821 99.1109 31.3714C98.7718 30.1057 92.828 25.0926 82.7458 27.0863V27.0863ZM40.6485 38.3663C30.9202 41.6808 28.0621 48.4036 28.5487 50.2195C28.8878 51.4852 36.8213 54.0189 43.0396 52.3527C49.2579 50.6865 56.6286 46.0574 56.1273 44.1864C53.2102 38.3623 46.0443 36.2717 40.6485 38.3663V38.3663ZM98.0363 59.498C87.5257 62.3143 77.3845 51.7611 67.4792 54.4152C57.5739 57.0693 53.4626 71.4415 43.5574 74.0956C30.5705 77.5754 18.1151 68.2911 12.4825 47.2699C9.00266 34.283 11.742 29.5384 28.4158 25.0706C45.0897 20.6029 51.3204 26.2469 59.3547 24.0941C67.389 21.9413 70.5132 13.7907 86.6368 9.47036C102.76 5.15006 108.217 8.34726 111.535 20.7288C117.168 41.75 111.023 56.0182 98.0363 59.498Z" fill="#DADADA"/>
<path d="M12.3572 110.881C12.3506 110.383 12.2748 109.109 12.1298 107.058C12.0522 105.962 11.9848 105.213 11.9277 104.811C10.6635 104.954 9.94926 105.032 9.78496 105.043C9.6278 105.055 9.51709 105.037 9.45283 104.992C9.38858 104.946 9.35152 104.853 9.34166 104.714C9.32751 104.514 9.3621 104.293 9.44543 104.05C10.064 104.168 10.9501 104.186 12.1038 104.104L15.4524 103.867C15.6096 103.856 15.7204 103.875 15.7849 103.924C15.8527 103.97 15.8915 104.06 15.9011 104.196C15.9187 104.446 15.8623 104.689 15.7318 104.924C15.1174 104.713 14.3333 104.641 13.3796 104.708L13.1975 104.721C13.1975 105.127 13.2378 105.899 13.3184 107.039C13.4604 109.046 13.5633 110.297 13.627 110.792L14.3931 110.737C14.4436 110.841 14.4723 110.944 14.4794 111.044C14.4857 111.133 14.4723 111.197 14.4391 111.235C14.4059 111.273 14.3446 111.295 14.2554 111.302L11.6301 111.487C11.5751 111.369 11.5439 111.258 11.5365 111.155C11.5312 111.08 11.5453 111.025 11.5788 110.99C11.6155 110.952 11.6768 110.93 11.7625 110.923L12.3572 110.881ZM19.1428 110.525C18.8552 110.721 18.5557 110.877 18.2444 110.993C17.9364 111.104 17.6306 111.171 17.327 111.192C16.8448 111.226 16.4779 111.139 16.2262 110.931C15.9743 110.719 15.8325 110.39 15.8009 109.943C15.7623 109.397 15.9274 108.965 16.2962 108.648C16.6651 108.331 17.2567 108.144 18.0711 108.086L18.8587 108.031C18.7928 107.404 18.6707 106.972 18.4925 106.737C18.3179 106.502 18.0288 106.399 17.6252 106.427C17.4109 106.442 17.2071 106.478 17.0136 106.535C16.9247 106.75 16.87 106.865 16.8496 106.881C16.8328 106.896 16.7333 106.935 16.5511 106.999C16.3686 107.058 16.2376 107.058 16.1581 106.999C16.0818 106.937 15.9982 106.82 15.9073 106.651C15.8199 106.481 15.7724 106.343 15.7648 106.236C15.7597 106.164 15.7844 106.107 15.8388 106.064C15.8967 106.02 16.1344 105.955 16.5518 105.868C16.9693 105.781 17.4155 105.72 17.8905 105.687C18.5228 105.642 18.9966 105.718 19.312 105.915C19.631 106.111 19.8111 106.5 19.8523 107.083L19.9691 108.733C20.0232 109.497 20.0883 109.961 20.1645 110.124C20.2442 110.287 20.3597 110.347 20.511 110.304C20.5595 110.38 20.5863 110.455 20.5916 110.53C20.6002 110.652 20.53 110.75 20.381 110.825C20.2355 110.9 20.0342 110.947 19.777 110.965C19.652 110.974 19.5544 110.964 19.4843 110.937C19.418 110.913 19.3042 110.776 19.1428 110.525ZM18.9076 108.722C18.5966 108.69 18.2768 108.686 17.9482 108.709C17.541 108.738 17.2601 108.826 17.1054 108.973C16.9542 109.12 16.889 109.34 16.9098 109.633C16.93 109.919 17.0167 110.13 17.1699 110.266C17.3265 110.399 17.5566 110.454 17.8602 110.433C18.0959 110.416 18.3123 110.354 18.5093 110.247C18.7063 110.14 18.8312 110.002 18.8838 109.833C18.9398 109.66 18.9552 109.395 18.9299 109.038L18.9076 108.722ZM23.2911 110.108L23.7787 110.073C23.8281 110.163 23.8566 110.262 23.8642 110.369C23.871 110.465 23.856 110.533 23.8193 110.571C23.7825 110.61 23.7088 110.633 23.5981 110.641L21.5728 110.784C21.5183 110.673 21.4875 110.567 21.4804 110.467C21.4749 110.389 21.4905 110.33 21.5273 110.292C21.5638 110.25 21.6267 110.226 21.716 110.219L22.1124 110.191C22.1059 109.693 22.0608 108.852 21.9771 107.67C21.8702 106.159 21.7951 105.199 21.7518 104.789C21.7082 104.376 21.6623 104.108 21.6142 103.986C21.5696 103.863 21.5032 103.787 21.4149 103.758C21.3267 103.728 21.2129 103.718 21.0736 103.728C21.0194 103.62 20.9884 103.513 20.9808 103.406C20.973 103.295 21.0127 103.222 21.1 103.188C21.1909 103.152 21.4845 103.117 21.981 103.082C22.2632 103.062 22.4553 103.063 22.5573 103.084C22.6591 103.102 22.7198 103.148 22.7394 103.222C22.7587 103.293 22.7747 103.417 22.7873 103.596L23.086 107.818C23.3832 107.553 23.6936 107.247 24.0173 106.901C24.341 106.555 24.6293 106.215 24.8821 105.881L24.507 105.908C24.4533 105.808 24.4226 105.704 24.415 105.597C24.4074 105.49 24.4218 105.413 24.458 105.368C24.4979 105.322 24.566 105.295 24.6624 105.289L26.334 105.17C26.384 105.267 26.413 105.373 26.4211 105.487C26.4289 105.598 26.411 105.675 26.3673 105.717C26.3273 105.759 26.2483 105.785 26.1304 105.793L25.9161 105.808L24.4146 107.417C25.0041 108.19 25.4529 108.749 25.7608 109.093C26.0685 109.434 26.2902 109.65 26.4259 109.741C26.5648 109.828 26.7201 109.865 26.8915 109.853C26.9582 110.035 26.9609 110.175 26.8996 110.272C26.8417 110.366 26.6198 110.427 26.234 110.454C25.884 110.479 25.6589 110.468 25.5586 110.421C25.462 110.374 25.3618 110.277 25.2581 110.13C25.1541 109.98 24.9922 109.747 24.7725 109.432C24.5526 109.114 24.211 108.65 23.7479 108.04L23.1474 108.686C23.1831 109.139 23.231 109.613 23.2911 110.108ZM29.8037 105.512C29.4465 105.537 29.1842 105.685 29.0166 105.955C28.8489 106.222 28.7752 106.627 28.7958 107.171L29.3476 107.132C29.9334 107.091 30.3309 107.052 30.5401 107.016C30.7527 106.976 30.8731 106.928 30.9015 106.872C30.9334 106.816 30.9442 106.714 30.9338 106.568C30.9088 106.214 30.7999 105.944 30.6072 105.756C30.4144 105.569 30.1466 105.487 29.8037 105.512ZM29.9565 104.779C30.6209 104.732 31.1249 104.855 31.4686 105.146C31.8123 105.438 32.0097 105.944 32.0607 106.666C32.0832 106.984 32.0417 107.209 31.9363 107.342C31.8308 107.475 31.5852 107.556 31.1995 107.583L28.8314 107.75C28.8797 108.332 29.0281 108.781 29.2767 109.097C29.5288 109.413 29.9423 109.551 30.5174 109.51C31.0532 109.472 31.5416 109.298 31.9826 108.987C32.1471 109.129 32.2354 109.287 32.2475 109.458C32.2644 109.697 32.0781 109.879 31.6884 110.004C31.3024 110.128 30.8611 110.208 30.3646 110.243C29.4502 110.307 28.7794 110.161 28.352 109.804C27.928 109.442 27.6835 108.803 27.6186 107.885C27.5546 106.981 27.7275 106.253 28.137 105.7C28.5499 105.143 29.1564 104.836 29.9565 104.779ZM40.4606 104.779C40.3263 105.316 40.0597 106.445 39.6608 108.163C39.2655 109.882 38.9536 110.902 38.725 111.223C38.5 111.545 38.2334 111.759 37.9252 111.867C37.6205 111.975 37.2681 112.043 36.8681 112.071C36.4788 112.099 36.2231 112.088 36.1012 112.039C35.9829 111.99 35.9183 111.889 35.9074 111.735C35.894 111.546 35.9426 111.37 36.0532 111.208C36.7343 111.296 37.2325 111.311 37.5479 111.253C37.8635 111.198 38.1436 110.667 38.3882 109.659C38.0909 109.669 37.9292 109.666 37.9029 109.65C37.8767 109.634 37.6466 109.045 37.2126 107.884C36.7787 106.723 36.5079 106.016 36.4001 105.761C36.2957 105.503 36.2132 105.326 36.1525 105.229C36.0952 105.129 36.0265 105.071 35.9464 105.056C35.866 105.036 35.7633 105.031 35.6383 105.04C35.5835 104.925 35.5526 104.818 35.5455 104.718C35.537 104.596 35.5926 104.521 35.7125 104.491C35.8322 104.457 36.0778 104.427 36.4493 104.401C36.735 104.381 36.9291 104.385 37.0317 104.413C37.134 104.438 37.208 104.496 37.2539 104.586C37.2995 104.673 37.3763 104.92 37.4841 105.329C37.5956 105.738 37.8142 106.417 38.1398 107.366C38.4688 108.312 38.6494 108.784 38.6815 108.782C38.7136 108.78 38.8369 108.213 39.0512 107.081C39.2652 105.946 39.3814 105.204 39.3998 104.854L39.1104 104.875C39.0602 104.774 39.0314 104.67 39.0238 104.563C39.0162 104.456 39.0305 104.38 39.0668 104.334C39.1066 104.288 39.173 104.262 39.2658 104.255L40.7767 104.148C40.8302 104.245 40.861 104.351 40.8691 104.465C40.8769 104.576 40.859 104.652 40.8154 104.695C40.7717 104.738 40.6927 104.763 40.5784 104.771L40.4606 104.779ZM44.3565 108.558C44.7637 108.529 45.0475 108.355 45.208 108.035C45.3684 107.715 45.426 107.235 45.3807 106.596C45.3287 105.86 45.1954 105.32 44.9808 104.976C44.7698 104.632 44.4357 104.476 43.9785 104.509C43.5713 104.538 43.2875 104.712 43.1271 105.032C42.9667 105.352 42.9092 105.834 42.9547 106.477C43.0065 107.209 43.1379 107.747 43.3489 108.091C43.5635 108.435 43.8993 108.591 44.3565 108.558ZM44.2037 109.291C43.4287 109.345 42.8444 109.18 42.451 108.795C42.0577 108.41 41.8316 107.803 41.773 106.975C41.7055 106.021 41.8728 105.264 42.2747 104.705C42.6802 104.145 43.2991 103.835 44.1313 103.776C44.9064 103.722 45.4906 103.887 45.884 104.272C46.2774 104.657 46.5035 105.265 46.5624 106.098C46.6296 107.048 46.4605 107.803 46.055 108.363C45.653 108.922 45.036 109.232 44.2037 109.291ZM52.2137 106.452C52.2645 107.169 52.3243 107.609 52.3931 107.769C52.4618 107.929 52.5813 107.994 52.7515 107.964C52.8004 108.047 52.8278 108.129 52.8336 108.211C52.8429 108.344 52.7484 108.453 52.5498 108.538C52.3513 108.624 52.1556 108.674 51.9627 108.688C51.8377 108.697 51.7448 108.678 51.6841 108.632C51.6235 108.586 51.5246 108.457 51.3874 108.244C51.1133 108.428 50.8261 108.58 50.5257 108.698C50.229 108.816 49.9127 108.887 49.5769 108.91C49.134 108.942 48.7808 108.845 48.5171 108.619C48.2568 108.39 48.1035 107.948 48.0573 107.295C47.9671 106.02 47.9052 105.247 47.8717 104.976C47.8416 104.702 47.7996 104.515 47.7458 104.415C47.6921 104.314 47.6268 104.254 47.55 104.235C47.4732 104.215 47.3902 104.208 47.3009 104.215C47.2492 104.143 47.22 104.061 47.2134 103.968C47.2046 103.843 47.286 103.751 47.4578 103.692C47.6295 103.633 47.8707 103.593 48.1815 103.571C48.4279 103.553 48.597 103.557 48.6885 103.583C48.7834 103.605 48.8441 103.651 48.8706 103.721C48.9004 103.787 48.9294 104.02 48.9577 104.42L49.1007 106.44C49.1525 107.172 49.2667 107.645 49.4433 107.859C49.6236 108.072 49.8583 108.169 50.1476 108.148C50.3512 108.134 50.5464 108.077 50.7333 107.978C50.9201 107.878 51.0402 107.75 51.0936 107.592C51.1506 107.433 51.1636 107.134 51.1325 106.695C51.0602 105.673 51.0094 105.031 50.9799 104.767C50.9541 104.503 50.9158 104.318 50.8651 104.21C50.8178 104.099 50.7593 104.033 50.6896 104.012C50.62 103.992 50.5316 103.986 50.4244 103.994C50.3727 103.922 50.3435 103.84 50.337 103.747C50.3281 103.622 50.4132 103.529 50.592 103.47C50.7745 103.411 51.0032 103.371 51.2782 103.352C51.5247 103.334 51.6937 103.338 51.7853 103.364C51.8802 103.386 51.9411 103.436 51.9681 103.513C51.9987 103.59 52.0281 103.828 52.0564 104.228L52.2137 106.452ZM53.5201 103.462C53.5133 103.366 53.5465 103.302 53.6197 103.272C53.6927 103.238 54.1639 103.176 55.0334 103.086C55.0665 103.249 55.082 103.468 55.08 103.745C55.4576 103.449 55.8248 103.236 56.1818 103.107C56.5424 102.977 56.8727 102.902 57.1727 102.881C57.2727 102.874 57.3397 102.881 57.3736 102.904C57.4108 102.923 57.4322 102.972 57.4378 103.05C57.4487 103.204 57.4353 103.37 57.3977 103.549C57.3636 103.727 57.3143 103.842 57.2497 103.893C57.1851 103.944 57.0752 103.988 56.9198 104.024C56.7644 104.06 56.6719 104.072 56.6423 104.06C56.6163 104.047 56.529 103.955 56.3804 103.782C56.0625 103.805 55.8125 103.925 55.6304 104.142C55.4482 104.356 55.3786 104.768 55.4218 105.379C55.503 106.475 55.5749 107.289 55.6375 107.819L56.393 107.766C56.4424 107.856 56.4709 107.954 56.4785 108.061C56.4853 108.158 56.4703 108.225 56.4336 108.264C56.3968 108.302 56.3231 108.325 56.2123 108.333L53.946 108.494C53.8915 108.383 53.8607 108.277 53.8536 108.177C53.8481 108.098 53.8637 108.04 53.9005 108.001C53.937 107.959 53.9999 107.935 54.0892 107.929L54.4588 107.903C54.4498 107.368 54.4148 106.671 54.3539 105.81C54.2793 104.756 54.195 104.149 54.101 103.987C54.007 103.824 53.8439 103.752 53.6117 103.768C53.5582 103.671 53.5277 103.569 53.5201 103.462ZM12.756 123.519C12.8944 123.599 13.055 123.662 13.2376 123.706C13.4203 123.751 13.6205 123.765 13.8384 123.75C14.3134 123.716 14.6318 123.548 14.7935 123.246C14.9552 122.944 15.0109 122.437 14.9606 121.727C14.9058 120.952 14.7707 120.412 14.5553 120.108C14.3433 119.8 14.0247 119.661 13.5997 119.691C13.3889 119.706 13.199 119.76 13.0298 119.855C12.8641 119.949 12.7418 120.098 12.6629 120.301C12.5872 120.5 12.5618 120.775 12.5865 121.125L12.756 123.519ZM12.1669 119.151C12.199 119.3 12.2101 119.457 12.2003 119.623C12.453 119.44 12.7276 119.287 13.0241 119.166C13.3204 119.041 13.6578 118.965 14.0364 118.938C14.6865 118.892 15.1831 119.037 15.5263 119.371C15.8694 119.706 16.0704 120.289 16.1293 121.122C16.2056 122.2 16.046 123.014 15.6505 123.562C15.2585 124.111 14.6411 124.415 13.7981 124.474C13.5695 124.49 13.3758 124.492 13.2168 124.478C13.0579 124.464 12.9255 124.444 12.8196 124.42C12.8715 125.102 12.9287 125.708 12.9914 126.238L13.6932 126.189C13.7427 126.278 13.7712 126.377 13.7788 126.484C13.7856 126.58 13.7706 126.648 13.7339 126.686C13.6971 126.725 13.6234 126.748 13.5126 126.756L11.2999 126.912C11.2454 126.801 11.2146 126.696 11.2075 126.596C11.2019 126.517 11.2174 126.457 11.2539 126.415C11.2907 126.376 11.3537 126.354 11.443 126.348L11.8127 126.322C11.8036 125.787 11.7669 125.065 11.7024 124.154L11.5409 121.872C11.4664 120.818 11.3821 120.21 11.2881 120.048C11.194 119.886 11.0309 119.813 10.7988 119.83C10.7453 119.733 10.7147 119.631 10.7071 119.524C10.7003 119.427 10.7335 119.364 10.8068 119.334C10.8798 119.3 11.3331 119.239 12.1669 119.151ZM17.5906 118.8C17.5719 118.536 17.5448 118.254 17.5093 117.955C17.4771 117.652 17.4369 117.439 17.3888 117.317C17.3442 117.195 17.276 117.119 17.1842 117.089C17.096 117.06 16.984 117.05 16.8483 117.059C16.794 116.952 16.7631 116.845 16.7555 116.737C16.7476 116.627 16.7874 116.554 16.8746 116.519C16.9619 116.484 17.2556 116.449 17.7556 116.414C18.0378 116.394 18.2299 116.394 18.3319 116.416C18.4337 116.434 18.4944 116.48 18.514 116.554C18.5333 116.624 18.5493 116.749 18.562 116.927L18.7223 119.194C18.9334 119.031 19.1922 118.884 19.4987 118.751C19.8085 118.614 20.1348 118.534 20.4777 118.509C20.917 118.478 21.2642 118.565 21.5192 118.77C21.7775 118.97 21.9285 119.38 21.9722 119.997C22.1082 121.919 22.207 122.935 22.2686 123.046C22.3339 123.156 22.4664 123.202 22.6661 123.184C22.7128 123.285 22.7397 123.387 22.7471 123.491C22.7539 123.588 22.7281 123.654 22.6696 123.69C22.6112 123.727 22.4998 123.751 22.3355 123.762C21.839 123.798 21.535 123.814 21.4236 123.811C21.3118 123.804 21.2342 123.772 21.1906 123.714C21.1467 123.653 21.1196 123.549 21.1093 123.402L20.9459 121.093C20.8938 120.357 20.7806 119.874 20.6063 119.642C20.4355 119.41 20.1769 119.306 19.8304 119.331C19.534 119.352 19.2827 119.454 19.0767 119.637C18.8743 119.82 18.7885 120.129 18.8193 120.565L18.8993 121.696C18.9441 122.328 18.9977 122.909 19.0604 123.44L19.6551 123.398C19.7045 123.487 19.733 123.586 19.7406 123.693C19.7475 123.789 19.7325 123.857 19.6957 123.895C19.659 123.934 19.5852 123.957 19.4745 123.965L17.3689 124.114C17.3144 124.003 17.2836 123.897 17.2765 123.797C17.271 123.719 17.2866 123.66 17.3233 123.622C17.3598 123.58 17.4227 123.555 17.512 123.549L17.8817 123.523C17.8701 122.953 17.8407 122.334 17.7934 121.666L17.5906 118.8ZM26.2243 122.874C26.6315 122.845 26.9153 122.67 27.0757 122.35C27.2361 122.03 27.2937 121.55 27.2485 120.911C27.1964 120.175 27.0631 119.636 26.8485 119.292C26.6375 118.948 26.3034 118.792 25.8462 118.824C25.4391 118.853 25.1553 119.027 24.9948 119.347C24.8344 119.668 24.7769 120.149 24.8224 120.792C24.8742 121.524 25.0056 122.062 25.2166 122.406C25.4312 122.75 25.7671 122.906 26.2243 122.874ZM26.0715 123.606C25.2964 123.661 24.7122 123.496 24.3188 123.111C23.9254 122.726 23.6994 122.119 23.6408 121.29C23.5733 120.337 23.7405 119.58 24.1424 119.02C24.5479 118.46 25.1668 118.151 25.999 118.092C26.7741 118.037 27.3584 118.202 27.7517 118.587C28.1451 118.972 28.3713 119.581 28.4301 120.413C28.4974 121.363 28.3282 122.118 27.9227 122.678C27.5208 123.238 26.9037 123.547 26.0715 123.606ZM29.5226 117.977L29.8869 117.951L30.2132 116.399C30.3666 116.435 30.4973 116.481 30.6054 116.538C30.7171 116.595 30.8011 116.666 30.8574 116.752C30.9135 116.834 30.9599 117.134 30.9965 117.652L31.012 117.872L32.7747 117.747C32.8259 117.862 32.8562 117.985 32.8656 118.118C32.8729 118.221 32.8582 118.292 32.8214 118.331C32.7844 118.366 32.7069 118.387 32.5891 118.396L31.0568 118.504L31.2361 121.038C31.2788 121.642 31.3623 122.036 31.4867 122.221C31.6108 122.403 31.784 122.491 32.0062 122.486C32.232 122.481 32.5018 122.388 32.8157 122.208C32.9026 122.32 32.951 122.446 32.9609 122.585C32.9743 122.775 32.8779 122.909 32.6717 122.988C32.4691 123.067 32.1428 123.122 31.6927 123.154C31.2034 123.189 30.8391 123.114 30.5999 122.93C30.3643 122.746 30.2272 122.38 30.1885 121.834L30.0995 120.575C30.0509 119.889 29.9843 119.226 29.8995 118.586L29.3745 118.623C29.3225 118.497 29.2922 118.374 29.2836 118.253C29.2773 118.163 29.2924 118.098 29.3289 118.055C29.3652 118.01 29.4297 117.984 29.5226 117.977ZM36.4671 122.149C36.8743 122.12 37.1581 121.946 37.3185 121.626C37.4789 121.305 37.5365 120.826 37.4913 120.186C37.4392 119.451 37.3059 118.911 37.0913 118.567C36.8803 118.223 36.5462 118.067 36.089 118.1C35.6819 118.128 35.398 118.303 35.2376 118.623C35.0772 118.943 35.0197 119.424 35.0652 120.067C35.117 120.8 35.2484 121.338 35.4594 121.682C35.674 122.025 36.0099 122.181 36.4671 122.149ZM36.3143 122.881C35.5392 122.936 34.955 122.771 34.5616 122.386C34.1682 122.001 33.9422 121.394 33.8836 120.566C33.8161 119.612 33.9833 118.855 34.3852 118.295C34.7907 117.735 35.4096 117.426 36.2418 117.367C37.0169 117.312 37.6011 117.477 37.9945 117.862C38.3879 118.247 38.6141 118.856 38.6729 119.688C38.7402 120.638 38.571 121.393 38.1655 121.953C37.7636 122.513 37.1465 122.822 36.3143 122.881ZM41.8669 116.969C42.3383 116.936 42.7149 116.956 42.9965 117.029C43.2814 117.099 43.4311 117.235 43.4455 117.439C43.4604 117.65 43.3859 117.865 43.2219 118.085C42.4989 117.809 41.9337 117.686 41.5265 117.715C41.2515 117.734 41.048 117.801 40.916 117.914C40.7876 118.027 40.7304 118.182 40.7443 118.379C40.7587 118.582 40.8474 118.745 41.0103 118.866C41.1768 118.987 41.5075 119.12 42.0023 119.264C42.6247 119.436 43.0727 119.628 43.3463 119.842C43.6196 120.053 43.7705 120.36 43.7991 120.763C43.8352 121.274 43.6665 121.679 43.2928 121.978C42.9191 122.277 42.3697 122.453 41.6446 122.504C41.091 122.543 40.6649 122.534 40.3665 122.476C40.0716 122.418 39.9153 122.264 39.8977 122.014C39.8848 121.832 39.9418 121.648 40.0687 121.463C40.6997 121.706 41.2777 121.808 41.8028 121.771C42.1314 121.748 42.3723 121.677 42.5254 121.559C42.6786 121.44 42.7468 121.263 42.7301 121.027C42.7122 120.774 42.5748 120.582 42.318 120.453C42.0645 120.321 41.6698 120.171 41.1339 120.004C40.6057 119.844 40.2356 119.662 40.0237 119.458C39.8119 119.254 39.6941 118.984 39.6703 118.648C39.6382 118.195 39.807 117.815 40.1766 117.509C40.5462 117.203 41.1096 117.023 41.8669 116.969ZM55.0605 116.779C54.9681 117.148 54.7718 117.975 54.4714 119.26C54.1708 120.541 53.9597 121.261 53.8381 121.421C53.7164 121.576 53.5376 121.663 53.3018 121.679C52.9447 121.705 52.7468 121.699 52.7083 121.662C52.6734 121.625 52.4596 120.937 52.0668 119.597C51.6741 118.257 51.4616 117.588 51.4295 117.59C51.3974 117.593 51.281 118.231 51.0804 119.505C50.8831 120.775 50.7236 121.49 50.6021 121.65C50.4839 121.805 50.3122 121.891 50.0872 121.907C49.6407 121.938 49.3983 121.936 49.3598 121.899C49.3213 121.862 49.1143 121.245 48.7388 120.048C48.3633 118.85 48.1279 118.136 48.0327 117.906C47.941 117.676 47.8597 117.516 47.7888 117.428C47.7213 117.336 47.6546 117.281 47.5888 117.264C47.5263 117.244 47.4326 117.238 47.3076 117.247C47.254 117.15 47.2234 117.046 47.2155 116.935C47.2072 116.818 47.2538 116.741 47.3554 116.705C47.4569 116.669 47.7238 116.636 48.156 116.605C48.4132 116.587 48.5912 116.592 48.6902 116.621C48.7927 116.65 48.8668 116.707 48.9124 116.794C48.9616 116.88 49.0229 117.088 49.0964 117.416C49.1733 117.741 49.3554 118.412 49.6427 119.429C49.9336 120.446 50.0951 120.953 50.1273 120.951C50.163 120.948 50.2713 120.348 50.4522 119.151C50.6365 117.95 50.7629 117.047 50.8314 116.443C51.4802 116.379 51.8556 116.358 51.9576 116.379C52.063 116.397 52.1403 116.449 52.1894 116.535C52.2422 116.621 52.307 116.826 52.3838 117.151C52.4642 117.476 52.6538 118.152 52.9526 119.179C53.255 120.205 53.4223 120.718 53.4544 120.715C53.4901 120.713 53.6015 120.156 53.7885 119.044C53.9788 117.929 54.0813 117.196 54.0961 116.847L53.7907 116.869C53.7369 116.768 53.7063 116.665 53.6987 116.557C53.6911 116.45 53.7054 116.374 53.7417 116.328C53.7815 116.282 53.8497 116.256 53.9461 116.249L55.3338 116.151C55.3873 116.248 55.4181 116.353 55.4261 116.468C55.434 116.578 55.4161 116.655 55.3724 116.698C55.3288 116.74 55.2498 116.765 55.1355 116.774L55.0605 116.779ZM57.2469 115.041C57.0148 115.057 56.8399 115.021 56.7223 114.933C56.6048 114.844 56.5396 114.709 56.5267 114.527C56.5164 114.33 56.5767 114.168 56.7076 114.04C56.8386 113.912 57.0309 113.839 57.2845 113.822C57.5345 113.804 57.7168 113.843 57.8312 113.939C57.9455 114.031 58.0087 114.163 58.0208 114.335C58.0344 114.528 57.9795 114.69 57.8559 114.82C57.7321 114.948 57.5291 115.021 57.2469 115.041ZM58.4088 120.656L58.9767 120.616C59.0297 120.705 59.06 120.803 59.0676 120.911C59.0744 121.007 59.0594 121.075 59.0226 121.113C58.9859 121.152 58.9104 121.175 58.7961 121.183L56.6905 121.332C56.6395 121.221 56.6105 121.115 56.6034 121.015C56.5979 120.936 56.6117 120.878 56.6449 120.84C56.6814 120.798 56.7461 120.773 56.839 120.767L57.2354 120.739C57.2253 120.24 57.1966 119.657 57.1494 118.989C57.0917 118.175 57.0462 117.633 57.0127 117.362C56.9825 117.088 56.9405 116.901 56.8868 116.8C56.833 116.7 56.7624 116.64 56.6749 116.622C56.591 116.602 56.4865 116.597 56.3615 116.606C56.3098 116.534 56.2804 116.448 56.2733 116.348C56.2629 116.202 56.3263 116.108 56.4633 116.066C56.6003 116.024 56.8688 115.989 57.2689 115.96C57.5511 115.94 57.7432 115.941 57.8452 115.963C57.947 115.98 58.0077 116.026 58.0272 116.1C58.0466 116.171 58.0626 116.295 58.0752 116.474L58.2477 118.912C58.2949 119.58 58.3486 120.161 58.4088 120.656ZM59.876 115.83L60.2403 115.804L60.5666 114.252C60.7199 114.287 60.8506 114.334 60.9587 114.391C61.0704 114.447 61.1545 114.519 61.2108 114.604C61.2669 114.687 61.3132 114.987 61.3499 115.505L61.3654 115.724L63.1281 115.6C63.1793 115.714 63.2096 115.838 63.2189 115.97C63.2262 116.074 63.2115 116.145 63.1748 116.183C63.1377 116.218 63.0603 116.24 62.9424 116.248L61.4101 116.356L61.5894 118.891C61.6321 119.494 61.7157 119.889 61.84 120.074C61.9642 120.255 62.1373 120.343 62.3595 120.338C62.5853 120.333 62.8552 120.241 63.1691 120.06C63.256 120.173 63.3044 120.299 63.3142 120.438C63.3276 120.627 63.2312 120.761 63.025 120.841C62.8224 120.92 62.4961 120.975 62.0461 121.007C61.5567 121.041 61.1925 120.967 60.9533 120.783C60.7177 120.598 60.5805 120.233 60.5419 119.686L60.4528 118.427C60.4043 117.741 60.3376 117.079 60.2529 116.438L59.7278 116.476C59.6758 116.35 59.6456 116.226 59.637 116.105C59.6307 116.016 59.6458 115.95 59.6823 115.908C59.7185 115.862 59.7831 115.836 59.876 115.83ZM64.5994 115.474C64.5807 115.21 64.5536 114.928 64.518 114.629C64.4858 114.326 64.4457 114.114 64.3975 113.991C64.353 113.869 64.2848 113.793 64.193 113.763C64.1047 113.734 63.9927 113.724 63.857 113.733C63.8027 113.626 63.7718 113.519 63.7642 113.412C63.7564 113.301 63.7961 113.228 63.8834 113.193C63.9707 113.158 64.2643 113.123 64.7644 113.088C65.0465 113.068 65.2386 113.068 65.3407 113.09C65.4425 113.108 65.5031 113.154 65.5227 113.228C65.5421 113.298 65.5581 113.423 65.5707 113.601L65.731 115.868C65.9421 115.706 66.2009 115.558 66.5074 115.425C66.8172 115.288 67.1436 115.208 67.4865 115.184C67.9258 115.152 68.2729 115.239 68.5279 115.444C68.7862 115.644 68.9372 116.054 68.9809 116.672C69.1169 118.593 69.2157 119.609 69.2774 119.72C69.3426 119.83 69.4751 119.876 69.6749 119.859C69.7215 119.959 69.7485 120.062 69.7558 120.165C69.7626 120.262 69.7368 120.328 69.6784 120.365C69.6199 120.401 69.5085 120.425 69.3442 120.437C68.8478 120.472 68.5438 120.488 68.4323 120.485C68.3206 120.479 68.2429 120.446 68.1993 120.388C68.1555 120.327 68.1284 120.223 68.118 120.076L67.9546 117.767C67.9026 117.031 67.7894 116.548 67.615 116.316C67.4443 116.084 67.1856 115.98 66.8392 116.005C66.5427 116.026 66.2915 116.128 66.0855 116.311C65.8831 116.494 65.7973 116.804 65.8281 117.239L65.9081 118.37C65.9528 119.002 66.0065 119.583 66.0691 120.114L66.6639 120.072C66.7133 120.161 66.7418 120.26 66.7494 120.367C66.7562 120.464 66.7412 120.531 66.7045 120.57C66.6677 120.608 66.594 120.631 66.4832 120.639L64.3777 120.788C64.3231 120.677 64.2923 120.571 64.2853 120.471C64.2797 120.393 64.2953 120.334 64.3321 120.296C64.3686 120.254 64.4315 120.23 64.5208 120.223L64.8905 120.197C64.8788 119.627 64.8494 119.008 64.8022 118.34L64.5994 115.474ZM73.5632 114.861L73.9275 114.836L74.2538 113.283C74.4071 113.319 74.5378 113.365 74.646 113.422C74.7577 113.479 74.8417 113.55 74.898 113.636C74.9541 113.718 75.0004 114.018 75.0371 114.536L75.0526 114.756L76.8153 114.631C76.8665 114.746 76.8968 114.87 76.9061 115.002C76.9135 115.105 76.8987 115.176 76.862 115.215C76.825 115.25 76.7475 115.271 76.6297 115.28L75.0974 115.388L75.2766 117.922C75.3194 118.526 75.4029 118.92 75.5273 119.105C75.6514 119.287 75.8245 119.375 76.0468 119.37C76.2725 119.365 76.5424 119.272 76.8563 119.092C76.9432 119.204 76.9916 119.33 77.0015 119.469C77.0149 119.659 76.9185 119.793 76.7123 119.872C76.5097 119.951 76.1833 120.007 75.7333 120.038C75.2439 120.073 74.8797 119.998 74.6405 119.814C74.4049 119.63 74.2678 119.264 74.2291 118.718L74.14 117.459C74.0915 116.773 74.0249 116.11 73.9401 115.47L73.415 115.507C73.3631 115.382 73.3328 115.258 73.3242 115.137C73.3179 115.047 73.333 114.982 73.3695 114.94C73.4058 114.894 73.4703 114.868 73.5632 114.861ZM78.2866 114.506C78.2679 114.241 78.2408 113.96 78.2053 113.661C78.1731 113.358 78.1329 113.145 78.0848 113.023C78.0402 112.9 77.972 112.825 77.8802 112.795C77.7919 112.765 77.68 112.755 77.5442 112.765C77.49 112.658 77.459 112.55 77.4515 112.443C77.4436 112.332 77.4833 112.26 77.5706 112.225C77.6579 112.19 77.9516 112.155 78.4516 112.119C78.7338 112.099 78.9259 112.1 79.0279 112.122C79.1297 112.14 79.1904 112.186 79.21 112.26C79.2293 112.33 79.2453 112.454 79.2579 112.633L79.4183 114.899C79.6294 114.737 79.8882 114.59 80.1946 114.457C80.5044 114.32 80.8308 114.239 81.1737 114.215C81.613 114.184 81.9602 114.271 82.2152 114.475C82.4735 114.676 82.6245 115.085 82.6682 115.703C82.8041 117.625 82.9029 118.641 82.9646 118.751C83.0298 118.862 83.1623 118.908 83.3621 118.89C83.4087 118.991 83.4357 119.093 83.443 119.197C83.4499 119.293 83.424 119.36 83.3656 119.396C83.3072 119.433 83.1958 119.457 83.0315 119.468C82.535 119.503 82.231 119.519 82.1195 119.517C82.0078 119.51 81.9301 119.478 81.8865 119.42C81.8427 119.358 81.8156 119.255 81.8052 119.108L81.6419 116.799C81.5898 116.063 81.4766 115.579 81.3023 115.348C81.1315 115.116 80.8729 115.012 80.5264 115.036C80.23 115.057 79.9787 115.159 79.7727 115.343C79.5703 115.526 79.4845 115.835 79.5153 116.271L79.5953 117.401C79.64 118.034 79.6937 118.615 79.7564 119.145L80.3511 119.103C80.4005 119.193 80.429 119.292 80.4366 119.399C80.4434 119.495 80.4285 119.563 80.3917 119.601C80.3549 119.64 80.2812 119.663 80.1705 119.671L78.0649 119.82C78.0104 119.709 77.9796 119.603 77.9725 119.503C77.9669 119.425 77.9825 119.366 78.0193 119.327C78.0558 119.285 78.1187 119.261 78.208 119.255L78.5777 119.229C78.5661 118.659 78.5366 118.04 78.4894 117.372L78.2866 114.506ZM86.5154 114.532C86.1583 114.557 85.8959 114.705 85.7284 114.975C85.5606 115.242 85.4869 115.647 85.5075 116.192L86.0593 116.153C86.6451 116.111 87.0426 116.072 87.2518 116.036C87.4644 115.996 87.5848 115.948 87.6132 115.892C87.6451 115.836 87.6559 115.734 87.6455 115.588C87.6205 115.234 87.5116 114.964 87.3189 114.777C87.1261 114.589 86.8583 114.508 86.5154 114.532ZM86.6682 113.799C87.3326 113.752 87.8366 113.875 88.1803 114.166C88.524 114.458 88.7214 114.964 88.7724 115.686C88.7949 116.004 88.7534 116.229 88.648 116.362C88.5425 116.496 88.2969 116.576 87.9112 116.603L85.5431 116.771C85.5914 117.352 85.7398 117.801 85.9884 118.118C86.2405 118.434 86.654 118.571 87.2291 118.53C87.7649 118.493 88.2533 118.318 88.6943 118.007C88.8588 118.15 88.9471 118.307 88.9592 118.478C88.9761 118.717 88.7898 118.899 88.4001 119.024C88.0141 119.148 87.5728 119.228 87.0763 119.263C86.1619 119.328 85.4911 119.181 85.0637 118.824C84.6397 118.462 84.3952 117.823 84.3303 116.905C84.2664 116.001 84.4392 115.273 84.8488 114.72C85.2617 114.163 85.8681 113.856 86.6682 113.799ZM13.4869 135.753L13.6147 137.483C13.7394 137.571 13.8948 137.637 14.081 137.682C14.2708 137.726 14.4782 137.74 14.7032 137.724C15.1533 137.692 15.4627 137.525 15.6315 137.222C15.8037 136.915 15.8634 136.389 15.8105 135.642C15.759 134.964 15.6263 134.458 15.4124 134.125C15.1984 133.788 14.886 133.635 14.4752 133.664C14.2073 133.683 13.9933 133.753 13.8333 133.876C13.673 133.995 13.5624 134.157 13.5016 134.363C13.4443 134.568 13.4394 135.031 13.4869 135.753ZM12.3647 135.418C12.2578 133.907 12.1827 132.946 12.1393 132.537C12.0993 132.123 12.0552 131.855 12.0071 131.733C11.9625 131.61 11.8943 131.535 11.8025 131.505C11.7143 131.475 11.6023 131.465 11.4666 131.475C11.4123 131.368 11.3814 131.26 11.3738 131.153C11.3659 131.042 11.4057 130.97 11.4929 130.935C11.5802 130.9 11.8739 130.865 12.3739 130.829C12.6561 130.809 12.8482 130.81 12.9502 130.832C13.052 130.85 13.1127 130.896 13.1323 130.97C13.1516 131.04 13.1676 131.164 13.1803 131.343L13.2584 133.513C13.4725 133.343 13.7196 133.207 13.9995 133.105C14.2828 132.999 14.603 132.933 14.9602 132.908C15.5281 132.868 15.9932 133.023 16.3555 133.375C16.7211 133.722 16.9351 134.337 16.9975 135.219C17.0683 136.219 16.9005 136.994 16.4942 137.543C16.0913 138.089 15.4666 138.391 14.6201 138.451C14.3272 138.472 14.0575 138.466 13.8111 138.433C13.5682 138.4 13.3767 138.356 13.2364 138.301L13.0821 138.479C12.8428 138.496 12.6908 138.48 12.6263 138.431C12.5654 138.381 12.5297 138.283 12.5194 138.137C12.5105 138.012 12.4944 137.708 12.471 137.225C12.4512 136.741 12.4158 136.139 12.3647 135.418ZM20.2556 133.255C19.8984 133.28 19.636 133.428 19.4685 133.698C19.3007 133.965 19.2271 134.37 19.2477 134.914L19.7995 134.875C20.3853 134.834 20.7828 134.795 20.992 134.759C21.2045 134.719 21.325 134.671 21.3533 134.615C21.3853 134.559 21.396 134.457 21.3857 134.311C21.3607 133.957 21.2518 133.687 21.059 133.499C20.8663 133.312 20.5985 133.23 20.2556 133.255ZM20.4084 132.522C21.0727 132.475 21.5768 132.598 21.9205 132.889C22.2642 133.181 22.4615 133.687 22.5126 134.409C22.5351 134.727 22.4936 134.952 22.3881 135.085C22.2827 135.218 22.0371 135.299 21.6513 135.326L19.2832 135.493C19.3316 136.075 19.48 136.524 19.7285 136.84C19.9806 137.156 20.3942 137.294 20.9693 137.253C21.505 137.215 21.9934 137.041 22.4345 136.73C22.5989 136.872 22.6872 137.03 22.6994 137.201C22.7163 137.44 22.5299 137.622 22.1403 137.747C21.7542 137.871 21.3129 137.951 20.8165 137.986C19.9021 138.05 19.2312 137.904 18.8039 137.547C18.3799 137.185 18.1354 136.546 18.0704 135.628C18.0065 134.724 18.1793 133.996 18.5889 133.443C19.0018 132.886 19.6083 132.579 20.4084 132.522ZM25.7816 132.142C26.2531 132.109 26.6296 132.129 26.9112 132.202C27.1961 132.272 27.3458 132.408 27.3602 132.612C27.3751 132.823 27.3006 133.038 27.1367 133.258C26.4136 132.982 25.8485 132.859 25.4413 132.888C25.1662 132.907 24.9627 132.974 24.8308 133.087C24.7024 133.2 24.6451 133.355 24.659 133.552C24.6734 133.755 24.7621 133.918 24.925 134.039C25.0915 134.16 25.4222 134.293 25.917 134.437C26.5394 134.609 26.9874 134.801 27.261 135.015C27.5343 135.226 27.6853 135.533 27.7138 135.936C27.75 136.447 27.5812 136.852 27.2075 137.151C26.8338 137.451 26.2844 137.626 25.5594 137.677C25.0057 137.716 24.5797 137.707 24.2812 137.649C23.9864 137.591 23.8301 137.437 23.8124 137.187C23.7995 137.005 23.8565 136.821 23.9834 136.636C24.6144 136.879 25.1925 136.982 25.7175 136.944C26.0461 136.921 26.287 136.85 26.4401 136.732C26.5933 136.613 26.6615 136.436 26.6449 136.2C26.6269 135.947 26.4895 135.755 26.2327 135.626C25.9792 135.494 25.5845 135.344 25.0486 135.177C24.5204 135.017 24.1503 134.835 23.9385 134.631C23.7266 134.427 23.6088 134.157 23.5851 133.821C23.553 133.368 23.7217 132.988 24.0913 132.682C24.461 132.376 25.0244 132.196 25.7816 132.142ZM28.7319 132.068L29.0962 132.042L29.4225 130.49C29.5758 130.526 29.7065 130.572 29.8147 130.629C29.9264 130.686 30.0104 130.757 30.0667 130.843C30.1228 130.925 30.1691 131.225 30.2058 131.743L30.2213 131.963L31.984 131.838C32.0352 131.953 32.0655 132.076 32.0748 132.209C32.0822 132.312 32.0674 132.383 32.0307 132.422C31.9937 132.457 31.9162 132.478 31.7984 132.487L30.2661 132.595L30.4454 135.129C30.4881 135.733 30.5716 136.127 30.696 136.312C30.8201 136.494 30.9933 136.582 31.2155 136.577C31.4412 136.572 31.7111 136.479 32.025 136.299C32.1119 136.411 32.1603 136.537 32.1702 136.676C32.1836 136.866 32.0872 137 31.881 137.079C31.6784 137.158 31.352 137.213 30.902 137.245C30.4126 137.28 30.0484 137.205 29.8092 137.021C29.5736 136.837 29.4365 136.471 29.3978 135.925L29.3087 134.666C29.2602 133.98 29.1936 133.317 29.1088 132.677L28.5837 132.714C28.5318 132.588 28.5015 132.465 28.4929 132.343C28.4866 132.254 28.5017 132.189 28.5382 132.146C28.5745 132.101 28.639 132.075 28.7319 132.068ZM38.282 131.979C37.8177 132.012 37.5057 132.194 37.346 132.525C37.1861 132.852 37.1288 133.337 37.1743 133.98C37.2264 134.716 37.3575 135.25 37.5678 135.584C37.778 135.917 38.085 136.069 38.4886 136.041C38.7243 136.024 38.9338 135.966 39.117 135.867C39.3039 135.768 39.4286 135.628 39.4912 135.448C39.5538 135.267 39.5704 134.968 39.5408 134.55L39.3732 132.182C39.232 132.113 39.0683 132.058 38.8824 132.018C38.6964 131.977 38.4963 131.964 38.282 131.979ZM39.7739 138.378C39.7613 137.844 39.723 137.126 39.6591 136.222C39.451 136.377 39.2106 136.505 38.9378 136.607C38.665 136.709 38.3769 136.77 38.0732 136.792C37.4303 136.837 36.9381 136.678 36.5964 136.315C36.2548 135.951 36.0542 135.348 35.9946 134.505C35.9213 133.469 36.0919 132.684 36.5063 132.148C36.9204 131.609 37.5472 131.31 38.3866 131.25C38.5759 131.237 38.7589 131.237 38.9357 131.249C39.1125 131.262 39.3046 131.288 39.512 131.327L39.6634 130.88C39.9134 130.862 40.086 130.866 40.1812 130.892C40.2763 130.918 40.3392 130.969 40.3697 131.046C40.4003 131.122 40.4215 131.245 40.4334 131.413L40.7816 136.487C40.8294 137.162 40.8846 137.765 40.9473 138.295L41.408 138.263C41.461 138.352 41.4913 138.451 41.4989 138.558C41.5057 138.654 41.4908 138.722 41.454 138.76C41.4172 138.799 41.3417 138.822 41.2274 138.83L39.095 138.981C39.0441 138.87 39.0151 138.764 39.008 138.664C39.0024 138.585 39.0161 138.525 39.0491 138.483C39.0858 138.445 39.1507 138.422 39.2435 138.416L39.7739 138.378ZM46.6136 133.915C46.6644 134.633 46.7242 135.072 46.793 135.233C46.8618 135.393 46.9812 135.458 47.1514 135.428C47.2003 135.511 47.2277 135.593 47.2335 135.675C47.2429 135.807 47.1483 135.916 46.9497 136.002C46.7512 136.088 46.5555 136.138 46.3626 136.151C46.2376 136.16 46.1448 136.142 46.0841 136.096C46.0234 136.05 45.9245 135.92 45.7874 135.707C45.5133 135.892 45.226 136.043 44.9257 136.162C44.6289 136.279 44.3126 136.35 43.9769 136.374C43.534 136.405 43.1807 136.308 42.9171 136.083C42.6567 135.854 42.5035 135.412 42.4572 134.759C42.367 133.483 42.3051 132.711 42.2716 132.44C42.2415 132.166 42.1995 131.979 42.1457 131.878C42.092 131.778 42.0267 131.718 41.9499 131.698C41.8732 131.679 41.7901 131.672 41.7008 131.678C41.6491 131.607 41.6199 131.524 41.6134 131.431C41.6045 131.306 41.686 131.214 41.8577 131.156C42.0294 131.097 42.2707 131.056 42.5814 131.034C42.8279 131.017 42.9969 131.021 43.0884 131.047C43.1833 131.069 43.244 131.115 43.2705 131.185C43.3003 131.251 43.3294 131.484 43.3577 131.884L43.5006 133.904C43.5524 134.636 43.6666 135.109 43.8433 135.323C44.0235 135.536 44.2583 135.633 44.5476 135.612C44.7512 135.598 44.9464 135.541 45.1332 135.441C45.32 135.342 45.4401 135.213 45.4935 135.055C45.5505 134.897 45.5635 134.598 45.5324 134.159C45.4601 133.137 45.4093 132.495 45.3799 132.231C45.354 131.967 45.3158 131.781 45.2651 131.674C45.2177 131.562 45.1592 131.496 45.0895 131.476C45.0199 131.456 44.9315 131.45 44.8244 131.457C44.7726 131.386 44.7435 131.303 44.7369 131.21C44.7281 131.085 44.8131 130.993 44.992 130.934C45.1744 130.874 45.4031 130.835 45.6782 130.815C45.9246 130.798 46.0936 130.802 46.1852 130.828C46.2801 130.85 46.341 130.899 46.368 130.977C46.3986 131.053 46.428 131.292 46.4563 131.692L46.6136 133.915ZM51.4767 135.305C51.189 135.501 50.8896 135.657 50.5782 135.772C50.2702 135.884 49.9644 135.95 49.6608 135.972C49.1786 136.006 48.8117 135.919 48.56 135.711C48.3081 135.499 48.1664 135.169 48.1348 134.723C48.0961 134.176 48.2612 133.745 48.6301 133.428C48.9989 133.111 49.5906 132.924 50.4049 132.866L51.1925 132.811C51.1266 132.183 51.0046 131.752 50.8264 131.517C50.6518 131.282 50.3627 131.178 49.9591 131.207C49.7448 131.222 49.5409 131.258 49.3475 131.315C49.2586 131.529 49.2039 131.645 49.1835 131.66C49.1666 131.676 49.0671 131.715 48.8849 131.778C48.7025 131.838 48.5715 131.838 48.4919 131.779C48.4157 131.716 48.3321 131.6 48.2411 131.431C48.1537 131.261 48.1062 131.123 48.0987 131.016C48.0936 130.944 48.1183 130.887 48.1726 130.843C48.2306 130.8 48.4682 130.735 48.8857 130.648C49.3031 130.561 49.7493 130.5 50.2244 130.467C50.8566 130.422 51.3304 130.498 51.6459 130.695C51.9649 130.891 52.145 131.28 52.1862 131.863L52.3029 133.513C52.357 134.277 52.4221 134.741 52.4983 134.904C52.5781 135.067 52.6936 135.127 52.8449 135.084C52.8933 135.16 52.9202 135.235 52.9255 135.31C52.9341 135.432 52.8639 135.53 52.7148 135.605C52.5694 135.68 52.368 135.727 52.1109 135.745C51.9859 135.754 51.8883 135.744 51.8181 135.717C51.7518 135.693 51.638 135.556 51.4767 135.305ZM51.2414 133.502C50.9304 133.47 50.6107 133.466 50.2821 133.489C49.8749 133.518 49.5939 133.606 49.4392 133.753C49.2881 133.9 49.2229 134.12 49.2436 134.413C49.2638 134.699 49.3506 134.91 49.5038 135.046C49.6603 135.179 49.8904 135.234 50.194 135.213C50.4298 135.196 50.6461 135.134 50.8432 135.027C51.0402 134.919 51.165 134.781 51.2177 134.613C51.2737 134.44 51.289 134.175 51.2638 133.818L51.2414 133.502ZM54.3378 132.448C54.2309 130.937 54.1558 129.977 54.1124 129.567C54.0688 129.154 54.0229 128.886 53.9748 128.764C53.9302 128.641 53.8638 128.565 53.7756 128.536C53.6873 128.506 53.5736 128.496 53.4343 128.506C53.38 128.398 53.3491 128.291 53.3415 128.184C53.3337 128.073 53.3734 128 53.4606 127.966C53.5515 127.93 53.8452 127.895 54.3416 127.86C54.6238 127.84 54.8159 127.841 54.9179 127.862C55.0197 127.88 55.0804 127.926 55.1 128C55.1193 128.071 55.1353 128.195 55.148 128.374L55.4652 132.858C55.5295 133.715 55.5916 134.391 55.6518 134.886L56.2465 134.844C56.2959 134.934 56.3244 135.032 56.332 135.139C56.3388 135.236 56.3238 135.303 56.2871 135.342C56.2503 135.38 56.1766 135.403 56.0658 135.411L53.9335 135.562C53.879 135.451 53.8482 135.345 53.8411 135.245C53.8355 135.167 53.8511 135.108 53.8879 135.07C53.9244 135.028 53.9873 135.004 54.0766 134.997L54.4731 134.969C54.4665 134.471 54.4214 133.63 54.3378 132.448ZM57.8433 129.034C57.6111 129.05 57.4363 129.014 57.3187 128.926C57.2012 128.837 57.1359 128.702 57.1231 128.519C57.1127 128.323 57.173 128.161 57.304 128.033C57.435 127.905 57.6272 127.832 57.8808 127.814C58.1309 127.797 58.3131 127.836 58.4276 127.932C58.5418 128.024 58.605 128.156 58.6171 128.328C58.6308 128.52 58.5758 128.682 58.4523 128.813C58.3285 128.94 58.1255 129.014 57.8433 129.034ZM59.0051 134.648L59.573 134.608C59.626 134.698 59.6563 134.796 59.6639 134.903C59.6707 135 59.6558 135.067 59.619 135.106C59.5822 135.144 59.5067 135.168 59.3924 135.176L57.2868 135.325C57.2359 135.213 57.2069 135.108 57.1998 135.008C57.1942 134.929 57.2081 134.871 57.2413 134.833C57.2778 134.79 57.3425 134.766 57.4353 134.76L57.8318 134.732C57.8217 134.233 57.793 133.65 57.7457 132.982C57.6881 132.168 57.6425 131.625 57.6091 131.355C57.5789 131.081 57.5369 130.893 57.4831 130.793C57.4294 130.693 57.3588 130.633 57.2713 130.614C57.1873 130.595 57.0829 130.59 56.9579 130.599C56.9061 130.527 56.8767 130.441 56.8696 130.341C56.8593 130.195 56.9226 130.101 57.0596 130.059C57.1967 130.017 57.4652 129.981 57.8652 129.953C58.1474 129.933 58.3395 129.934 58.4415 129.955C58.5433 129.973 58.604 130.019 58.6236 130.093C58.643 130.164 58.6589 130.288 58.6716 130.467L58.844 132.905C58.8913 133.572 58.945 134.154 59.0051 134.648ZM60.4723 129.822L60.8366 129.797L61.163 128.244C61.3163 128.28 61.447 128.327 61.5551 128.384C61.6668 128.44 61.7508 128.512 61.8071 128.597C61.8632 128.679 61.9096 128.98 61.9462 129.497L61.9618 129.717L63.7244 129.592C63.7756 129.707 63.8059 129.831 63.8153 129.963C63.8226 130.066 63.8079 130.137 63.7711 130.176C63.7341 130.211 63.6567 130.233 63.5388 130.241L62.0065 130.349L62.1858 132.883C62.2285 133.487 62.312 133.881 62.4364 134.067C62.5605 134.248 62.7337 134.336 62.9559 134.331C63.1817 134.326 63.4515 134.233 63.7654 134.053C63.8524 134.166 63.9007 134.291 63.9106 134.431C63.924 134.62 63.8276 134.754 63.6214 134.833C63.4188 134.912 63.0925 134.968 62.6424 135C62.1531 135.034 61.7888 134.959 61.5496 134.775C61.314 134.591 61.1769 134.226 61.1382 133.679L61.0492 132.42C61.0006 131.734 60.934 131.071 60.8492 130.431L60.3242 130.468C60.2722 130.343 60.2419 130.219 60.2333 130.098C60.227 130.009 60.2421 129.943 60.2786 129.901C60.3149 129.855 60.3794 129.829 60.4723 129.822ZM69.1833 129.815C69.049 130.352 68.7824 131.48 68.3836 133.199C67.9882 134.918 67.6763 135.938 67.4478 136.259C67.2228 136.58 66.9562 136.794 66.6479 136.902C66.3432 137.01 65.9909 137.078 65.5908 137.106C65.2015 137.134 64.9459 137.123 64.824 137.074C64.7056 137.025 64.641 136.924 64.6302 136.77C64.6168 136.581 64.6654 136.405 64.7759 136.243C65.457 136.331 65.9553 136.346 66.2706 136.288C66.5863 136.234 66.8664 135.702 67.1109 134.694C66.8137 134.704 66.652 134.702 66.6257 134.685C66.5994 134.669 66.3693 134.081 65.9354 132.92C65.5015 131.759 65.2306 131.051 65.1229 130.796C65.0185 130.538 64.9359 130.361 64.8753 130.265C64.8179 130.165 64.7492 130.107 64.6691 130.091C64.5888 130.071 64.4861 130.066 64.3611 130.075C64.3063 129.96 64.2754 129.853 64.2683 129.753C64.2597 129.632 64.3154 129.556 64.4353 129.526C64.555 129.492 64.8005 129.462 65.172 129.436C65.4578 129.416 65.6519 129.42 65.7544 129.449C65.8567 129.474 65.9308 129.531 65.9767 129.621C66.0223 129.708 66.099 129.956 66.2069 130.364C66.3184 130.773 66.5369 131.452 66.8626 132.402C67.1916 133.348 67.3721 133.82 67.4043 133.817C67.4364 133.815 67.5596 133.248 67.7739 132.117C67.988 130.981 68.1042 130.239 68.1225 129.89L67.8332 129.91C67.783 129.81 67.7541 129.706 67.7465 129.599C67.739 129.491 67.7533 129.415 67.7896 129.369C67.8294 129.323 67.8957 129.297 67.9886 129.291L69.4995 129.184C69.553 129.281 69.5838 129.386 69.5919 129.5C69.5997 129.611 69.5818 129.688 69.5381 129.73C69.4945 129.773 69.4155 129.798 69.3012 129.806L69.1833 129.815ZM72.2086 134.377C71.9693 134.394 71.787 134.354 71.6618 134.259C71.5364 134.16 71.4666 134.011 71.4524 133.811C71.4382 133.611 71.4917 133.453 71.6127 133.337C71.7373 133.22 71.9067 133.154 72.121 133.139C72.3567 133.122 72.5373 133.163 72.6628 133.262C72.7882 133.361 72.858 133.51 72.8722 133.71C72.8863 133.91 72.8311 134.069 72.7066 134.185C72.5853 134.298 72.4193 134.362 72.2086 134.377ZM71.7499 132.385C71.4116 129.479 71.1806 127.712 71.057 127.081C71.2426 127.014 71.4907 126.97 71.8014 126.948C72.1158 126.926 72.2889 127.014 72.3209 127.213C72.3565 127.411 72.3966 129.119 72.4411 132.336L71.7499 132.385Z" fill="#BFBFBF"/>
</g>
</svg>
