<svg width="100" height="160" viewBox="0 0 100 160" fill="none" xmlns="http://www.w3.org/2000/svg">
<rect x="1" y="1" width="98" height="158" rx="13" fill="#F7F7F7" stroke="#D5D5D5" stroke-width="2" stroke-linecap="round" stroke-dasharray="8 8"/>
<mask id="mask0_730_857" style="mask-type:alpha" maskUnits="userSpaceOnUse" x="1" y="1" width="98" height="158">
<rect x="2" y="2" width="96" height="156" rx="12" fill="#F7F7F7" stroke="#D5D5D5" stroke-width="2" stroke-linecap="round" stroke-dasharray="8 8"/>
</mask>
<g mask="url(#mask0_730_857)">
<path d="M86.8849 122.08C80.8531 119.745 74.2691 121.928 71.2908 127.721C70.7697 129.587 77.4877 134.125 84.2916 136.025C91.0956 137.925 98.4518 135.307 98.7889 134.099C99.1414 132.837 96.5778 125.497 86.8849 122.08V122.08ZM44.9088 110.357C34.8482 108.257 28.9657 112.588 28.46 114.399C28.1075 115.661 33.646 121.881 39.8464 123.612C46.0468 125.344 54.7475 125.112 55.2685 123.246C55.7228 116.748 50.6193 111.301 44.9088 110.357V110.357ZM83.5447 157.761C73.0644 154.834 69.7084 140.588 59.8317 137.83C49.9549 135.071 39.0994 145.348 29.2227 142.59C16.2732 138.973 10.2794 124.641 16.1333 103.681C19.7499 90.7312 24.5231 88.0421 41.149 92.6853C57.7748 97.3286 60.2642 105.359 68.2754 107.596C76.2865 109.833 83.1251 104.408 99.2022 108.898C115.279 113.389 118.349 118.919 114.901 131.265C109.047 152.225 96.4942 161.378 83.5447 157.761Z" fill="#DADADA"/>
<path d="M13.4485 25.8658C13.177 25.885 12.9461 25.9193 12.7558 25.9686C12.7689 26.5097 12.8502 27.8358 12.9995 29.9467C13.0622 30.8325 13.1447 31.3382 13.2469 31.4638C13.3488 31.5858 13.6766 31.6272 14.2303 31.5881C14.8768 31.5423 15.3451 31.3118 15.6351 30.8964C15.9286 30.4772 16.0372 29.73 15.9612 28.6549C15.8831 27.5512 15.6412 26.7965 15.2356 26.3909C14.8336 25.985 14.2379 25.8099 13.4485 25.8658ZM11.0358 25.2503L13.2003 25.0972C14.6397 24.9954 15.6528 25.1839 16.2395 25.6629C16.8259 26.1384 17.161 26.9672 17.2446 28.1495C17.3384 29.4746 17.1303 30.4908 16.6203 31.1982C16.1104 31.9055 15.2143 32.3046 13.932 32.3953L11.3821 32.5811C11.3271 32.4629 11.2958 32.3503 11.2882 32.2431C11.2831 32.1717 11.2973 32.1186 11.3308 32.084C11.3676 32.0455 11.4288 32.0232 11.5145 32.0171L11.911 31.9891C11.9006 31.4872 11.8229 30.2112 11.6778 28.161C11.6003 27.0645 11.5314 26.2688 11.4713 25.7741L10.9034 25.8143C10.8483 25.6962 10.8172 25.5853 10.8098 25.4817C10.8045 25.4067 10.8186 25.3519 10.852 25.3172C10.8888 25.2787 10.95 25.2564 11.0358 25.2503ZM21.1265 31.2725C21.5337 31.2436 21.8175 31.0692 21.9779 30.7491C22.1383 30.4291 22.1959 29.9494 22.1507 29.31C22.0986 28.5742 21.9653 28.0344 21.7507 27.6907C21.5397 27.3466 21.2056 27.1908 20.7484 27.2231C20.3413 27.2519 20.0575 27.4264 19.897 27.7464C19.7366 28.0665 19.6791 28.548 19.7246 29.1909C19.7764 29.9231 19.9078 30.4613 20.1188 30.8053C20.3334 31.1491 20.6693 31.3048 21.1265 31.2725ZM20.9737 32.0048C20.1986 32.0596 19.6144 31.8946 19.221 31.5096C18.8276 31.1246 18.6016 30.5178 18.543 29.6891C18.4755 28.7354 18.6427 27.9788 19.0446 27.419C19.4502 26.8591 20.069 26.5497 20.9012 26.4908C21.6763 26.4359 22.2606 26.601 22.6539 26.986C23.0473 27.371 23.2735 27.9796 23.3323 28.8118C23.3996 29.7619 23.2304 30.5169 22.8249 31.0769C22.423 31.6366 21.8059 31.9459 20.9737 32.0048ZM25.7784 26.8619C26.1153 26.6011 26.4513 26.4032 26.7864 26.2682C27.125 26.133 27.43 26.0558 27.7015 26.0366C28.1765 26.003 28.5416 26.0884 28.7965 26.2929C29.0548 26.4936 29.2058 26.903 29.2496 27.5209C29.3855 29.4425 29.4843 30.4586 29.546 30.5691C29.6112 30.6793 29.7437 30.7256 29.9435 30.7079C29.9901 30.8087 30.0171 30.9109 30.0244 31.0145C30.0312 31.1109 30.0054 31.1773 29.947 31.2138C29.8885 31.2502 29.7772 31.2742 29.6129 31.2859C29.1164 31.321 28.8124 31.3371 28.7009 31.3342C28.5892 31.3278 28.5115 31.2956 28.4679 31.2376C28.4241 31.1761 28.397 31.0722 28.3866 30.9257L28.2233 28.6165C28.1712 27.8808 28.058 27.397 27.8837 27.1652C27.7129 26.9332 27.4543 26.8294 27.1078 26.854C26.8113 26.8749 26.5601 26.9771 26.3541 27.1604C26.1517 27.3434 26.0659 27.6528 26.0967 28.0886L26.1767 29.219C26.2214 29.8512 26.2751 30.4326 26.3378 30.963L26.9325 30.9209C26.9819 31.0107 27.0104 31.1092 27.018 31.2164C27.0248 31.3128 27.0098 31.3803 26.9731 31.4188C26.9363 31.4573 26.8626 31.4805 26.7518 31.4883L24.6463 31.6373C24.5918 31.5262 24.561 31.4207 24.5539 31.3207C24.5483 31.2421 24.5639 31.1836 24.6007 31.1451C24.6372 31.103 24.7001 31.0788 24.7894 31.0725L25.1591 31.0464C25.1475 30.4764 25.1125 29.7789 25.0541 28.9538C24.9796 27.9002 24.8953 27.2923 24.8012 27.1302C24.7072 26.9682 24.5441 26.8953 24.3119 26.9118C24.2584 26.815 24.2279 26.7131 24.2203 26.606C24.2135 26.5095 24.2467 26.4461 24.3199 26.4158C24.3929 26.3819 24.8642 26.3199 25.7337 26.2297C25.7667 26.3924 25.7816 26.6032 25.7784 26.8619ZM32.4064 24.126C32.4385 24.5797 32.3154 24.9958 32.0371 25.3745C31.7585 25.7495 31.4156 25.9515 31.0084 25.9803C30.9048 25.9876 30.8248 25.9718 30.7681 25.9327C30.7115 25.8936 30.6794 25.8205 30.6719 25.7134C30.6628 25.5848 30.6861 25.4575 30.7418 25.3315C30.9568 25.3773 31.1478 25.362 31.3147 25.2856C31.4851 25.2089 31.578 24.9995 31.5933 24.6574C31.4114 24.6236 31.2778 24.5613 31.1924 24.4704C31.1067 24.3759 31.059 24.2591 31.0491 24.1198C31.0362 23.9376 31.0884 23.7867 31.2055 23.6672C31.3263 23.5473 31.4902 23.4801 31.6974 23.4654C31.9046 23.4508 32.0693 23.4966 32.1917 23.6028C32.3177 23.7087 32.3893 23.8832 32.4064 24.126ZM33.9818 25.6999L34.3461 25.6742L34.6725 24.1219C34.8258 24.1577 34.9565 24.2041 35.0646 24.261C35.1763 24.3178 35.2603 24.389 35.3166 24.4747C35.3727 24.5569 35.4191 24.857 35.4557 25.3749L35.4713 25.5946L37.2339 25.4698C37.2851 25.5847 37.3154 25.7082 37.3248 25.8403C37.3321 25.9439 37.3174 26.015 37.2806 26.0535C37.2436 26.0884 37.1662 26.11 37.0483 26.1184L35.516 26.2268L35.6953 28.761C35.738 29.3646 35.8215 29.7589 35.9459 29.944C36.07 30.1254 36.2432 30.2137 36.4654 30.2088C36.6912 30.2036 36.961 30.1109 37.2749 29.9307C37.3619 30.043 37.4102 30.1688 37.4201 30.3081C37.4335 30.4974 37.3371 30.6317 37.1309 30.7109C36.9283 30.7898 36.602 30.8452 36.1519 30.8771C35.6626 30.9117 35.2983 30.837 35.0592 30.6529C34.8235 30.4685 34.6864 30.1031 34.6477 29.5566L34.5587 28.2975C34.5102 27.6118 34.4435 26.9488 34.3587 26.3086L33.8337 26.3458C33.7817 26.2202 33.7514 26.0967 33.7428 25.9753C33.7365 25.886 33.7516 25.8203 33.7881 25.7783C33.8244 25.7326 33.889 25.7065 33.9818 25.6999ZM43.1587 29.7729L43.9409 29.7176C43.9903 29.8074 44.0189 29.9059 44.0264 30.013C44.0333 30.1095 44.0183 30.1769 43.9815 30.2154C43.9448 30.2539 43.871 30.2771 43.7603 30.2849L41.4404 30.4491C41.3859 30.3381 41.3551 30.2325 41.348 30.1325C41.3425 30.054 41.3581 29.9954 41.3948 29.9569C41.4313 29.9148 41.4942 29.8907 41.5835 29.8843L41.98 29.8563C41.9734 29.3578 41.9465 28.7746 41.8993 28.1066L41.7351 25.7868L41.1083 25.8311C41.0563 25.7056 41.0261 25.5821 41.0175 25.4606C41.0112 25.3713 41.0263 25.3056 41.0628 25.2636C41.099 25.2179 41.1636 25.1918 41.2564 25.1853L41.6904 25.1546C41.6377 24.2573 41.7741 23.623 42.0996 23.2518C42.4252 22.8806 42.9665 22.6682 43.7238 22.6146C44.1559 22.584 44.4871 22.5965 44.7172 22.652C44.9472 22.7075 45.0691 22.8317 45.0827 23.0246C45.0949 23.196 45.0344 23.3816 44.9014 23.5812C44.2846 23.388 43.7941 23.3042 43.4298 23.33C43.1154 23.3522 42.9157 23.4722 42.8306 23.6901C42.7488 23.904 42.726 24.2664 42.7622 24.7772L42.7834 25.0772L44.2675 24.9722C44.3187 25.0871 44.349 25.2106 44.3583 25.3427C44.3656 25.4463 44.3509 25.5173 44.3142 25.5558C44.2771 25.5908 44.1997 25.6124 44.0818 25.6207L42.8281 25.7094L42.9923 28.0293C43.0395 28.6972 43.095 29.2784 43.1587 29.7729ZM48.0509 29.3675C48.4581 29.3387 48.7419 29.1643 48.9023 28.8442C49.0627 28.5242 49.1203 28.0445 49.0751 27.4051C49.0231 26.6693 48.8897 26.1295 48.6752 25.7857C48.4642 25.4417 48.1301 25.2859 47.6729 25.3182C47.2657 25.347 46.9819 25.5214 46.8214 25.8415C46.661 26.1616 46.6035 26.6431 46.649 27.286C46.7008 28.0182 46.8322 28.5563 47.0432 28.9004C47.2578 29.2442 47.5937 29.3999 48.0509 29.3675ZM47.8981 30.0999C47.123 30.1547 46.5388 29.9896 46.1454 29.6047C45.752 29.2197 45.526 28.6129 45.4674 27.7842C45.3999 26.8305 45.5671 26.0738 45.9691 25.5141C46.3746 24.9542 46.9934 24.6447 47.8257 24.5859C48.6007 24.531 49.185 24.6961 49.5784 25.0811C49.9717 25.4661 50.1979 26.0747 50.2568 26.9069C50.324 27.857 50.1548 28.612 49.7493 29.172C49.3474 29.7317 48.7303 30.041 47.8981 30.0999ZM51.1447 24.701C51.1379 24.6046 51.1711 24.5412 51.2443 24.5109C51.3173 24.477 51.7886 24.415 52.6581 24.3247C52.6911 24.4875 52.7067 24.7072 52.7047 24.9837C53.0822 24.6878 53.4495 24.4752 53.8065 24.3458C54.167 24.2162 54.4973 24.1408 54.7974 24.1195C54.8974 24.1125 54.9643 24.1203 54.9983 24.143C55.0355 24.1619 55.0569 24.2107 55.0624 24.2892C55.0733 24.4428 55.0599 24.6089 55.0223 24.7875C54.9883 24.9658 54.9389 25.0805 54.8744 25.1318C54.8098 25.183 54.6998 25.2267 54.5444 25.2628C54.389 25.2989 54.2965 25.3108 54.2669 25.2986C54.2409 25.2861 54.1536 25.1935 54.005 25.021C53.6871 25.0435 53.4371 25.1635 53.2551 25.3809C53.0728 25.5949 53.0033 26.0072 53.0465 26.618C53.1276 27.7143 53.1995 28.5276 53.2622 29.0581L54.0176 29.0046C54.0671 29.0945 54.0956 29.1929 54.1031 29.3001C54.11 29.3965 54.095 29.464 54.0582 29.5025C54.0215 29.541 53.9477 29.5642 53.837 29.572L51.5707 29.7323C51.5162 29.6213 51.4854 29.5158 51.4783 29.4158C51.4727 29.3372 51.4883 29.2787 51.5251 29.2402C51.5616 29.1981 51.6245 29.1739 51.7138 29.1676L52.0835 29.1415C52.0744 28.6072 52.0394 27.9097 51.9785 27.0489C51.904 25.9952 51.8197 25.3874 51.7257 25.2253C51.6316 25.0632 51.4685 24.9904 51.2364 25.0069C51.1828 24.9101 51.1523 24.8082 51.1447 24.701ZM58.0259 24.478C57.6866 24.502 57.4416 24.6163 57.291 24.8208C57.1401 25.0217 57.0823 25.3722 57.1177 25.8723C57.148 26.3009 57.2487 26.6079 57.4198 26.7932C57.5944 26.9783 57.8514 27.0588 58.1907 27.0348C58.5514 27.0093 58.8113 26.9029 58.9704 26.7158C59.1292 26.5251 59.1913 26.185 59.1567 25.6957C59.1261 25.2635 59.0157 24.9465 58.8256 24.7445C58.639 24.5423 58.3724 24.4535 58.0259 24.478ZM59.8479 24.3545C60.0732 24.6975 60.2002 25.0709 60.2287 25.4745C60.2714 26.0781 60.1113 26.5794 59.7482 26.9784C59.3887 27.3772 58.7929 27.606 57.9607 27.6649C57.5856 27.6914 57.3456 27.7497 57.2407 27.8397C57.1356 27.9261 57.0884 28.0461 57.0993 28.1997C57.1124 28.3854 57.1969 28.514 57.3527 28.5856C57.5086 28.6571 58.0597 28.6594 59.0063 28.5924C59.9385 28.5265 60.549 28.5802 60.8376 28.7536C61.1296 28.9232 61.2889 29.1955 61.3154 29.5706C61.3554 30.1349 61.0923 30.6023 60.5262 30.9726C59.9636 31.3426 59.0662 31.5712 57.834 31.6584C57.2339 31.7009 56.8263 31.6471 56.6111 31.4972C56.3961 31.3509 56.2782 31.1313 56.2575 30.8384C56.2421 30.6205 56.2835 30.3933 56.3816 30.1566C56.48 29.9235 56.6235 29.6943 56.8122 29.4692C56.6321 29.4101 56.4836 29.3148 56.3666 29.183C56.2529 29.0475 56.1887 28.8761 56.174 28.669C56.1589 28.4547 56.2128 28.2534 56.3359 28.0652C56.4588 27.8735 56.6547 27.6999 56.9237 27.5444C56.6885 27.4677 56.491 27.3148 56.3312 27.0856C56.175 26.8561 56.0832 26.5485 56.056 26.1628C56.0115 25.5341 56.168 25.0061 56.5254 24.5788C56.8826 24.1479 57.4488 23.905 58.2238 23.8502C58.6524 23.8199 59.0521 23.8616 59.4227 23.9754C59.8721 23.7318 60.1415 23.6068 60.2307 23.6005C60.6629 23.5699 60.8996 23.5658 60.9406 23.588C60.9814 23.6066 61.0037 23.6427 61.0075 23.6963C61.0141 23.7892 60.9807 23.9262 60.9074 24.1072C60.8373 24.2845 60.7648 24.3758 60.6898 24.3811C60.6184 24.3861 60.377 24.3225 59.9655 24.19L59.8479 24.3545ZM57.5071 29.4739C57.3909 29.6077 57.3045 29.7556 57.2477 29.9176C57.1946 30.0793 57.1737 30.2405 57.185 30.4013C57.2022 30.6441 57.2878 30.814 57.4419 30.9108C57.5959 31.0076 57.8926 31.0404 58.3319 31.0093C58.9748 30.9639 59.4534 30.8528 59.7675 30.6762C60.0853 30.4994 60.2338 30.2645 60.2131 29.9716C60.1949 29.7145 60.0626 29.5444 59.8162 29.4613C59.5698 29.3782 58.8001 29.3824 57.5071 29.4739ZM64.13 24.1539C63.7728 24.1791 63.5105 24.3269 63.3429 24.5972C63.1752 24.864 63.1015 25.2694 63.1221 25.8136L63.6739 25.7746C64.2597 25.7331 64.6572 25.6942 64.8664 25.6579C65.079 25.6177 65.1994 25.5697 65.2278 25.5139C65.2597 25.4577 65.2705 25.3565 65.2601 25.21C65.2351 24.8564 65.1262 24.5859 64.9335 24.3985C64.7407 24.2112 64.4729 24.1296 64.13 24.1539ZM64.2828 23.4215C64.9472 23.3745 65.4512 23.4968 65.7949 23.7884C66.1386 24.0799 66.336 24.5865 66.387 25.308C66.4095 25.6259 66.368 25.8514 66.2626 25.9845C66.1571 26.1176 65.9115 26.1978 65.5258 26.2251L63.1577 26.3926C63.206 26.9743 63.3544 27.4233 63.603 27.7395C63.8551 28.0555 64.2686 28.1932 64.8437 28.1525C65.3795 28.1146 65.8679 27.9401 66.3089 27.6289C66.4734 27.7716 66.5617 27.9287 66.5738 28.1001C66.5907 28.3394 66.4044 28.5213 66.0147 28.6458C65.6287 28.77 65.1874 28.8497 64.6909 28.8849C63.7765 28.9495 63.1057 28.8032 62.6783 28.4457C62.2543 28.0844 62.0098 27.4448 61.9449 26.5269C61.8809 25.6232 62.0538 24.8948 62.4634 24.3418C62.8763 23.7849 63.4827 23.4781 64.2828 23.4215ZM67.5546 23.3246L67.9189 23.2989L68.2452 21.7466C68.3985 21.7824 68.5292 21.8288 68.6374 21.8858C68.7491 21.9425 68.8331 22.0137 68.8894 22.0995C68.9455 22.1816 68.9918 22.4817 69.0285 22.9996L69.044 23.2193L70.8067 23.0946C70.8579 23.2094 70.8882 23.3329 70.8975 23.4651C70.9049 23.5686 70.8901 23.6397 70.8534 23.6782C70.8164 23.7131 70.7389 23.7347 70.6211 23.7431L69.0887 23.8515L69.268 26.3857C69.3108 26.9893 69.3943 27.3836 69.5187 27.5687C69.6428 27.7502 69.8159 27.8384 70.0382 27.8335C70.2639 27.8283 70.5338 27.7356 70.8477 27.5554C70.9346 27.6677 70.983 27.7935 70.9929 27.9328C71.0063 28.1221 70.9099 28.2564 70.7037 28.3356C70.5011 28.4146 70.1747 28.4699 69.7247 28.5018C69.2353 28.5364 68.8711 28.4617 68.6319 28.2776C68.3963 28.0932 68.2592 27.7278 68.2205 27.1813L68.1314 25.9223C68.0829 25.2365 68.0163 24.5735 67.9315 23.9334L67.4064 23.9705C67.3545 23.845 67.3242 23.7215 67.3156 23.6C67.3093 23.5107 67.3244 23.445 67.3609 23.403C67.3972 23.3573 67.4617 23.3312 67.5546 23.3246ZM74.8292 22.81L75.1935 22.7842L75.5199 21.2319C75.6732 21.2677 75.8039 21.3141 75.912 21.3711C76.0237 21.4278 76.1077 21.499 76.164 21.5848C76.2201 21.667 76.2665 21.967 76.3031 22.4849L76.3186 22.7046L78.0813 22.5799C78.1325 22.6947 78.1628 22.8182 78.1722 22.9504C78.1795 23.0539 78.1648 23.125 78.128 23.1635C78.091 23.1984 78.0135 23.22 77.8957 23.2284L76.3634 23.3368L76.5427 25.871C76.5854 26.4746 76.6689 26.869 76.7933 27.054C76.9174 27.2355 77.0906 27.3237 77.3128 27.3188C77.5386 27.3136 77.8084 27.2209 78.1223 27.0407C78.2092 27.1531 78.2576 27.2789 78.2675 27.4182C78.2809 27.6075 78.1845 27.7417 77.9783 27.8209C77.7757 27.8999 77.4494 27.9553 76.9993 27.9871C76.51 28.0217 76.1457 27.947 75.9065 27.7629C75.6709 27.5785 75.5338 27.2131 75.4951 26.6666L75.4061 25.4076C75.3575 24.7218 75.2909 24.0588 75.2061 23.4187L74.6811 23.4558C74.6291 23.3303 74.5988 23.2068 74.5902 23.0853C74.5839 22.996 74.599 22.9304 74.6355 22.8883C74.6718 22.8426 74.7363 22.8165 74.8292 22.81ZM81.7737 26.9816C82.1809 26.9528 82.4647 26.7784 82.6251 26.4583C82.7855 26.1383 82.8431 25.6586 82.7979 25.0192C82.7458 24.2834 82.6125 23.7436 82.3979 23.3998C82.1869 23.0558 81.8528 22.9 81.3956 22.9323C80.9885 22.9611 80.7046 23.1355 80.5442 23.4556C80.3838 23.7757 80.3263 24.2572 80.3718 24.9001C80.4236 25.6323 80.555 26.1704 80.766 26.5145C80.9806 26.8583 81.3165 27.014 81.7737 26.9816ZM81.6209 27.714C80.8458 27.7688 80.2616 27.6037 79.8682 27.2188C79.4748 26.8338 79.2488 26.227 79.1902 25.3983C79.1227 24.4446 79.2899 23.6879 79.6918 23.1282C80.0973 22.5683 80.7162 22.2588 81.5484 22.2C82.3235 22.1451 82.9078 22.3102 83.3011 22.6952C83.6945 23.0802 83.9207 23.6888 83.9795 24.521C84.0468 25.4711 83.8776 26.2261 83.4721 26.7861C83.0702 27.3458 82.4531 27.6551 81.6209 27.714ZM14.4959 37.9303C15.271 37.8755 15.8118 37.8839 16.1184 37.9555C16.4248 38.0236 16.5872 38.188 16.6056 38.4488C16.6226 38.6881 16.5412 38.9074 16.3614 39.1068C15.5871 38.817 14.8785 38.6948 14.2355 38.7403C13.7819 38.7724 13.4669 38.8862 13.2905 39.0818C13.1174 39.2735 13.0421 39.5283 13.0646 39.8462C13.0881 40.1784 13.2175 40.4348 13.4528 40.6156C13.6918 40.7962 14.1307 40.9625 14.7697 41.1148C15.5247 41.2839 16.1018 41.4997 16.5008 41.7623C16.9032 42.021 17.1379 42.471 17.2048 43.1124C17.2556 43.8304 17.0476 44.3907 16.5807 44.7935C16.1174 45.196 15.3803 45.433 14.3695 45.5045C13.6658 45.5543 13.1283 45.5421 12.7569 45.4679C12.3855 45.3936 12.1902 45.2208 12.171 44.9493C12.1536 44.7029 12.2418 44.4777 12.4355 44.2737C13.17 44.6094 13.9195 44.7502 14.6838 44.6962C15.2089 44.659 15.5761 44.5469 15.7854 44.3598C15.9947 44.1726 16.0867 43.9005 16.0615 43.5433C16.0311 43.1147 15.8477 42.8046 15.511 42.6131C15.178 42.4212 14.6536 42.2394 13.9379 42.0674C13.2446 41.9083 12.7423 41.6836 12.431 41.3933C12.123 41.0992 11.951 40.6986 11.9152 40.1914C11.8704 39.5591 12.0689 39.0408 12.5105 38.6362C12.9554 38.2278 13.6172 37.9925 14.4959 37.9303ZM23.1036 41.3328C23.2095 42.8294 23.2899 43.7875 23.3447 44.2072L23.9126 44.1671C23.9656 44.2566 23.9959 44.355 24.0035 44.4622C24.0103 44.5586 23.9953 44.6261 23.9586 44.6646C23.9218 44.7031 23.8463 44.7264 23.732 44.7344L21.8407 44.8683C21.7898 44.757 21.7607 44.6514 21.7537 44.5513C21.7481 44.4728 21.7619 44.4143 21.7951 44.3761C21.8316 44.334 21.8963 44.3097 21.9892 44.3031L22.1713 44.2903C22.1592 43.7634 22.1198 43.0285 22.053 42.0856C22.001 41.3498 21.8878 40.866 21.7134 40.6343C21.5427 40.4022 21.2841 40.2985 20.9376 40.323C20.7126 40.3389 20.4971 40.4385 20.2911 40.6218C20.0886 40.8049 20.0028 41.1143 20.0337 41.55L20.1136 42.6805C20.1584 43.3127 20.2121 43.894 20.2747 44.4244L20.7087 44.3937C20.7581 44.4836 20.7866 44.5821 20.7942 44.6892C20.801 44.7857 20.7861 44.8531 20.7493 44.8916C20.7125 44.9301 20.6388 44.9533 20.5281 44.9611L18.5832 45.0987C18.5287 44.9877 18.4979 44.8822 18.4908 44.7822C18.4853 44.7036 18.5009 44.6451 18.5376 44.6066C18.5741 44.5645 18.637 44.5403 18.7263 44.534L19.096 44.5078C19.0844 43.9379 19.0494 43.2404 18.991 42.4153C18.9165 41.3616 18.8322 40.7537 18.7382 40.5917C18.6442 40.4296 18.4811 40.3568 18.2489 40.3732C18.1954 40.2765 18.1648 40.1746 18.1572 40.0674C18.1504 39.971 18.1836 39.9076 18.2569 39.8773C18.3299 39.8434 18.8011 39.7813 19.6706 39.6911C19.7037 39.8539 19.7186 40.0646 19.7153 40.3233C20.0523 40.0626 20.3793 39.8653 20.6965 39.7316C21.0173 39.5976 21.317 39.5208 21.5956 39.5011C21.9492 39.4761 22.2251 39.5194 22.4232 39.631C22.6211 39.739 22.7607 39.8853 22.842 40.0698C23.148 39.8292 23.458 39.6439 23.7718 39.514C24.089 39.3803 24.3834 39.3038 24.6548 39.2846C25.0942 39.2536 25.4413 39.3403 25.6963 39.5448C25.9546 39.7455 26.1056 40.1548 26.1493 40.7727C26.2853 42.6943 26.3841 43.7104 26.4457 43.8209C26.511 43.9312 26.6435 43.9774 26.8433 43.9597C26.8899 44.0605 26.9168 44.1627 26.9242 44.2663C26.931 44.3627 26.9052 44.4292 26.8467 44.4656C26.7883 44.5021 26.6769 44.5261 26.5126 44.5377C26.0161 44.5728 25.7122 44.589 25.6007 44.5861C25.4889 44.5796 25.4113 44.5474 25.3677 44.4895C25.3238 44.428 25.2967 44.324 25.2864 44.1776L25.123 41.8684C25.071 41.1326 24.9578 40.6488 24.7834 40.4171C24.6126 40.185 24.354 40.0813 24.0076 40.1058C23.7825 40.1217 23.567 40.2213 23.361 40.4046C23.1586 40.5877 23.0728 40.897 23.1036 41.3328ZM28.5579 38.1416C28.3258 38.158 28.1509 38.1219 28.0334 38.0333C27.9158 37.9447 27.8506 37.8093 27.8377 37.6272C27.8274 37.4305 27.8877 37.2682 28.0187 37.1405C28.1496 37.0128 28.3419 36.94 28.5955 36.922C28.8455 36.9043 29.0278 36.9435 29.1423 37.0395C29.2565 37.1319 29.3197 37.2639 29.3318 37.4353C29.3454 37.6282 29.2905 37.79 29.1669 37.9208C29.0431 38.048 28.8401 38.1216 28.5579 38.1416ZM29.7198 43.7562L30.2877 43.716C30.3407 43.8056 30.371 43.904 30.3786 44.0111C30.3854 44.1076 30.3704 44.175 30.3337 44.2135C30.2969 44.252 30.2214 44.2753 30.1071 44.2834L28.0015 44.4324C27.9505 44.3211 27.9215 44.2155 27.9145 44.1155C27.9089 44.0369 27.9227 43.9785 27.9559 43.9402C27.9924 43.8982 28.0571 43.8738 28.15 43.8673L28.5464 43.8392C28.5363 43.341 28.5076 42.7579 28.4604 42.09C28.4027 41.2756 28.3572 40.7332 28.3237 40.4627C28.2935 40.1885 28.2516 40.0012 28.1978 39.9009C28.144 39.8006 28.0734 39.741 27.9859 39.722C27.902 39.7028 27.7975 39.6977 27.6725 39.7065C27.6208 39.6348 27.5914 39.5489 27.5843 39.4489C27.5739 39.3025 27.6373 39.2082 27.7743 39.1662C27.9113 39.1242 28.1798 39.0891 28.5799 39.0608C28.8621 39.0408 29.0542 39.0416 29.1562 39.0631C29.258 39.081 29.3187 39.127 29.3383 39.201C29.3576 39.2714 29.3736 39.3959 29.3862 39.5745L29.5587 42.0122C29.606 42.6802 29.6596 43.2615 29.7198 43.7562ZM31.7163 41.0842C31.6094 39.5734 31.5343 38.613 31.4909 38.2033C31.4473 37.79 31.4014 37.5222 31.3533 37.4C31.3087 37.2775 31.2423 37.2014 31.1541 37.1718C31.0658 37.1421 30.9521 37.1322 30.8128 37.1421C30.7585 37.0346 30.7276 36.9273 30.72 36.8202C30.7122 36.7094 30.7519 36.6366 30.8391 36.6017C30.93 36.5666 31.2237 36.5315 31.7201 36.4963C32.0023 36.4764 32.1944 36.4771 32.2964 36.4986C32.3982 36.5166 32.4589 36.5625 32.4785 36.6365C32.4978 36.707 32.5138 36.8315 32.5265 37.01L32.8437 41.4944C32.908 42.3514 32.9701 43.0273 33.0303 43.522L33.625 43.4799C33.6744 43.5697 33.7029 43.6682 33.7105 43.7754C33.7173 43.8718 33.7023 43.9393 33.6656 43.9778C33.6288 44.0163 33.5551 44.0395 33.4443 44.0473L31.312 44.1982C31.2575 44.0871 31.2267 43.9816 31.2196 43.8816C31.214 43.803 31.2296 43.7445 31.2664 43.706C31.3029 43.6639 31.3658 43.6397 31.4551 43.6334L31.8516 43.6054C31.845 43.1069 31.7999 42.2665 31.7163 41.0842ZM36.6658 39.1295C36.3086 39.1547 36.0462 39.3025 35.8787 39.5728C35.7109 39.8396 35.6373 40.245 35.6578 40.7892L36.2097 40.7502C36.7955 40.7087 37.193 40.6698 37.4022 40.6335C37.6147 40.5933 37.7352 40.5453 37.7635 40.4895C37.7954 40.4334 37.8062 40.3321 37.7959 40.1856C37.7709 39.832 37.662 39.5615 37.4692 39.3741C37.2765 39.1868 37.0087 39.1052 36.6658 39.1295ZM36.8186 38.3971C37.4829 38.3501 37.987 38.4724 38.3307 38.764C38.6744 39.0556 38.8717 39.5621 38.9228 40.2836C38.9453 40.6015 38.9038 40.827 38.7983 40.9601C38.6929 41.0932 38.4473 41.1734 38.0615 41.2007L35.6934 41.3682C35.7418 41.9499 35.8902 42.3989 36.1387 42.7151C36.3908 43.0311 36.8044 43.1688 37.3794 43.1281C37.9152 43.0902 38.4036 42.9157 38.8447 42.6045C39.0091 42.7472 39.0974 42.9043 39.1096 43.0757C39.1265 43.315 38.9401 43.4969 38.5505 43.6214C38.1644 43.7457 37.7231 43.8253 37.2266 43.8605C36.3123 43.9252 35.6414 43.7788 35.2141 43.4213C34.7901 43.06 34.5456 42.4204 34.4806 41.5025C34.4167 40.5988 34.5895 39.8704 34.9991 39.3174C35.412 38.7605 36.0185 38.4537 36.8186 38.3971ZM50.3337 38.184C50.2413 38.5531 50.045 39.38 49.7446 40.6648C49.444 41.9461 49.2329 42.6664 49.1113 42.8258C48.9895 42.9816 48.8108 43.0678 48.575 43.0845C48.2178 43.1097 48.02 43.104 47.9815 43.0672C47.9466 43.0302 47.7327 42.3418 47.34 41.0019C46.9473 39.662 46.7348 38.9932 46.7027 38.9955C46.6705 38.9978 46.5542 39.636 46.3535 40.9102C46.1562 42.1805 45.9968 42.8954 45.8753 43.0547C45.7571 43.2103 45.5854 43.296 45.3604 43.3119C44.9139 43.3435 44.6714 43.3409 44.6329 43.3042C44.5944 43.2674 44.3875 42.6503 44.012 41.4527C43.6365 40.2552 43.4011 39.5414 43.3058 39.3112C43.2142 39.0808 43.1329 38.9214 43.062 38.8331C42.9945 38.7409 42.9278 38.6864 42.862 38.6695C42.7995 38.6488 42.7058 38.6429 42.5807 38.6517C42.5272 38.555 42.4966 38.4513 42.4887 38.3406C42.4804 38.2227 42.527 38.1458 42.6286 38.1099C42.7301 38.074 42.997 38.0408 43.4292 38.0102C43.6863 37.992 43.8644 37.9973 43.9634 38.0262C44.0659 38.0549 44.14 38.1125 44.1856 38.199C44.2348 38.2852 44.2961 38.4927 44.3696 38.8213C44.4465 39.1461 44.6285 39.8171 44.9159 40.8342C45.2068 41.851 45.3683 42.3583 45.4005 42.356C45.4362 42.3535 45.5445 41.7535 45.7254 40.5561C45.9097 39.3549 46.036 38.4521 46.1046 37.8478C46.7534 37.784 47.1288 37.7628 47.2308 37.7843C47.3362 37.802 47.4134 37.8539 47.4626 37.9402C47.5154 38.0262 47.5802 38.2316 47.657 38.5564C47.7374 38.881 47.927 39.5568 48.2258 40.5838C48.5282 41.6106 48.6955 42.1229 48.7276 42.1206C48.7633 42.1181 48.8747 41.561 49.0617 40.4493C49.252 39.3338 49.3545 38.6015 49.3693 38.2522L49.0639 38.2738C49.0101 38.1735 48.9795 38.0698 48.9719 37.9626C48.9643 37.8555 48.9786 37.7791 49.0149 37.7335C49.0547 37.6876 49.1228 37.6612 49.2193 37.6544L50.6069 37.5562C50.6604 37.6529 50.6912 37.7584 50.6993 37.8727C50.7072 37.9835 50.6892 38.0601 50.6456 38.1027C50.6019 38.1453 50.523 38.1706 50.4087 38.1787L50.3337 38.184ZM52.1479 37.4256C52.1292 37.1613 52.1021 36.8797 52.0665 36.5806C52.0344 36.2778 51.9942 36.0653 51.9461 35.943C51.9015 35.8205 51.8333 35.7446 51.7415 35.7152C51.6532 35.6855 51.5412 35.6755 51.4055 35.6851C51.3512 35.5777 51.3203 35.4704 51.3127 35.3632C51.3049 35.2525 51.3446 35.1797 51.4319 35.1448C51.5192 35.1099 51.8128 35.0748 52.3129 35.0394C52.5951 35.0194 52.7872 35.0202 52.8892 35.0417C52.991 35.0596 53.0517 35.1056 53.0712 35.1796C53.0906 35.25 53.1066 35.3745 53.1192 35.5531L53.2796 37.8194C53.4906 37.6573 53.7494 37.5098 54.0559 37.3768C54.3657 37.24 54.6921 37.1595 55.035 37.1352C55.4743 37.1041 55.8215 37.1909 56.0764 37.3954C56.3347 37.5961 56.4857 38.0054 56.5295 38.6233C56.6654 40.5449 56.7642 41.561 56.8259 41.6715C56.8911 41.7818 57.0236 41.828 57.2234 41.8103C57.27 41.9111 57.297 42.0133 57.3043 42.1169C57.3111 42.2133 57.2853 42.2798 57.2269 42.3162C57.1684 42.3526 57.0571 42.3767 56.8927 42.3883C56.3963 42.4234 56.0923 42.4396 55.9808 42.4367C55.8691 42.4302 55.7914 42.398 55.7478 42.3401C55.704 42.2786 55.6769 42.1746 55.6665 42.0281L55.5031 39.719C55.4511 38.9832 55.3379 38.4994 55.1635 38.2676C54.9928 38.0356 54.7342 37.9319 54.3877 37.9564C54.0912 37.9774 53.84 38.0795 53.634 38.2628C53.4316 38.4458 53.3458 38.7552 53.3766 39.191L53.4566 40.3215C53.5013 40.9537 53.555 41.535 53.6177 42.0654L54.2124 42.0233C54.2618 42.1132 54.2903 42.2117 54.2979 42.3188C54.3047 42.4153 54.2897 42.4827 54.253 42.5212C54.2162 42.5597 54.1425 42.5829 54.0317 42.5907L51.9262 42.7397C51.8716 42.6287 51.8408 42.5232 51.8338 42.4232C51.8282 42.3446 51.8438 42.286 51.8806 42.2475C51.9171 42.2055 51.98 42.1813 52.0693 42.175L52.439 42.1488C52.4274 41.5789 52.3979 40.9599 52.3507 40.292L52.1479 37.4256ZM60.3767 37.4519C60.0195 37.4772 59.7572 37.625 59.5896 37.8953C59.4218 38.162 59.3482 38.5675 59.3688 39.1116L59.9206 39.0726C60.5064 39.0312 60.9039 38.9923 61.1131 38.9559C61.3256 38.9158 61.4461 38.8677 61.4744 38.8119C61.5064 38.7558 61.5172 38.6545 61.5068 38.5081C61.4818 38.1545 61.3729 37.884 61.1802 37.6966C60.9874 37.5092 60.7196 37.4276 60.3767 37.4519ZM60.5295 36.7196C61.1939 36.6726 61.6979 36.7948 62.0416 37.0864C62.3853 37.378 62.5827 37.8845 62.6337 38.606C62.6562 38.9239 62.6147 39.1494 62.5093 39.2825C62.4038 39.4156 62.1582 39.4958 61.7725 39.5231L59.4043 39.6907C59.4527 40.2724 59.6011 40.7213 59.8496 41.0376C60.1017 41.3536 60.5153 41.4912 61.0904 41.4506C61.6261 41.4127 62.1146 41.2381 62.5556 40.9269C62.7201 41.0696 62.8084 41.2267 62.8205 41.3982C62.8374 41.6375 62.6511 41.8194 62.2614 41.9439C61.8753 42.0681 61.4341 42.1478 60.9376 42.1829C60.0232 42.2476 59.3523 42.1012 58.925 41.7438C58.501 41.3825 58.2565 40.7429 58.1916 39.8249C58.1276 38.9213 58.3004 38.1929 58.71 37.6398C59.1229 37.0829 59.7294 36.7762 60.5295 36.7196ZM65.1548 37.1085C65.4918 36.8477 65.8278 36.6498 66.1628 36.5148C66.5014 36.3796 66.8065 36.3024 67.0779 36.2832C67.553 36.2496 67.918 36.335 68.173 36.5395C68.4313 36.7402 68.5823 37.1495 68.626 37.7675C68.762 39.6891 68.8608 40.7052 68.9224 40.8157C68.9877 40.9259 69.1202 40.9722 69.3199 40.9545C69.3666 41.0553 69.3935 41.1575 69.4009 41.261C69.4077 41.3575 69.3819 41.4239 69.3234 41.4604C69.265 41.4968 69.1536 41.5208 68.9893 41.5325C68.4928 41.5676 68.1888 41.5837 68.0774 41.5808C67.9656 41.5744 67.888 41.5422 67.8444 41.4842C67.8005 41.4227 67.7734 41.3188 67.7631 41.1723L67.5997 38.8631C67.5476 38.1273 67.4344 37.6436 67.2601 37.4118C67.0893 37.1798 66.8307 37.076 66.4842 37.1006C66.1878 37.1215 65.9366 37.2237 65.7306 37.4069C65.5281 37.59 65.4423 37.8994 65.4732 38.3351L65.5531 39.4656C65.5979 40.0978 65.6516 40.6791 65.7142 41.2096L66.3089 41.1675C66.3584 41.2573 66.3869 41.3558 66.3944 41.463C66.4013 41.5594 66.3863 41.6269 66.3495 41.6654C66.3128 41.7039 66.239 41.7271 66.1283 41.7349L64.0227 41.8839C63.9682 41.7728 63.9374 41.6673 63.9303 41.5673C63.9248 41.4887 63.9404 41.4302 63.9771 41.3917C64.0136 41.3496 64.0765 41.3254 64.1658 41.3191L64.5355 41.293C64.5239 40.723 64.4889 40.0255 64.4305 39.2004C64.356 38.1468 64.2717 37.5389 64.1777 37.3768C64.0837 37.2148 63.9206 37.1419 63.6884 37.1584C63.6349 37.0616 63.6043 36.9597 63.5968 36.8525C63.5899 36.7561 63.6231 36.6927 63.6964 36.6624C63.7694 36.6285 64.2406 36.5665 65.1101 36.4762C65.1432 36.639 65.1581 36.8498 65.1548 37.1085ZM77.5426 36.2589C77.4083 36.7961 77.1417 37.9242 76.7428 39.6432C76.3475 41.3619 76.0356 42.3819 75.807 42.7032C75.5821 43.0242 75.3154 43.2387 75.0072 43.3467C74.7025 43.4544 74.3501 43.5224 73.9501 43.5507C73.5608 43.5782 73.3052 43.5676 73.1832 43.5188C73.0649 43.4697 73.0003 43.3684 72.9894 43.2148C72.976 43.0255 73.0246 42.8498 73.1352 42.6876C73.8163 42.7758 74.3145 42.7908 74.6299 42.7326C74.9455 42.678 75.2256 42.1466 75.4702 41.1386C75.173 41.1488 75.0112 41.1459 74.985 41.1298C74.9587 41.1137 74.7286 40.5251 74.2947 39.3641C73.8607 38.203 73.5899 37.4952 73.4821 37.2408C73.3777 36.9826 73.2952 36.8053 73.2345 36.7091C73.1772 36.6091 73.1085 36.5511 73.0284 36.5352C72.948 36.5158 72.8454 36.5105 72.7203 36.5193C72.6656 36.4048 72.6346 36.2975 72.6276 36.1975C72.619 36.076 72.6746 36.0003 72.7946 35.9703C72.9142 35.9367 73.1598 35.9067 73.5313 35.8804C73.817 35.8602 74.0112 35.8644 74.1137 35.8931C74.216 35.9182 74.2901 35.9757 74.3359 36.0658C74.3815 36.1523 74.4583 36.4 74.5662 36.8087C74.6776 37.2173 74.8962 37.8964 75.2218 38.8462C75.5508 39.7921 75.7314 40.2639 75.7635 40.2617C75.7957 40.2594 75.9189 39.6925 76.1332 38.5609C76.3472 37.4258 76.4634 36.6835 76.4818 36.334L76.1925 36.3545C76.1423 36.2539 76.1134 36.1501 76.1058 36.0429C76.0982 35.9358 76.1126 35.8594 76.1488 35.8137C76.1886 35.7678 76.255 35.7416 76.3479 35.735L77.8587 35.6281C77.9122 35.7248 77.943 35.8304 77.9511 35.9447C77.959 36.0554 77.9411 36.132 77.8974 36.1746C77.8537 36.2172 77.7748 36.2425 77.6605 36.2506L77.5426 36.2589ZM81.4386 40.0378C81.8457 40.009 82.1296 39.8346 82.29 39.5145C82.4504 39.1945 82.508 38.7148 82.4628 38.0754C82.4107 37.3396 82.2774 36.7998 82.0628 36.456C81.8518 36.112 81.5177 35.9562 81.0605 35.9885C80.6533 36.0173 80.3695 36.1918 80.2091 36.5118C80.0487 36.8319 79.9912 37.3134 80.0367 37.9563C80.0885 38.6885 80.2199 39.2266 80.4309 39.5707C80.6455 39.9145 80.9814 40.0702 81.4386 40.0378ZM81.2858 40.7702C80.5107 40.825 79.9264 40.6599 79.5331 40.275C79.1397 39.89 78.9137 39.2832 78.855 38.4545C78.7876 37.5008 78.9548 36.7441 79.3567 36.1844C79.7622 35.6245 80.3811 35.3151 81.2133 35.2562C81.9884 35.2013 82.5726 35.3664 82.966 35.7514C83.3594 36.1364 83.5855 36.745 83.6444 37.5772C83.7116 38.5273 83.5425 39.2823 83.137 39.8423C82.7351 40.402 82.118 40.7113 81.2858 40.7702ZM89.2957 37.9312C89.3465 38.6491 89.4063 39.0882 89.4751 39.2485C89.5439 39.4087 89.6633 39.4739 89.8335 39.4439C89.8824 39.5266 89.9098 39.609 89.9156 39.6912C89.925 39.8233 89.8304 39.9323 89.6318 40.0182C89.4333 40.104 89.2376 40.1537 89.0447 40.1674C88.9197 40.1762 88.8269 40.1577 88.7662 40.1117C88.7055 40.0657 88.6066 39.9363 88.4695 39.7235C88.1954 39.908 87.9081 40.0593 87.6078 40.1775C87.311 40.2954 86.9947 40.3663 86.659 40.39C86.2161 40.4214 85.8628 40.3243 85.5992 40.0989C85.3388 39.8696 85.1856 39.4281 85.1393 38.7745C85.0491 37.4994 84.9872 36.7266 84.9537 36.4561C84.9236 36.1819 84.8816 35.9946 84.8278 35.8943C84.7741 35.794 84.7088 35.734 84.632 35.7143C84.5553 35.6946 84.4722 35.6879 84.3829 35.6942C84.3312 35.6225 84.302 35.5402 84.2955 35.4473C84.2866 35.3223 84.3681 35.2304 84.5398 35.1716C84.7115 35.1128 84.9528 35.0724 85.2635 35.0504C85.51 35.0329 85.679 35.0371 85.7705 35.063C85.8654 35.085 85.9261 35.1309 85.9526 35.2009C85.9824 35.267 86.0115 35.5 86.0398 35.9001L86.1827 37.9199C86.2345 38.6521 86.3487 39.1251 86.5254 39.3387C86.7056 39.5521 86.9404 39.6486 87.2297 39.6281C87.4333 39.6137 87.6285 39.5568 87.8153 39.4575C88.0021 39.3581 88.1222 39.2293 88.1756 39.0712C88.2326 38.9128 88.2456 38.614 88.2145 38.1746C88.1422 37.1531 88.0914 36.5105 88.062 36.247C88.0361 35.9832 87.9979 35.7974 87.9472 35.6897C87.8998 35.5782 87.8413 35.5124 87.7716 35.4922C87.702 35.472 87.6136 35.4656 87.5065 35.4732C87.4547 35.4015 87.4256 35.3192 87.419 35.2263C87.4102 35.1013 87.4952 35.0092 87.6741 34.9498C87.8565 34.8903 88.0852 34.8507 88.3603 34.8313C88.6067 34.8139 88.7757 34.818 88.8673 34.8439C88.9622 34.8659 89.0231 34.9154 89.0501 34.9925C89.0807 35.0693 89.1101 35.3077 89.1384 35.7078L89.2957 37.9312ZM13.0122 54.251L13.3765 54.2253L13.7028 52.673C13.8561 52.7088 13.9869 52.7552 14.095 52.8121C14.2067 52.8689 14.2907 52.9401 14.347 53.0259C14.4031 53.108 14.4495 53.4081 14.4861 53.926L14.5016 54.1457L16.2643 54.021C16.3155 54.1358 16.3458 54.2593 16.3551 54.3914C16.3625 54.495 16.3478 54.5661 16.311 54.6046C16.274 54.6395 16.1965 54.6611 16.0787 54.6695L14.5464 54.7779L14.7257 57.3121C14.7684 57.9157 14.8519 58.31 14.9763 58.4951C15.1004 58.6766 15.2736 58.7648 15.4958 58.7599C15.7216 58.7547 15.9914 58.662 16.3053 58.4818C16.3922 58.5941 16.4406 58.7199 16.4505 58.8592C16.4639 59.0485 16.3675 59.1828 16.1613 59.262C15.9587 59.3409 15.6323 59.3963 15.1823 59.4282C14.693 59.4628 14.3287 59.3881 14.0895 59.204C13.8539 59.0196 13.7168 58.6542 13.6781 58.1077L13.589 56.8486C13.5405 56.1629 13.4739 55.4999 13.3891 54.8597L12.864 54.8969C12.8121 54.7713 12.7818 54.6478 12.7732 54.5264C12.7669 54.4371 12.782 54.3714 12.8185 54.3294C12.8548 54.2837 12.9193 54.2576 13.0122 54.251ZM20.7411 58.5503C20.4534 58.7465 20.1539 58.9023 19.8426 59.0177C19.5346 59.1292 19.2288 59.1957 18.9252 59.2172C18.443 59.2513 18.0761 59.1642 17.8244 58.9559C17.5725 58.744 17.4308 58.4148 17.3992 57.9683C17.3605 57.4218 17.5256 56.9901 17.8945 56.6733C18.2633 56.3564 18.8549 56.1692 19.6693 56.1115L20.4569 56.0558C20.391 55.4287 20.2689 54.9976 20.0908 54.7625C19.9162 54.5272 19.6271 54.4238 19.2235 54.4523C19.0091 54.4675 18.8053 54.5035 18.6119 54.5602C18.5229 54.7747 18.4683 54.8899 18.4478 54.9057C18.431 54.9212 18.3315 54.9606 18.1493 55.0237C17.9668 55.0833 17.8358 55.0836 17.7563 55.0246C17.68 54.9618 17.5964 54.8457 17.5055 54.6762C17.4181 54.5065 17.3706 54.3681 17.363 54.2609C17.358 54.1895 17.3826 54.1321 17.437 54.0888C17.4949 54.0452 17.7326 53.9799 18.15 53.8929C18.5675 53.806 19.0137 53.7457 19.4888 53.7121C20.121 53.6673 20.5948 53.7433 20.9102 53.9399C21.2293 54.1363 21.4094 54.5256 21.4506 55.1078L21.5673 56.758C21.6214 57.5224 21.6865 57.9862 21.7627 58.1496C21.8424 58.3126 21.958 58.3727 22.1093 58.3296C22.1577 58.4052 22.1845 58.4805 22.1899 58.5555C22.1984 58.6769 22.1282 58.7752 21.9792 58.8504C21.8337 58.9253 21.6324 58.9718 21.3752 58.99C21.2502 58.9989 21.1526 58.9896 21.0825 58.9623C21.0162 58.9383 20.9024 58.8009 20.7411 58.5503ZM20.5058 56.747C20.1948 56.7151 19.875 56.7108 19.5464 56.7341C19.1392 56.7629 18.8583 56.851 18.7036 56.9983C18.5525 57.1454 18.4873 57.3654 18.508 57.6583C18.5282 57.944 18.6149 58.1551 18.7682 58.2914C18.9247 58.4239 19.1548 58.4794 19.4584 58.458C19.6941 58.4413 19.9105 58.3793 20.1075 58.272C20.3046 58.1648 20.4294 58.0267 20.4821 57.8579C20.5381 57.6852 20.5534 57.4203 20.5281 57.0631L20.5058 56.747ZM24.8893 58.133L25.3769 58.0985C25.4263 58.1883 25.4548 58.2868 25.4624 58.3939C25.4692 58.4904 25.4543 58.5578 25.4175 58.5963C25.3807 58.6348 25.307 58.658 25.1963 58.6658L23.1711 58.8091C23.1165 58.6981 23.0857 58.5926 23.0787 58.4926C23.0731 58.414 23.0887 58.3555 23.1255 58.317C23.162 58.2749 23.2249 58.2507 23.3142 58.2444L23.7107 58.2163C23.7041 57.7178 23.659 56.8775 23.5754 55.6952C23.4685 54.1843 23.3933 53.224 23.35 52.8143C23.3064 52.4009 23.2605 52.1332 23.2124 52.0109C23.1678 51.8885 23.1014 51.8124 23.0132 51.7827C22.9249 51.7531 22.8111 51.7432 22.6718 51.753C22.6176 51.6456 22.5866 51.5383 22.5791 51.4311C22.5712 51.3204 22.611 51.2476 22.6982 51.2127C22.7891 51.1776 23.0827 51.1424 23.5792 51.1073C23.8614 51.0873 24.0535 51.0881 24.1555 51.1096C24.2573 51.1275 24.318 51.1735 24.3376 51.2475C24.3569 51.3179 24.3729 51.4424 24.3855 51.621L24.6842 55.8429C24.9814 55.5778 25.2918 55.2722 25.6155 54.9262C25.9393 54.5803 26.2275 54.2404 26.4803 53.9066L26.1053 53.9332C26.0515 53.8329 26.0208 53.7291 26.0132 53.622C26.0057 53.5148 26.02 53.4384 26.0563 53.3928C26.0961 53.3469 26.1642 53.3205 26.2607 53.3137L27.9323 53.1954C27.9822 53.2924 28.0112 53.3981 28.0193 53.5124C28.0271 53.6231 28.0092 53.6997 27.9656 53.7423C27.9255 53.7846 27.8465 53.81 27.7286 53.8183L27.5143 53.8335L26.0128 55.442C26.6023 56.2151 27.0511 56.7739 27.359 57.1182C27.6667 57.459 27.8884 57.6749 28.0241 57.7658C28.1631 57.8529 28.3183 57.8904 28.4897 57.8782C28.5564 58.0602 28.5592 58.2 28.4979 58.2976C28.4399 58.3915 28.218 58.4521 27.8323 58.4793C27.4822 58.5041 27.2571 58.4931 27.1569 58.4464C27.0602 58.3994 26.96 58.3023 26.8563 58.1553C26.7523 58.0047 26.5905 57.7721 26.3708 57.4574C26.1508 57.1391 25.8093 56.6751 25.3461 56.0653L24.7457 56.7108C24.7813 57.1642 24.8292 57.6382 24.8893 58.133ZM31.4019 53.5369C31.0448 53.5621 30.7824 53.7099 30.6149 53.9802C30.4471 54.247 30.3735 54.6524 30.394 55.1966L30.9458 55.1576C31.5316 55.1161 31.9291 55.0772 32.1383 55.0409C32.3509 55.0007 32.4713 54.9527 32.4997 54.8969C32.5316 54.8408 32.5424 54.7395 32.532 54.593C32.507 54.2394 32.3981 53.9689 32.2054 53.7816C32.0127 53.5942 31.7448 53.5126 31.4019 53.5369ZM31.5547 52.8045C32.2191 52.7575 32.7231 52.8798 33.0668 53.1714C33.4105 53.463 33.6079 53.9695 33.6589 54.691C33.6814 55.0089 33.64 55.2344 33.5345 55.3675C33.429 55.5006 33.1834 55.5808 32.7977 55.6081L30.4296 55.7756C30.4779 56.3573 30.6264 56.8063 30.8749 57.1226C31.127 57.4386 31.5406 57.5762 32.1156 57.5355C32.6514 57.4976 33.1398 57.3231 33.5808 57.0119C33.7453 57.1546 33.8336 57.3117 33.8457 57.4831C33.8627 57.7224 33.6763 57.9043 33.2866 58.0288C32.9006 58.1531 32.4593 58.2327 31.9628 58.2679C31.0484 58.3326 30.3776 58.1862 29.9502 57.8287C29.5262 57.4675 29.2817 56.8278 29.2168 55.9099C29.1529 55.0062 29.3257 54.2779 29.7353 53.7248C30.1482 53.1679 30.7547 52.8611 31.5547 52.8045ZM39.4563 56.7362C39.5947 56.8161 39.7553 56.8784 39.9379 56.9229C40.1205 56.9674 40.3208 56.9819 40.5387 56.9665C41.0137 56.9329 41.3321 56.765 41.4938 56.4628C41.6555 56.1606 41.7112 55.6541 41.6609 54.9433C41.6061 54.1682 41.471 53.6286 41.2556 53.3243C41.0435 53.0163 40.725 52.8773 40.3 52.9073C40.0892 52.9222 39.8992 52.977 39.73 53.0715C39.5644 53.1658 39.4421 53.3144 39.3631 53.5174C39.2875 53.7166 39.262 53.9913 39.2868 54.3413L39.4563 56.7362ZM38.8672 52.3679C38.8992 52.5164 38.9104 52.6736 38.9006 52.8394C39.1532 52.6564 39.4279 52.5042 39.7244 52.3827C40.0207 52.2576 40.3581 52.1817 40.7367 52.1549C41.3868 52.1089 41.8834 52.2533 42.2266 52.588C42.5697 52.9226 42.7707 53.5061 42.8296 54.3383C42.9059 55.417 42.7463 56.2306 42.3508 56.7791C41.9588 57.3273 41.3413 57.6313 40.4984 57.6909C40.2698 57.7071 40.076 57.7082 39.9171 57.6943C39.7582 57.6805 39.6258 57.6611 39.5199 57.6363C39.5718 58.3182 39.629 58.9244 39.6917 59.4549L40.3935 59.4052C40.443 59.495 40.4715 59.5935 40.4791 59.7007C40.4859 59.7971 40.4709 59.8646 40.4341 59.9031C40.3974 59.9416 40.3236 59.9648 40.2129 59.9726L38.0002 60.1291C37.9457 60.0181 37.9149 59.9126 37.9078 59.8126C37.9022 59.734 37.9177 59.6737 37.9542 59.6316C37.991 59.5931 38.054 59.5707 38.1433 59.5644L38.513 59.5383C38.5039 59.004 38.4671 58.2815 38.4027 57.3707L38.2412 55.0883C38.1667 54.0347 38.0824 53.4268 37.9884 53.2647C37.8943 53.1027 37.7312 53.0298 37.4991 53.0463C37.4456 52.9495 37.415 52.8476 37.4074 52.7404C37.4006 52.644 37.4338 52.5806 37.5071 52.5503C37.58 52.5164 38.0334 52.4556 38.8672 52.3679ZM44.2909 52.0165C44.2722 51.7522 44.2451 51.4705 44.2096 51.1715C44.1774 50.8687 44.1372 50.6561 44.0891 50.5339C44.0445 50.4114 43.9763 50.3355 43.8845 50.3061C43.7963 50.2764 43.6843 50.2664 43.5485 50.276C43.4943 50.1686 43.4634 50.0613 43.4558 49.9541C43.4479 49.8434 43.4877 49.7706 43.5749 49.7357C43.6622 49.7008 43.9559 49.6657 44.4559 49.6303C44.7381 49.6103 44.9302 49.6111 45.0322 49.6326C45.134 49.6505 45.1947 49.6965 45.2143 49.7705C45.2336 49.8409 45.2496 49.9654 45.2622 50.144L45.4226 52.4103C45.6337 52.2482 45.8925 52.1006 46.199 51.9677C46.5088 51.8309 46.8351 51.7504 47.178 51.7261C47.6173 51.695 47.9645 51.7817 48.2195 51.9863C48.4778 52.187 48.6288 52.5963 48.6725 53.2142C48.8084 55.1358 48.9073 56.1519 48.9689 56.2624C49.0342 56.3726 49.1667 56.4189 49.3664 56.4012C49.413 56.502 49.44 56.6042 49.4473 56.7078C49.4542 56.8042 49.4284 56.8706 49.3699 56.9071C49.3115 56.9435 49.2001 56.9676 49.0358 56.9792C48.5393 57.0143 48.2353 57.0304 48.1238 57.0276C48.0121 57.0211 47.9344 56.9889 47.8909 56.931C47.847 56.8694 47.8199 56.7655 47.8096 56.619L47.6462 54.3099C47.5941 53.5741 47.4809 53.0903 47.3066 52.8585C47.1358 52.6265 46.8772 52.5228 46.5307 52.5473C46.2343 52.5682 45.983 52.6704 45.777 52.8537C45.5746 53.0367 45.4888 53.3461 45.5196 53.7819L45.5996 54.9123C45.6443 55.5445 45.698 56.1259 45.7607 56.6563L46.3554 56.6142C46.4048 56.7041 46.4333 56.8025 46.4409 56.9097C46.4477 57.0061 46.4328 57.0736 46.396 57.1121C46.3592 57.1506 46.2855 57.1738 46.1748 57.1816L44.0692 57.3306C44.0147 57.2196 43.9839 57.114 43.9768 57.014C43.9712 56.9355 43.9868 56.8769 44.0236 56.8384C44.0601 56.7964 44.123 56.7722 44.2123 56.7658L44.582 56.7397C44.5704 56.1697 44.541 55.5508 44.4937 54.8829L44.2909 52.0165ZM52.9246 56.0902C53.3317 56.0614 53.6156 55.887 53.776 55.5669C53.9364 55.2468 53.994 54.7671 53.9488 54.1278C53.8967 53.392 53.7634 52.8522 53.5488 52.5084C53.3378 52.1644 53.0037 52.0085 52.5465 52.0409C52.1393 52.0697 51.8555 52.2441 51.6951 52.5642C51.5347 52.8843 51.4772 53.3657 51.5227 54.0087C51.5745 54.7409 51.7059 55.279 51.9169 55.6231C52.1315 55.9668 52.4674 56.1226 52.9246 56.0902ZM52.7718 56.8226C51.9967 56.8774 51.4124 56.7123 51.0191 56.3273C50.6257 55.9424 50.3997 55.3355 50.341 54.5069C50.2736 53.5532 50.4408 52.7965 50.8427 52.2368C51.2482 51.6768 51.8671 51.3674 52.6993 51.3085C53.4744 51.2537 54.0586 51.4188 54.452 51.8038C54.8454 52.1887 55.0715 52.7973 55.1304 53.6296C55.1976 54.5797 55.0285 55.3347 54.623 55.8947C54.2211 56.4544 53.604 56.7637 52.7718 56.8226ZM56.2229 51.1939L56.5872 51.1681L56.9135 49.6158C57.0668 49.6516 57.1976 49.698 57.3057 49.755C57.4174 49.8117 57.5014 49.8829 57.5577 49.9687C57.6138 50.0509 57.6601 50.3509 57.6968 50.8688L57.7123 51.0885L59.475 50.9638C59.5262 51.0786 59.5565 51.2021 59.5658 51.3343C59.5732 51.4378 59.5585 51.5089 59.5217 51.5474C59.4847 51.5823 59.4072 51.6039 59.2894 51.6123L57.7571 51.7207L57.9364 54.2549C57.9791 54.8585 58.0626 55.2529 58.187 55.4379C58.3111 55.6194 58.4843 55.7076 58.7065 55.7027C58.9323 55.6975 59.2021 55.6048 59.516 55.4246C59.6029 55.537 59.6513 55.6628 59.6612 55.8021C59.6746 55.9914 59.5782 56.1256 59.372 56.2048C59.1694 56.2838 58.843 56.3392 58.393 56.371C57.9037 56.4056 57.5394 56.3309 57.3002 56.1468C57.0646 55.9624 56.9275 55.597 56.8888 55.0505L56.7997 53.7915C56.7512 53.1057 56.6846 52.4427 56.5998 51.8026L56.0747 51.8397C56.0228 51.7142 55.9925 51.5907 55.9839 51.4692C55.9776 51.3799 55.9927 51.3143 56.0292 51.2722C56.0655 51.2265 56.13 51.2004 56.2229 51.1939ZM63.1674 55.3655C63.5745 55.3367 63.8583 55.1623 64.0188 54.8422C64.1792 54.5222 64.2368 54.0425 64.1916 53.4031C64.1395 52.6673 64.0062 52.1275 63.7916 51.7837C63.5806 51.4397 63.2465 51.2839 62.7893 51.3162C62.3821 51.345 62.0983 51.5194 61.9379 51.8395C61.7775 52.1596 61.72 52.6411 61.7655 53.284C61.8173 54.0162 61.9487 54.5543 62.1597 54.8984C62.3743 55.2422 62.7102 55.3979 63.1674 55.3655ZM63.0146 56.0979C62.2395 56.1527 61.6552 55.9876 61.2619 55.6027C60.8685 55.2177 60.6425 54.6109 60.5838 53.7822C60.5164 52.8285 60.6836 52.0718 61.0855 51.5121C61.491 50.9522 62.1099 50.6427 62.9421 50.5839C63.7172 50.529 64.3014 50.6941 64.6948 51.0791C65.0882 51.4641 65.3143 52.0727 65.3732 52.9049C65.4404 53.855 65.2713 54.61 64.8658 55.17C64.4639 55.7297 63.8468 56.039 63.0146 56.0979Z" fill="#BFBFBF"/>
</g>
</svg>
