<svg width="22" height="22" viewBox="0 0 22 22" fill="none" xmlns="http://www.w3.org/2000/svg">
<path d="M13.75 11C13.75 11.7293 13.4603 12.4288 12.9445 12.9445C12.4288 13.4603 11.7293 13.75 11 13.75C10.2707 13.75 9.57118 13.4603 9.05546 12.9445C8.53973 12.4288 8.25 11.7293 8.25 11C8.25 10.2707 8.53973 9.57118 9.05546 9.05546C9.57118 8.53973 10.2707 8.25 11 8.25C11.7293 8.25 12.4288 8.53973 12.9445 9.05546C13.4603 9.57118 13.75 10.2707 13.75 11ZM7.2545 3.89125C7.42568 3.54837 7.689 3.25997 8.01493 3.05838C8.34087 2.8568 8.71652 2.75001 9.09975 2.75H12.9002C13.2835 2.75001 13.6591 2.8568 13.9851 3.05838C14.311 3.25997 14.5743 3.54837 14.7455 3.89125L15.5499 5.5H16.5C17.2293 5.5 17.9288 5.78973 18.4445 6.30546C18.9603 6.82118 19.25 7.52065 19.25 8.25V15.125C19.25 15.8543 18.9603 16.5538 18.4445 17.0695C17.9288 17.5853 17.2293 17.875 16.5 17.875H5.5C4.77065 17.875 4.07118 17.5853 3.55546 17.0695C3.03973 16.5538 2.75 15.8543 2.75 15.125V8.25C2.75 7.52065 3.03973 6.82118 3.55546 6.30546C4.07118 5.78973 4.77065 5.5 5.5 5.5H6.45012L7.2545 3.89125ZM15.125 11C15.125 9.90598 14.6904 8.85677 13.9168 8.08318C13.1432 7.3096 12.094 6.875 11 6.875C9.90598 6.875 8.85677 7.3096 8.08318 8.08318C7.3096 8.85677 6.875 9.90598 6.875 11C6.875 12.094 7.3096 13.1432 8.08318 13.9168C8.85677 14.6904 9.90598 15.125 11 15.125C12.094 15.125 13.1432 14.6904 13.9168 13.9168C14.6904 13.1432 15.125 12.094 15.125 11Z" fill="white"/>
</svg>
