<svg fill="none" height="17" viewBox="0 0 99 17" width="99" xmlns="http://www.w3.org/2000/svg"><g fill="#fff"><path d="m24.2344 5.30778c-2.1344-.20778-4.0422 1.07666-4.4766 3.19222 0 .64222 2.55 1.49222 4.8922 1.49222s4.4578-1.49222 4.4578-1.90778c0-.43444-1.4734-2.54999-4.8734-2.77666zm-14.44996 0c-3.4.22667-4.89222 2.13444-4.89222 2.75778 0 .43444 2.32334 1.92666 4.45778 1.92666 2.1344 0 4.8922-.85 4.8922-1.49222-.4344-2.11556-2.55-3.4-4.45776-3.19222zm16.56556 11.69222c-3.6078 0-5.95-4.25-9.35-4.25s-5.95 4.25-9.35 4.25c-4.45778 0-7.65-4.0422-7.65-11.25778 0-4.45778 1.28444-5.74222 7.00778-5.74222 5.72332 0 7.23442 2.34222 9.99222 2.34222s4.4578-2.34222 9.9922-2.34222c5.5345 0 7.0078 1.49222 7.0078 5.74222 0 7.21558-3.1922 11.25778-7.65 11.25778z"/><path d="m47.6064 10.7598c-.1002 1.0618-.4921 1.8912-1.1757 2.4882-.6836.5925-1.5928.8887-2.7276.8887-.7929 0-1.4925-.1868-2.0986-.5605-.6016-.3783-1.0664-.9138-1.3945-1.6065-.3282-.6927-.4991-1.497-.5127-2.41306v-.92969c0-.9388.1663-1.76595.499-2.48144.3327-.7155.8089-1.26693 1.4287-1.6543.6243-.38737 1.3444-.58105 2.1602-.58105 1.0983 0 1.9824.2985 2.6523.8955.6699.59701 1.0596 1.44011 1.1689 2.5293h-1.7226c-.082-.71549-.2917-1.23047-.6289-1.54492-.3327-.31901-.8226-.47852-1.4697-.47852-.752 0-1.3308.27572-1.7364.82715-.401.54688-.6061 1.35124-.6152 2.41309v.88183c0 1.07551.1914 1.89581.5742 2.46091.3874.5651.9525.8477 1.6953.8477.6791 0 1.1895-.1527 1.5313-.458.3418-.3054.5582-.8135.6494-1.5244zm9.0872-.5948h-1.9277v3.835h-1.7295v-9.95312h3.5c1.1484 0 2.0348.25748 2.6591.77246.6244.51497.9366 1.26009.9366 2.23535 0 .66536-.1618 1.22363-.4854 1.6748-.319.44662-.7656.79069-1.3398 1.03223l2.2353 4.14938v.0889h-1.8525zm-1.9277-1.38766h1.7773c.5833 0 1.0391-.14583 1.3672-.4375.3281-.29622.4922-.69954.4922-1.20996 0-.5332-.1527-.94564-.458-1.2373-.3008-.29167-.752-.44206-1.3535-.45117h-1.8252zm16.4563 2.90526h-3.8555l-.8067 2.3174h-1.7978l3.7598-9.95312h1.5517l3.7666 9.95312h-1.8047zm-3.3702-1.3945h2.8848l-1.4424-4.12892zm14.5081 1.5449 2.5293-7.78612h1.9004l-3.5821 9.95312h-1.6748l-3.5683-9.95312h1.8935zm15.2531-2.27636h-4.0878v3.06246h4.7783v1.3809h-6.5078v-9.95312h6.4599v1.39453h-4.7304v2.74804h4.0878z"/></g></svg>