<svg fill="none" height="32" viewBox="0 0 32 32" width="32" xmlns="http://www.w3.org/2000/svg"><path clip-rule="evenodd" d="m9.13814 31.8334h13.72216c5.368 0 8.9731-3.7653 8.9731-9.3681v-12.93041c0-5.6028-3.6051-9.368142-8.9715-9.368142h-13.72376c-5.36637 0-8.971453 3.765342-8.971453 9.368142v12.93041c0 5.6028 3.605083 9.3681 8.971453 9.3681zm1.31836-17.4167c-2.18283 0-3.9565-1.7761-3.9565-3.9584 0-2.18223 1.77367-3.9583 3.9565-3.9583 2.1813 0 3.9566 1.77607 3.9566 3.9583 0 2.1823-1.7753 3.9584-3.9566 3.9584zm17.9265 6.2289c.5301 1.3594.2547 2.9934-.3121 4.3398-.6719 1.6013-1.9584 2.8138-3.5792 3.3432-.7196.2353-1.4743.3382-2.2274.3382h-13.34395c-1.32786 0-2.50288-.3186-3.46614-.9118-.60343-.3725-.7101-1.232-.2627-1.7892.74831-.9313 1.48708-1.866 2.23221-2.8088 1.42021-1.8039 2.3771-2.3268 3.44068-1.8676.4315.1895.8645.4738 1.3103.7745 1.1878.8072 2.8389 1.9166 5.0138.7124 1.4883-.8336 2.3515-2.2634 3.1032-3.5086l.0126-.0208c.0533-.0874.1061-.1747.1587-.2618.2527-.4181.5019-.8305.7839-1.2104.3534-.4755 1.6638-1.9625 3.361-.9036 1.0811.6666 1.9902 1.5686 2.9631 2.5343.3709.3693.6352.7892.812 1.2402z" fill="#c1c1c1" fill-rule="evenodd"/></svg>