<svg fill="none" height="64" viewBox="0 0 64 64" width="64" xmlns="http://www.w3.org/2000/svg"><path clip-rule="evenodd" d="m32.5048 18.6667.0053-5.3334 18.6667.0187-.0214 18.6667-5.3333-.0054.0107-9.568-8.1174 8.1174c1.8456 2.7483 2.6032 6.0848 2.1255 9.3606-.4776 3.2759-2.1564 6.2571-4.7099 8.364s-5.7993 3.189-9.1062 3.0359c-3.307-.1532-6.4389-1.5306-8.7867-3.8645-2.3327-2.3272-3.721-5.4357-3.8972-8.726-.1763-3.2903.8721-6.5293 2.9428-9.0924 2.0707-2.563 5.0171-4.2685 8.271-4.7876 3.2538-.5191 6.5847.1851 9.3501 1.9766l8.1546-8.152zm-11.4934 13.7066c1.5008-1.5 3.536-2.3425 5.6579-2.342 1.0507.0003 2.091.2075 3.0616.6098s1.8524.9918 2.5952 1.7349c.7427.7431 1.3319 1.6252 1.7337 2.596s.6085 2.0112.6083 3.0619c-.0003 1.0507-.2074 2.091-.6097 3.0616s-.9919 1.8524-1.735 2.5952c-1.5049 1.4796-3.5335 2.3046-5.644 2.2952-2.1104-.0093-4.1317-.8522-5.6235-2.345-1.4918-1.4929-2.3332-3.5147-2.3411-5.6252-.0078-2.1104.8186-4.1385 2.2993-5.6424z" fill="#000" fill-rule="evenodd"/></svg>