<svg fill="none" height="59" viewBox="0 0 38 59" width="38" xmlns="http://www.w3.org/2000/svg"><g clip-rule="evenodd" fill="#000" fill-rule="evenodd"><path d="m19.183 5.33333.0053-5.33333 18.6667.0186666-.0214 18.6666334-5.3333-.0053.0107-9.568-8.1174 8.1173c1.8456 2.7484 2.6032 6.0848 2.1255 9.3607-.4776 3.2759-2.1564 6.2571-4.7099 8.364s-5.7993 3.189-9.1062 3.0358c-3.30699-.1531-6.43885-1.5306-8.78669-3.8645-2.33265-2.3272-3.720974-5.4357-3.8972112-8.7259-.1762378-3.2903.8720932-6.5293 2.9428112-9.0924 2.07071-2.563 5.01713-4.2686 8.27099-4.7876 3.2539-.5191 6.5847.185 9.3501 1.9766l8.1546-8.152zm-11.49336 13.70667c1.50077-1.5001 3.53596-2.3425 5.65786-2.342 1.0507.0002 2.091.2074 3.0616.6097s1.8525.9919 2.5952 1.735c.7428.7431 1.3319 1.6252 1.7337 2.596.4019.9708.6086 2.0112.6083 3.0619-.0002 1.0506-.2074 2.0909-.6097 3.0615s-.9919 1.8525-1.735 2.5952c-1.5049 1.4796-3.5335 2.3046-5.644 2.2953-2.1104-.0093-4.13165-.8522-5.62344-2.3451-1.49179-1.4928-2.33325-3.5147-2.34109-5.6251-.00784-2.1105.81858-4.1385 2.29924-5.6424z"/><path d="m13.6788 10.6666c-3.3065-.0033-6.49636 1.2221-8.95023 3.4384-2.45386 2.2162-3.996702 5.2652-4.329004 8.555-.3323034 3.2898.569638 6.5857 2.530734 9.2479 1.96109 2.6622 4.84142 4.5007 8.0818 5.1587v5.6h-7.99997v5.3334h7.99997v10.6666h5.3334v-10.6666h8v-5.3334h-8v-5.6c3.2302-.6691 6.098-2.5115 8.0493-5.1713 1.9513-2.6599 2.8478-5.9484 2.5162-9.2306-.3315-3.2821-1.8675-6.325-4.3113-8.5409-2.4438-2.2158-5.6221-3.4475-8.9209-3.4572zm-8.00001 13.3334c0 2.1217.84286 4.1565 2.34315 5.6568s3.53516 2.3432 5.65686 2.3432 4.1566-.8429 5.6569-2.3432c1.5002-1.5003 2.3431-3.5351 2.3431-5.6568 0-2.1218-.8429-4.1566-2.3431-5.6569-1.5003-1.5003-3.5352-2.3431-5.6569-2.3431s-4.15657.8428-5.65686 2.3431-2.34315 3.5351-2.34315 5.6569z"/></g></svg>