<svg fill="none" height="64" viewBox="0 0 64 64" width="64" xmlns="http://www.w3.org/2000/svg"><path clip-rule="evenodd" d="m32.0006 8.00001c-3.3066-.00333-6.4964 1.22208-8.9503 3.43829-2.4538 2.2163-3.9967 5.2653-4.329 8.555-.3323 3.2898.5697 6.5858 2.5308 9.248s4.8414 4.5007 8.0818 5.1587v5.6h-8v5.3333h8v10.6667h5.3333v-10.6667h8v-5.3333h-8v-5.6c3.2303-.6691 6.098-2.5115 8.0494-5.1714 1.9513-2.6598 2.8477-5.9484 2.5162-9.2305s-1.8675-6.325-4.3113-8.5409c-2.4439-2.21587-5.6221-3.44757-8.9209-3.45719zm-8 13.33329c0 2.1218.8428 4.1566 2.3431 5.6569s3.5351 2.3431 5.6569 2.3431c2.1217 0 4.1565-.8428 5.6568-2.3431s2.3432-3.5351 2.3432-5.6569c0-2.1217-.8429-4.1565-2.3432-5.6568s-3.5351-2.3432-5.6568-2.3432c-2.1218 0-4.1566.8429-5.6569 2.3432s-2.3431 3.5351-2.3431 5.6568z" fill="#000" fill-rule="evenodd"/></svg>