<svg fill="none" height="278" viewBox="0 0 303 278" width="303" xmlns="http://www.w3.org/2000/svg" xmlns:xlink="http://www.w3.org/1999/xlink"><mask id="a" height="192" maskUnits="userSpaceOnUse" width="115" x="157" y="18"><path d="m265.375 18.0048h-102.054c-3.286 0-5.95 2.6639-5.95 5.9501v179.4041c0 3.287 2.664 5.951 5.95 5.951h102.054c3.286 0 5.95-2.664 5.95-5.951v-179.4041c0-3.2862-2.664-5.9501-5.95-5.9501z" fill="#eb696f"/></mask><path d="m158.99 216.314h110.724c4.972 0 9.002-4.03 9.002-9.001v-187.3114c0-4.9715-4.03-9.0016-9.002-9.0016h-110.724c-4.972 0-9.002 4.0301-9.002 9.0016v187.3114c0 4.971 4.03 9.001 9.002 9.001z" fill="#263238" stroke="#263238" stroke-linecap="round" stroke-linejoin="round" stroke-width=".471118"/><path d="m265.374 18.0048h-102.053c-3.286 0-5.95 2.664-5.95 5.9501v179.4041c0 3.287 2.664 5.951 5.95 5.951h102.053c3.286 0 5.95-2.664 5.95-5.951v-179.4041c0-3.2861-2.664-5.9501-5.95-5.9501z" fill="#eb696f"/><path d="m265.374 18.0048h-102.053c-3.286 0-5.95 2.664-5.95 5.9501v179.4041c0 3.287 2.664 5.951 5.95 5.951h102.053c3.286 0 5.95-2.664 5.95-5.951v-179.4041c0-3.2861-2.664-5.9501-5.95-5.9501z" stroke="#263238" stroke-linecap="round" stroke-linejoin="round" stroke-width=".471118"/><path d="m276.904 183.963v6.103c0 .078.015.154.045.225.03.072.073.136.127.191.055.055.12.098.191.127.071.03.148.045.225.045.078.001.154-.013.226-.042.072-.03.137-.073.192-.128.055-.054.098-.12.127-.191.029-.072.044-.149.043-.227v-6.103c0-.156-.062-.305-.172-.415-.111-.111-.26-.172-.416-.172s-.305.061-.416.172c-.11.11-.172.259-.172.415z" fill="#fff"/><path d="m276.904 160.566v12.568c.015.143.084.275.193.368.11.093.252.14.395.131.144.011.287-.035.397-.128.11-.094.179-.227.191-.371v-12.568c-.012-.144-.081-.278-.191-.371-.11-.094-.253-.14-.397-.129-.143-.009-.285.038-.395.131-.109.093-.178.225-.193.369z" fill="#fff"/><g mask="url(#a)"><g stroke="#263238" stroke-linecap="round" stroke-linejoin="round" stroke-width=".830953"><path d="m212.351 95.5671s-1.974 10.9029-3.21 12.8289c-1.235 1.926-8.867.242-14.052-.994-5.185-1.235-8.128-4.676-14.294-1.962-1.759.722-3.335 1.826-4.615 3.232s-2.232 3.078-2.787 4.896c0 0-9.606 4.434-13.797 6.905-4.192 2.471-5.185 12.114-3.949 15.288 1.235 3.174 4.433 4.93 10.599 2.956 3.795-1.224 7.503-2.706 11.096-4.434-.745 7.872-.745 15.798 0 23.67 1.212 13.059.739 53.495.739 63.113v15.53s6.651 6.651 24.41 6.166c17.759-.484 35.251-6.166 35.251-6.166s-.242-22.435-.242-42.156c-.09-10.539.411-21.074 1.502-31.556l4.93-8.88s7.886 10.103 11.096 16.511 12.32 10.903 14.791 7.16c2.472-3.744-3.452-27.862-8.14-34.028s-7.147-9.364-7.147-9.364.993-8.88-6.409-14.052c-7.401-5.173-15.748-6.166-16.959-6.905s-2.423-1.211-2.423-1.975c0-.763-.496-10.357-.496-10.357z" fill="#000"/><path d="m187.772 136.427s13.677 47.389 28.747 66.105"/><path d="m187.058 147.923s5.584 43.161 16.814 66.335"/><path d="m178.433 116.306s8.625 7.183 5.027 15.748c0 0 2.871-4.313 2.871-12.938"/><path d="m195.114 107.402s5.596 5.306 7.753 10.333"/><path d="m207.894 119.177s2.871 13.652 17.964 7.183"/><path d="m217.306 124.907c5.427.908 10.442-7.583 12.744-12.199-.788-.436-1.406-.836-1.406-1.357 0-.739-.496-10.357-.496-10.357l-15.748-5.4269s-1.975 10.9029-3.21 12.8289c-.263.286-.587.511-.947.658-.36.146-.749.211-1.137.19 1.005 4.082 4.24 14.669 10.2 15.663z" fill="#fff"/><path d="m205.083 79.7705s-1.03-3.8037-2.75-2.241c-1.72 1.5626-.86 5.5118.17 7.9224 1.03 2.4107 4.312 2.241 4.312 2.241s5.512 18.8011 14.658 18.9701c9.146.17 12.417-10.6842 14.137-13.967.751-1.1773 1.334-2.4535 1.732-3.7917 0 0 4.652-2.9315 5.512-7.0744.86-4.143-3.452-3.6342-3.452-3.6342.653-3.1116.163-6.3544-1.381-9.1338-2.581-4.8455-21.89-5.6935-27.075-3.4524-5.184 2.241-7.753 4.1429-7.922 6.5535-.17 2.4107 2.059 7.6075 2.059 7.6075z" fill="#fff"/><path d="m221.618 80.461s.691 3.7916-.339 5.1726c-1.029 1.381-3.283 1.0297-2.423 2.9315.78 1.2689 2.015 2.192 3.453 2.5803"/><path d="m219.208 95.4579s6.202 2.4228 9.485-2.9315"/><path d="m227.736 75.1309s3.562-1.4779 5.039 3.5614"/></g><path d="m230.013 81.8298c0 1.0539-.472 1.9019-1.066 1.9019-.593 0-1.066-.848-1.066-1.9019s.473-1.8897 1.066-1.8897c.594 0 1.066.9085 1.066 1.8897z" fill="#263238"/><path d="m214.895 83.7317c.589 0 1.066-.8515 1.066-1.9018 0-1.0504-.477-1.9019-1.066-1.9019-.588 0-1.066.8515-1.066 1.9019 0 1.0503.478 1.9018 1.066 1.9018z" fill="#263238"/><g stroke="#263238" stroke-linecap="round" stroke-linejoin="round"><path d="m166.319 138.716c1.599-.508 3.101-1.054 4.47-1.575 1.529-3.718 1.863-7.82.957-11.738-.355-1.722-1.097-3.341-2.169-4.734-1.073-1.394-2.448-2.525-4.021-3.309-2.205 1.102-4.398 2.229-5.888 3.113-18.941 7.129-43.859 28.469-42.624 31.642 1.236 3.174 43.06-11.424 49.275-13.399z" fill="#fff" stroke-width=".830953"/><path d="m252.981 116.512c-1.024-.421-1.946-1.054-2.707-1.858-.76-.804-1.34-1.761-1.702-2.806-1.357-3.634-1.987-4.192-3.526-2.932-1.538 1.26-2.301 4.058-1.09 5.742.843 1.142 1.783 2.208 2.811 3.186z" fill="#fff" stroke-width=".830953"/><path d="m273.405 178.038c.613-1.514.756-3.177.412-4.773-1.587-7.486-4.846-15.057-7.135-22.411-1.938-6.287-3.949-12.586-5.585-18.958-2.592-10.187-3.634-15.348-4.397-15.929-.763-.582-14.912 1.841-15.748 2.035s-.763.872-.666 2.519c.097 1.648 1.102 8.88 1.344 10.079.243 1.199 1.357 2.217 3.344 2.556.523.12 1.068.111 1.587-.027.519-.137.997-.398 1.393-.76l1.211-.242c.021 1.382.562 2.705 1.514 3.706.974.812 2.21 1.242 3.477 1.212.545 7.062 1.042 14.137 1.636 21.199.169 2.011.399 17.977 1.986 18.498.23.085 1.551 3.634 3.453 4.688 2.544 1.478 5.645 2.423 8.382.896 1.716-.955 3.054-2.468 3.792-4.288z" fill="#fff" stroke-width=".830953"/><path d="m241.534 128.819s.387-1.211 1.114-1.405 8.589-1.211 8.589-1.211" stroke-width=".830953"/><path d="m240.989 124.131 10.95-2.011" stroke-width=".830953"/><path d="m240.25 120.522 11.532-1.83" stroke-width=".830953"/></g><path d="m216.749 70.7942h-1.309v3.3797h1.309z" fill="#fff"/><path d="m229.361 79.5528c-2.139-.1538-4.014 1.1784-4.395 3.3043.016.642 2.587 1.4273 4.929 1.3681 2.341-.0591 4.418-1.6043 4.408-2.0198-.011-.4343-1.538-2.5119-4.942-2.6526zm-14.446.365c-3.393.3125-4.836 2.2574-4.821 2.8805.011.4343 2.372 1.8674 4.505 1.8134 2.134-.0539 4.87-.9733 4.853-1.6153-.487-2.1039-2.635-3.3345-4.537-3.0786zm16.856 11.27c-3.607.0912-6.055-4.0983-9.454-4.0124s-5.841 4.3989-9.24 4.4848c-4.456.1126-7.75-3.8476-7.932-11.0609-.113-4.4563 1.139-5.7728 6.861-5.9174 5.721-.1446 7.291 2.1587 10.048 2.089 2.757-.0696 4.397-2.4541 9.93-2.5939 5.532-.1398 7.043 1.3147 7.15 5.5634.182 7.2132-2.907 11.3348-7.363 11.4474z" fill="#8f0115"/><path d="m200.841 71.091s3.148 12.0725 4.203 11.2015c1.054-.8711 2.093-6.1127 2.093-6.1127s1.582 1.9255 2.293 1.9255c.71 0 1.749-7.8777 1.749-7.8777s5.601 7.3505 9.276 10.1547c3.676 2.8041 5.425 2.7965 5.777 1.574.334-1.853.569-3.7226.703-5.6008 0 0 3.499 4.2025 5.249 4.2025s3.148-3.8204 3.148-3.8204.352 6.296 1.223 6.1126c.871-.1833 3.675-2.9799 5.081-8.9321s-1.23-14.1737-8.405-19.1021c-7.175-4.9283-20.302-2.4527-22.923.3515-1.421 1.3964-2.551 3.0612-3.323 4.8978 0 0-.528-4.0267-1.582-3.148s-.695 2.7965-.695 2.7965-4.027.5272-4.585 4.3782c-.298 2.3572-.053 4.7515.718 6.999z" fill="#263238" stroke="#263238" stroke-linecap="round" stroke-linejoin="round" stroke-width=".607125"/></g><path d="m98.6994 262.215c35.0006 0 63.3736-8.006 63.3736-17.883 0-9.876-28.373-17.882-63.3736-17.882-35.0003 0-63.3737 8.006-63.3737 17.882 0 9.877 28.3734 17.883 63.3737 17.883z" fill="#eb696f"/><path d="m98.6994 262.215c35.0006 0 63.3736-8.006 63.3736-17.883 0-9.876-28.373-17.882-63.3736-17.882-35.0003 0-63.3737 8.006-63.3737 17.882 0 9.877 28.3734 17.883 63.3737 17.883z" fill="#fff" opacity=".53"/><path d="m276.816 243.559c0 3.004-27.327 5.443-61.039 5.443s-61.039-2.415-61.039-5.443c0-3.027 27.327-5.443 61.039-5.443s61.039 2.432 61.039 5.443z" fill="#eb696f"/><path d="m276.816 243.559c0 3.004-27.327 5.443-61.039 5.443s-61.039-2.415-61.039-5.443c0-3.027 27.327-5.443 61.039-5.443s61.039 2.432 61.039 5.443z" fill="#fff" opacity=".53"/><path d="m33.2968 186.884s3.2206-8.051-7.5121-28.985-.5395-54.751-.5395-54.751" stroke="#eb696f" stroke-miterlimit="10" stroke-width=".471118"/><path d="m39.738 189.034s3.7601-8.051-.5394-19.863c-4.2996-11.811-3.1562-18.518-3.1562-18.518" stroke="#eb696f" stroke-miterlimit="10" stroke-width=".471118"/><path d="m23.4093 152.545s-8.3655-10.21-11.5861-22.545c-3.22066-12.335-3.22066-18.244-3.22066-18.244" stroke="#eb696f" stroke-miterlimit="10" stroke-width=".471118"/><path d="m28.4657 184.735s-3.7601-4.831-4.8309-19.324c-.6212-8.854.2858-17.75 2.6812-26.296" stroke="#eb696f" stroke-miterlimit="10" stroke-width=".471118"/><path d="m24.3354 230.25h19.1063l2.3833-47.005h-23.8809z" fill="#fff"/><path d="m24.3354 230.25h19.1063l2.3833-47.005h-23.8809z" fill="#000" opacity=".17"/><path d="m29.0858 157.851c0 .322.4831.563.5636.869s-.1771.733-.0563 1.023c.1207.29.6038.41.8051.684s0 .757.2094 1.007c.2093.249.6924.241.9178.467.2255.225.2174.724.467.917.2496.194.7327.057 1.0065.218.2737.161.3945.644.6843.765.2899.121.7247-.137 1.0306-.057.306.081.5475.516.8616.564.314.048.6602-.322.9823-.322.322 0 .6602.362.9742.322s.5555-.483.8615-.564c.306-.08.7407.178 1.0306.057s.4106-.612.6844-.765c.2737-.153.7568 0 1.0064-.218.2496-.217.2416-.692.467-.917.2255-.226.7247-.21.9179-.467.1932-.258.0483-.725.2093-1.007.1611-.282.6442-.386.8052-.684s-.1369-.717-.0483-1.023c.0885-.306.5153-.547.5555-.869.0403-.322-.314-.653-.314-.975s.3543-.668.314-.974c-.0402-.306-.475-.563-.5555-.869s.1771-.733.0563-1.023c-.1207-.29-.6119-.411-.8051-.684-.1933-.274 0-.757-.2094-1.007-.2093-.249-.6924-.241-.9178-.467-.2255-.225-.2094-.724-.467-.918-.2577-.193-.7247-.056-1.0065-.217s-.3864-.644-.6843-.765c-.298-.121-.7166.137-1.0306.056-.3141-.08-.5395-.515-.8616-.563-.322-.048-.6521.322-.9742.322s-.6683-.362-.9823-.322-.5555.483-.8615.563c-.306.081-.7327-.177-1.0226-.056-.2898.121-.4186.604-.6924.765-.2737.161-.7488 0-1.0064.217-.2577.218-.2416.693-.467.918-.2255.226-.7166.21-.9098.459-.1933.25-.0564.733-.2174 1.007-.1611.273-.6442.394-.8052.692s.1369.717.0564 1.023-.5234.547-.5636.861c-.0403.314.322.66.322.982s-.3703.669-.3301.975zm-10.1288-21.16c0-.41-.459-.805-.4026-1.232.0564-.426.6039-.708.7085-1.095.1047-.386-.2254-.926-.0724-1.288.1529-.362.7649-.523.9661-.87.2013-.346 0-.95.2657-1.264s.8777-.306 1.1595-.587c.2818-.282.2657-.91.5877-1.16.3221-.249.9179-.064 1.2641-.266.3462-.201.4912-.805.8696-.966s.9018.177 1.2963.073c.3945-.105.6844-.66 1.087-.709.4025-.048.8051.403 1.2318.403.4268 0 .8052-.459 1.2319-.403.4268.057.7005.604 1.087.709.3865.104.9259-.226 1.2963-.073s.5153.765.8615.966c.3462.202.9501.001 1.2721.266.3221.266.2979.878.5878 1.16.2899.281.9098.265 1.1514.587.2415.322.0724.918.2737 1.264.2013.347.8052.492.9582.87.1529.378-.1691.902-.0645 1.296.1047.395.6522.685.7086 1.087.0564.403-.4106.805-.4106 1.232s.4589.805.4106 1.232-.6039.701-.7086 1.087c-.1046.387.2174.926.0645 1.296-.153.371-.7649.516-.9582.862-.1932.346 0 .95-.2737 1.272-.2738.322-.8696.298-1.1594.588-.2899.29-.2657.91-.5798 1.151-.314.242-.9259.073-1.2721.274s-.4911.805-.8615.958-.9098-.169-1.2963-.064c-.3865.104-.6844.652-1.087.708s-.8051-.41-1.2319-.41c-.4267 0-.8051.458-1.2318.41-.4268-.048-.7086-.604-1.0951-.708-.3864-.105-.9259.217-1.2882.064s-.5234-.765-.8696-.958-.9501 0-1.2641-.274-.3059-.869-.5877-1.159-.9099-.266-1.1595-.58c-.2495-.314-.0644-.926-.2657-1.272-.2012-.346-.8051-.491-.9661-.862-.1611-.37.169-.909.0724-1.296-.0966-.386-.6602-.684-.7085-1.087-.0483-.402.4026-.789.4026-1.232zm-1.095 36.007c0-.411-.4509-.805-.4026-1.232s.6038-.701.7085-1.087c.1047-.387-.2254-.926-.0724-1.296.1529-.371.8051-.524.9661-.87.1611-.346 0-.95.2657-1.264s.8777-.306 1.1595-.588.2657-.91.5877-1.159c.3221-.25.9179-.065 1.2641-.266s.4992-.805.8696-.966.9018.177 1.2963.072c.3945-.104.6844-.652 1.0869-.708.4026-.057.8052.402 1.2319.402.4268 0 .8052-.451 1.2319-.402.4267.048.7005.604 1.087.708.3865.105.9259-.225 1.2963-.072.3703.153.5153.765.8615.966s.9501 0 1.2721.274c.3221.274.2979.869.5878 1.151s.9098.274 1.1514.588c.2415.314.0724.918.2737 1.272s.8052.491.9662.862c.161.37-.1771.901-.0725 1.296.1047.394.6522.684.7086 1.087.0563.402-.4026.805-.4026 1.232 0 .426.4509.805.4026 1.232-.0483.426-.6039.7-.7086 1.087-.1046.386.2255.925.0725 1.296-.153.37-.8052.523-.9662.869-.161.347 0 .951-.2737 1.265-.2738.314-.8696.305-1.1514.587s-.2738.91-.5878 1.16c-.314.249-.9259.064-1.2721.265-.3462.202-.4912.806-.8615.967-.3704.161-.9098-.178-1.2963-.073s-.6844.652-1.087.709c-.4026.056-.8051-.403-1.2319-.403-.4267 0-.8051.451-1.2319.403-.4267-.049-.7085-.604-1.0869-.709s-.9259.226-1.2963.073-.5234-.765-.8696-.967c-.3462-.201-.9501 0-1.2641-.273-.314-.274-.3059-.87-.5877-1.152s-.9099-.265-1.1595-.587c-.2496-.323-.0644-.918-.2657-1.273-.2013-.354-.8051-.491-.9661-.861-.1611-.371.1771-.902.0724-1.296-.1047-.395-.6602-.685-.7085-1.087-.0483-.403.4026-.822.4026-1.232zm18.5185 5.112c0-.265-.467-.563-.4348-.805.0322-.241.5636-.434.628-.692.0645-.258-.2979-.66-.2012-.902.0966-.241.6521-.274.8051-.499.153-.226-.1208-.725 0-.934s.7005-.089.8857-.274.0725-.733.2818-.894.7005.097.9259-.04c.2255-.137.2577-.676.4992-.805.2416-.129.6522.266.9098.201.2577-.064.4187-.595.6844-.628.2657-.032.5556.427.8052.427s.5636-.459.8051-.427c.2416.033.4348.556.6925.628.2576.073.6602-.306.9098-.201s.2657.652.4992.805.7166-.113.9259.048c.2094.162.0886.693.2818.886.1933.193.7247.065.8857.274s-.0966.7.0402.934c.1369.233.6844.249.8052.499s-.2657.652-.2013.91.5958.419.628.684c.0322.266-.4267.556-.4267.805 0 .25.4589.572.4267.806-.0322.233-.5555.434-.628.684s.306.668.2013.91c-.1047.241-.6522.274-.8052.499-.1529.225.1208.717-.0402.926s-.7005.097-.8937.282c-.1933.185-.0644.724-.2738.885-.2093.161-.7005-.088-.934.041-.2335.128-.2496.684-.4992.805s-.6441-.274-.9017-.201c-.2577.072-.4268.587-.6925.628-.2657.04-.5555-.435-.8051-.435s-.5636.467-.8052.435c-.2415-.033-.4267-.564-.6844-.628-.2576-.065-.6682.297-.9098.201-.2415-.097-.2657-.652-.4992-.805s-.7166.12-.9259-.041-.0966-.7-.2818-.885-.7247-.073-.8857-.282.0886-.701 0-.926c-.0885-.225-.6844-.258-.8051-.499-.1208-.242.2737-.652.2012-.91-.0724-.258-.5877-.419-.628-.684-.0402-.266.4348-.532.4348-.806zm-19.5733-73.647c0-.411-.4589-.845-.4026-1.24.0564-.395.6039-.7.7005-1.087.0966-.386-.2174-.926-.0644-1.288.153-.363.8052-.524.9662-.8698.161-.3462 0-.9501.2657-1.2641s.8776-.3059 1.1594-.5877.2657-.9099.5878-1.1594c.322-.2496.9178-.0645 1.2641-.2658.3462-.2012.4911-.8051.8695-.9661.3785-.1611.9018.169 1.2883.0644.3865-.1047.6844-.6522 1.0869-.7005.4026-.0483.8052.4026 1.24.4026s.8051-.459 1.2319-.4026c.4267.0563.7004.6038 1.0869.7005.3865.0966.9259-.2174 1.2963-.0644.3704.1529.5153.7649.8615.9661.3462.2013.9501 0 1.2722.2658.322.2657.2979.8776.5797 1.1594s.9179.2657 1.1594.5877c.2416.3221.0644.9179.2657 1.2641.2013.3458.8052.4908.9662.8698.161.378-.1691.902-.0644 1.288.1047.387.6522.692.7005 1.095s-.4026.805-.4026 1.232.4589.805.4026 1.232c-.0564.427-.6039.7-.7005 1.087-.0966.386.2174.926.0644 1.296s-.8052.515-.9662.862c-.161.346 0 .95-.2657 1.272s-.8696.298-1.1594.588c-.2899.289-.2657.909-.5878 1.151-.322.241-.9179.064-1.2641.274-.3462.209-.4911.805-.8695.958-.3785.153-.9018-.169-1.2883-.065-.3865.105-.6844.653-1.0869.709-.4026.056-.8052-.411-1.2319-.411-.4268 0-.8052.459-1.24.403-.4347-.057-.7004-.604-1.0869-.701-.3865-.096-.9259.218-1.2883.065-.3623-.153-.5233-.765-.8695-.966-.3463-.202-.9501 0-1.2722-.266-.322-.266-.2979-.87-.5797-1.16-.2818-.289-.9179-.265-1.1594-.579-.2416-.314-.0644-.926-.2657-1.272-.2013-.347-.8052-.492-.9662-.862s.1691-.91.0644-1.296c-.1047-.387-.6522-.685-.7005-1.087-.0483-.403.4026-.829.4026-1.232zm-16.401 16.393c0-.403-.4508871-.805-.40257784-1.232.04830924-.427.60386384-.7.70853384-1.087.10467-.386-.22544-.926-.072461-1.296.15298-.371.805155-.516.966185-.862s0-.95.2657-1.272.87762-.298 1.15943-.588c.2818-.29.26569-.91.58776-1.151.32206-.242.91787-.073 1.26409-.274.34621-.201.4992-.805.86957-.958s.90177.169 1.2963.064c.39452-.104.68438-.652 1.08695-.708.40258-.056.80516.411 1.23189.411s.80513-.459 1.23193-.411c.4267.048.7004.604 1.0869.708.3865.105.9259-.217 1.2963-.064s.5153.765.8615.958c.3463.193.9501 0 1.2722.274.322.274.3059.87.5877 1.159.2818.29.9099.266 1.1514.58.2416.314.0725.926.2738 1.272s.8051.491.9662.862c.161.37-.1772.91-.0725 1.296.1047.387.6522.684.7085 1.087.0564.403-.4026.805-.4026 1.232s.4509.845.4026 1.232c-.0483.386-.6038.708-.7085 1.095-.1047.386.2254.926.0725 1.288-.153.362-.8052.523-.9662.87-.1611.346 0 .95-.2738 1.264-.2737.314-.8696.306-1.1514.587-.2818.282-.2737.91-.5877 1.16-.314.249-.9179.064-1.2722.266-.3542.201-.4911.805-.8615.966s-.9098-.177-1.2963-.073c-.3865.105-.6844.661-1.0869.709-.4026.048-.8052-.403-1.23193-.403s-.80515.459-1.23189.403c-.42673-.057-.70853-.604-1.08695-.709-.37843-.104-.92593.226-1.2963.073s-.52336-.765-.86957-.966c-.34622-.202-.95008 0-1.26409-.266-.31402-.266-.30596-.878-.58776-1.16-.28181-.281-.90983-.265-1.15943-.587s-.06441-.918-.2657-1.264c-.20129-.347-.805154-.492-.966185-.87s.177131-.902.072461-1.296c-.10467-.395-.6602246-.685-.70853384-1.087-.04830926-.403.40257784-.821.40257784-1.232z" fill="#eb696f"/><path d="m29.0858 157.851c0 .322.4831.563.5636.869s-.1771.733-.0563 1.023c.1207.29.6038.41.8051.684s0 .757.2094 1.007c.2093.249.6924.241.9178.467.2255.225.2174.724.467.917.2496.194.7327.057 1.0065.218.2737.161.3945.644.6843.765.2899.121.7247-.137 1.0306-.057.306.081.5475.516.8616.564.314.048.6602-.322.9823-.322.322 0 .6602.362.9742.322s.5555-.483.8615-.564c.306-.08.7407.178 1.0306.057s.4106-.612.6844-.765c.2737-.153.7568 0 1.0064-.218.2496-.217.2416-.692.467-.917.2255-.226.7247-.21.9179-.467.1932-.258.0483-.725.2093-1.007.1611-.282.6442-.386.8052-.684s-.1369-.717-.0483-1.023c.0885-.306.5153-.547.5555-.869.0403-.322-.314-.653-.314-.975s.3543-.668.314-.974c-.0402-.306-.475-.563-.5555-.869s.1771-.733.0563-1.023c-.1207-.29-.6119-.411-.8051-.684-.1933-.274 0-.757-.2094-1.007-.2093-.249-.6924-.241-.9178-.467-.2255-.225-.2094-.724-.467-.918-.2577-.193-.7247-.056-1.0065-.217s-.3864-.644-.6843-.765c-.298-.121-.7166.137-1.0306.056-.3141-.08-.5395-.515-.8616-.563-.322-.048-.6521.322-.9742.322s-.6683-.362-.9823-.322-.5555.483-.8615.563c-.306.081-.7327-.177-1.0226-.056-.2898.121-.4186.604-.6924.765-.2737.161-.7488 0-1.0064.217-.2577.218-.2416.693-.467.918-.2255.226-.7166.21-.9098.459-.1933.25-.0564.733-.2174 1.007-.1611.273-.6442.394-.8052.692s.1369.717.0564 1.023-.5234.547-.5636.861c-.0403.314.322.66.322.982s-.3703.669-.3301.975zm-10.1288-21.16c0-.41-.459-.805-.4026-1.232.0564-.426.6039-.708.7085-1.095.1047-.386-.2254-.926-.0724-1.288.1529-.362.7649-.523.9661-.87.2013-.346 0-.95.2657-1.264s.8777-.306 1.1595-.587c.2818-.282.2657-.91.5877-1.16.3221-.249.9179-.064 1.2641-.266.3462-.201.4912-.805.8696-.966s.9018.177 1.2963.073c.3945-.105.6844-.66 1.087-.709.4025-.048.8051.403 1.2318.403.4268 0 .8052-.459 1.2319-.403.4268.057.7005.604 1.087.709.3865.104.9259-.226 1.2963-.073s.5153.765.8615.966c.3462.202.9501.001 1.2721.266.3221.266.2979.878.5878 1.16.2899.281.9098.265 1.1514.587.2415.322.0724.918.2737 1.264.2013.347.8052.492.9582.87.1529.378-.1691.902-.0645 1.296.1047.395.6522.685.7086 1.087.0564.403-.4106.805-.4106 1.232s.4589.805.4106 1.232-.6039.701-.7086 1.087c-.1046.387.2174.926.0645 1.296-.153.371-.7649.516-.9582.862-.1932.346 0 .95-.2737 1.272-.2738.322-.8696.298-1.1594.588-.2899.29-.2657.91-.5798 1.151-.314.242-.9259.073-1.2721.274s-.4911.805-.8615.958-.9098-.169-1.2963-.064c-.3865.104-.6844.652-1.087.708s-.8051-.41-1.2319-.41c-.4267 0-.8051.458-1.2318.41-.4268-.048-.7086-.604-1.0951-.708-.3864-.105-.9259.217-1.2882.064s-.5234-.765-.8696-.958-.9501 0-1.2641-.274-.3059-.869-.5877-1.159-.9099-.266-1.1595-.58c-.2495-.314-.0644-.926-.2657-1.272-.2012-.346-.8051-.491-.9661-.862-.1611-.37.169-.909.0724-1.296-.0966-.386-.6602-.684-.7085-1.087-.0483-.402.4026-.789.4026-1.232zm-1.095 36.007c0-.411-.4509-.805-.4026-1.232s.6038-.701.7085-1.087c.1047-.387-.2254-.926-.0724-1.296.1529-.371.8051-.524.9661-.87.1611-.346 0-.95.2657-1.264s.8777-.306 1.1595-.588.2657-.91.5877-1.159c.3221-.25.9179-.065 1.2641-.266s.4992-.805.8696-.966.9018.177 1.2963.072c.3945-.104.6844-.652 1.0869-.708.4026-.057.8052.402 1.2319.402.4268 0 .8052-.451 1.2319-.402.4267.048.7005.604 1.087.708.3865.105.9259-.225 1.2963-.072.3703.153.5153.765.8615.966s.9501 0 1.2721.274c.3221.274.2979.869.5878 1.151s.9098.274 1.1514.588c.2415.314.0724.918.2737 1.272s.8052.491.9662.862c.161.37-.1771.901-.0725 1.296.1047.394.6522.684.7086 1.087.0563.402-.4026.805-.4026 1.232 0 .426.4509.805.4026 1.232-.0483.426-.6039.7-.7086 1.087-.1046.386.2255.925.0725 1.296-.153.37-.8052.523-.9662.869-.161.347 0 .951-.2737 1.265-.2738.314-.8696.305-1.1514.587s-.2738.91-.5878 1.16c-.314.249-.9259.064-1.2721.265-.3462.202-.4912.806-.8615.967-.3704.161-.9098-.178-1.2963-.073s-.6844.652-1.087.709c-.4026.056-.8051-.403-1.2319-.403-.4267 0-.8051.451-1.2319.403-.4267-.049-.7085-.604-1.0869-.709s-.9259.226-1.2963.073-.5234-.765-.8696-.967c-.3462-.201-.9501 0-1.2641-.273-.314-.274-.3059-.87-.5877-1.152s-.9099-.265-1.1595-.587c-.2496-.323-.0644-.918-.2657-1.273-.2013-.354-.8051-.491-.9661-.861-.1611-.371.1771-.902.0724-1.296-.1047-.395-.6602-.685-.7085-1.087-.0483-.403.4026-.822.4026-1.232zm18.5185 5.112c0-.265-.467-.563-.4348-.805.0322-.241.5636-.434.628-.692.0645-.258-.2979-.66-.2012-.902.0966-.241.6521-.274.8051-.499.153-.226-.1208-.725 0-.934s.7005-.089.8857-.274.0725-.733.2818-.894.7005.097.9259-.04c.2255-.137.2577-.676.4992-.805.2416-.129.6522.266.9098.201.2577-.064.4187-.595.6844-.628.2657-.032.5556.427.8052.427s.5636-.459.8051-.427c.2416.033.4348.556.6925.628.2576.073.6602-.306.9098-.201s.2657.652.4992.805.7166-.113.9259.048c.2094.162.0886.693.2818.886.1933.193.7247.065.8857.274s-.0966.7.0402.934c.1369.233.6844.249.8052.499s-.2657.652-.2013.91.5958.419.628.684c.0322.266-.4267.556-.4267.805 0 .25.4589.572.4267.806-.0322.233-.5555.434-.628.684s.306.668.2013.91c-.1047.241-.6522.274-.8052.499-.1529.225.1208.717-.0402.926s-.7005.097-.8937.282c-.1933.185-.0644.724-.2738.885-.2093.161-.7005-.088-.934.041-.2335.128-.2496.684-.4992.805s-.6441-.274-.9017-.201c-.2577.072-.4268.587-.6925.628-.2657.04-.5555-.435-.8051-.435s-.5636.467-.8052.435c-.2415-.033-.4267-.564-.6844-.628-.2576-.065-.6682.297-.9098.201-.2415-.097-.2657-.652-.4992-.805s-.7166.12-.9259-.041-.0966-.7-.2818-.885-.7247-.073-.8857-.282.0886-.701 0-.926c-.0885-.225-.6844-.258-.8051-.499-.1208-.242.2737-.652.2012-.91-.0724-.258-.5877-.419-.628-.684-.0402-.266.4348-.532.4348-.806zm-19.5733-73.647c0-.411-.4589-.845-.4026-1.24.0564-.395.6039-.7.7005-1.087.0966-.386-.2174-.926-.0644-1.288.153-.363.8052-.524.9662-.8698.161-.3462 0-.9501.2657-1.2641s.8776-.3059 1.1594-.5877.2657-.9099.5878-1.1594c.322-.2496.9178-.0645 1.2641-.2658.3462-.2012.4911-.8051.8695-.9661.3785-.1611.9018.169 1.2883.0644.3865-.1047.6844-.6522 1.0869-.7005.4026-.0483.8052.4026 1.24.4026s.8051-.459 1.2319-.4026c.4267.0563.7004.6038 1.0869.7005.3865.0966.9259-.2174 1.2963-.0644.3704.1529.5153.7649.8615.9661.3462.2013.9501 0 1.2722.2658.322.2657.2979.8776.5797 1.1594s.9179.2657 1.1594.5877c.2416.3221.0644.9179.2657 1.2641.2013.3458.8052.4908.9662.8698.161.378-.1691.902-.0644 1.288.1047.387.6522.692.7005 1.095s-.4026.805-.4026 1.232.4589.805.4026 1.232c-.0564.427-.6039.7-.7005 1.087-.0966.386.2174.926.0644 1.296s-.8052.515-.9662.862c-.161.346 0 .95-.2657 1.272s-.8696.298-1.1594.588c-.2899.289-.2657.909-.5878 1.151-.322.241-.9179.064-1.2641.274-.3462.209-.4911.805-.8695.958-.3785.153-.9018-.169-1.2883-.065-.3865.105-.6844.653-1.0869.709-.4026.056-.8052-.411-1.2319-.411-.4268 0-.8052.459-1.24.403-.4347-.057-.7004-.604-1.0869-.701-.3865-.096-.9259.218-1.2883.065-.3623-.153-.5233-.765-.8695-.966-.3463-.202-.9501 0-1.2722-.266-.322-.266-.2979-.87-.5797-1.16-.2818-.289-.9179-.265-1.1594-.579-.2416-.314-.0644-.926-.2657-1.272-.2013-.347-.8052-.492-.9662-.862s.1691-.91.0644-1.296c-.1047-.387-.6522-.685-.7005-1.087-.0483-.403.4026-.829.4026-1.232zm-16.401 16.393c0-.403-.4508871-.805-.40257784-1.232.04830924-.427.60386384-.7.70853384-1.087.10467-.386-.22544-.926-.072461-1.296.15298-.371.805155-.516.966185-.862s0-.95.2657-1.272.87762-.298 1.15943-.588c.2818-.29.26569-.91.58776-1.151.32206-.242.91787-.073 1.26409-.274.34621-.201.4992-.805.86957-.958s.90177.169 1.2963.064c.39452-.104.68438-.652 1.08695-.708.40258-.056.80516.411 1.23189.411s.80513-.459 1.23193-.411c.4267.048.7004.604 1.0869.708.3865.105.9259-.217 1.2963-.064s.5153.765.8615.958c.3463.193.9501 0 1.2722.274.322.274.3059.87.5877 1.159.2818.29.9099.266 1.1514.58.2416.314.0725.926.2738 1.272s.8051.491.9662.862c.161.37-.1772.91-.0725 1.296.1047.387.6522.684.7085 1.087.0564.403-.4026.805-.4026 1.232s.4509.845.4026 1.232c-.0483.386-.6038.708-.7085 1.095-.1047.386.2254.926.0725 1.288-.153.362-.8052.523-.9662.87-.1611.346 0 .95-.2738 1.264-.2737.314-.8696.306-1.1514.587-.2818.282-.2737.91-.5877 1.16-.314.249-.9179.064-1.2722.266-.3542.201-.4911.805-.8615.966s-.9098-.177-1.2963-.073c-.3865.105-.6844.661-1.0869.709-.4026.048-.8052-.403-1.23193-.403s-.80515.459-1.23189.403c-.42673-.057-.70853-.604-1.08695-.709-.37843-.104-.92593.226-1.2963.073s-.52336-.765-.86957-.966c-.34622-.202-.95008 0-1.26409-.266-.31402-.266-.30596-.878-.58776-1.16-.28181-.281-.90983-.265-1.15943-.587s-.06441-.918-.2657-1.264c-.20129-.347-.805154-.492-.966185-.87s.177131-.902.072461-1.296c-.10467-.395-.6602246-.685-.70853384-1.087-.04830926-.403.40257784-.821.40257784-1.232z" fill="#fff" opacity=".53"/><path d="m94.9716 227.947-25.5154-.95c-.2623-.015-.5248.026-.7704.119-.2457.093-.4689.237-.655.423-.1862.185-.3312.408-.4254.653-.0943.245-.1358.507-.1218.77-.0011.116.0228.231.0701.336.0473.106.1169.201.2041.277.0871.077.1898.133.3009.166.1111.034.228.042.3428.026.975.037 1.9437-.171 2.818-.604l20.1289 6.039s6.6425 1.602 3.6232-7.255z" fill="#263238" stroke="#263238" stroke-linecap="round" stroke-linejoin="round" stroke-width=".471118"/><path d="m93.9651 206.208v23.752l-34.823 18.116s-2.6167 3.623.4026 4.026c.4673.112.9535.119 1.424.022.4705-.098.9137-.298 1.2981-.586s.7005-.658.9259-1.082c.2253-.425.3543-.894.3778-1.373 0 0 37.8425-11.474 38.6475-11.474s36.634 9.662 36.634 9.662-1.409 1.61 1.208 2.415c2.617.806 2.818-2.415 2.013-3.623-.805-1.207-39.05-17.713-39.05-17.713v-21.538z" fill="#263238" stroke="#263238" stroke-linecap="round" stroke-linejoin="round" stroke-width=".471118"/><path d="m148.981 154.372c-1.731-.276-3.405-.84-4.951-1.666-2.986-1.678-5.799-3.647-8.398-5.878-6.659-5.668-13.1-17.311-18.736-23.551s-16.506-9.662-32.0049-8.051c-15.4992 1.61-23.3495 7.85-26.3688 15.901-3.0193 8.052-3.4219 15.701-6.6425 22.746s-10.0644 9.662-8.8567 16.908c1.2077 7.247 8.2528 19.123 22.7456 28.382s31.6023 12.681 50.7243 10.668c19.123-2.013 26.973-10.265 33.616-19.927 6.642-9.662 7.447-21.136 6.441-27.174-.837-5.137-4.316-7.794-7.569-8.358z" fill="#fff" stroke="#263238" stroke-linecap="round" stroke-linejoin="round" stroke-width=".471118"/><path d="m75.5915 125.411c-3.2006 1.413-6.1192 3.393-8.6152 5.845-7.0692 6.876-4.0258 16.369-6.2882 24.96-.8236 2.988-1.9541 5.884-3.3736 8.639 0 0 2.7697 17.263 13.8647 24.042 11.0951 6.78 28.9858 11.401 44.0658 8.623 15.081-2.777 23.108-10.781 26.804-17.56s2.126-17.866-7.44-24.308c-9.565-6.441-15.716-19.412-24.348-25.571-10.2733-7.375-23.647-9.541-34.6695-4.67z" fill="#000" opacity=".17"/><path d="m151.952 155.491c-.747.012-1.492.077-2.23.194 0 0-4.428-.202-7.246 6.843-2.818 7.046-.806 14.896-4.429 20.532s-6.441 6.24-29.589 6.441c-23.1484.201-31.1999 4.227-40.4592-7.85s-5.6361-18.116-13.285-20.934c-3.7762-1.393-6.2239-.918-8.0516.475-2.4155 2.81-4.3398 5.443-3.6473 9.589 1.2077 7.247 8.2528 19.123 22.7456 28.382s31.6023 12.681 50.7245 10.668c19.123-2.013 26.973-10.265 33.615-19.927 6.643-9.662 7.448-21.136 6.442-27.174-.187-1.47-.695-2.88-1.488-4.131s-1.852-2.312-3.102-3.108z" fill="#fff"/><path d="m151.952 155.491c-.747.012-1.492.077-2.23.194 0 0-4.428-.202-7.246 6.843-2.818 7.046-.806 14.896-4.429 20.532s-6.441 6.24-29.589 6.441c-23.1484.201-31.1999 4.227-40.4592-7.85s-5.6361-18.116-13.285-20.934c-3.7762-1.393-6.2239-.918-8.0516.475-2.4155 2.81-4.3398 5.443-3.6473 9.589 1.2077 7.247 8.2528 19.123 22.7456 28.382s31.6023 12.681 50.7245 10.668c19.123-2.013 26.973-10.265 33.615-19.927 6.643-9.662 7.448-21.136 6.442-27.174-.187-1.47-.695-2.88-1.488-4.131s-1.852-2.312-3.102-3.108z" fill="#000" opacity=".17"/><path d="m151.952 155.491c-.747.012-1.492.077-2.23.194 0 0-4.428-.202-7.246 6.843-2.818 7.046-.806 14.896-4.429 20.532s-6.441 6.24-29.589 6.441c-23.1484.201-31.1999 4.227-40.4592-7.85s-5.6361-18.116-13.285-20.934c-3.7762-1.393-6.2239-.918-8.0516.475-2.4155 2.81-4.3398 5.443-3.6473 9.589 1.2077 7.247 8.2528 19.123 22.7456 28.382s31.6023 12.681 50.7245 10.668c19.123-2.013 26.973-10.265 33.615-19.927 6.643-9.662 7.448-21.136 6.442-27.174-.187-1.47-.695-2.88-1.488-4.131s-1.852-2.312-3.102-3.108z" stroke="#263238" stroke-linecap="round" stroke-linejoin="round" stroke-width=".471118"/><path d="m83.8848 147.601s-9.2592 10.064-11.876 19.726c-2.6167 9.662 1.6103 20.33 9.058 22.947s18.3173-1.006 23.3492-3.019c5.033-2.013 12.48 1.61 20.733 1.811 8.253.202 9.461-16.272 7.464-26.167-1.997-9.896-10.87-18.72-19.525-20.129-8.656-1.409-24.7587-.572-29.2032 4.831z" fill="#263238" stroke="#263238" stroke-linecap="round" stroke-linejoin="round" stroke-width=".471118"/><path d="m114.746 85.6041s7.971 3.913 11.884 4.9597 12.931 1.0548 13.382 4.3639c.451 3.3092-1.353 21.3523-2.415 27.2143-1.063 5.862-1.2 14.589-.604 16.844.596 2.254 2.415 5.861.306 9.477-2.11 3.615-3.309 8.268-8.124 7.512-4.815-.757-6.015-4.211-6.015-4.211l-29.3155 3.615s-2.2625-11.884-4.8309-22.408c-2.5685-10.523-7.8181-25.563-7.3672-32.778.4509-7.2137 9.7746-11.7306 16.24-13.8321 6.4656-2.1015 16.8596-.7568 16.8596-.7568z" fill="#eb696f"/><path d="m136.526 105.218c-.757 2.415-4.227 11.167-4.227 11.167s1.376-8.051 2.302-14.493c.926-6.441 1.152-5.7485-1.843-5.7485-2.996 0-8.285-2.5363-10.121-3.4541-1.836-.9179-.926 1.1513-2.762-.2335-1.836-1.3849-4.605-5.7488-4.605-5.7488-5.065-1.1514-25.3064 1.3848-27.1502 7.1336-1.2319 3.8406-.612 23.6713.8051 38.7683l.0966.378c1.7392 7.166 3.3414 14.952 4.1868 19.195.7818 1.141 1.7606 2.134 2.8905 2.931l26.8362-3.301c3.333-3.591 5.926-8.615 6.811-9.662 1.039-1.2 4.372-3.446 4.606-5.523.233-2.078-.918-16.337.233-21.393.894-3.865 1.635-8.39 1.941-10.016zm-6.53 23.349c-2.987 3.913-11.047 1.151-15.644-.459-4.598-1.61-8.744 3.221-13.809 2.069-5.0641-1.151 1.152-8.51 7.593-8.744 6.441-.233 4.831-.459 10.588-7.359s9.203-.692 11.505 4.598c.669 1.572.995 3.269.954 4.977-.04 1.708-.445 3.387-1.187 4.926z" fill="#000" opacity=".17"/><path d="m136.856 95.0888s-.153 7.0612-1.353 10.8212-3.309 10.379-3.309 14.139.749 9.17-.451 12.632c-1.2 3.463-6.618 8.857-6.618 14.131" stroke="#263238" stroke-linecap="round" stroke-linejoin="round" stroke-width=".471118"/><path d="m114.746 85.6041s7.971 3.913 11.884 4.9597 12.931 1.0548 13.382 4.3639c.451 3.3092-1.353 21.3523-2.415 27.2143-1.063 5.862-1.2 14.589-.604 16.844.596 2.254 2.415 5.861.306 9.477-2.11 3.615-3.309 8.268-8.124 7.512-4.815-.757-6.015-4.211-6.015-4.211l-29.3155 3.615s-2.2625-11.884-4.8309-22.408c-2.5685-10.523-7.8181-25.563-7.3672-32.778.4509-7.2137 9.7746-11.7306 16.24-13.8321 6.4656-2.1015 16.8596-.7568 16.8596-.7568z" stroke="#263238" stroke-linecap="round" stroke-linejoin="round" stroke-width=".471118"/><path d="m91.4451 122.754s.9018 10.676 1.8036 15.491c.5322 2.779.8845 5.589 1.0547 8.414 0 0 3.6071-.749 4.3559 2.109.4013 1.671.3174 3.421-.2417 5.046-.5591 1.624-1.5702 3.055-2.9145 4.125-3.0113 2.255-7.0693 3.76-10.0725 2.858-3.0032-.901-4.0258-8.422-4.0258-13.083 0-4.662 0-10.677-1.3526-14.131-1.3527-3.454 2.5201-14.742 11.3929-10.829z" fill="#eb696f"/><path d="m94.8832 151.103c-2.1981.483-7.0693 1.216-7.5604-.732-.4912-1.949 2.7697-4.163 2.7697-4.163l2.5926.258v-1.707s-1.2158-9.992-2.4155-13.688c-1.1996-3.696-7.8019 0-10.2415 2.472 1.3607 3.454 1.3607 9.469 1.3607 14.13 0 4.662 1.0467 12.182 4.0258 13.084 2.979.902 7.0612-.604 10.0724-2.858 1.572-1.22 2.6776-2.942 3.1321-4.879-.3792-.639-.931-1.158-1.5919-1.497s-1.4041-.484-2.144-.42z" fill="#000" opacity=".17"/><path d="m91.4451 122.754s.9018 10.676 1.8036 15.491c.5322 2.779.8845 5.589 1.0547 8.414 0 0 3.6071-.749 4.3559 2.109.4013 1.671.3174 3.421-.2417 5.046-.5591 1.624-1.5702 3.055-2.9145 4.125-3.0113 2.255-7.0693 3.76-10.0725 2.858-3.0032-.901-4.0258-8.422-4.0258-13.083 0-4.662 0-10.677-1.3526-14.131-1.3527-3.454 2.5201-14.742 11.3929-10.829z" stroke="#263238" stroke-linecap="round" stroke-linejoin="round" stroke-width=".471118"/><path d="m95.0523 147.11c-1.6722-.185-3.3295-.486-4.9597-.902-3.1643-.749-5.1128.757-5.7166 4.968" stroke="#263238" stroke-linecap="round" stroke-linejoin="round" stroke-width=".471118"/><path d="m99.867 92.0453s-.4509 6.6184-1.5056 12.4797c-.5661 3.402-1.7388 6.675-3.4622 9.662 0 0 0-13.382-2.1014-19.847-2.1015-6.4654-1.3527-11.1272 1.8035-9.6618 3.1562 1.4653 5.2657 7.3671 5.2657 7.3671z" fill="#263238" stroke="#263238" stroke-linecap="round" stroke-linejoin="round" stroke-width=".471118"/><path d="m98.2083 92.5283c-.2579 2.7503-.2579 5.5187 0 8.2687.234 2.176.6378 4.329 1.2078 6.441l4.2029-4.355-1.804 5.265 9.445 6.031 5.861-9.018-3.446-3.913s5.411 3.011 5.862 2.858-.749-7.5197-3.309-12.0286c-2.561-4.5089-9.775-7.2464-12.182-6.4412-2.408.8051-6.2886 4.6377-5.8377 6.8921z" fill="#eb696f" stroke="#263238" stroke-linecap="round" stroke-linejoin="round" stroke-width=".471118"/><path d="m103.208 97.4961s4.831 14.2839 6.925 13.8329c2.093-.451 3.156-15.7894 3.156-15.7894-1.458.9972-3.104 1.6853-4.838 2.0218-1.733.3365-3.518.3143-5.243-.0653z" fill="#fff"/><path d="m103.208 97.4961s4.831 14.2839 6.925 13.8329c2.093-.451 3.156-15.7894 3.156-15.7894-1.458.9972-3.104 1.6853-4.838 2.0218-1.733.3365-3.518.3143-5.243-.0653z" fill="#eb696f"/><path d="m103.208 97.4961s4.831 14.2839 6.925 13.8329c2.093-.451 3.156-15.7894 3.156-15.7894-1.458.9972-3.104 1.6853-4.838 2.0218-1.733.3365-3.518.3143-5.243-.0653z" fill="#fff" opacity=".53"/><path d="m103.208 97.4961s4.831 14.2839 6.925 13.8329c2.093-.451 3.156-15.7894 3.156-15.7894-1.458.9972-3.104 1.6853-4.838 2.0218-1.733.3365-3.518.3143-5.243-.0653z" stroke="#263238" stroke-linecap="round" stroke-linejoin="round" stroke-width=".471118"/><path d="m90.8414 83.8086s5.3623 9.6618 9.4766 12.9307c3.833 3.0516 9.775 4.3637 12.625.9018 2.85-3.4622 3.615-11.2722 3.462-16.24s-3.76-8.2689-7.818-12.3269-10.2255-9.3237-14.2835-6.6184c-4.058 2.7054-4.7826 18.1965-3.4621 21.3528z" fill="#fff"/><path d="m112.943 97.6813c.096-.1128.185-.2416.273-.3624-1.538.6312-3.17 1.0039-4.831 1.1031-5.378.2335-8.8563-4.6779-8.8563-4.6779s-.4669-.7005-3.2689-5.8455c-2.8019-5.1449-1.9082-19.4525-1.9082-19.4525s2.1015 2.81 7.9464 4.211c3.38.8187 6.822 1.3573 10.29 1.6103l-.217-1.3446c-1.135-1.2641-2.415-2.5282-3.768-3.8728-4.026-4.0258-10.2256-9.3237-14.2836-6.6184s-4.8309 18.1965-3.4622 21.3527c0 0 5.3624 9.6619 9.4768 12.9308 3.816 3.0757 9.758 4.3879 12.609.9662z" fill="#eb696f"/><path d="m112.943 97.6813c.096-.1128.185-.2416.273-.3624-1.538.6312-3.17 1.0039-4.831 1.1031-5.378.2335-8.8563-4.6779-8.8563-4.6779s-.4669-.7005-3.2689-5.8455c-2.8019-5.1449-1.9082-19.4525-1.9082-19.4525s2.1015 2.81 7.9464 4.211c3.38.8187 6.822 1.3573 10.29 1.6103l-.217-1.3446c-1.135-1.2641-2.415-2.5282-3.768-3.8728-4.026-4.0258-10.2256-9.3237-14.2836-6.6184s-4.8309 18.1965-3.4622 21.3527c0 0 5.3624 9.6619 9.4768 12.9308 3.816 3.0757 9.758 4.3879 12.609.9662z" fill="#fff" opacity=".53"/><g stroke="#263238" stroke-linecap="round" stroke-linejoin="round"><path d="m96.7026 82.7537s3.4624.9018 4.8314-1.1997" stroke-width=".471118"/><path d="m108.434 80.0486s3.309.9017 4.662-1.6103" stroke-width=".471118"/><path d="m94.3032 79.7505c.8415-.7634 1.8545-1.3127 2.9534-1.6014 1.0988-.2887 2.251-.3084 3.3594-.0573" stroke-width=".471118"/><path d="m107.081 77.1902s1.353-2.5524 5.717-2.1015" stroke-width=".471118"/><path d="m104.98 87.7216s2.254.9018 3.156-1.0548" stroke-width=".471118"/><path d="m104.818 91.4736s3.905.4589 5.564-1.8036" stroke-width=".471118"/><path d="m90.8414 83.8086s5.3623 9.6618 9.4766 12.9307c3.833 3.0516 9.775 4.3637 12.625.9018 2.85-3.4622 3.615-11.2722 3.462-16.24s-3.76-8.2689-7.818-12.3269-10.2255-9.3237-14.2835-6.6184c-4.058 2.7054-4.7826 18.1965-3.4621 21.3528z" stroke-width=".471118"/><path d="m94.7543 152.528c-.0799-1.811.0199-3.626.2979-5.418.4509-2.416 1.3526-3.454 1.3526-6.16 0-2.705.153-3.76 1.9566-3.76s5.2576.153 5.4106 1.353.298 1.956-.451 1.803-3.9049-.297-3.9049-.297l-.4509 1.199c1.4808.475 2.9348 1.029 4.3558 1.659.749.451.902 3.752.902 5.563.075.806-.122 1.613-.56 2.294-.438.68-1.091 1.194-1.856 1.458-1.65.604-3.1558-1.497-3.1558-1.497s.306 2.254-1.3526 3.003c-1.6587.749-2.9952-.298-2.5443-1.2z" fill="#fff" stroke-width=".471118"/><path d="m101.598 133.189-2.6568 23.019c-.0353.307-.0035.618.093.911s.2555.562.466.788.4675.403.7528.52c.286.117.594.17.902.156l20.314-.877c.45-.02.881-.181 1.234-.46.352-.279.608-.662.731-1.094l6.32-22.545c.091-.319.105-.656.042-.982-.062-.327-.201-.634-.403-.898-.203-.263-.464-.476-.763-.62-.3-.145-.628-.218-.961-.213l-23.985.379c-.523.007-1.024.206-1.409.56-.384.353-.625.836-.677 1.356z" fill="#fff" stroke-width=".471118"/></g><path d="m102.629 134.115-2.416 21.167c-.033.283-.004.569.085.839.088.27.235.518.428.726.194.209.431.372.694.48s.546.158.83.145l18.68-.805c.413-.019.81-.167 1.134-.425.324-.257.558-.61.67-1.008l5.821-20.709c.083-.295.096-.605.037-.905-.058-.301-.186-.584-.373-.826s-.428-.438-.703-.571c-.276-.132-.579-.199-.885-.194l-22.054.346c-.481.001-.946.179-1.305.499-.359.321-.588.762-.643 1.241z" fill="#000" opacity=".17"/><path d="m102.025 139.348-1.836 15.934" stroke="#263238" stroke-linecap="round" stroke-linejoin="round" stroke-width=".353338"/><path d="m105.841 132.351h-1.288c-.477.007-.936.187-1.29.507s-.58.758-.634 1.233l-.282 2.455" stroke="#263238" stroke-linecap="round" stroke-linejoin="round" stroke-width=".353338"/><path d="m132.943 146.965s-2.416-3.607-4.211-3.607c-1.796 0-9.92 4.654-12.029 6.014-2.11 1.361.153 1.949.153 1.949-.121.31-.142.65-.061.973.08.323.259.613.512.83.417.499 1.006.824 1.65.91.291.46.711.825 1.208 1.047.869.306 1.784.459 2.705.451 0 0 .749.604 3.309.604 2.561 0 4.96-.153 6.442-1.957 1.481-1.803 1.376-3.607.322-7.214z" fill="#fff" stroke="#263238" stroke-linecap="round" stroke-linejoin="round" stroke-width=".471118"/><path d="m116.896 151.321s9.662-1.651 11.425-3.454" stroke="#263238" stroke-linecap="round" stroke-linejoin="round" stroke-width=".471118"/><path d="m118.957 154.042s7.818-1.208 10.225-2.56" stroke="#263238" stroke-linecap="round" stroke-linejoin="round" stroke-width=".471118"/><path d="m122.87 155.532s4.831-.298 6.916-1.2" stroke="#263238" stroke-linecap="round" stroke-linejoin="round" stroke-width=".471118"/><path d="m79.8589 162.73s31.2001-4.227 43.8811-2.818" stroke="#fff" stroke-miterlimit="10" stroke-width=".471118"/><path d="m121.139 206.007s8.656-3.623 22.544 0c0 0-1.409 2.214-10.265 4.026-8.857 1.811-12.279-4.026-12.279-4.026z" fill="#fff" stroke="#263238" stroke-linecap="round" stroke-linejoin="round" stroke-width=".471118"/><path d="m121.832 159.904c-.538.32-1.104.59-1.691.805-1.441.523-4.445 2.15-5.636 6.82-1.611 6.239 6.441 23.148 7.447 30.595.393 3.456.998 6.885 1.812 10.266 0 0 3.019.805 8.051 1.61 5.033.806 6.844-1.811 6.844-1.811s2.214-18.519-1.006-29.791c-3.221-11.272-3.825-16.506-8.052-18.116-2.971-1.095-6.433-1.159-7.769-.378z" fill="#fff"/><path d="m137.596 210.403s.934-18.245-4.21-33.438c-5.145-15.193-9.59-14.734-13.334-11.699-3.744 3.036-3.969 9.823-1.868 16.61 2.102 6.788 5.636 14.26 6.079 20.572.443 6.313-.233 10.524 2.343 10.757 2.577.234 10.757 1.868 10.99-2.802z" fill="#eb696f"/><path d="m137.596 210.403s.934-18.245-4.21-33.438c-5.145-15.193-9.59-14.734-13.334-11.699-3.744 3.036-3.969 9.823-1.868 16.61 2.102 6.788 5.636 14.26 6.079 20.572.443 6.313-.233 10.524 2.343 10.757 2.577.234 10.757 1.868 10.99-2.802z" fill="#fff" opacity=".53"/><path d="m121.832 159.904c-.538.32-1.104.59-1.691.805-1.441.523-4.445 2.15-5.636 6.82-1.611 6.239 6.441 23.148 7.447 30.595.393 3.456.998 6.885 1.812 10.266 0 0 3.019.805 8.051 1.61 5.033.806 6.844-1.811 6.844-1.811s2.214-18.519-1.006-29.791c-3.221-11.272-3.825-16.506-8.052-18.116-2.971-1.095-6.433-1.159-7.769-.378z" stroke="#263238" stroke-linecap="round" stroke-linejoin="round" stroke-width=".471118"/><path d="m121.139 206.007s13.889 3.422 22.545 0c0 0-5.033 23.349-8.656 33.615s-3.422 15.097-4.026 20.733c-.603 5.636-4.025 15.499-8.454 17.109-4.428 1.611-4.831-6.038-1.811-13.486 3.019-7.448 4.227-16.506 3.019-27.375-1.208-10.87-2.617-30.596-2.617-30.596z" fill="#eb696f"/><path d="m139.231 215.073c.923-2.699 1.592-5.478 1.997-8.301-5.507 1.328-12.214.636-16.321 0 .451 6.393 1.562 24.042.991 35.926-.644 13.647-3.905 19.066-6.442 25.185-.7 2.391-.849 4.91-.434 7.367 1.272 1.103 3.711.612 6.159-1.449 4.445-3.744 5.379-17.077 5.846-24.324.467-7.246 6.095-28.325 8.204-34.404z" fill="#000" opacity=".17"/><path d="m121.139 206.007s13.889 3.422 22.545 0c0 0-5.033 23.349-8.656 33.615s-3.422 15.097-4.026 20.733c-.603 5.636-4.025 15.499-8.454 17.109-4.428 1.611-4.831-6.038-1.811-13.486 3.019-7.448 4.227-16.506 3.019-27.375-1.208-10.87-2.617-30.596-2.617-30.596z" stroke="#263238" stroke-linecap="round" stroke-linejoin="round" stroke-width=".471118"/><path d="m135.431 235.395-.202 18.921 1.611-.805z" fill="#eb696f" stroke="#263238" stroke-linecap="round" stroke-linejoin="round" stroke-width=".471118"/><path d="m135.833 233.382 1.611 18.317 1.409-1.006z" fill="#eb696f" stroke="#263238" stroke-linecap="round" stroke-linejoin="round" stroke-width=".471118"/><path d="m115.286 207.182s-6.643-3.421-21.3368-1.006c2.0996 2.92 5.1761 4.991 8.6718 5.837 5.837 1.442 12.665-4.831 12.665-4.831z" fill="#fff" stroke="#263238" stroke-linecap="round" stroke-linejoin="round" stroke-width=".471118"/><path d="m111.26 161.289s-7.246-3.02-12.48 1.811c-5.2335 4.831-3.6232 15.298-3.2206 17.311s.8051 4.227.8051 4.227l1.0065 25.564 14.09.201s2.617-20.33 4.63-29.187 2.029-15.668-4.831-19.927z" fill="#fff"/><path d="m109.996 166.925c-8.18-2.81-10.0484 4.678-10.7569 11.224-.7086 6.545-.7005 30.161-.467 31.57.0646.209.1746.401.322.563l12.3829.177s2.617-20.33 4.63-29.186c.137-.62.266-1.232.387-1.828.048-3.833-.725-10.572-6.498-12.52z" fill="#eb696f"/><path d="m109.996 166.925c-8.18-2.81-10.0484 4.678-10.7569 11.224-.7086 6.545-.7005 30.161-.467 31.57.0646.209.1746.401.322.563l12.3829.177s2.617-20.33 4.63-29.186c.137-.62.266-1.232.387-1.828.048-3.833-.725-10.572-6.498-12.52z" fill="#fff" opacity=".53"/><path d="m111.26 161.289s-7.246-3.02-12.48 1.811c-5.2335 4.831-3.6232 15.298-3.2206 17.311s.8051 4.227.8051 4.227l1.0065 25.564 14.09.201s2.617-20.33 4.63-29.187 2.029-15.668-4.831-19.927z" stroke="#263238" stroke-linecap="round" stroke-linejoin="round" stroke-width=".471118"/><path d="m93.9653 206.208s2.6168 19.324 5.2335 28.18c2.6172 8.857 5.2332 19.324 5.2332 29.791s8.454 14.896 10.669 12.883c2.214-2.013.402-12.078-1.409-17.311-1.812-5.234-4.227-18.317-3.422-25.161s5.016-27.408 5.016-27.408-14.074.805-21.3207-.974z" fill="#eb696f"/><path d="m108.128 229.799c.934-17.303 5.378-22.447 5.378-22.447l-.394-.049c-4.984.206-9.977.08-14.944-.378.314 4.485 1.4654 18.72 4.026 30.684 3.108 14.413 2.633 22.593 4.976 29.139s7.246 11.465 7.246 6.079c0-5.387-7.182-25.717-6.288-43.028z" fill="#000" opacity=".17"/><g stroke-linecap="round" stroke-linejoin="round" stroke-width=".471118"><path d="m93.9653 206.208s2.6168 19.324 5.2335 28.18c2.6172 8.857 5.2332 19.324 5.2332 29.791s8.454 14.896 10.669 12.883c2.214-2.013.402-12.078-1.409-17.311-1.812-5.234-4.227-18.317-3.422-25.161s5.016-27.408 5.016-27.408-14.074.805-21.3207-.974z" stroke="#263238"/><path d="m98.5949 230.765-.8051 19.928 1.0064.403z" fill="#eb696f" stroke="#263238"/><path d="m99.1987 231.571.8053 19.927 1.61-1.409z" fill="#eb696f" stroke="#263238"/><path d="m95.2051 64.7103s-4.066 13.3816-1.2077 24.8148c2.8583 11.4329 1.5056 24.2029 1.2077 31.2719-.2979 7.07-2.8583 12.931-8.5749 17.448s-13.3817 3.752-19.0983-.153-7.5121-15.04-4.3559-22.858 10.9743-21.4979 13.2287-28.5672c2.2545-7.0692.9018-10.6763 1.5057-17.2947.6038-6.6184 4.5088-18.6474 12.6329-21.3527 8.124-2.7053 17.5927-2.5523 24.0577 6.1675 6.466 8.7198 7.07 22.1015 7.665 26.4654.596 4.364 2.416 5.8616 6.015 6.6184 3.599.7569 3.011 3.3011.306 3.6071s-9.743-1.554-11.691-4.1143c-1.949-2.5604-.338-6.5621-3.647-10.4671-3.31-3.905-14.7347-5.4186-18.0439-11.5861z" fill="#263238" stroke="#263238"/><g stroke="#fff"><path d="m92.1297 116.836c.1127 5.692-.2818 10.564-1.6104 13.285-3.913 8.124-9.6618 8.052-16.5056 6.844"/><path d="m95.2051 64.7102s-7.4798 8.2448-6.2721 19.1144c.6683 6.0306 2.2947 17.1334 2.9388 27.2064"/><path d="m70.4789 119.735c-2.029 1.827-3.2851.724-3.2851.724"/><path d="m77.6608 83.4221s1.6103 18.1159-2.8181 28.9859c-.6503 1.653-1.4367 3.25-2.351 4.774"/><path d="m115.237 62.3754c-2.689-2.7957-6.33-4.4796-10.201-4.7182-10.4671-.8052-10.7329 4.8309-10.7329 4.8309s-4.1626-9.2271 10.7329-9.6618"/><path d="m118.724 67.7216c-.344-.88-.772-1.7241-1.281-2.5202"/></g></g><path d="m110.128 78.4458c-1.647.1543-2.904 1.4056-2.924 3.0712.094.4864 2.149.7577 3.923.4157 1.774-.3421 3.158-1.7811 3.097-2.0958-.063-.329-1.488-1.716-4.096-1.3911zm-10.943 2.1102c-2.5418.6682-3.3932 2.3309-3.3022 2.8029.0634.329 2.0409 1.1198 3.6573.8081 1.6169-.3117 3.5809-1.3582 3.4869-1.8445-.638-1.5387-2.428-2.2025-3.842-1.7665zm14.253 6.4355c-2.732.5268-5.127-2.3497-7.702-1.8532s-3.885 4.0875-6.46 4.584c-3.3759.651-6.3837-1.944-7.4374-7.4084-.651-3.376.1341-4.5363 4.4685-5.3721 4.3339-.8358 5.8209.7173 7.9089.3146 2.089-.4027 3.034-2.4248 7.226-3.233 4.191-.8083 5.525.1067 6.145 3.3252 1.054 5.4645-.773 8.9919-4.149 9.6429z" fill="#eb696f"/></svg>