<svg fill="none" height="286" viewBox="0 0 303 286" width="303" xmlns="http://www.w3.org/2000/svg"><path d="m303 280.89c0 2.49-67.839 4.517-151.496 4.517-83.6572 0-151.504-2.027-151.504-4.517s67.8388-4.518 151.504-4.518c83.665 0 151.496 2.028 151.496 4.518z" fill="#eb696f"/><path d="m303 280.89c0 2.49-67.839 4.517-151.496 4.517-83.6572 0-151.504-2.027-151.504-4.517s67.8388-4.518 151.504-4.518c83.665 0 151.496 2.028 151.496 4.518z" fill="#fff" opacity=".3"/><path d="m273.997 193.92c0 .04 2.051-2.115 2.163-2.266 1.301-1.74 2.793-5.874 1.381-7.862-.244-.322-.553-.59-.906-.786-.354-.195-.745-.314-1.148-.349-.402-.034-.808.016-1.19.148-.382.133-.731.344-1.026.62-1.293 1.134-1.597 3.233-1.485 4.853.136 1.899 2.211 5.634 2.211 5.642z" fill="#eb696f"/><path d="m292.641 186.498c-1.996-1.397-6.114.128-7.846 1.437-.151.119-2.29 2.162-2.25 2.178h.047c-.654.24-1.348.495-2.107.798-1.388.559-2.953 1.214-4.613 2.028-1.792.871-3.534 1.841-5.219 2.905-1.889 1.185-3.667 2.537-5.316 4.038-.02.017-.039.035-.055.056.351-.615 1.284-2.394 1.34-2.522.798-2.027 1.142-6.385-.742-7.941-.322-.246-.692-.421-1.087-.514-.394-.094-.804-.103-1.202-.028s-.776.234-1.109.464c-.333.231-.614.53-.824.876-.942 1.437-.686 3.536-.144 5.068.607 1.732 3.361 4.589 3.584 4.789-1.644 1.568-3.179 3.245-4.597 5.02-.798 1.029-1.636 2.091-2.394 3.192.287-.543.542-1.038.566-1.109.798-2.02 1.142-6.385-.742-7.941-.322-.246-.691-.421-1.085-.514-.394-.094-.803-.103-1.2-.028-.398.076-.775.234-1.107.465-.333.23-.613.528-.822.875-.95 1.428-.686 3.535-.152 5.06.535 1.524 2.85 4.046 3.464 4.692l-.934 1.23c-1.436 2.003-2.857 3.99-4.317 5.921-.511.679-1.038 1.333-1.597 1.98.256-.487.471-.894.495-.958.798-2.027 1.142-6.385-.742-7.981-.322-.247-.692-.423-1.087-.517-.394-.094-.804-.104-1.203-.029-.398.076-.776.234-1.109.466-.333.231-.614.531-.823.878-.95 1.437-.686 3.536-.144 5.068.543 1.532 2.618 3.799 3.344 4.573-.558.655-1.117 1.301-1.692 1.908-.399.407-.75.798-1.181 1.205l-1.221 1.149c-.798.702-1.596 1.437-2.434 2.107-.559.471-1.093.902-1.596 1.341.511-.663 1.5-1.995 1.596-2.115.899-1.688 1.35-3.579 1.309-5.491.106-.184.197-.376.271-.575.149-.376.218-.78.201-1.184-.017-.405-.118-.801-.298-1.164-.18-.362-.434-.683-.746-.941-.312-.259-.674-.448-1.064-.558-2.395-.582-5.667 2.315-6.808 4.167-.064.111-.671 1.372-1.03 2.178.136-.502.288-.997.423-1.516.288-1.03.543-2.067.798-3.192.112-.543.232-1.094.352-1.645.119-.55.191-1.141.295-1.715.199-1.341.343-2.706.463-4.087.902.248 4.118 1.086 5.73.798 1.612-.287 3.584-1.005 4.398-2.514.206-.348.336-.736.382-1.139.045-.402.006-.809-.117-1.195s-.326-.742-.596-1.043c-.27-.302-.6-.544-.97-.709-2.251-.942-5.946 1.429-7.359 3.081-.087.103-.965 1.404-1.436 2.131.064-.798.127-1.66.167-2.506.096-2.395.128-4.893.168-7.351 0-.75 0-1.5.048-2.251.319.088 4.126 1.166 5.93.886 1.596-.239 3.583-.997 4.405-2.514.204-.349.331-.738.375-1.14s.003-.809-.121-1.194c-.123-.385-.326-.74-.595-1.042s-.599-.544-.968-.71c-2.242-.934-5.946 1.437-7.358 3.089-.104.119-1.365 1.995-1.668 2.49.04-1.652.096-3.304.215-4.925.154-2.189.448-4.367.878-6.52.152 0 4.118 1.181 5.97.894 1.596-.24 3.576-.998 4.398-2.514.203-.349.331-.737.376-1.139.044-.402.004-.808-.119-1.193s-.325-.741-.593-1.043c-.269-.302-.597-.544-.965-.711-2.251-.934-5.954 1.428-7.359 3.088-.096.104-1.061 1.533-1.5 2.219l-.128-.048c.493-2.156 1.18-4.264 2.051-6.297.463-1.125.966-2.171 1.485-3.192.718.287 3.99 1.596 5.698 1.5s3.671-.607 4.653-2.019c.241-.325.411-.697.499-1.091.088-.395.093-.804.013-1.2-.08-.397-.242-.772-.476-1.102s-.534-.607-.882-.813c-2.131-1.173-6.074.798-7.654 2.258-.088.08-.87.998-1.436 1.676.239-.446.478-.917.718-1.348.894-1.597 1.804-3.033 2.626-4.286.471-.702.91-1.333 1.333-1.924.846-.079 4.277-.47 5.722-1.293 1.444-.822 2.977-2.226 3.192-3.934.066-.399.047-.808-.056-1.199s-.288-.756-.542-1.071-.571-.573-.932-.756c-.36-.184-.755-.29-1.159-.31-2.434-.064-5.028 3.472-5.747 5.523-.063.183-.718 3.064-.678 3.056h.056c-.415.532-.854 1.139-1.317 1.82-.854 1.237-1.804 2.642-2.73 4.238-1.018 1.712-1.938 3.482-2.753 5.299-.919 2.034-1.659 4.143-2.211 6.305.005.027.005.054 0 .08 0-.71-.239-2.697-.271-2.849-.447-2.123-2.578-5.97-4.996-6.209-.404-.031-.809.024-1.19.161-.381.136-.729.352-1.021.632s-.522.619-.675.993c-.152.375-.224.778-.211 1.183 0 1.716 1.381 3.328 2.674 4.301 1.46 1.11 5.331 1.98 5.642 2.044-.5 2.217-.855 4.464-1.061 6.728-.12 1.316-.208 2.641-.279 3.99-.056-.614-.112-1.165-.128-1.237-.455-2.131-2.586-5.97-5.004-6.217-.404-.031-.809.024-1.19.161s-.729.352-1.021.632-.522.619-.675.994c-.152.374-.224.777-.211 1.182 0 1.716 1.381 3.328 2.674 4.31 1.293.981 4.605 1.795 5.475 2.003 0 .511-.048 1.021-.064 1.532-.096 2.458-.176 4.916-.327 7.319-.056.846-.144 1.684-.224 2.514-.048-.543-.104-1.006-.112-1.07-.454-2.131-2.585-5.969-5.004-6.217-.403-.03-.809.024-1.19.161s-.729.352-1.021.632-.522.619-.674.994c-.153.375-.225.778-.211 1.182 0 1.724 1.38 3.328 2.673 4.31 1.293.981 4.286 1.724 5.316 1.963-.104.854-.216 1.708-.359 2.522-.112.559-.176 1.11-.32 1.66l-.383 1.596c-.287 1.03-.566 2.099-.87 3.097-.207.694-.415 1.357-.622 2.027.064-.846.151-2.498.143-2.642-.119-2.162-1.644-6.289-3.99-6.895-.394-.09-.802-.097-1.199-.019-.396.078-.772.239-1.102.471-.331.233-.609.532-.816.879s-.339.734-.387 1.135c-.263 1.7.854 3.496 1.988 4.661 1.133 1.165 4.788 2.69 5.235 2.865-.351 1.102-.694 2.163-1.037 3.193-1.19 3.471-2.307 6.321-3.113 8.3 0 .072-.056.135-.088.199l1.453.798c.048-.127.103-.255.151-.391.798-2.019 1.844-4.924 2.961-8.46.36-1.117.719-2.314 1.078-3.551 1.218.152 2.444.232 3.671.239.439 1.78 2.474 4.701 2.738 5.076-.894.727-1.772 1.429-2.61 2.075-2.905 2.243-5.411 3.991-7.183 5.204l-.208.144 1.597.878c1.723-1.237 3.99-2.953 6.68-5.092.909-.735 1.875-1.541 2.849-2.395.359.304 3.272 2.778 4.996 3.273 1.556.447 3.671.59 5.044-.439.332-.232.611-.53.82-.876s.342-.733.392-1.134c.049-.401.014-.808-.104-1.195s-.316-.744-.581-1.049c-1.644-1.796-5.994-1.197-7.981-.288-.112.056-1.309.799-2.059 1.245.399-.343.798-.67 1.189-1.029.798-.694 1.596-1.421 2.442-2.203l1.197-1.173c.407-.391.798-.846 1.197-1.269.91-1.006 1.78-2.067 2.634-3.153.623.703 2.849 3.193 4.326 3.863 1.476.671 3.543 1.134 5.06.327.362-.179.682-.432.941-.743.258-.31.448-.672.558-1.061s.137-.796.079-1.196c-.057-.4-.198-.784-.413-1.126-1.357-2.019-5.746-2.091-7.837-1.492-.136.04-1.597.638-2.395.982.503-.655 1.022-1.309 1.509-1.996 1.428-1.971 2.809-3.99 4.198-6.033l1.285-1.852c.215.247 2.801 3.248 4.461 3.99 1.469.679 3.536 1.142 5.052.328.364-.178.686-.43.946-.74.26-.311.451-.673.561-1.062.11-.39.136-.798.077-1.199-.058-.4-.201-.784-.419-1.125-1.356-2.02-5.746-2.092-7.837-1.485-.152.04-2.243.91-2.761 1.157.941-1.356 1.899-2.705 2.897-3.99 1.33-1.747 2.775-3.402 4.325-4.956.104.119 2.786 3.256 4.478 4.038 1.476.686 3.543 1.141 5.06.335.363-.178.684-.431.943-.741.259-.311.45-.673.56-1.062.109-.389.136-.797.078-1.197-.058-.401-.2-.784-.416-1.126-1.357-2.027-5.746-2.091-7.837-1.492-.136.039-1.724.702-2.475 1.029l-.079-.12c1.601-1.52 3.335-2.896 5.179-4.11 1.014-.686 2.012-1.285 3.001-1.836.439.631 2.474 3.512 3.927 4.39 1.452.878 3.392 1.524 4.988.886.381-.139.729-.356 1.021-.638.291-.283.52-.623.67-1 .151-.377.22-.781.204-1.186-.016-.406-.118-.803-.299-1.167-1.125-2.162-5.483-2.705-7.622-2.338-.119 0-1.285.351-2.123.607l1.341-.735c1.636-.846 3.193-1.532 4.557-2.123.798-.327 1.501-.614 2.171-.87.758.399 3.823 1.972 5.483 2.075 1.66.104 3.719-.215 4.837-1.516.255-.293.449-.634.569-1.003s.165-.759.13-1.146c-.034-.387-.146-.763-.33-1.106-.183-.342-.434-.644-.736-.887z" fill="#eb696f"/><path d="m236.582 172.252c1.157 1.516 4.948 3.488 4.956 3.488s.543-2.89.551-3.081c.127-2.171-.91-6.433-3.193-7.311-.381-.135-.787-.189-1.19-.157s-.796.149-1.151.342c-.355.194-.666.46-.912.781-.245.322-.421.692-.514 1.085-.447 1.652.503 3.568 1.453 4.853z" fill="#eb696f"/><g fill="#fff" opacity=".5"><path d="m273.997 193.92c0 .04 2.051-2.115 2.163-2.266 1.301-1.74 2.793-5.874 1.381-7.862-.244-.322-.553-.59-.906-.786-.354-.195-.745-.314-1.148-.349-.402-.034-.808.016-1.19.148-.382.133-.731.344-1.026.62-1.293 1.134-1.597 3.233-1.485 4.853.136 1.899 2.211 5.634 2.211 5.642z" opacity=".5"/><path d="m292.641 186.498c-1.996-1.397-6.114.128-7.846 1.437-.151.119-2.29 2.162-2.25 2.178h.047c-.654.24-1.348.495-2.107.798-1.388.559-2.953 1.214-4.613 2.028-1.792.871-3.534 1.841-5.219 2.905-1.889 1.185-3.667 2.537-5.316 4.038-.02.017-.039.035-.055.056.351-.615 1.284-2.394 1.34-2.522.798-2.027 1.142-6.385-.742-7.941-.322-.246-.692-.421-1.087-.514-.394-.094-.804-.103-1.202-.028s-.776.234-1.109.464c-.333.231-.614.53-.824.876-.942 1.437-.686 3.536-.144 5.068.607 1.732 3.361 4.589 3.584 4.789-1.644 1.568-3.179 3.245-4.597 5.02-.798 1.029-1.636 2.091-2.394 3.192.287-.543.542-1.038.566-1.109.798-2.02 1.142-6.385-.742-7.941-.322-.246-.691-.421-1.085-.514-.394-.094-.803-.103-1.2-.028-.398.076-.775.234-1.107.465-.333.23-.613.528-.822.875-.95 1.428-.686 3.535-.152 5.06.535 1.524 2.85 4.046 3.464 4.692l-.934 1.23c-1.436 2.003-2.857 3.99-4.317 5.921-.511.679-1.038 1.333-1.597 1.98.256-.487.471-.894.495-.958.798-2.027 1.142-6.385-.742-7.981-.322-.247-.692-.423-1.087-.517-.394-.094-.804-.104-1.203-.029-.398.076-.776.234-1.109.466-.333.231-.614.531-.823.878-.95 1.437-.686 3.536-.144 5.068.543 1.532 2.618 3.799 3.344 4.573-.558.655-1.117 1.301-1.692 1.908-.399.407-.75.798-1.181 1.205l-1.221 1.149c-.798.702-1.596 1.437-2.434 2.107-.559.471-1.093.902-1.596 1.341.511-.663 1.5-1.995 1.596-2.115.899-1.688 1.35-3.579 1.309-5.491.106-.184.197-.376.271-.575.149-.376.218-.78.201-1.184-.017-.405-.118-.801-.298-1.164-.18-.362-.434-.683-.746-.941-.312-.259-.674-.448-1.064-.558-2.395-.582-5.667 2.315-6.808 4.167-.064.111-.671 1.372-1.03 2.178.136-.502.288-.997.423-1.516.288-1.03.543-2.067.798-3.192.112-.543.232-1.094.352-1.645.119-.55.191-1.141.295-1.715.199-1.341.343-2.706.463-4.087.902.248 4.118 1.086 5.73.798 1.612-.287 3.584-1.005 4.398-2.514.206-.348.336-.736.382-1.139.045-.402.006-.809-.117-1.195s-.326-.742-.596-1.043c-.27-.302-.6-.544-.97-.709-2.251-.942-5.946 1.429-7.359 3.081-.087.103-.965 1.404-1.436 2.131.064-.798.127-1.66.167-2.506.096-2.395.128-4.893.168-7.351 0-.75 0-1.5.048-2.251.319.088 4.126 1.166 5.93.886 1.596-.239 3.583-.997 4.405-2.514.204-.349.331-.738.375-1.14s.003-.809-.121-1.194c-.123-.385-.326-.74-.595-1.042s-.599-.544-.968-.71c-2.242-.934-5.946 1.437-7.358 3.089-.104.119-1.365 1.995-1.668 2.49.04-1.652.096-3.304.215-4.925.154-2.189.448-4.367.878-6.52.152 0 4.118 1.181 5.97.894 1.596-.24 3.576-.998 4.398-2.514.203-.349.331-.737.376-1.139.044-.402.004-.808-.119-1.193s-.325-.741-.593-1.043c-.269-.302-.597-.544-.965-.711-2.251-.934-5.954 1.428-7.359 3.088-.096.104-1.061 1.533-1.5 2.219l-.128-.048c.493-2.156 1.18-4.264 2.051-6.297.463-1.125.966-2.171 1.485-3.192.718.287 3.99 1.596 5.698 1.5s3.671-.607 4.653-2.019c.241-.325.411-.697.499-1.091.088-.395.093-.804.013-1.2-.08-.397-.242-.772-.476-1.102s-.534-.607-.882-.813c-2.131-1.173-6.074.798-7.654 2.258-.088.08-.87.998-1.436 1.676.239-.446.478-.917.718-1.348.894-1.597 1.804-3.033 2.626-4.286.471-.702.91-1.333 1.333-1.924.846-.079 4.277-.47 5.722-1.293 1.444-.822 2.977-2.226 3.192-3.934.066-.399.047-.808-.056-1.199s-.288-.756-.542-1.071-.571-.573-.932-.756c-.36-.184-.755-.29-1.159-.31-2.434-.064-5.028 3.472-5.747 5.523-.063.183-.718 3.064-.678 3.056h.056c-.415.532-.854 1.139-1.317 1.82-.854 1.237-1.804 2.642-2.73 4.238-1.018 1.712-1.938 3.482-2.753 5.299-.919 2.034-1.659 4.143-2.211 6.305.005.027.005.054 0 .08 0-.71-.239-2.697-.271-2.849-.447-2.123-2.578-5.97-4.996-6.209-.404-.031-.809.024-1.19.161-.381.136-.729.352-1.021.632s-.522.619-.675.993c-.152.375-.224.778-.211 1.183 0 1.716 1.381 3.328 2.674 4.301 1.46 1.11 5.331 1.98 5.642 2.044-.5 2.217-.855 4.464-1.061 6.728-.12 1.316-.208 2.641-.279 3.99-.056-.614-.112-1.165-.128-1.237-.455-2.131-2.586-5.97-5.004-6.217-.404-.031-.809.024-1.19.161s-.729.352-1.021.632-.522.619-.675.994c-.152.374-.224.777-.211 1.182 0 1.716 1.381 3.328 2.674 4.31 1.293.981 4.605 1.795 5.475 2.003 0 .511-.048 1.021-.064 1.532-.096 2.458-.176 4.916-.327 7.319-.056.846-.144 1.684-.224 2.514-.048-.543-.104-1.006-.112-1.07-.454-2.131-2.585-5.969-5.004-6.217-.403-.03-.809.024-1.19.161s-.729.352-1.021.632-.522.619-.674.994c-.153.375-.225.778-.211 1.182 0 1.724 1.38 3.328 2.673 4.31 1.293.981 4.286 1.724 5.316 1.963-.104.854-.216 1.708-.359 2.522-.112.559-.176 1.11-.32 1.66l-.383 1.596c-.287 1.03-.566 2.099-.87 3.097-.207.694-.415 1.357-.622 2.027.064-.846.151-2.498.143-2.642-.119-2.162-1.644-6.289-3.99-6.895-.394-.09-.802-.097-1.199-.019-.396.078-.772.239-1.102.471-.331.233-.609.532-.816.879s-.339.734-.387 1.135c-.263 1.7.854 3.496 1.988 4.661 1.133 1.165 4.788 2.69 5.235 2.865-.351 1.102-.694 2.163-1.037 3.193-1.19 3.471-2.307 6.321-3.113 8.3 0 .072-.056.135-.088.199l1.453.798c.048-.127.103-.255.151-.391.798-2.019 1.844-4.924 2.961-8.46.36-1.117.719-2.314 1.078-3.551 1.218.152 2.444.232 3.671.239.439 1.78 2.474 4.701 2.738 5.076-.894.727-1.772 1.429-2.61 2.075-2.905 2.243-5.411 3.991-7.183 5.204l-.208.144 1.597.878c1.723-1.237 3.99-2.953 6.68-5.092.909-.735 1.875-1.541 2.849-2.395.359.304 3.272 2.778 4.996 3.273 1.556.447 3.671.59 5.044-.439.332-.232.611-.53.82-.876s.342-.733.392-1.134c.049-.401.014-.808-.104-1.195s-.316-.744-.581-1.049c-1.644-1.796-5.994-1.197-7.981-.288-.112.056-1.309.799-2.059 1.245.399-.343.798-.67 1.189-1.029.798-.694 1.596-1.421 2.442-2.203l1.197-1.173c.407-.391.798-.846 1.197-1.269.91-1.006 1.78-2.067 2.634-3.153.623.703 2.849 3.193 4.326 3.863 1.476.671 3.543 1.134 5.06.327.362-.179.682-.432.941-.743.258-.31.448-.672.558-1.061s.137-.796.079-1.196c-.057-.4-.198-.784-.413-1.126-1.357-2.019-5.746-2.091-7.837-1.492-.136.04-1.597.638-2.395.982.503-.655 1.022-1.309 1.509-1.996 1.428-1.971 2.809-3.99 4.198-6.033l1.285-1.852c.215.247 2.801 3.248 4.461 3.99 1.469.679 3.536 1.142 5.052.328.364-.178.686-.43.946-.74.26-.311.451-.673.561-1.062.11-.39.136-.798.077-1.199-.058-.4-.201-.784-.419-1.125-1.356-2.02-5.746-2.092-7.837-1.485-.152.04-2.243.91-2.761 1.157.941-1.356 1.899-2.705 2.897-3.99 1.33-1.747 2.775-3.402 4.325-4.956.104.119 2.786 3.256 4.478 4.038 1.476.686 3.543 1.141 5.06.335.363-.178.684-.431.943-.741.259-.311.45-.673.56-1.062.109-.389.136-.797.078-1.197-.058-.401-.2-.784-.416-1.126-1.357-2.027-5.746-2.091-7.837-1.492-.136.039-1.724.702-2.475 1.029l-.079-.12c1.601-1.52 3.335-2.896 5.179-4.11 1.014-.686 2.012-1.285 3.001-1.836.439.631 2.474 3.512 3.927 4.39 1.452.878 3.392 1.524 4.988.886.381-.139.729-.356 1.021-.638.291-.283.52-.623.67-1 .151-.377.22-.781.204-1.186-.016-.406-.118-.803-.299-1.167-1.125-2.162-5.483-2.705-7.622-2.338-.119 0-1.285.351-2.123.607l1.341-.735c1.636-.846 3.193-1.532 4.557-2.123.798-.327 1.501-.614 2.171-.87.758.399 3.823 1.972 5.483 2.075 1.66.104 3.719-.215 4.837-1.516.255-.293.449-.634.569-1.003s.165-.759.13-1.146c-.034-.387-.146-.763-.33-1.106-.183-.342-.434-.644-.736-.887z" opacity=".5"/><path d="m236.582 172.252c1.157 1.516 4.948 3.488 4.956 3.488s.543-2.89.551-3.081c.127-2.171-.91-6.433-3.193-7.311-.381-.135-.787-.189-1.19-.157s-.796.149-1.151.342c-.355.194-.666.46-.912.781-.245.322-.421.692-.514 1.085-.447 1.652.503 3.568 1.453 4.853z" opacity=".5"/></g><path d="m234.188 212.979s-13.321-32.124-20.751-30.727c-7.431 1.397 12.769 51.214 12.769 51.214s-23.448-44.231-39.434-44.231 5.858 48.884 26.114 65.182c0 0-31.98-34.455-50.632-27-18.651 7.454 37.312 42.363 37.312 42.363s-32.515-10.24-28.78-2.322c3.735 7.917 13.855 9.305 13.855 9.305l-36.8 1.868h127.92l-28.78-2.793s29.841-14.901 21.852-20.951c-7.989-6.049-25.587 6.984-25.587 6.984s30.384-33.52 24.518-46.099c-5.866-12.578-31.98 22.818-31.98 22.818s21.325-45.165 17.055-53.082-18.651 27.471-18.651 27.471z" fill="#eb696f"/><path d="m234.188 212.979s-13.321-32.124-20.751-30.727c-7.431 1.397 12.769 51.214 12.769 51.214s-23.448-44.231-39.434-44.231 5.858 48.884 26.114 65.182c0 0-31.98-34.455-50.632-27-18.651 7.454 37.312 42.363 37.312 42.363s-32.515-10.24-28.78-2.322c3.735 7.917 13.855 9.305 13.855 9.305l-36.8 1.868h127.92l-28.78-2.793s29.841-14.901 21.852-20.951c-7.989-6.049-25.587 6.984-25.587 6.984s30.384-33.52 24.518-46.099c-5.866-12.578-31.98 22.818-31.98 22.818s21.325-45.165 17.055-53.082-18.651 27.471-18.651 27.471z" fill="#fff" opacity=".5"/><path d="m238.449 214.671c-11.724 34.646-11.724 59.163-11.724 59.163s13.855.527 28.245-10.127" stroke="#263238" stroke-linecap="round" stroke-linejoin="round" stroke-width=".486945"/><path d="m232.591 233.331c-2.41-10.358-5.612-20.516-9.577-30.384" stroke="#263238" stroke-linecap="round" stroke-linejoin="round" stroke-width=".486945"/><path d="m197.946 213.075 29.849 44.239s20.248-17.056 27.175-26.649" stroke="#263238" stroke-linecap="round" stroke-linejoin="round" stroke-width=".486945"/><path d="m227.26 267.968s-31.445-14.924-44.239-23.448" stroke="#263238" stroke-linecap="round" stroke-linejoin="round" stroke-width=".486945"/><path d="m218.656 39.8783h-123.2268c-2.9753 0-5.3872 2.412-5.3872 5.3872v230.7235c0 2.976 2.4119 5.387 5.3872 5.387h123.2268c2.976 0 5.388-2.411 5.388-5.387v-230.7235c0-2.9752-2.412-5.3872-5.388-5.3872z" fill="#263238" stroke="#263238" stroke-miterlimit="10" stroke-width=".486945"/><path d="m166.309 54.308h-16.681c-.225 0-.448-.0444-.656-.1306s-.398-.2126-.557-.3719c-.159-.1594-.286-.3486-.372-.5567-.086-.2082-.131-.4314-.131-.6567 0-.225.045-.4477.131-.6554.087-.2078.213-.3964.373-.5551.159-.1587.348-.2844.556-.3697.208-.0854.431-.1288.656-.1277h16.681c.453 0 .887.1799 1.207.5002.321.3203.501.7547.501 1.2077.001.225-.043.4479-.128.6561-.085.2081-.211.3973-.37.5568-.158.1594-.347.2859-.555.3723-.208.0863-.43.1307-.655.1307z" fill="#eb696f"/><path d="m215.576 259.796h-117.0661v-205.2885h27.7821l3.12 2.5859c1.088.9094 2.461 1.4067 3.879 1.4047h48.956c1.469-.0082 2.886-.5467 3.99-1.5164l2.818-2.4742h26.529z" fill="#fff"/><path d="m186.229 56.9817c-1.104.9698-2.521 1.5083-3.99 1.5164h-48.98c-1.417.002-2.791-.4953-3.878-1.4047l-3.089-2.5858h-27.7821v22.4825h117.0661v-22.5065h-26.529z" fill="#eb696f"/><path d="m215.576 259.796h-117.0661v-205.2885h27.7821l3.12 2.5859c1.088.9094 2.461 1.4067 3.879 1.4047h48.956c1.469-.0082 2.886-.5467 3.99-1.5164l2.818-2.4742h26.529z" stroke="#263238" stroke-linecap="round" stroke-linejoin="round" stroke-width=".457055"/><path d="m206.86 79.3046h-99.284v169.0544h99.284z" fill="#fff"/><path d="m160.786 266.141c.001-.528-.153-1.044-.445-1.483-.292-.44-.708-.783-1.195-.986s-1.023-.257-1.541-.155c-.517.102-.993.355-1.367.728-.373.372-.628.847-.732 1.365-.103.517-.051 1.053.151 1.541.201.487.543.904.981 1.198.439.293.955.449 1.482.449.705-.002 1.381-.282 1.88-.78s.782-1.172.786-1.877z" fill="#eb696f"/><path d="m189.303 158.786c17.747-17.747 17.747-46.52 0-64.2671-17.747-17.747-46.52-17.747-64.267 0-17.747 17.7471-17.747 46.5201 0 64.2671s46.52 17.747 64.267 0z" fill="#eb696f"/><path d="m146.165 133.879s2.769 7.047 2.011 12.083-3.528 7.814-9.577 10.831c-6.05 3.016-15.611 7.302-16.625 10.327-1.013 3.025 0 17.167 0 17.167h74.04s-1.764-14.645-5.539-19.689-18.883-9.058-23.145-11.836c-4.261-2.777-2.514-18.636-2.514-18.636s-11.349 3.52-18.651-.247z" fill="#fff" stroke="#263238" stroke-linecap="round" stroke-linejoin="round" stroke-width=".486945"/><path d="m137.465 157.383c-1.372.671-2.881 1.405-4.389 2.155 2.626 7.981.199 18.125-2.043 24.741h52.435c-.827-1.753-1.389-3.62-1.668-5.539-.854-5.993-.287-15.044.112-19.713-1.772-.798-3.632-1.556-5.435-2.274-2.626 6.217-9.194 18.292-20.216 16.8-10.926-1.461-16.601-11.166-18.796-16.17z" fill="#263238" stroke="#263238" stroke-linecap="round" stroke-linejoin="round" stroke-width=".486945"/><path d="m133.571 137.909s1.5 3.775 7.087 4.526c5.587.75 2.825-7.359 19.33-7.926 11.62-.399.064 9.179 2.586 9.689 2.522.511 8.779-.255 12.338-8.563 3.56-8.308 4.278-29.466-3.024-36.266-7.303-6.7999-28.732-6.5524-31.98-.5028-3.249 6.0498-1.014 16.6168-3.991 22.4108s-4.366 13.608-2.346 16.632z" fill="#263238" stroke="#263238" stroke-linecap="round" stroke-linejoin="round" stroke-width=".486945"/><path d="m140.658 118.492s-2.011-5.292-2.77-1.509c-.758 3.783 0 7.55 1.764 9.067 1.764 1.516 2.77 1.253 2.77 1.253z" fill="#fff" stroke="#263238" stroke-linecap="round" stroke-linejoin="round" stroke-width=".486945"/><path d="m148.583 91.5396s-4.254 1.0615-7.095 8.8674c-2.841 7.805-.623 28.316 1.149 30.447s7.67 10.982 13.344 11.333c3.616.224 12.682-8.085 14.103-12.338 1.42-4.254 1.915-23.409.846-28.022-1.07-4.6129-9.929-15.2596-22.347-10.2874z" fill="#fff" stroke="#263238" stroke-linecap="round" stroke-linejoin="round" stroke-width=".486945"/><path d="m151.177 116.752c0 .23-.069.456-.197.648-.129.192-.311.341-.524.429-.214.088-.448.111-.675.065-.226-.046-.434-.157-.596-.321-.163-.164-.273-.372-.317-.599-.044-.226-.02-.461.069-.674.09-.213.24-.394.433-.521s.419-.194.65-.193c.152 0 .303.031.444.089.141.059.269.145.377.253.107.109.192.237.25.378.058.142.087.293.086.446z" fill="#263238"/><path d="m162.757 116.752c0 .23-.068.455-.196.647s-.31.341-.523.429-.447.111-.673.067c-.226-.045-.434-.156-.597-.319s-.274-.371-.319-.597-.022-.46.066-.673c.089-.213.238-.395.43-.523.191-.128.417-.197.647-.197.153-.001.305.029.447.087s.271.144.379.252c.109.109.194.238.253.38.058.141.087.293.086.447z" fill="#263238"/><path d="m151.464 128.715s3.775 2.123 9.186 0" stroke="#263238" stroke-linecap="round" stroke-linejoin="round" stroke-width=".486945"/><path d="m158.296 120.95s1.652 2.115 0 3.296c-.722.494-1.568.777-2.441.817-.874.041-1.742-.162-2.507-.586-1.413-.702.239-3.767.239-3.767" stroke="#263238" stroke-linecap="round" stroke-linejoin="round" stroke-width=".486945"/><path d="m152.047 111.412c-.713-.771-1.638-1.315-2.659-1.564-1.02-.248-2.092-.19-3.08.168-3.583 1.197-3.759 4.174-3.759 4.174s2.179-2.778 4.127-2.81c1.947-.031 4.716 2.155 5.371.032z" fill="#263238"/><path d="m158.535 111.676c.668-.809 1.56-1.401 2.564-1.704 1.004-.302 2.076-.301 3.079.004 3.647.997 3.99 3.99 3.99 3.99s-2.338-2.649-4.277-2.578c-1.94.072-4.59 2.379-5.356.288z" fill="#263238"/><path d="m152.206 97.8686s-6.297-1.7239-8.819 2.2664c-2.522 3.991-1.253 11.836-5.036 18.883-3.783 7.048-1.508 17.878-1.005 19.394.502 1.517-3.273 3.528-5.284-4.03s3.775-14.861 4.278-22.666c.503-7.806-1.269-16.3694 6.544-20.9027 7.814-4.5332 9.322-1.7638 9.322-1.7638z" fill="#263238" stroke="#263238" stroke-linecap="round" stroke-linejoin="round" stroke-width=".486945"/><path d="m183.181 109.712c-1.509-4.533-1.261-12.8491-7.303-19.6489-3.791-4.2619-11.038-6.736-16.984-6.8797-.957-.1981-1.939-.2545-2.913-.1676-9.577.7981-15.611 5.7943-13.847 9.5773s10.072 5.2914 10.072 5.2914l1.261.5028c-.042-.4269-.058-.8561-.048-1.2849 1.357-.6305 3.672-1.0456 6.09 1.5323 4.21 4.7123 6.539 10.8083 6.544 17.1273-.247 9.577 4.534 13.097 4.534 17.127 0 4.031-7.048 9.067-8.564 10.328-1.676 1.396 6.385 2.083 6.888 2.051 8.116-.503 13.512-5.802 16.895-12.874 3.983-8.316-.023-14.884-2.625-22.682z" fill="#263238" stroke="#263238" stroke-linecap="round" stroke-linejoin="round" stroke-width=".486945"/><path d="m174.034 139.817c-.375.615-.859 1.156-1.428 1.596" stroke="#fff" stroke-linecap="round" stroke-linejoin="round" stroke-width=".486945"/><path d="m152.206 96.8549s-6.041-3.2722-1.005-5.7862 14.366 5.2834 16.616 12.5863c2.251 7.302.503 15.619 3.783 21.405 1.549 2.753 3.56 7.319 3.408 11.173" stroke="#fff" stroke-linecap="round" stroke-linejoin="round" stroke-width=".486945"/><path d="m147.713 92.3776c-.192-.6944.192-1.692 1.971-3.0727 4.534-3.5276 12.85-1.7638 17.128 2.7694 4.277 4.5332 5.794 10.0717 6.297 16.6167.502 6.544 1.508 10.599 5.06 14.589 3.551 3.991 5.538 8.308 2.011 13.344" stroke="#fff" stroke-linecap="round" stroke-linejoin="round" stroke-width=".486945"/><path d="m147.418 96.855s-7.047-3.0169-3.017-6.7999" stroke="#fff" stroke-linecap="round" stroke-linejoin="round" stroke-width=".486945"/><path d="m138.591 137.367c.545.801 1.232 1.496 2.027 2.051" stroke="#fff" stroke-linecap="round" stroke-linejoin="round" stroke-width=".486945"/><path d="m137.098 122.043s-1.772 7.526.335 13.089" stroke="#fff" stroke-linecap="round" stroke-linejoin="round" stroke-width=".486945"/><path d="m173.667 94.5484c1.984 3.3232 3.246 7.0266 3.704 10.8706 1.005 9.066-1.764 12.091 2.522 16.872 1.87 1.982 2.945 4.585 3.016 7.31" stroke="#fff" stroke-linecap="round" stroke-linejoin="round" stroke-width=".486945"/><path d="m170.587 90.3105s.367.3751.925 1.0854" stroke="#fff" stroke-linecap="round" stroke-linejoin="round" stroke-width=".486945"/><path d="m193.173 171.254c5.818 0 10.535-4.716 10.535-10.535 0-5.818-4.717-10.535-10.535-10.535s-10.535 4.717-10.535 10.535c0 5.819 4.717 10.535 10.535 10.535z" fill="#263238"/><path d="m198.504 157.694h-.383c-.356 0-.698-.141-.951-.392s-.396-.592-.398-.948c0-.357-.141-.699-.392-.951-.251-.253-.592-.396-.948-.398h-4.494c-.357 0-.701.142-.954.395-.252.253-.395.596-.395.954 0 .176-.034.35-.102.513-.067.162-.166.31-.29.435-.125.124-.273.223-.435.29-.163.068-.337.102-.513.102h-.383c-.358 0-.701.142-.954.395s-.395.596-.395.954v6.05c0 .358.142.701.395.954.253.252.596.395.954.395h10.662c.357-.003.698-.146.949-.398.251-.253.392-.595.392-.951v-6.05c0-.178-.035-.355-.104-.52-.069-.164-.17-.314-.297-.439-.127-.126-.277-.225-.443-.292-.165-.066-.342-.1-.521-.098zm-5.331 8.221c-.848.001-1.678-.249-2.384-.719s-1.257-1.14-1.582-1.923c-.325-.784-.411-1.646-.246-2.478s.574-1.597 1.173-2.197c.6-.599 1.365-1.008 2.197-1.173s1.694-.079 2.478.246c.783.325 1.452.876 1.923 1.582.47.706.72 1.536.719 2.384-.004 1.133-.457 2.219-1.258 3.02-.801.802-1.887 1.254-3.02 1.258z" fill="#fff"/><path d="m193.173 165.037c1.878 0 3.4-1.522 3.4-3.4s-1.522-3.4-3.4-3.4-3.4 1.522-3.4 3.4 1.522 3.4 3.4 3.4z" fill="#fff"/><path d="m119.508 185.62h14.765" stroke="#263238" stroke-linecap="round" stroke-linejoin="round" stroke-width=".486945"/><path d="m119.508 223.131h14.765" stroke="#263238" stroke-linecap="round" stroke-linejoin="round" stroke-width=".486945"/><path d="m119.508 191.207h54.271" stroke="#263238" stroke-linecap="round" stroke-linejoin="round" stroke-width=".97389"/><path d="m119.508 228.718h54.271" stroke="#263238" stroke-linecap="round" stroke-linejoin="round" stroke-width=".97389"/><path d="m119.508 244.281h14.765" stroke="#263238" stroke-linecap="round" stroke-linejoin="round" stroke-width=".486945"/><path d="m119.508 249.867h54.271" stroke="#263238" stroke-linecap="round" stroke-linejoin="round" stroke-width=".97389"/><path d="m119.508 199.188h84.2" stroke="#263238" stroke-linecap="round" stroke-linejoin="round" stroke-width=".486945"/><path d="m119.508 203.178h84.2" stroke="#263238" stroke-linecap="round" stroke-linejoin="round" stroke-width=".486945"/><path d="m119.508 207.169h84.2" stroke="#263238" stroke-linecap="round" stroke-linejoin="round" stroke-width=".486945"/><path d="m109.636 186.817c1.763 0 3.192-1.429 3.192-3.192s-1.429-3.193-3.192-3.193c-1.764 0-3.193 1.43-3.193 3.193s1.429 3.192 3.193 3.192z" fill="#263238"/><path d="m109.635 187.615c-2.737 0-4.996 1.74-5.339 3.991h10.671c-.343-2.251-2.602-3.991-5.332-3.991z" fill="#263238"/><path d="m109.308 241.886c-.986 0-1.951.293-2.771.841s-1.46 1.327-1.837 2.239c-.378.911-.476 1.914-.284 2.882.192.967.668 1.856 1.365 2.554.698.697 1.587 1.172 2.554 1.365.968.192 1.971.093 2.882-.284.912-.378 1.691-1.017 2.239-1.837.548-.821.84-1.785.84-2.772 0-1.323-.525-2.591-1.461-3.527-.935-.935-2.204-1.461-3.527-1.461zm-1.756 1.325.671-.447c.036-.022.08-.029.121-.02s.078.033.102.068l1.174 1.916c.011.018.019.038.022.059.003.022.002.043-.003.064s-.014.041-.027.058-.03.031-.048.042l-.751.439c-.037.02-.08.024-.12.012-.041-.012-.075-.039-.095-.076l-1.093-1.907c-.019-.035-.025-.075-.016-.113.009-.039.031-.072.063-.095zm3.648 7.343c-.267.157-.569.242-.878.247-.503 0-.982-.487-1.485-.99-.7-.838-1.315-1.744-1.835-2.705-.458-.856-.666-1.825-.599-2.793.142-.338.392-.619.71-.799.019-.012.04-.021.062-.025s.045-.004.067.002c.022.005.042.015.06.028.018.014.032.031.043.051l.998 1.7c.022.027.034.061.034.096s-.012.069-.034.096c-.116.125-.201.275-.248.439-.001.681.223 1.343.639 1.883.455.543.854.798 1.077.798.101.014.203.014.303 0 .035-.008.072-.004.105.01s.061.039.079.07l.974 1.684c.016.037.018.08.005.118-.013.039-.041.071-.077.09zm1.237-.615-.75.439c-.037.02-.081.025-.121.013-.041-.012-.075-.04-.095-.077l-1.093-1.907c-.019-.035-.025-.075-.016-.113s.031-.072.064-.095l.702-.415c.036-.021.08-.029.121-.02.042.009.078.033.102.068l1.174 1.916c.011.037.008.077-.008.112s-.045.063-.08.079z" fill="#263238"/><path d="m109.532 221.75c-.848 0-1.677.252-2.381.722-.705.471-1.254 1.141-1.579 1.924-.324.783-.409 1.645-.244 2.476.166.831.574 1.595 1.173 2.195.6.599 1.363 1.007 2.195 1.172.831.166 1.693.081 2.476-.243.783-.325 1.452-.874 1.923-1.579s.723-1.533.723-2.381c-.003-1.136-.455-2.225-1.258-3.028s-1.892-1.256-3.028-1.258zm.407 6.872c.01.163-.045.323-.152.447-.051.052-.111.093-.179.121-.067.027-.139.04-.212.038-.074.002-.147-.011-.216-.039-.068-.027-.131-.068-.183-.12-.105-.125-.159-.284-.152-.447v-3.185c-.007-.162.047-.322.152-.447.051-.054.113-.097.182-.126.068-.029.142-.043.217-.041.073-.002.146.012.214.041.067.029.128.072.177.126.054.061.095.132.121.209.026.076.037.158.031.238zm-.088-4.789c-.128.109-.291.168-.459.168s-.331-.059-.459-.168c-.059-.056-.105-.124-.136-.2-.03-.076-.043-.157-.039-.239-.004-.08.01-.16.04-.234.031-.075.077-.142.135-.197.126-.114.293-.175.463-.167.083-.005.167.008.245.037s.149.073.21.13c.058.055.104.122.135.197.03.074.044.154.041.234.009.081.001.162-.024.239s-.066.148-.12.208z" fill="#263238"/><path d="m74.5429 225.852s-9.0505 6.202-11.5326 10.104c-2.4821 3.903-9.2261 14.015-13.8312 16.856-4.605 2.842-11.7081.352-12.594 3.009-.8859 2.658.8859 7.271.5267 9.577-.3591 2.307-1.2371 8.516.8939 10.998 2.1309 2.482 4.2539 2.482 4.4295 1.421.1755-1.062 0-6.56 2.1309-10.288 2.1309-3.727 5.6745-9.042 18.093-17.909s18.4442-14.901 21.1019-17.742.7103-6.919.7103-6.919" fill="#fff"/><g stroke-linecap="round" stroke-linejoin="round"><path d="m74.5429 225.852s-9.0505 6.202-11.5326 10.104c-2.4821 3.903-9.2261 14.015-13.8312 16.856-4.605 2.842-11.7081.352-12.594 3.009-.8859 2.658.8859 7.271.5267 9.577-.3591 2.307-1.2371 8.516.8939 10.998 2.1309 2.482 4.2539 2.482 4.4295 1.421.1755-1.062 0-6.56 2.1309-10.288 2.1309-3.727 5.6745-9.042 18.093-17.909s18.4442-14.901 21.1019-17.742.7103-6.919.7103-6.919" stroke="#263238" stroke-width=".486945"/><path d="m74.5429 225.852s-9.0505 6.202-11.5326 10.104c-2.4821 3.903-9.2261 14.015-13.8312 16.856-.7322.434-1.5222.762-2.3464.974-.0829 2.734.5822 5.438 1.9234 7.821 2.6976-3.096 6.8797-6.975 13.903-11.971 12.4105-8.875 18.4442-14.901 21.1019-17.742 2.6576-2.841.7103-6.919.7103-6.919z" fill="#263238" stroke="#263238" stroke-width=".486945"/><path d="m40.839 267.354c.4549-3.193 2.4661-10.91 3.0407-13.081-3.4637.271-6.712-.192-7.2946 1.548-.8859 2.666.8859 7.271.5267 9.577-.3591 2.307-1.2371 8.516.8939 10.998 2.1309 2.482 4.2539 2.482 4.4295 1.421.1037-.599.0878-2.618.4389-4.924-.7767-.679-1.3702-1.542-1.7259-2.51-.3556-.967-.462-2.009-.3092-3.029z" fill="#eb696f" stroke="#263238" stroke-width=".486945"/><path d="m38.0057 270.722c0-3.193.8859-5.499.1756-9.929-.365-2.097-.1639-4.255.5826-6.249-1.1174.16-1.9155.495-2.1788 1.277-.8859 2.666.8859 7.271.5267 9.577-.3591 2.307-1.2371 8.516.8939 10.998.663.835 1.5245 1.491 2.506 1.908-2.107-1.876-2.506-4.797-2.506-7.582z" fill="#fff" stroke="#263238" stroke-width=".486945"/><path d="m51.8368 145.803c.1516-.28.2873-.543.415-.798-.1277.255-.2634.518-.415.798z" fill="#263238" stroke="#263238" stroke-width=".486945"/><path d="m51.2063 146.944c.1915-.327.3671-.655.5347-.966-.1676.311-.3432.631-.5347.966z" fill="#263238" stroke="#263238" stroke-width=".486945"/><path d="m52.3316 144.829c.1437-.279.2634-.535.3831-.798-.1197.295-.2394.551-.3831.798z" fill="#263238" stroke="#263238" stroke-width=".486945"/><path d="m50.5279 148.149.5347-.95z" fill="#263238" stroke="#263238" stroke-width=".486945"/><path d="m52.7866 143.911c.1117-.255.2155-.495.2953-.71-.0798.215-.2155.455-.2953.71z" fill="#263238" stroke="#263238" stroke-width=".486945"/><path d="m78.6451 147.678c0-.213 0-.404 0-.574-.016.17-.016.361 0 .574z" fill="#263238" stroke="#263238" stroke-width=".486945"/><path d="m78.8286 149.274c-.0399-.247-.0718-.487-.0958-.71.024.255.0559.463.0958.71z" fill="#263238" stroke="#263238" stroke-width=".486945"/><path d="m83.0506 183.992c-.7981-5.076-3.7192-14.19-2.8333-18.979.6465-3.504-.5108-9.952-1.1732-14.27-15.6269 1.644-24.4698-.71-28.596-2.45-2.6098 4.565-6.2572 10.822-7.8374 17.255-2.2985 9.401-3.7192 16.848-.8859 23.233 2.8333 6.384 5.5069 21.971 4.9722 28.356-.5348 6.385-3.7272 9.937-3.0169 14.901.7104 4.964 4.0704 15.563 5.491 18.931s2.6657 15.962 2.6657 15.962c-.9673 2.538-1.6811 5.166-2.131 7.845-.3511 3.193 2.2188 4.43 5.8661 6.385s11.5086 6.034 12.7696 3.256c1.2611-2.777-4.5731-9.401-7.5261-14.238-2.9529-4.836-2.8332-11.836-3.1924-19.274-.4389-8.524-.0718-26.377-.0718-31.701 0-5.323 5.8501-33.145 5.8501-33.145s3.5436 14.366 6.3848 21.285c2.8413 6.92 2.937 19.45 6.1295 22.291 3.1924 2.842 9.5772 3.544 9.5772-3.192s.3352-25.707-2.4422-42.451z" fill="#263238" stroke="#263238" stroke-width=".486945"/><path d="m78.7169 148.404c0-.231-.0479-.462-.0638-.662.0159.2.0319.423.0638.662z" fill="#263238" stroke="#263238" stroke-width=".486945"/><path d="m78.9643 150.256c0-.247-.0638-.479-.1037-.71.0399.231.0718.463.1037.71z" fill="#263238" stroke="#263238" stroke-width=".486945"/><path d="m42.3314 123.36.1197-.168z" fill="#263238" stroke="#263238" stroke-width=".486945"/><path d="m41.8046 124.078.2315-.311z" fill="#263238" stroke="#263238" stroke-width=".486945"/><path d="m42.1 123.663c.0718-.104.1357-.183.1995-.263z" fill="#263238" stroke="#263238" stroke-width=".486945"/><path d="m63.138 187.248s2.3943-9.457 1.4126-12.682c-.9816-3.224-5.036-9.665-5.036-9.665" stroke="#fff" stroke-width=".365209"/><path d="m66.5618 175.771s6.6402-3.623 8.2524-7.446" stroke="#fff" stroke-width=".365209"/><path d="m69.3792 174.965s5.036-2.617 7.4542-7.246" stroke="#fff" stroke-width=".365209"/><path d="m87.8392 110.742c-2.6577-4.964-4.9642-6.56-8.1566-7.095s-9.2261.359-12.0593-1.421c-2.8333-1.78-2.8413-9.5771-2.4821-10.1038.3591-.5268-8.6914-.1836-8.6914-.1836s1.2371 8.6914.5268 10.4714c-.7104 1.78-4.1103 2.514-8.3322 2.514-2.1986.036-4.3433.686-6.1921 1.876s-3.3282 2.873-4.2711 4.86c-2.1309 4.254-19.4418 29.689-19.4418 29.689s-1.0056 1.142-.9417 1.596l6.305 1.07c6.2092-4.589 18.508-20.99 18.508-20.99l1.245-.703s2.131 7.622 5.8501 10.815c3.7192 3.192 4.7887 6.209 3.376 10.112-.7591 1.756-1.6391 3.457-2.6337 5.092 4.1262 1.739 12.9692 4.094 28.596 2.45-.2181-1.203-.3593-2.419-.423-3.64 0-2.841-.1756-8.34-.1756-11.883 0-3.544 3.5436-6.744 2.4821-10.288-.6457-2.146-1.1207-4.339-1.4206-6.56l1.7718-2.131s5.6586 9.84 7.6299 12.019c4.0304 4.454 8.8669 9.091 9.7528 8.556s3.0165-1.245 2.3065-6.034c-.71-4.788-10.4631-15.124-13.1288-20.088z" fill="#fff" stroke="#263238" stroke-width=".486945"/><path d="m78.6211 147.223c-4.0863.591-15.4193 1.684-26.4172-2.075-.5666 1.094-1.2929 2.395-2.115 3.807 2.7694 1.157 11.397 4.414 19.3062 3.687 5.1477-.478 8.0369-1.364 9.5772-2.083-.1816-1.104-.2988-2.218-.3512-3.336z" fill="#eb696f" stroke="#263238" stroke-width=".486945"/><path d="m78.7249 148.524c-.0588-.471-.0934-.945-.1037-1.42 0-2.842-.1756-8.341-.1756-11.884 0-3.544 3.5436-6.744 2.4821-10.288-.6458-2.146-1.1208-4.339-1.4206-6.56l.1516-.184c-2.1948-4.565-3.8309-12.043-4.3816-14.757-.9976 0-2.0192 0-3.0009-.087-.0558 2.976-.9098 9.577-7.3106 10.766-6.6961 1.285-12.7058-6.241-14.8128-9.25-.4868 0-.9896 0-1.5084 0h-.6066c1.9227 4.217 2.7989 8.836 2.554 13.464-.3911 6.233-3.0727 8.891-4.3976 9.841.8548 1.831 2.046 3.485 3.5117 4.876 3.7271 3.192 4.7886 6.209 3.376 10.112-.4567 1.1-.9901 2.167-1.5963 3.192 8.4458 4.26 18.2239 5.042 27.2393 2.179z" fill="#eb696f" stroke="#263238" stroke-width=".486945"/><path d="m61.2465 134.454s3.5914-.798 10.7744-3.193" stroke="#263238" stroke-width=".486945"/></g><path d="m24.7651 139.737s2.5939 4.35 10.2237 7.183c7.6299 2.833 12.235 2.482 12.235 2.482s4.0464-6.169 4.9642-6.169 8.404 2.801 8.2603 3.192c-.1436.391.7024.798-.6305.559-1.3328-.24-4.7247-1.477-5.2116-1.548-.4868-.072 4.8525 3.591 5.3473 3.878.4948.288.423 1.197-.0718 1.269s-5.7703-2.538-5.7703-2.538l5.1398 3.193s.2793.566-.6305.702-5.7065-2.466-5.7065-2.466l3.8709 3.24s.4229.639-.7982.495c-1.221-.144-4.3656-2.394-4.3656-2.394-1.1633 1.148-2.5557 2.037-4.0863 2.61-2.3225.798-8.6594-1.062-13.5198-1.597-4.8605-.534-13.8711-3.009-16.0339-5.331-2.1629-2.322 1.1253-5.85 1.1253-5.85" fill="#fff"/><path d="m24.7651 139.737s2.5939 4.35 10.2237 7.183c7.6299 2.833 12.235 2.482 12.235 2.482s4.0464-6.169 4.9642-6.169 8.404 2.801 8.2603 3.192c-.1436.391.7024.798-.6305.559-1.3328-.24-4.7247-1.477-5.2116-1.548-.4868-.072 4.8525 3.591 5.3473 3.878.4948.288.423 1.197-.0718 1.269s-5.7703-2.538-5.7703-2.538l5.1398 3.193s.2793.566-.6305.702-5.7065-2.466-5.7065-2.466l3.8709 3.24s.4229.639-.7982.495c-1.221-.144-4.3656-2.394-4.3656-2.394-1.1633 1.148-2.5557 2.037-4.0863 2.61-2.3225.798-8.6594-1.062-13.5198-1.597-4.8605-.534-13.8711-3.009-16.0339-5.331-2.1629-2.322 1.1253-5.85 1.1253-5.85" stroke="#263238" stroke-linecap="round" stroke-linejoin="round" stroke-width=".486945"/><path d="m94.224 131.748s-2.3464 5.467-3.9905 8.492-6.0736 9.282-6.4886 9.809c-.3618.392-.8403.658-1.3647.758 0 0-.7502-2.115-1.6601-4.382-.1373-.435-.3613-.838-.6585-1.185-.2972-.346-.6615-.629-1.0708-.831s-.8553-.319-1.3112-.345c-.4558-.025-.9119.043-1.3411.198 0 0-1.2769.647-.7981 1.022.4789.375 2.0192.279 2.5859.279.4778.096.9149.336 1.253.687 0 0-3.6393.159-3.767.718s.3192.726 1.3807.726c.9227-.05 1.8478.036 2.7454.256.3113.183-3.6233.335-4.0623 1.149s2.4582.335 3.1924.471c.3091.028.5967.17.8063.399.2097.229.3263.527.327.838 0 0-2.945-.671-3.5116.207-.4549.695 1.4126.742 1.7558.838 1.2371.351.9098 1.652 1.6601 2.674.6384.87.7981 1.333 2.099 1.333 2.1947 0 8.3322-8.045 11.5246-11.046s7.7093-7.462 8.4603-9.777c.75-2.314-1.445-5.89-1.948-6.017" fill="#fff"/><path d="m94.224 131.748s-2.3464 5.467-3.9905 8.492-6.0736 9.282-6.4886 9.809c-.3618.392-.8403.658-1.3647.758 0 0-.7502-2.115-1.6601-4.382-.1373-.435-.3613-.838-.6585-1.185-.2972-.346-.6615-.629-1.0708-.831s-.8553-.319-1.3112-.345c-.4558-.025-.9119.043-1.3411.198 0 0-1.2769.647-.7981 1.022.4789.375 2.0192.279 2.5859.279.4778.096.9149.336 1.253.687 0 0-3.6393.159-3.767.718s.3192.726 1.3807.726c.9227-.05 1.8478.036 2.7454.256.3113.183-3.6233.335-4.0623 1.149s2.4582.335 3.1924.471c.3091.028.5967.17.8063.399.2097.229.3263.527.327.838 0 0-2.945-.671-3.5116.207-.4549.695 1.4126.742 1.7558.838 1.2371.351.9098 1.652 1.6601 2.674.6384.87.7981 1.333 2.099 1.333 2.1947 0 8.3322-8.045 11.5246-11.046s7.7093-7.462 8.4603-9.777c.75-2.314-1.445-5.89-1.948-6.017" stroke="#263238" stroke-linecap="round" stroke-linejoin="round" stroke-width=".486945"/><path d="m82.3961 150.807c.3221 1.226.5121 2.484.5667 3.751z" fill="#fff"/><path d="m82.3961 150.807c.3221 1.226.5121 2.484.5667 3.751" stroke="#263238" stroke-linecap="round" stroke-linejoin="round" stroke-width=".486945"/><path d="m81.2789 116.241 3.2004-2.881" stroke="#263238" stroke-linecap="round" stroke-linejoin="round" stroke-width=".486945"/><path d="m43.8558 122.275 4.182-1.469" stroke="#263238" stroke-linecap="round" stroke-linejoin="round" stroke-width=".486945"/><path d="m47.6787 97.8606s1.1812 2.1464 4.5412 2.2024 1.1572-4.6047 10.9819-6.1371c6.9116-1.0774.6943 5.483 2.2427 5.5867 1.5483.1038 5.2435-.7981 6.7519-6.0097s.423-17.9174-4.4295-21.453c-4.8524-3.5356-17.6301-1.8277-19.1544 2.0192-1.5244 3.8469.5985 10.0002-.7981 13.6795-1.3967 3.6792-1.5563 8.4519-.1357 10.112z" fill="#263238" stroke="#263238" stroke-linecap="round" stroke-linejoin="round" stroke-width=".486945"/><path d="m50.4721 85.7693s-1.5962-3.0089-1.7638-.7024c-.1676 2.3066.5506 4.5173 1.7079 5.2915 1.1572.7741 1.7478.5507 1.7478.5507z" fill="#fff" stroke="#263238" stroke-linecap="round" stroke-linejoin="round" stroke-width=".486945"/><path d="m53.2973 69.0729s-2.4661.9418-3.5994 5.8102c-1.1333 4.8685 1.676 16.9677 2.8891 18.109s5.3792 6.0017 8.7792 5.8022c2.1708-.1197 6.9913-5.7463 7.5341-8.3881.5427-2.6417-.5507-14.1264-1.5244-16.808s-7.0233-8.3961-14.0786-4.5253z" fill="#fff" stroke="#263238" stroke-linecap="round" stroke-linejoin="round" stroke-width=".486945"/><path d="m56.0724 83.9017c0 .3831-1.1014-.1676-1.4925-.1915-.3911-.024-1.5244.3911-1.5004 0 .0239-.3911 1.1492-.6305 1.5403-.6066.3911.024 1.4765.4071 1.4526.7981z" fill="#263238"/><path d="m64.5689 82.8323c.0135.0923.0084.1864-.0149.2768-.0234.0904-.0644.1752-.1209.2495s-.1272.1366-.208.1833c-.0809.0466-.1702.0767-.2628.0885-.0928.0123-.1871.0061-.2775-.0181-.0904-.0243-.1751-.0662-.2493-.1233s-.1363-.1283-.1829-.2095c-.0465-.0812-.0766-.1708-.0884-.2637-.005-.175.0556-.3457.1699-.4784.1144-.1327.2741-.2179.448-.2389s.3494.0238.492.1255.242.253.2788.4242z" fill="#263238"/><path d="m58.9958 90.8452c.9503.0677 1.9043-.0657 2.7995-.3917.8953-.3259 1.7118-.837 2.3962-1.4998" stroke="#263238" stroke-linecap="round" stroke-linejoin="round" stroke-width=".486945"/><path d="m61.2305 85.9369s1.1333 1.1492.2394 1.9713c-.3944.3486-.8786.5798-1.3977.6673-.5191.0874-1.0524.0277-1.5393-.1725-.9018-.3192-.1357-2.2666-.1357-2.2666" stroke="#263238" stroke-linecap="round" stroke-linejoin="round" stroke-width=".486945"/><path d="m57.5592 82.0421c-.2709-.571-.7053-1.0488-1.2481-1.3728-.5427-.3239-1.1694-.4794-1.8007-.4469-.6009-.0292-1.1971.1195-1.7139.4276-.5167.3081-.9311.7618-1.1912 1.3043 0 0 1.7479-1.2051 2.8732-.8859 1.1254.3193 2.3305 2.0751 3.0807.9737z" fill="#263238"/><path d="m60.2009 79.1929c.3404-.5313.8307-.9498 1.4088-1.2027.5782-.2528 1.2183-.3287 1.8395-.2179.5994.0446 1.1722.2654 1.6465.6346s.8289.8703 1.0192 1.4404c0 0-1.5962-1.4206-2.7375-1.229-1.1413.1915-2.53 1.7717-3.1765.5746z" fill="#263238"/><path d="m55.9151 72.5846s-3.8867-.5906-5.0998 1.9953c-1.2132 2.5858.1037 7.1829-1.6441 11.6523-1.7479 4.4694.391 10.7903.7981 11.6603.407.8699-1.7 2.3385-3.4558-2.0272-1.7558-4.3656 1.1812-9.1543.9178-13.8551s-1.9394-9.689 2.3943-12.9612 5.4351-1.7239 5.4351-1.7239z" fill="#263238" stroke="#263238" stroke-linecap="round" stroke-linejoin="round" stroke-width=".486945"/><path d="m50.6396 97.1742c.3854.4394.8479.8046 1.3648 1.0774" stroke="#fff" stroke-linecap="round" stroke-linejoin="round" stroke-width=".243473"/><path d="m48.6364 88.1636s-.5108 4.629 1.1493 7.8054" stroke="#fff" stroke-linecap="round" stroke-linejoin="round" stroke-width=".243473"/><path d="m59.5306 267.529c-2.6339.462-5.3461.079-7.7496-1.093 0 .335.0558.527.0558.527-.9672 2.538-1.681 5.166-2.1309 7.845-.3512 3.193 2.2187 4.43 5.8661 6.385 3.6473 1.955 11.5086 6.034 12.7696 3.256 1.261-2.777-4.5731-9.401-7.5261-14.238-.5154-.849-.9458-1.748-1.2849-2.682z" fill="#fff" stroke="#263238" stroke-linecap="round" stroke-linejoin="round" stroke-width=".486945"/><path d="m60.2488 278.671c-3.8309-1.101-8.0768-5.587-9.7688-7.526-.3601 1.198-.6269 2.423-.7981 3.663-.3511 3.192 2.2187 4.43 5.8661 6.385 3.6473 1.955 11.5086 6.034 12.7696 3.256.6704-1.484-.6784-4.062-2.53-6.872-.7741 1.238-2.4182 1.98-5.5388 1.094z" fill="#eb696f" stroke="#263238" stroke-linecap="round" stroke-linejoin="round" stroke-width=".486945"/><path d="m56.5935 280.076c-2.4195-1.385-4.7324-2.949-6.9195-4.677 0 2.761 2.49 3.99 5.8979 5.826 3.6554 1.987 11.5087 6.034 12.7697 3.256.156-.381.211-.796.1596-1.205-3.7591 1.716-7.0313-.431-11.9077-3.2z" fill="#fff" stroke="#263238" stroke-linecap="round" stroke-linejoin="round" stroke-width=".486945"/><path d="m64.2318 81.7554c-1.4501-.0398-2.6771.9168-2.8708 2.3649.0302.4333 1.791.887 3.3716.7768 1.5807-.1102 2.9381-1.2167 2.9185-1.4972-.0204-.2931-1.1142-1.6515-3.4193-1.6445zm-9.7513.6798c-2.2838.313-3.201 1.6706-3.1717 2.0912.0204.2932 1.6585 1.1909 3.0989 1.0905s3.2614-.8038 3.2312-1.2372c-.3927-1.4072-1.8807-2.1744-3.1584-1.9445zm11.729 7.111c-2.4346.1697-4.2152-2.5881-6.5096-2.4282-2.2944.16-3.8153 3.148-6.1097 3.3079-3.0083.2098-5.3527-2.3679-5.6921-7.2372-.2097-3.0082.5966-3.9354 4.4589-4.2047s4.9922 1.2403 6.8533 1.1105c1.861-.1297 2.898-1.7903 6.6329-2.0507 3.7348-.2603 4.7992.6773 4.9992 3.5454.3394 4.8693-1.6246 7.7473-4.6329 7.957z" fill="#eb696f"/><path d="m75.285 77.4211c-1.237-2.6018-1.684-7.582-5.7862-11.1734-2.5699-2.2666-7.0872-3.1924-10.6467-2.8812-.5876-.0506-1.1794-.0129-1.7558.1118-5.6586 1.1413-8.9069 4.5891-7.582 6.72 1.3248 2.1309 6.3848 2.3943 6.3848 2.3943l.7981.2155c-.0583-.263-.0984-.5296-.1197-.7981.7981-.4709 2.123-.8859 3.7511.4788 2.8577 2.5066 4.6906 5.9792 5.1477 9.7529.5428 5.7383 3.6633 7.5021 3.9507 9.9044.2873 2.4023-3.5596 5.9299-4.3657 6.7919-.8061.8619 3.9347.7981 4.2619.7342 4.7886-.8938 7.6538-4.4454 9.1622-8.9148 1.7878-5.2435-1.0854-8.8669-3.2004-13.3363z" fill="#263238" stroke="#263238" stroke-linecap="round" stroke-linejoin="round" stroke-width=".486945"/><path d="m72.0209 96.0728c-.1811.3963-.4295.7581-.7343 1.0695" stroke="#fff" stroke-linecap="round" stroke-linejoin="round" stroke-width=".243473"/><path d="m55.8433 71.986s-3.8469-1.5164-1.0216-3.3839c2.8253-1.8676 8.9627 2.1149 10.8462 6.313 1.8835 4.198 1.4286 9.2979 3.807 12.5222 1.1253 1.5324 2.6577 4.1103 2.8412 6.4407" stroke="#fff" stroke-linecap="round" stroke-linejoin="round" stroke-width=".243473"/><path d="m52.8664 69.6396c-.1676-.407 0-1.0295.9497-1.9873 2.4582-2.4342 7.5501-1.9793 10.4312.4151 2.8812 2.3943 4.1901 5.5867 4.9642 9.4814.7742 3.8948 1.6681 6.2093 4.0704 8.3562s3.9107 4.5651 2.1708 7.8294" stroke="#fff" stroke-linecap="round" stroke-linejoin="round" stroke-width=".243473"/><path d="m52.986 72.3292s-4.4294-1.2929-2.2985-3.8388" stroke="#fff" stroke-linecap="round" stroke-linejoin="round" stroke-width=".243473"/><path d="m68.5012 69.057c1.429 1.8408 2.4542 3.9619 3.0089 6.2252 1.261 5.3393-.1756 7.3505 2.7295 9.8965 1.26 1.0503 2.0895 2.5276 2.3304 4.1501" stroke="#fff" stroke-linecap="round" stroke-linejoin="round" stroke-width=".243473"/><path d="m66.3543 66.7425s.2474.1995.6305.5826" stroke="#fff" stroke-linecap="round" stroke-linejoin="round" stroke-width=".243473"/></svg>