<svg fill="none" height="286" viewBox="0 0 303 286" width="303" xmlns="http://www.w3.org/2000/svg"><path d="m303 280.89c0 2.49-67.839 4.517-151.496 4.517-83.6572 0-151.504-2.027-151.504-4.517s67.8388-4.518 151.504-4.518c83.665 0 151.496 2.028 151.496 4.518z" fill="#eb696f"/><path d="m303 280.89c0 2.49-67.839 4.517-151.496 4.517-83.6572 0-151.504-2.027-151.504-4.517s67.8388-4.518 151.504-4.518c83.665 0 151.496 2.028 151.496 4.518z" fill="#fff" opacity=".3"/><path d="m273.997 193.92c0 .04 2.051-2.115 2.163-2.266 1.301-1.74 2.793-5.874 1.381-7.862-.244-.322-.553-.59-.906-.786-.354-.195-.745-.314-1.148-.349-.402-.034-.808.016-1.19.148-.382.133-.731.344-1.026.62-1.293 1.134-1.597 3.233-1.485 4.853.136 1.899 2.211 5.634 2.211 5.642z" fill="#eb696f"/><path d="m292.641 186.498c-1.995-1.397-6.114.128-7.846 1.437-.151.119-2.29 2.162-2.25 2.178h.048c-.655.24-1.349.495-2.107.798-1.389.559-2.953 1.214-4.613 2.028-1.792.871-3.535 1.841-5.22 2.905-1.888 1.185-3.667 2.537-5.315 4.038-.021.017-.04.035-.056.056.351-.615 1.285-2.394 1.341-2.522.798-2.027 1.141-6.385-.743-7.941-.322-.246-.692-.421-1.086-.514-.395-.094-.804-.103-1.202-.028-.399.075-.777.234-1.11.464-.333.231-.613.53-.824.876-.941 1.437-.686 3.536-.143 5.068.606 1.732 3.36 4.589 3.583 4.789-1.643 1.568-3.179 3.245-4.597 5.02-.798 1.029-1.636 2.091-2.394 3.192.287-.543.543-1.038.566-1.109.799-2.02 1.142-6.385-.742-7.941-.321-.246-.691-.421-1.085-.514-.393-.094-.802-.103-1.2-.028-.397.076-.775.234-1.107.465-.332.23-.612.528-.822.875-.949 1.428-.686 3.535-.151 5.06.534 1.524 2.849 4.046 3.463 4.692l-.933 1.23c-1.437 2.003-2.858 3.99-4.318 5.921-.511.679-1.038 1.333-1.596 1.98.255-.487.471-.894.494-.958.799-2.027 1.142-6.385-.742-7.981-.321-.247-.692-.423-1.086-.517-.395-.094-.805-.104-1.203-.029-.399.076-.777.234-1.11.466-.333.231-.613.531-.823.878-.949 1.437-.686 3.536-.143 5.068.542 1.532 2.617 3.799 3.344 4.573-.559.655-1.118 1.301-1.692 1.908-.399.407-.751.798-1.182 1.205l-1.221 1.149c-.798.702-1.596 1.437-2.434 2.107-.559.471-1.093.902-1.596 1.341.511-.663 1.5-1.995 1.596-2.115.899-1.688 1.35-3.579 1.309-5.491.106-.184.197-.376.271-.575.15-.376.218-.78.201-1.184-.017-.405-.118-.801-.298-1.164-.18-.362-.434-.683-.746-.941-.312-.259-.674-.448-1.064-.558-2.394-.582-5.667 2.315-6.808 4.167-.064.111-.67 1.372-1.029 2.178.135-.502.287-.997.423-1.516.287-1.03.542-2.067.798-3.192.111-.543.231-1.094.351-1.645.12-.55.191-1.141.295-1.715.2-1.341.343-2.706.463-4.087.902.248 4.118 1.086 5.73.798 1.613-.287 3.584-1.005 4.398-2.514.206-.348.336-.736.382-1.139.046-.402.006-.809-.117-1.195s-.326-.742-.596-1.043c-.27-.302-.6-.544-.97-.709-2.251-.942-5.946 1.429-7.358 3.081-.088.103-.966 1.404-1.437 2.131.064-.798.128-1.66.168-2.506.095-2.395.127-4.893.167-7.351 0-.75 0-1.5.048-2.251.319.088 4.126 1.166 5.93.886 1.596-.239 3.583-.997 4.405-2.514.204-.349.332-.738.375-1.14.044-.402.003-.809-.12-1.194-.124-.385-.327-.74-.596-1.042s-.599-.544-.967-.71c-2.243-.934-5.946 1.437-7.359 3.089-.104.119-1.365 1.995-1.668 2.49.04-1.652.096-3.304.216-4.925.154-2.189.447-4.367.877-6.52.152 0 4.119 1.181 5.97.894 1.596-.24 3.576-.998 4.398-2.514.203-.349.332-.737.376-1.139s.004-.808-.119-1.193c-.122-.385-.324-.741-.593-1.043-.268-.302-.597-.544-.965-.711-2.251-.934-5.954 1.428-7.359 3.088-.095.104-1.061 1.533-1.5 2.219l-.128-.048c.494-2.156 1.18-4.264 2.051-6.297.463-1.125.966-2.171 1.485-3.192.718.287 3.99 1.596 5.698 1.5s3.672-.607 4.653-2.019c.241-.325.411-.697.5-1.091.088-.395.092-.804.012-1.2-.079-.397-.241-.772-.475-1.102s-.535-.607-.883-.813c-2.131-1.173-6.073.798-7.654 2.258-.087.08-.869.998-1.436 1.676.239-.446.479-.917.718-1.348.894-1.597 1.804-3.033 2.626-4.286.471-.702.91-1.333 1.333-1.924.846-.079 4.278-.47 5.722-1.293 1.445-.822 2.977-2.226 3.193-3.934.065-.399.046-.808-.057-1.199s-.288-.756-.542-1.071-.571-.573-.932-.756c-.36-.184-.755-.29-1.159-.31-2.434-.064-5.028 3.472-5.746 5.523-.064.183-.719 3.064-.679 3.056h.056c-.415.532-.854 1.139-1.317 1.82-.854 1.237-1.803 2.642-2.729 4.238-1.019 1.712-1.938 3.482-2.754 5.299-.919 2.034-1.659 4.143-2.21 6.305.004.027.004.054 0 .08 0-.71-.24-2.697-.272-2.849-.447-2.123-2.578-5.97-4.996-6.209-.404-.031-.809.024-1.19.161-.381.136-.729.352-1.021.632s-.522.619-.675.993c-.152.375-.224.778-.211 1.183 0 1.716 1.381 3.328 2.674 4.301 1.461 1.11 5.331 1.98 5.643 2.044-.501 2.217-.856 4.464-1.062 6.728-.12 1.316-.207 2.641-.279 3.99-.056-.614-.112-1.165-.128-1.237-.455-2.131-2.586-5.97-5.004-6.217-.404-.031-.809.024-1.19.161s-.729.352-1.021.632-.522.619-.675.994c-.152.374-.224.777-.211 1.182 0 1.716 1.381 3.328 2.674 4.31 1.293.981 4.605 1.795 5.475 2.003 0 .511-.048 1.021-.064 1.532-.096 2.458-.175 4.916-.327 7.319-.056.846-.144 1.684-.224 2.514-.047-.543-.103-1.006-.111-1.07-.455-2.131-2.586-5.969-5.004-6.217-.404-.03-.809.024-1.19.161s-.729.352-1.021.632c-.293.28-.522.619-.675.994s-.225.778-.211 1.182c0 1.724 1.381 3.328 2.674 4.31 1.293.981 4.285 1.724 5.315 1.963-.104.854-.215 1.708-.359 2.522-.112.559-.176 1.11-.319 1.66l-.383 1.596c-.288 1.03-.567 2.099-.87 3.097-.208.694-.415 1.357-.623 2.027.064-.846.152-2.498.144-2.642-.12-2.162-1.644-6.289-3.991-6.895-.394-.09-.802-.097-1.199-.019-.396.078-.772.239-1.102.471-.33.233-.608.532-.815.879-.208.347-.339.734-.387 1.135-.264 1.7.854 3.496 1.987 4.661s4.788 2.69 5.235 2.865c-.351 1.102-.694 2.163-1.037 3.193-1.189 3.471-2.307 6.321-3.113 8.3 0 .072-.056.135-.088.199l1.453.798c.048-.127.104-.255.152-.391.798-2.019 1.843-4.924 2.961-8.46.359-1.117.718-2.314 1.077-3.551 1.218.152 2.444.232 3.671.239.439 1.78 2.474 4.701 2.738 5.076-.894.727-1.772 1.429-2.61 2.075-2.905 2.243-5.411 3.991-7.183 5.204l-.207.144 1.596.878c1.724-1.237 3.99-2.953 6.68-5.092.91-.735 1.875-1.541 2.849-2.395.359.304 3.272 2.778 4.996 3.273 1.557.447 3.672.59 5.044-.439.332-.232.611-.53.82-.876s.342-.733.392-1.134.014-.808-.104-1.195-.316-.744-.581-1.049c-1.644-1.796-5.994-1.197-7.981-.288-.112.056-1.309.799-2.059 1.245.399-.343.798-.67 1.189-1.029.798-.694 1.596-1.421 2.442-2.203l1.197-1.173c.407-.391.799-.846 1.198-1.269.909-1.006 1.779-2.067 2.633-3.153.623.703 2.85 3.193 4.326 3.863 1.477.671 3.544 1.134 5.06.327.362-.179.683-.432.941-.743.258-.31.448-.672.558-1.061s.137-.796.079-1.196c-.057-.4-.198-.784-.413-1.126-1.357-2.019-5.746-2.091-7.837-1.492-.136.04-1.596.638-2.394.982.502-.655 1.021-1.309 1.508-1.996 1.429-1.971 2.809-3.99 4.198-6.033l1.285-1.852c.215.247 2.801 3.248 4.461 3.99 1.469.679 3.536 1.142 5.052.328.364-.178.687-.43.946-.74.26-.311.451-.673.561-1.062.11-.39.137-.798.078-1.199-.059-.4-.202-.784-.419-1.125-1.357-2.02-5.747-2.092-7.838-1.485-.151.04-2.242.91-2.761 1.157.942-1.356 1.899-2.705 2.897-3.99 1.33-1.747 2.775-3.402 4.326-4.956.103.119 2.785 3.256 4.477 4.038 1.476.686 3.544 1.141 5.06.335.363-.178.684-.431.943-.741.259-.311.45-.673.56-1.062s.136-.797.078-1.197c-.058-.401-.2-.784-.416-1.126-1.357-2.027-5.746-2.091-7.837-1.492-.136.039-1.724.702-2.474 1.029l-.08-.12c1.601-1.52 3.335-2.896 5.18-4.11 1.013-.686 2.011-1.285 3-1.836.439.631 2.475 3.512 3.927 4.39 1.453.878 3.392 1.524 4.988.886.382-.139.729-.356 1.021-.638.291-.283.52-.623.671-1 .15-.377.22-.781.203-1.186-.016-.406-.118-.803-.299-1.167-1.125-2.162-5.483-2.705-7.621-2.338-.12 0-1.285.351-2.123.607l1.34-.735c1.637-.846 3.193-1.532 4.558-2.123.798-.327 1.5-.614 2.17-.87.759.399 3.823 1.972 5.483 2.075 1.66.104 3.72-.215 4.837-1.516.255-.293.449-.634.569-1.003.121-.369.165-.759.131-1.146-.035-.387-.147-.763-.33-1.106-.184-.342-.434-.644-.737-.887z" fill="#eb696f"/><path d="m236.582 172.252c1.157 1.516 4.948 3.488 4.956 3.488s.543-2.89.551-3.081c.128-2.171-.91-6.433-3.193-7.311-.381-.135-.786-.189-1.19-.157-.403.032-.795.149-1.151.342-.355.194-.666.46-.911.781-.246.322-.421.692-.515 1.085-.447 1.652.503 3.568 1.453 4.853z" fill="#eb696f"/><g fill="#fff" opacity=".5"><path d="m273.997 193.92c0 .04 2.051-2.115 2.163-2.266 1.301-1.74 2.793-5.874 1.381-7.862-.244-.322-.552-.59-.906-.786-.354-.195-.745-.314-1.147-.349-.403-.034-.808.016-1.19.148-.382.133-.732.344-1.027.62-1.293 1.134-1.596 3.233-1.485 4.853.136 1.899 2.211 5.634 2.211 5.642z" opacity=".5"/><path d="m292.641 186.498c-1.995-1.397-6.114.128-7.846 1.437-.151.119-2.29 2.162-2.25 2.178h.048c-.655.24-1.349.495-2.107.798-1.389.559-2.953 1.214-4.613 2.028-1.792.871-3.535 1.841-5.22 2.905-1.888 1.185-3.667 2.537-5.315 4.038-.021.017-.04.035-.056.056.351-.615 1.285-2.394 1.341-2.522.798-2.027 1.141-6.385-.743-7.941-.322-.246-.692-.421-1.086-.514-.395-.094-.804-.103-1.202-.028-.399.075-.777.234-1.11.464-.333.231-.613.53-.824.876-.941 1.437-.686 3.536-.143 5.068.606 1.732 3.36 4.589 3.583 4.789-1.643 1.568-3.179 3.245-4.597 5.02-.798 1.029-1.636 2.091-2.394 3.192.287-.543.543-1.038.566-1.109.799-2.02 1.142-6.385-.742-7.941-.321-.246-.691-.421-1.085-.514-.393-.094-.802-.103-1.2-.028-.397.076-.775.234-1.107.465-.332.23-.612.528-.822.875-.949 1.428-.686 3.535-.151 5.06.534 1.524 2.849 4.046 3.463 4.692l-.933 1.23c-1.437 2.003-2.858 3.99-4.318 5.921-.511.679-1.038 1.333-1.596 1.98.255-.487.471-.894.494-.958.799-2.027 1.142-6.385-.742-7.981-.321-.247-.692-.423-1.086-.517-.395-.094-.805-.104-1.203-.029-.399.076-.777.234-1.11.466-.333.231-.613.531-.823.878-.949 1.437-.686 3.536-.143 5.068.542 1.532 2.617 3.799 3.344 4.573-.559.655-1.118 1.301-1.692 1.908-.399.407-.751.798-1.182 1.205l-1.221 1.149c-.798.702-1.596 1.437-2.434 2.107-.559.471-1.093.902-1.596 1.341.511-.663 1.5-1.995 1.596-2.115.899-1.688 1.35-3.579 1.309-5.491.106-.184.197-.376.271-.575.15-.376.218-.78.201-1.184-.017-.405-.118-.801-.298-1.164-.18-.362-.434-.683-.746-.941-.312-.259-.674-.448-1.064-.558-2.394-.582-5.667 2.315-6.808 4.167-.064.111-.67 1.372-1.029 2.178.135-.502.287-.997.423-1.516.287-1.03.542-2.067.798-3.192.111-.543.231-1.094.351-1.645.12-.55.191-1.141.295-1.715.2-1.341.343-2.706.463-4.087.902.248 4.118 1.086 5.73.798 1.613-.287 3.584-1.005 4.398-2.514.206-.348.336-.736.382-1.139.046-.402.006-.809-.117-1.195s-.326-.742-.596-1.043c-.27-.302-.6-.544-.97-.709-2.251-.942-5.946 1.429-7.358 3.081-.088.103-.966 1.404-1.437 2.131.064-.798.128-1.66.168-2.506.095-2.395.127-4.893.167-7.351 0-.75 0-1.5.048-2.251.319.088 4.126 1.166 5.93.886 1.596-.239 3.583-.997 4.405-2.514.204-.349.332-.738.375-1.14.044-.402.003-.809-.12-1.194-.124-.385-.327-.74-.596-1.042s-.599-.544-.967-.71c-2.243-.934-5.946 1.437-7.359 3.089-.104.119-1.365 1.995-1.668 2.49.04-1.652.096-3.304.216-4.925.154-2.189.447-4.367.877-6.52.152 0 4.119 1.181 5.97.894 1.596-.24 3.576-.998 4.398-2.514.203-.349.332-.737.376-1.139s.004-.808-.119-1.193c-.122-.385-.324-.741-.593-1.043-.268-.302-.597-.544-.965-.711-2.251-.934-5.954 1.428-7.359 3.088-.095.104-1.061 1.533-1.5 2.219l-.128-.048c.494-2.156 1.18-4.264 2.051-6.297.463-1.125.966-2.171 1.485-3.192.718.287 3.99 1.596 5.698 1.5s3.672-.607 4.653-2.019c.241-.325.411-.697.5-1.091.088-.395.092-.804.012-1.2-.079-.397-.241-.772-.475-1.102s-.535-.607-.883-.813c-2.131-1.173-6.073.798-7.654 2.258-.087.08-.869.998-1.436 1.676.239-.446.479-.917.718-1.348.894-1.597 1.804-3.033 2.626-4.286.471-.702.91-1.333 1.333-1.924.846-.079 4.278-.47 5.722-1.293 1.445-.822 2.977-2.226 3.193-3.934.065-.399.046-.808-.057-1.199s-.288-.756-.542-1.071-.571-.573-.932-.756c-.36-.184-.755-.29-1.159-.31-2.434-.064-5.028 3.472-5.746 5.523-.064.183-.719 3.064-.679 3.056h.056c-.415.532-.854 1.139-1.317 1.82-.854 1.237-1.803 2.642-2.729 4.238-1.019 1.712-1.938 3.482-2.754 5.299-.919 2.034-1.659 4.143-2.21 6.305.004.027.004.054 0 .08 0-.71-.24-2.697-.272-2.849-.447-2.123-2.578-5.97-4.996-6.209-.404-.031-.809.024-1.19.161-.381.136-.729.352-1.021.632s-.522.619-.675.993c-.152.375-.224.778-.211 1.183 0 1.716 1.381 3.328 2.674 4.301 1.461 1.11 5.331 1.98 5.643 2.044-.501 2.217-.856 4.464-1.062 6.728-.12 1.316-.207 2.641-.279 3.99-.056-.614-.112-1.165-.128-1.237-.455-2.131-2.586-5.97-5.004-6.217-.404-.031-.809.024-1.19.161s-.729.352-1.021.632-.522.619-.675.994c-.152.374-.224.777-.211 1.182 0 1.716 1.381 3.328 2.674 4.31 1.293.981 4.605 1.795 5.475 2.003 0 .511-.048 1.021-.064 1.532-.096 2.458-.175 4.916-.327 7.319-.056.846-.144 1.684-.224 2.514-.047-.543-.103-1.006-.111-1.07-.455-2.131-2.586-5.969-5.004-6.217-.404-.03-.809.024-1.19.161s-.729.352-1.021.632c-.293.28-.522.619-.675.994s-.225.778-.211 1.182c0 1.724 1.381 3.328 2.674 4.31 1.293.981 4.285 1.724 5.315 1.963-.104.854-.215 1.708-.359 2.522-.112.559-.176 1.11-.319 1.66l-.383 1.596c-.288 1.03-.567 2.099-.87 3.097-.208.694-.415 1.357-.623 2.027.064-.846.152-2.498.144-2.642-.12-2.162-1.644-6.289-3.991-6.895-.394-.09-.802-.097-1.199-.019-.396.078-.772.239-1.102.471-.33.233-.608.532-.815.879-.208.347-.339.734-.387 1.135-.264 1.7.854 3.496 1.987 4.661s4.788 2.69 5.235 2.865c-.351 1.102-.694 2.163-1.037 3.193-1.189 3.471-2.307 6.321-3.113 8.3 0 .072-.056.135-.088.199l1.453.798c.048-.127.104-.255.152-.391.798-2.019 1.843-4.924 2.961-8.46.359-1.117.718-2.314 1.077-3.551 1.218.152 2.444.232 3.671.239.439 1.78 2.474 4.701 2.738 5.076-.894.727-1.772 1.429-2.61 2.075-2.905 2.243-5.411 3.991-7.183 5.204l-.207.144 1.596.878c1.724-1.237 3.99-2.953 6.68-5.092.91-.735 1.875-1.541 2.849-2.395.359.304 3.272 2.778 4.996 3.273 1.557.447 3.672.59 5.044-.439.332-.232.611-.53.82-.876s.342-.733.392-1.134.014-.808-.104-1.195-.316-.744-.581-1.049c-1.644-1.796-5.994-1.197-7.981-.288-.112.056-1.309.799-2.059 1.245.399-.343.798-.67 1.189-1.029.798-.694 1.596-1.421 2.442-2.203l1.197-1.173c.407-.391.799-.846 1.198-1.269.909-1.006 1.779-2.067 2.633-3.153.623.703 2.85 3.193 4.326 3.863 1.477.671 3.544 1.134 5.06.327.362-.179.683-.432.941-.743.258-.31.448-.672.558-1.061s.137-.796.079-1.196c-.057-.4-.198-.784-.413-1.126-1.357-2.019-5.746-2.091-7.837-1.492-.136.04-1.596.638-2.394.982.502-.655 1.021-1.309 1.508-1.996 1.429-1.971 2.809-3.99 4.198-6.033l1.285-1.852c.215.247 2.801 3.248 4.461 3.99 1.469.679 3.536 1.142 5.052.328.364-.178.687-.43.946-.74.26-.311.451-.673.561-1.062.11-.39.137-.798.078-1.199-.059-.4-.202-.784-.419-1.125-1.357-2.02-5.747-2.092-7.838-1.485-.151.04-2.242.91-2.761 1.157.942-1.356 1.899-2.705 2.897-3.99 1.33-1.747 2.775-3.402 4.326-4.956.103.119 2.785 3.256 4.477 4.038 1.476.686 3.544 1.141 5.06.335.363-.178.684-.431.943-.741.259-.311.45-.673.56-1.062s.136-.797.078-1.197c-.058-.401-.2-.784-.416-1.126-1.357-2.027-5.746-2.091-7.837-1.492-.136.039-1.724.702-2.474 1.029l-.08-.12c1.601-1.52 3.335-2.896 5.18-4.11 1.013-.686 2.011-1.285 3-1.836.439.631 2.475 3.512 3.927 4.39 1.453.878 3.392 1.524 4.988.886.382-.139.729-.356 1.021-.638.291-.283.52-.623.671-1 .15-.377.22-.781.203-1.186-.016-.406-.118-.803-.299-1.167-1.125-2.162-5.483-2.705-7.621-2.338-.12 0-1.285.351-2.123.607l1.34-.735c1.637-.846 3.193-1.532 4.558-2.123.798-.327 1.5-.614 2.17-.87.759.399 3.823 1.972 5.483 2.075 1.66.104 3.72-.215 4.837-1.516.255-.293.449-.634.569-1.003.121-.369.165-.759.131-1.146-.035-.387-.147-.763-.33-1.106-.184-.342-.434-.644-.737-.887z" opacity=".5"/><path d="m236.582 172.252c1.157 1.516 4.948 3.488 4.956 3.488s.543-2.89.551-3.081c.128-2.171-.91-6.433-3.193-7.311-.381-.135-.786-.189-1.19-.157-.403.032-.795.149-1.151.342-.355.194-.666.46-.911.781-.246.322-.421.692-.515 1.085-.447 1.652.503 3.568 1.453 4.853z" opacity=".5"/></g><path d="m234.188 212.979s-13.321-32.124-20.751-30.727 12.77 51.214 12.77 51.214-23.449-44.231-39.435-44.231 5.858 48.884 26.114 65.182c0 0-31.98-34.455-50.631-27-18.652 7.454 37.311 42.363 37.311 42.363s-32.515-10.24-28.78-2.322c3.735 7.917 13.855 9.305 13.855 9.305l-36.8 1.868h127.92l-28.78-2.793s29.841-14.901 21.852-20.951c-7.989-6.049-25.587 6.984-25.587 6.984s30.384-33.52 24.518-46.099c-5.866-12.578-31.98 22.818-31.98 22.818s21.325-45.165 17.055-53.082-18.651 27.471-18.651 27.471z" fill="#eb696f"/><path d="m234.188 212.979s-13.321-32.124-20.751-30.727 12.77 51.214 12.77 51.214-23.449-44.231-39.435-44.231 5.858 48.884 26.114 65.182c0 0-31.98-34.455-50.631-27-18.652 7.454 37.311 42.363 37.311 42.363s-32.515-10.24-28.78-2.322c3.735 7.917 13.855 9.305 13.855 9.305l-36.8 1.868h127.92l-28.78-2.793s29.841-14.901 21.852-20.951c-7.989-6.049-25.587 6.984-25.587 6.984s30.384-33.52 24.518-46.099c-5.866-12.578-31.98 22.818-31.98 22.818s21.325-45.165 17.055-53.082-18.651 27.471-18.651 27.471z" fill="#fff" opacity=".5"/><path d="m238.449 214.671c-11.724 34.646-11.724 59.163-11.724 59.163s13.855.527 28.245-10.127" stroke="#263238" stroke-linecap="round" stroke-linejoin="round" stroke-width=".486945"/><path d="m232.591 233.331c-2.41-10.358-5.612-20.516-9.577-30.384" stroke="#263238" stroke-linecap="round" stroke-linejoin="round" stroke-width=".486945"/><path d="m197.946 213.075 29.849 44.239s20.248-17.056 27.175-26.649" stroke="#263238" stroke-linecap="round" stroke-linejoin="round" stroke-width=".486945"/><path d="m227.26 267.968s-31.445-14.924-44.239-23.448" stroke="#263238" stroke-linecap="round" stroke-linejoin="round" stroke-width=".486945"/><path d="m218.656 39.8783h-123.2268c-2.9753 0-5.3872 2.412-5.3872 5.3872v230.7235c0 2.976 2.4119 5.387 5.3872 5.387h123.2268c2.976 0 5.388-2.411 5.388-5.387v-230.7235c0-2.9752-2.412-5.3872-5.388-5.3872z" fill="#263238" stroke="#263238" stroke-miterlimit="10" stroke-width=".486945"/><path d="m166.309 54.308h-16.68c-.226 0-.449-.0444-.657-.1306s-.397-.2126-.557-.3719c-.159-.1594-.286-.3486-.372-.5567-.086-.2082-.13-.4314-.13-.6567 0-.225.044-.4477.13-.6554.087-.2078.213-.3964.373-.5551.159-.1587.348-.2844.556-.3697.209-.0854.432-.1288.657-.1277h16.68c.453 0 .887.1799 1.208.5002.32.3203.5.7547.5 1.2077.001.225-.043.4479-.128.6561-.085.2081-.211.3973-.37.5568-.158.1594-.347.2859-.555.3723-.207.0863-.43.1307-.655.1307z" fill="#eb696f"/><path d="m215.576 259.796h-117.0662v-205.2884h27.7822l3.12 2.5858c1.088.9094 2.461 1.4067 3.879 1.4047h48.956c1.469-.0081 2.886-.5466 3.99-1.5164l2.818-2.4741h26.529z" fill="#fff"/><path d="m186.229 56.9817c-1.104.9698-2.521 1.5083-3.99 1.5164h-48.98c-1.418.002-2.791-.4953-3.879-1.4047l-3.088-2.5858h-27.7822v22.4825h117.0662v-22.5065h-26.529z" fill="#eb696f"/><path d="m215.576 259.796h-117.0662v-205.2884h27.7822l3.12 2.5858c1.088.9094 2.461 1.4067 3.879 1.4047h48.956c1.469-.0081 2.886-.5466 3.99-1.5164l2.818-2.4741h26.529z" stroke="#263238" stroke-linecap="round" stroke-linejoin="round" stroke-width=".457055"/><path d="m206.861 79.3046h-99.285v169.0544h99.285z" fill="#fff"/><path d="m160.786 266.141c.001-.528-.153-1.044-.445-1.483-.292-.44-.708-.783-1.195-.986s-1.023-.257-1.541-.155c-.517.102-.993.355-1.367.728-.373.372-.628.847-.732 1.365-.103.517-.051 1.053.151 1.541.201.487.543.904.981 1.198.439.293.955.449 1.482.449.705-.002 1.381-.282 1.88-.78s.782-1.172.786-1.877z" fill="#eb696f"/><path d="m189.303 158.786c17.747-17.747 17.747-46.52 0-64.2671-17.747-17.747-46.52-17.747-64.267 0-17.747 17.7471-17.747 46.5201 0 64.2671s46.52 17.747 64.267 0z" fill="#eb696f"/><path d="m119.508 219h14.765" stroke="#263238" stroke-linecap="round" stroke-linejoin="round" stroke-width=".486945"/><path d="m119.508 224.587h54.271" stroke="#263238" stroke-linecap="round" stroke-linejoin="round" stroke-width=".97389"/><path d="m119.508 241.281h14.765" stroke="#263238" stroke-linecap="round" stroke-linejoin="round" stroke-width=".486945"/><path d="m119.508 246.867h54.271" stroke="#263238" stroke-linecap="round" stroke-linejoin="round" stroke-width=".97389"/><path d="m120 187h14.765" stroke="#263238" stroke-linecap="round" stroke-linejoin="round" stroke-width=".486945"/><path d="m119.508 191.207h54.271" stroke="#263238" stroke-linecap="round" stroke-linejoin="round" stroke-width=".97389"/><path d="m119.508 199.188h84.2" stroke="#263238" stroke-linecap="round" stroke-linejoin="round" stroke-width=".486945"/><path d="m119.508 203.178h84.2" stroke="#263238" stroke-linecap="round" stroke-linejoin="round" stroke-width=".486945"/><path d="m119.508 207.169h84.2" stroke="#263238" stroke-linecap="round" stroke-linejoin="round" stroke-width=".486945"/><path d="m109.877 217c-.965 0-1.907.286-2.709.822-.803.536-1.428 1.298-1.797 2.189s-.465 1.871-.277 2.818c.188.946.652 1.815 1.334 2.497.683.682 1.552 1.146 2.498 1.334.946.189 1.926.092 2.817-.277.892-.369 1.653-.994 2.189-1.796s.822-1.745.822-2.71c-.002-1.293-.517-2.532-1.431-3.446s-2.153-1.429-3.446-1.431zm.463 7.82c.012.185-.05.368-.172.508-.058.06-.127.106-.204.138-.076.031-.159.046-.241.044-.084.002-.168-.014-.246-.045s-.149-.078-.208-.137c-.12-.142-.182-.323-.173-.508v-3.624c-.009-.185.053-.367.173-.509.057-.062.128-.111.206-.144s.163-.049.248-.046c.083-.002.166.013.243.046s.146.082.202.144c.061.069.108.15.137.237.03.087.042.18.035.272zm-.1-5.45c-.146.124-.331.192-.522.192s-.376-.068-.522-.192c-.067-.064-.12-.141-.155-.228-.034-.086-.05-.178-.045-.271-.004-.091.012-.182.046-.267.035-.085.087-.161.154-.224.143-.13.333-.199.527-.19.094-.005.189.009.278.042s.17.083.239.148c.067.063.119.139.154.224.034.085.05.176.046.267.011.091.002.184-.026.272-.029.088-.075.168-.137.236z" fill="#263238"/><path d="m74.5428 225.852s-9.0505 6.202-11.5326 10.104c-2.4821 3.903-9.2261 14.015-13.8311 16.856-4.6051 2.842-11.7082.352-12.5941 3.009-.8859 2.658.8859 7.271.5268 9.577-.3592 2.307-1.2371 8.516.8938 10.998 2.131 2.482 4.2539 2.482 4.4295 1.421.1756-1.062 0-6.56 2.1309-10.288 2.131-3.727 5.6746-9.042 18.093-17.909 12.4185-8.867 18.4442-14.901 21.1019-17.742s.7103-6.919.7103-6.919" fill="#fff"/><g stroke-linecap="round" stroke-linejoin="round"><g stroke="#263238" stroke-width=".486945"><path d="m74.5428 225.852s-9.0505 6.202-11.5326 10.104c-2.4821 3.903-9.2261 14.015-13.8311 16.856-4.6051 2.842-11.7082.352-12.5941 3.009-.8859 2.658.8859 7.271.5268 9.577-.3592 2.307-1.2371 8.516.8938 10.998 2.131 2.482 4.2539 2.482 4.4295 1.421.1756-1.062 0-6.56 2.1309-10.288 2.131-3.727 5.6746-9.042 18.093-17.909 12.4185-8.867 18.4442-14.901 21.1019-17.742s.7103-6.919.7103-6.919"/><path d="m74.5427 225.852s-9.0505 6.202-11.5326 10.104c-2.4821 3.903-9.226 14.015-13.8311 16.856-.7322.434-1.5222.762-2.3464.974-.0829 2.734.5822 5.438 1.9234 7.821 2.6976-3.096 6.8797-6.975 13.903-11.971 12.4105-8.875 18.4442-14.901 21.1018-17.742 2.6577-2.841.7103-6.919.7103-6.919z" fill="#263238"/><path d="m40.8389 267.354c.4549-3.193 2.4661-10.91 3.0408-13.081-3.4638.271-6.7121-.192-7.2947 1.548-.8859 2.666.8859 7.271.5268 9.577-.3592 2.307-1.2371 8.516.8938 10.998 2.131 2.482 4.2539 2.482 4.4295 1.421.1038-.599.0878-2.618.439-4.924-.7767-.679-1.3703-1.542-1.7259-2.51-.3557-.967-.462-2.009-.3093-3.029z" fill="#eb696f"/><path d="m38.0056 270.722c0-3.193.8859-5.499.1756-9.929-.365-2.097-.1639-4.255.5826-6.249-1.1173.16-1.9154.495-2.1788 1.277-.8859 2.666.8859 7.271.5268 9.577-.3592 2.307-1.2371 8.516.8938 10.998.663.835 1.5245 1.491 2.5061 1.908-2.107-1.876-2.5061-4.797-2.5061-7.582z" fill="#fff"/><path d="m51.8369 145.803c.1517-.28.2873-.543.415-.798-.1277.255-.2633.518-.415.798z" fill="#263238"/><path d="m51.2063 146.944c.1915-.327.3671-.655.5347-.966-.1676.311-.3432.631-.5347.966z" fill="#263238"/><path d="m52.3315 144.829c.1437-.279.2634-.535.3831-.798-.1197.295-.2394.551-.3831.798z" fill="#263238"/><path d="m50.5278 148.149.5348-.95z" fill="#263238"/><path d="m52.7866 143.911c.1118-.255.2155-.495.2953-.71-.0798.215-.2155.455-.2953.71z" fill="#263238"/><path d="m78.645 147.678c0-.213 0-.404 0-.574-.0159.17-.0159.361 0 .574z" fill="#263238"/><path d="m78.8287 149.274c-.0399-.247-.0718-.487-.0958-.71.024.255.0559.463.0958.71z" fill="#263238"/><path d="m83.0505 183.992c-.7981-5.076-3.7191-14.19-2.8332-18.979.6464-3.504-.5108-9.952-1.1732-14.27-15.6269 1.644-24.4699-.71-28.5961-2.45-2.6098 4.565-6.2571 10.822-7.8374 17.255-2.2985 9.401-3.7191 16.848-.8859 23.233 2.8333 6.384 5.5069 21.971 4.9722 28.356s-3.7271 9.937-3.0168 14.901 4.0703 15.563 5.4909 18.931c1.4207 3.368 2.6657 15.962 2.6657 15.962-.9673 2.538-1.6811 5.166-2.1309 7.845-.3512 3.193 2.2187 4.43 5.866 6.385 3.6474 1.955 11.5087 6.034 12.7697 3.256 1.261-2.777-4.5731-9.401-7.5261-14.238-2.953-4.836-2.8333-11.836-3.1924-19.274-.439-8.524-.0719-26.377-.0719-31.701 0-5.323 5.8501-33.145 5.8501-33.145s3.5436 14.366 6.3849 21.285c2.8412 6.92 2.937 19.45 6.1294 22.291 3.1924 2.842 9.5772 3.544 9.5772-3.192s.3352-25.707-2.4422-42.451z" fill="#263238"/><path d="m78.7169 148.404c0-.231-.0479-.462-.0638-.662.0159.2.0319.423.0638.662z" fill="#263238"/><path d="m78.9643 150.256c0-.247-.0638-.479-.1037-.71.0399.231.0718.463.1037.71z" fill="#263238"/><path d="m42.3313 123.36.1197-.168z" fill="#263238"/><path d="m41.8047 124.078.2314-.311z" fill="#263238"/><path d="m42.1001 123.663c.0718-.104.1357-.183.1995-.263z" fill="#263238"/></g><path d="m63.138 187.248s2.3943-9.457 1.4127-12.682c-.9817-3.224-5.0361-9.665-5.0361-9.665" stroke="#fff" stroke-width=".365209"/><path d="m66.5618 175.771s6.6402-3.623 8.2524-7.446" stroke="#fff" stroke-width=".365209"/><path d="m69.3792 174.965s5.036-2.617 7.4542-7.246" stroke="#fff" stroke-width=".365209"/><path d="m87.8392 110.742c-2.6577-4.964-4.9642-6.56-8.1567-7.095-3.1924-.535-9.226.359-12.0593-1.421s-2.8412-9.5771-2.4821-10.1038c.3591-.5268-8.6913-.1836-8.6913-.1836s1.237 8.6914.5267 10.4714-4.1102 2.514-8.3322 2.514c-2.1985.036-4.3432.686-6.1921 1.876-1.8488 1.19-3.3281 2.873-4.271 4.86-2.131 4.254-19.4418 29.689-19.4418 29.689s-1.0057 1.142-.9418 1.596l6.305 1.07c6.2093-4.589 18.508-20.99 18.508-20.99l1.2451-.703s2.1309 7.622 5.8501 10.815c3.7191 3.192 4.7886 6.209 3.376 10.112-.7591 1.756-1.6392 3.457-2.6338 5.092 4.1262 1.739 12.9692 4.094 28.5961 2.45-.2181-1.203-.3594-2.419-.423-3.64 0-2.841-.1756-8.34-.1756-11.883 0-3.544 3.5436-6.744 2.4821-10.288-.6457-2.146-1.1208-4.339-1.4206-6.56l1.7718-2.131s5.6585 9.84 7.6298 12.019c4.0304 4.454 8.867 9.091 9.7528 8.556.8859-.535 3.0166-1.245 2.3066-6.034-.71-4.788-10.4632-15.124-13.1288-20.088z" fill="#fff" stroke="#263238" stroke-width=".486945"/><path d="m78.6211 147.223c-4.0863.591-15.4194 1.684-26.4173-2.075-.5666 1.094-1.2929 2.395-2.1149 3.807 2.7694 1.157 11.3969 4.414 19.3061 3.687 5.1478-.478 8.0369-1.364 9.5772-2.083-.1815-1.104-.2988-2.218-.3511-3.336z" fill="#eb696f" stroke="#263238" stroke-width=".486945"/><path d="m78.725 148.524c-.0588-.471-.0934-.945-.1037-1.42 0-2.842-.1756-8.341-.1756-11.884 0-3.544 3.5436-6.744 2.4821-10.288-.6457-2.146-1.1208-4.339-1.4206-6.56l.1516-.184c-2.1948-4.565-3.8309-12.043-4.3816-14.757-.9976 0-2.0192 0-3.0008-.087-.0559 2.976-.9099 9.577-7.3107 10.766-6.6961 1.285-12.7058-6.241-14.8128-9.25-.4868 0-.9896 0-1.5084 0h-.6065c1.9227 4.217 2.7988 8.836 2.5539 13.464-.3911 6.233-3.0727 8.891-4.3976 9.841.8548 1.831 2.046 3.485 3.5117 4.876 3.7271 3.192 4.7886 6.209 3.376 10.112-.4567 1.1-.99 2.167-1.5962 3.192 8.4457 4.26 18.2238 5.042 27.2392 2.179z" fill="#eb696f" stroke="#263238" stroke-width=".486945"/><path d="m61.2466 134.454s3.5914-.798 10.7744-3.193" stroke="#263238" stroke-width=".486945"/></g><path d="m24.7652 139.737s2.5938 4.35 10.2237 7.183 12.2349 2.482 12.2349 2.482 4.0464-6.169 4.9642-6.169c.9179 0 8.4041 2.801 8.2604 3.192s.7023.798-.6305.559c-1.3328-.24-4.7248-1.477-5.2116-1.548-.4869-.072 4.8525 3.591 5.3473 3.878.4948.288.423 1.197-.0719 1.269-.4948.072-5.7702-2.538-5.7702-2.538l5.1398 3.193s.2793.566-.6305.702c-.9099.136-5.7065-2.466-5.7065-2.466l3.8708 3.24s.423.639-.7981.495-4.3656-2.394-4.3656-2.394c-1.1633 1.148-2.5558 2.037-4.0863 2.61-2.3225.798-8.6594-1.062-13.5199-1.597-4.8604-.534-13.871-3.009-16.0339-5.331-2.1628-2.322 1.1253-5.85 1.1253-5.85" fill="#fff"/><path d="m24.7652 139.737s2.5938 4.35 10.2237 7.183 12.2349 2.482 12.2349 2.482 4.0464-6.169 4.9642-6.169c.9179 0 8.4041 2.801 8.2604 3.192s.7023.798-.6305.559c-1.3328-.24-4.7248-1.477-5.2116-1.548-.4869-.072 4.8525 3.591 5.3473 3.878.4948.288.423 1.197-.0719 1.269-.4948.072-5.7702-2.538-5.7702-2.538l5.1398 3.193s.2793.566-.6305.702c-.9099.136-5.7065-2.466-5.7065-2.466l3.8708 3.24s.423.639-.7981.495-4.3656-2.394-4.3656-2.394c-1.1633 1.148-2.5558 2.037-4.0863 2.61-2.3225.798-8.6594-1.062-13.5199-1.597-4.8604-.534-13.871-3.009-16.0339-5.331-2.1628-2.322 1.1253-5.85 1.1253-5.85" stroke="#263238" stroke-linecap="round" stroke-linejoin="round" stroke-width=".486945"/><path d="m94.2242 131.748s-2.3465 5.467-3.9906 8.492-6.0735 9.282-6.4885 9.809c-.3619.392-.8404.658-1.3648.758 0 0-.7502-2.115-1.6601-4.382-.1373-.435-.3613-.838-.6585-1.185-.2972-.346-.6614-.629-1.0708-.831-.4093-.202-.8553-.319-1.3111-.345-.4558-.025-.912.043-1.3411.198 0 0-1.277.647-.7981 1.022.4788.375 2.0191.279 2.5858.279.4778.096.9149.336 1.253.687 0 0-3.6393.159-3.767.718s.3192.726 1.3807.726c.9227-.05 1.8478.036 2.7455.256.3112.183-3.6234.335-4.0624 1.149-.4389.814 2.4582.335 3.1924.471.3091.028.5967.17.8063.399.2097.229.3263.527.327.838 0 0-2.945-.671-3.5116.207-.4549.695 1.4126.742 1.7558.838 1.2371.351.9099 1.652 1.6601 2.674.6385.87.7981 1.333 2.099 1.333 2.1948 0 8.3322-8.045 11.5246-11.046s7.7092-7.462 8.4602-9.777c.75-2.314-1.445-5.89-1.948-6.017" fill="#fff"/><path d="m94.2242 131.748s-2.3465 5.467-3.9906 8.492-6.0735 9.282-6.4885 9.809c-.3619.392-.8404.658-1.3648.758 0 0-.7502-2.115-1.6601-4.382-.1373-.435-.3613-.838-.6585-1.185-.2972-.346-.6614-.629-1.0708-.831-.4093-.202-.8553-.319-1.3111-.345-.4558-.025-.912.043-1.3411.198 0 0-1.277.647-.7981 1.022.4788.375 2.0191.279 2.5858.279.4778.096.9149.336 1.253.687 0 0-3.6393.159-3.767.718s.3192.726 1.3807.726c.9227-.05 1.8478.036 2.7455.256.3112.183-3.6234.335-4.0624 1.149-.4389.814 2.4582.335 3.1924.471.3091.028.5967.17.8063.399.2097.229.3263.527.327.838 0 0-2.945-.671-3.5116.207-.4549.695 1.4126.742 1.7558.838 1.2371.351.9099 1.652 1.6601 2.674.6385.87.7981 1.333 2.099 1.333 2.1948 0 8.3322-8.045 11.5246-11.046s7.7092-7.462 8.4602-9.777c.75-2.314-1.445-5.89-1.948-6.017" stroke="#263238" stroke-linecap="round" stroke-linejoin="round" stroke-width=".486945"/><path d="m82.396 150.807c.3221 1.226.5121 2.484.5667 3.751z" fill="#fff"/><path d="m82.396 150.807c.3221 1.226.5121 2.484.5667 3.751" stroke="#263238" stroke-linecap="round" stroke-linejoin="round" stroke-width=".486945"/><path d="m81.2788 116.241 3.2004-2.881" stroke="#263238" stroke-linecap="round" stroke-linejoin="round" stroke-width=".486945"/><path d="m43.8557 122.275 4.1821-1.469" stroke="#263238" stroke-linecap="round" stroke-linejoin="round" stroke-width=".486945"/><path d="m47.6786 97.8606s1.1812 2.1464 4.5412 2.2024 1.1572-4.6047 10.9819-6.1371c6.9115-1.0774.6943 5.483 2.2426 5.5867 1.5484.1038 5.2436-.7981 6.752-6.0097s.423-17.9174-4.4295-21.453c-4.8524-3.5356-17.6301-1.8277-19.1545 2.0192-1.5243 3.8469.5986 10.0002-.7981 13.6795-1.3966 3.6792-1.5563 8.4519-.1356 10.112z" fill="#263238" stroke="#263238" stroke-linecap="round" stroke-linejoin="round" stroke-width=".486945"/><path d="m50.4721 85.7693s-1.5962-3.0089-1.7638-.7024c-.1676 2.3066.5506 4.5173 1.7079 5.2915 1.1572.7741 1.7478.5507 1.7478.5507z" fill="#fff" stroke="#263238" stroke-linecap="round" stroke-linejoin="round" stroke-width=".486945"/><path d="m53.2974 69.0729s-2.4661.9418-3.5994 5.8102c-1.1333 4.8685 1.676 16.9677 2.8891 18.109 1.2132 1.1413 5.3793 6.0017 8.7792 5.8022 2.1708-.1197 6.9914-5.7463 7.5341-8.3881.5427-2.6417-.5507-14.1264-1.5244-16.808s-7.0233-8.3961-14.0786-4.5253z" fill="#fff" stroke="#263238" stroke-linecap="round" stroke-linejoin="round" stroke-width=".486945"/><path d="m56.0724 83.9017c0 .3831-1.1014-.1676-1.4925-.1915-.3911-.024-1.5244.3911-1.5004 0 .0239-.3911 1.1492-.6305 1.5403-.6066.3911.024 1.4765.4071 1.4526.7981z" fill="#263238"/><path d="m64.569 82.8323c.0135.0923.0084.1864-.0149.2768s-.0644.1752-.1209.2495-.1272.1366-.208.1833c-.0808.0466-.1702.0767-.2627.0885-.0928.0123-.1872.0061-.2776-.0181-.0904-.0243-.1751-.0662-.2493-.1233-.0741-.0571-.1363-.1283-.1828-.2095-.0466-.0812-.0766-.1708-.0885-.2637-.0049-.175.0557-.3457.17-.4784s.2741-.2179.4479-.2389c.1739-.021.3494.0238.492.1255s.2421.253.2789.4242z" fill="#263238"/><path d="m58.9958 90.8452c.9504.0677 1.9043-.0657 2.7996-.3917.8953-.3259 1.7117-.837 2.3961-1.4998" stroke="#263238" stroke-linecap="round" stroke-linejoin="round" stroke-width=".486945"/><path d="m61.2306 85.9369s1.1333 1.1492.2395 1.9713c-.3945.3486-.8787.5798-1.3978.6673-.5191.0874-1.0524.0277-1.5392-.1725-.9019-.3192-.1357-2.2666-.1357-2.2666" stroke="#263238" stroke-linecap="round" stroke-linejoin="round" stroke-width=".486945"/><path d="m57.5593 82.0421c-.2709-.571-.7053-1.0488-1.248-1.3728-.5428-.3239-1.1695-.4794-1.8007-.4469-.601-.0292-1.1972.1195-1.7139.4276-.5168.3081-.9312.7618-1.1912 1.3043 0 0 1.7478-1.2051 2.8731-.8859 1.1254.3193 2.3305 2.0751 3.0807.9737z" fill="#263238"/><path d="m60.2009 79.1929c.3404-.5313.8307-.9498 1.4088-1.2027.5782-.2528 1.2183-.3287 1.8395-.2179.5994.0446 1.1722.2654 1.6465.6346s.8289.8703 1.0192 1.4404c0 0-1.5962-1.4206-2.7375-1.229-1.1413.1915-2.53 1.7717-3.1765.5746z" fill="#263238"/><path d="m55.9152 72.5846s-3.8868-.5906-5.0999 1.9953c-1.2131 2.5858.1038 7.1829-1.6441 11.6523-1.7478 4.4694.3911 10.7903.7981 11.6603.4071.8699-1.6999 2.3385-3.4558-2.0272-1.7558-4.3656 1.1812-9.1543.9179-13.8551-.2634-4.7008-1.9394-9.689 2.3943-12.9612s5.4351-1.7239 5.4351-1.7239z" fill="#263238" stroke="#263238" stroke-linecap="round" stroke-linejoin="round" stroke-width=".486945"/><path d="m50.6396 97.1742c.3854.4394.8479.8046 1.3648 1.0774" stroke="#fff" stroke-linecap="round" stroke-linejoin="round" stroke-width=".243473"/><path d="m48.6364 88.1636s-.5108 4.629 1.1493 7.8054" stroke="#fff" stroke-linecap="round" stroke-linejoin="round" stroke-width=".243473"/><path d="m59.5306 267.529c-2.6339.462-5.3461.079-7.7496-1.093 0 .335.0558.527.0558.527-.9672 2.538-1.681 5.166-2.1309 7.845-.3512 3.193 2.2187 4.43 5.8661 6.385 3.6473 1.955 11.5086 6.034 12.7696 3.256 1.261-2.777-4.5731-9.401-7.5261-14.238-.5154-.849-.9458-1.748-1.2849-2.682z" fill="#fff" stroke="#263238" stroke-linecap="round" stroke-linejoin="round" stroke-width=".486945"/><path d="m60.2489 278.671c-3.8309-1.101-8.0768-5.587-9.7688-7.526-.3601 1.198-.6269 2.423-.7981 3.663-.3512 3.192 2.2187 4.43 5.866 6.385 3.6474 1.955 11.5087 6.034 12.7697 3.256.6704-1.484-.6784-4.062-2.53-6.872-.7742 1.238-2.4182 1.98-5.5388 1.094z" fill="#eb696f" stroke="#263238" stroke-linecap="round" stroke-linejoin="round" stroke-width=".486945"/><path d="m56.5934 280.076c-2.4195-1.385-4.7324-2.949-6.9196-4.677 0 2.761 2.4901 3.99 5.898 5.826 3.6553 1.987 11.5087 6.034 12.7697 3.256.156-.381.2109-.796.1596-1.205-3.7591 1.716-7.0313-.431-11.9077-3.2z" fill="#fff" stroke="#263238" stroke-linecap="round" stroke-linejoin="round" stroke-width=".486945"/><path d="m64.2318 81.7554c-1.4501-.0398-2.6771.9168-2.8708 2.3649.0302.4333 1.791.887 3.3716.7768 1.5807-.1102 2.9381-1.2167 2.9185-1.4972-.0204-.2931-1.1142-1.6515-3.4193-1.6445zm-9.7513.6798c-2.2838.313-3.201 1.6706-3.1717 2.0912.0204.2932 1.6585 1.1909 3.0989 1.0905s3.2614-.8038 3.2312-1.2372c-.3927-1.4072-1.8807-2.1744-3.1584-1.9445zm11.729 7.111c-2.4346.1697-4.2152-2.5881-6.5096-2.4282-2.2944.16-3.8153 3.148-6.1097 3.3079-3.0083.2098-5.3527-2.3679-5.6921-7.2372-.2097-3.0082.5966-3.9354 4.4589-4.2047s4.9922 1.2403 6.8533 1.1105c1.861-.1297 2.898-1.7903 6.6329-2.0507 3.7348-.2603 4.7992.6773 4.9992 3.5454.3394 4.8693-1.6246 7.7473-4.6329 7.957z" fill="#eb696f"/><g stroke-linecap="round" stroke-linejoin="round"><path d="m75.285 77.4211c-1.237-2.6018-1.684-7.582-5.7862-11.1734-2.5699-2.2666-7.0872-3.1924-10.6467-2.8812-.5876-.0506-1.1794-.0129-1.7558.1118-5.6586 1.1413-8.9069 4.5891-7.582 6.72 1.3248 2.1309 6.3848 2.3943 6.3848 2.3943l.7981.2155c-.0583-.263-.0984-.5296-.1197-.7981.7981-.4709 2.123-.8859 3.7511.4788 2.8577 2.5066 4.6906 5.9792 5.1477 9.7529.5428 5.7383 3.6633 7.5021 3.9507 9.9044.2873 2.4023-3.5596 5.9299-4.3657 6.7919-.8061.8619 3.9347.7981 4.2619.7342 4.7886-.8938 7.6538-4.4454 9.1622-8.9148 1.7878-5.2435-1.0854-8.8669-3.2004-13.3363z" fill="#263238" stroke="#263238" stroke-width=".486945"/><path d="m72.0209 96.0728c-.1811.3963-.4295.7581-.7343 1.0695" stroke="#fff" stroke-width=".243473"/><path d="m55.8433 71.986s-3.8468-1.5164-1.0215-3.3839c2.8252-1.8676 8.9627 2.1149 10.8462 6.313 1.8835 4.198 1.4286 9.2979 3.8069 12.5222 1.1254 1.5324 2.6577 4.1103 2.8413 6.4407" stroke="#fff" stroke-width=".243473"/><path d="m52.8663 69.6396c-.1676-.407 0-1.0295.9497-1.9873 2.4582-2.4342 7.5501-1.9793 10.4312.4151 2.8812 2.3943 4.1901 5.5867 4.9642 9.4814.7742 3.8948 1.6681 6.2093 4.0704 8.3562s3.9107 4.5651 2.1708 7.8294" stroke="#fff" stroke-width=".243473"/><path d="m52.9862 72.3292s-4.4295-1.2929-2.2986-3.8388" stroke="#fff" stroke-width=".243473"/><path d="m68.5012 69.057c1.429 1.8408 2.4542 3.9619 3.0089 6.2252 1.261 5.3393-.1756 7.3505 2.7295 9.8965 1.26 1.0503 2.0895 2.5276 2.3304 4.1501" stroke="#fff" stroke-width=".243473"/><path d="m66.3542 66.7425s.2475.1995.6306.5826" stroke="#fff" stroke-width=".243473"/><path d="m151.326 84.9728s-4.196-1.6767-14.47 3.3534c-10.273 5.0301-15.72 12.1638-11.32 18.4148s11.533 6.29 15.507 11.746c3.974 5.457-1.735 11.417-6.135 20.644s3.315 14.625 9.818 16.719c6.503 2.093 7.007-5.079 14.344-17.242 7.337-12.164-3.567-32.953-6.92-40.7062-3.353-7.7536-.824-12.929-.824-12.929z" fill="#263238" stroke="#263238" stroke-width=".725143"/><path d="m145.133 99.7723s-7.114.6787-8.81 3.3917c-1.696 2.714 2.714 3.044 2.714 3.044" stroke="#fff" stroke-width=".725143"/><path d="m145.133 94.0153s-16.253 6.0967-16.593 10.5057c-.339 4.41 8.122 4.74 8.122 4.74" stroke="#fff" stroke-width=".725143"/><path d="m150.9 139.073s-8.616 11.088-13.443 14.645c-4.826 3.556-6.145 8.393-3.634 10.913 2.51 2.52 1.356 2.742 16.66 4.002s23.484-1.676 28.514-6.493 7.54-8.81 7.54-12.794c0-3.983-17.61-13.413-23.687-13.413s-11.95 3.14-11.95 3.14z" fill="#fff" stroke="#263238" stroke-width=".725143"/><path d="m152.16 148.3-7.967 9.856s3.354 2.511 3.983 1.464c.63-1.047 3.567-6.494 3.567-6.494" stroke="#263238" stroke-width=".725143"/><path d="m156.986 133.839s-5.66 2.094-6.716 3.557c-1.057 1.464-10.661 8.394-7.957 8.597 2.704.204 8.17-4.4 8.17-4.4s.417 6.707 1.677 6.707 10.06-3.567 10.06-3.567 3.353 8.81 5.456 6.503c2.104-2.306 3.984-15.09 2.511-18.24-1.474-3.15-13.201.843-13.201.843z" fill="#000" stroke="#263238" stroke-width=".725143"/><path d="m154.253 128.586v11.534c0 3.557-1.463 5.447.843 4.846 2.307-.601 7.55-5.244 10.661-10.06 3.112-4.817 1.677-12.164.417-17.397-1.26-5.234-4.4-1.474-6.29.833s-5.631 10.244-5.631 10.244z" fill="#fff" stroke="#263238" stroke-width=".725143"/><path d="m146.248 99.0357-8.384 10.0603s1.473 10.661 3.984 14.674c2.51 4.012 8.596 9.013 11.32 8.179 2.723-.833 10.661-12.599 11.116-14.043 1.025-3.109.799-6.495-.63-9.44-2.064-4.604-17.406-9.4303-17.406-9.4303z" fill="#fff" stroke="#263238" stroke-width=".725143"/><path d="m145.453 111.403s1.26 3.566.63 5.03c-.63 1.463-2.723 2.306-1.938 3.353.289.315.649.555 1.051.702.401.147.831.195 1.255.141" stroke="#263238" stroke-width=".725143"/><path d="m146.083 123.983s4.613.843 5.447-1.89" stroke="#263238" stroke-width=".725143"/></g><path d="m152.489 113.564c0 .727-.358 1.308-.785 1.308-.426 0-.785-.581-.785-1.308s.349-1.299.785-1.299.785.582.785 1.299z" fill="#263238"/><path d="m145.279 114.582c0 .726-.349 1.308-.785 1.308-.437 0-.786-.582-.786-1.308 0-.727.349-1.299.786-1.299.436 0 .785.581.785 1.299z" fill="#263238"/><path d="m140.433 112.11s.581-2.704 2.413-2.704 2.132.582 2.132.582" stroke="#263238" stroke-linecap="round" stroke-linejoin="round" stroke-width=".725143"/><path d="m148.08 109.27c.141-.736.562-1.39 1.175-1.823.612-.434 1.368-.614 2.11-.503 2.704.388 2.801 1.939 2.801 1.939" stroke="#263238" stroke-linecap="round" stroke-linejoin="round" stroke-width=".725143"/><path d="m143.99 94.4224s1.046 10.9036 10.893 16.5636 14.47 12.784 11.32 21.593c-3.149 8.81-6.706 16.564 1.677 22.011 8.384 5.447 18.027 3.353 24.744-5.66 6.716-9.014 7.482-22.292.349-33.854-7.134-11.563-9.45-16.6218-14.054-23.5321-4.603-6.9104-18.414-8.0152-25.712-7.395-2.023.0958-3.978.7557-5.644 1.9051-1.667 1.1493-2.978 2.7421-3.787 4.5982" fill="#263238"/><path d="m143.99 94.4224s1.046 10.9036 10.893 16.5636 14.47 12.784 11.32 21.593c-3.149 8.81-6.706 16.564 1.677 22.011 8.384 5.447 18.027 3.353 24.744-5.66 6.716-9.014 7.482-22.292.349-33.854-7.134-11.563-9.45-16.6218-14.054-23.5321-4.603-6.9104-18.414-8.0152-25.712-7.395-2.023.0958-3.978.7557-5.644 1.9051-1.667 1.1493-2.978 2.7421-3.787 4.5982" stroke="#263238" stroke-linecap="round" stroke-linejoin="round" stroke-width=".725143"/><path d="m147.847 96.3898s-3.053 8.8102 11.514 14.2282c14.567 5.417 31.159 5.757 32.177 18.288" stroke="#fff" stroke-linecap="round" stroke-linejoin="round" stroke-width=".725143"/><path d="m170.662 150.597c.361.784.898 1.474 1.57 2.016" stroke="#fff" stroke-linecap="round" stroke-linejoin="round" stroke-width=".725143"/><path d="m158.343 110.278s13.21 7.754 14.538 17.611c.892 6.445-2.161 13.035-2.733 18.153" stroke="#fff" stroke-linecap="round" stroke-linejoin="round" stroke-width=".725143"/><path d="m149.155 89.3535c-4.671 4.0706-4.012 10.4188-4.012 10.4188" stroke="#fff" stroke-linecap="round" stroke-linejoin="round" stroke-width=".725143"/><path d="m153.604 86.9111c-.727.2332-1.433.5249-2.113.8723" stroke="#fff" stroke-linecap="round" stroke-linejoin="round" stroke-width=".725143"/><path d="m191.535 172.07c5.818 0 10.535-4.717 10.535-10.535s-4.717-10.535-10.535-10.535-10.535 4.717-10.535 10.535 4.717 10.535 10.535 10.535z" fill="#263238"/><path d="m192.543 156.356c.212 0 .421.055.605.161.185.105.338.257.446.44l.441.751h1.121c.232 0 .461.046.674.134.214.089.408.218.571.382.164.163.293.357.382.571.088.214.134.443.134.674v5.146c0 .231-.046.46-.134.673-.089.214-.218.408-.382.571-.163.164-.357.294-.571.382-.213.088-.442.134-.674.134h-7.312c-.467 0-.915-.185-1.245-.516-.33-.33-.516-.778-.516-1.244v-5.146c0-.467.186-.915.516-1.245s.778-.516 1.245-.516h1.127l.474-.771c.109-.178.261-.324.443-.426s.387-.155.595-.155zm-1.043 2.977c-.646 0-1.266.257-1.723.714-.458.457-.714 1.077-.714 1.724 0 .646.256 1.266.714 1.723.457.458 1.077.714 1.723.714.647 0 1.267-.256 1.724-.714.457-.457.714-1.077.714-1.723 0-.647-.257-1.267-.714-1.724s-1.077-.714-1.724-.714zm0 .813c.214 0 .425.042.622.124.197.081.376.201.527.352s.271.33.352.527c.082.197.124.408.124.622 0 .213-.042.425-.124.622-.081.197-.201.376-.352.527s-.33.27-.527.352-.408.124-.622.124c-.431 0-.844-.171-1.149-.476s-.476-.718-.476-1.149.171-.844.476-1.149.718-.476 1.149-.476z" fill="#fff"/><path d="m110 186.333c.619 0 1.212.246 1.65.684.437.437.683 1.031.683 1.65 0 .618-.246 1.212-.683 1.65-.438.437-1.031.683-1.65.683s-1.212-.246-1.65-.683c-.438-.438-.683-1.032-.683-1.65 0-.619.245-1.213.683-1.65.438-.438 1.031-.684 1.65-.684zm0 9.334s4.667 0 4.667-1.167c0-1.4-2.275-2.917-4.667-2.917s-4.667 1.517-4.667 2.917c0 1.167 4.667 1.167 4.667 1.167z" fill="#263238"/><path d="m107.534 238.423.627-.201c.589-.188 1.218.116 1.47.71l.501 1.183c.218.515.098 1.121-.3 1.498l-1.104 1.049c.067.628.278 1.245.632 1.853.336.588.786 1.103 1.325 1.514l1.327-.443c.503-.168 1.051.025 1.359.478l.719 1.056c.359.528.295 1.254-.15 1.701l-.477.479c-.475.477-1.154.65-1.781.454-1.481-.462-2.842-1.833-4.085-4.114-1.244-2.285-1.683-4.224-1.317-5.815.154-.67.631-1.203 1.254-1.402z" fill="#263238"/></svg>