<svg fill="none" height="277" viewBox="0 0 298 277" width="298" xmlns="http://www.w3.org/2000/svg"><path d="m262.072 25.0473h-75.408s7.474-20.42665 18.985-20.42665 15.104 14.09825 15.104 14.09825 7.762-7.659 14.142-7.659c6.381 0 11.925 10.1209 11.925 10.1209s9.012-5.4412 15.252 3.8665z" fill="#ebebeb"/><path d="m297.195 46.8416h-35.219s7.866-11.4073 14.083-11.4073c6.218 0 8.036 7.6073 8.036 7.6073s4.377-3.556 8.436-2.9571c4.058.5988 4.664 6.7571 4.664 6.7571z" fill="#ebebeb" opacity=".5"/><path d="m225.743 89.2844h-35.243s7.874-11.4073 14.084-11.4073 8.036 7.5999 8.036 7.5999 4.377-3.5486 8.435-2.9128c4.059.6358 4.688 6.7202 4.688 6.7202z" fill="#ebebeb" opacity=".5"/><path d="m68.6211 98.0523h-68.6211s9.37422-20.9885 19.4286-22.3266c10.0544-1.3381 14.8671 15.5917 14.8671 15.5917s6.491-5.9735 11.5921-5.9735 9.0342 7.8661 9.0342 7.8661 10.2022-5.3599 13.6991 4.8423z" fill="#ebebeb"/><path d="m99.9744 36.3732h-46.3758s7.9696-15.2072 16.6341-15.429 13.1594 11.5108 13.1594 11.5108 13.4551-10.7863 16.5823 3.9182z" fill="#ebebeb" opacity=".5"/><path d="m174.48 108.713h-27.561v144.487h27.561z" fill="#dbdbdb"/><g fill="#ebebeb"><path d="m156.56 113.407h-5.36v5.516h5.36z"/><path d="m163.413 113.407h-5.36v5.516h5.36z"/><path d="m156.56 122.774h-5.36v5.515h5.36z"/><path d="m163.413 122.774h-5.36v5.515h5.36z"/><path d="m156.56 132.141h-5.36v5.515h5.36z"/><path d="m163.413 132.141h-5.36v5.515h5.36z"/><path d="m156.56 141.508h-5.36v5.515h5.36z"/><path d="m163.413 141.508h-5.36v5.515h5.36z"/><path d="m156.56 150.875h-5.36v5.515h5.36z"/><path d="m163.413 150.875h-5.36v5.515h5.36z"/><path d="m156.56 160.242h-5.36v5.515h5.36z"/><path d="m163.413 160.242h-5.36v5.515h5.36z"/><path d="m156.56 169.608h-5.36v5.516h5.36z"/><path d="m163.413 169.608h-5.36v5.516h5.36z"/><path d="m156.56 178.975h-5.36v5.515h5.36z"/><path d="m163.413 178.975h-5.36v5.515h5.36z"/><path d="m156.56 188.342h-5.36v5.515h5.36z"/><path d="m163.413 188.342h-5.36v5.515h5.36z"/><path d="m156.56 197.709h-5.36v5.515h5.36z"/><path d="m163.413 197.709h-5.36v5.515h5.36z"/><path d="m156.56 207.076h-5.36v5.515h5.36z"/><path d="m163.413 207.076h-5.36v5.515h5.36z"/><path d="m156.56 216.443h-5.36v5.515h5.36z"/><path d="m163.413 216.443h-5.36v5.515h5.36z"/><path d="m156.56 225.809h-5.36v5.515h5.36z"/><path d="m163.413 225.809h-5.36v5.515h5.36z"/><path d="m156.56 235.176h-5.36v5.515h5.36z"/><path d="m164.84 240.684h5.36v-5.515h-5.36z"/><path d="m164.84 231.317h5.36v-5.515h-5.36z"/><path d="m164.84 221.95h5.36v-5.515h-5.36z"/><path d="m164.84 212.591h5.36v-5.515h-5.36z"/><path d="m164.84 203.224h5.36v-5.515h-5.36z"/><path d="m164.84 193.857h5.36v-5.515h-5.36z"/><path d="m164.84 184.49h5.36v-5.515h-5.36z"/><path d="m164.84 175.124h5.36v-5.516h-5.36z"/><path d="m164.84 165.757h5.36v-5.515h-5.36z"/><path d="m164.84 156.39h5.36v-5.515h-5.36z"/><path d="m164.84 147.023h5.36v-5.515h-5.36z"/><path d="m164.84 137.656h5.36v-5.515h-5.36z"/><path d="m164.84 128.289h5.36v-5.515h-5.36z"/><path d="m164.84 118.923h5.36v-5.516h-5.36z"/><path d="m163.413 235.176h-5.36v5.515h5.36z"/></g><path d="m196.216 108.713h-21.736v144.487h21.736z" fill="#a6a6a6"/><path d="m189.547 240.684h4.429v-5.515h-4.429z" fill="#c7c7c7"/><path d="m183.892 240.684h4.42v-5.515h-4.42z" fill="#c7c7c7"/><path d="m189.547 231.317h4.429v-5.515h-4.429z" fill="#c7c7c7"/><path d="m183.892 231.317h4.42v-5.515h-4.42z" fill="#c7c7c7"/><path d="m189.547 221.95h4.429v-5.515h-4.429z" fill="#c7c7c7"/><path d="m183.892 221.95h4.42v-5.515h-4.42z" fill="#c7c7c7"/><path d="m189.547 212.591h4.429v-5.515h-4.429z" fill="#c7c7c7"/><path d="m183.892 212.591h4.42v-5.515h-4.42z" fill="#c7c7c7"/><path d="m189.547 203.224h4.429v-5.515h-4.429z" fill="#c7c7c7"/><path d="m183.892 203.224h4.42v-5.515h-4.42z" fill="#c7c7c7"/><path d="m189.547 193.857h4.429v-5.515h-4.429z" fill="#c7c7c7"/><path d="m183.892 193.857h4.42v-5.515h-4.42z" fill="#c7c7c7"/><path d="m189.547 184.49h4.429v-5.515h-4.429z" fill="#c7c7c7"/><path d="m183.892 184.49h4.42v-5.515h-4.42z" fill="#c7c7c7"/><path d="m189.547 175.124h4.429v-5.516h-4.429z" fill="#c7c7c7"/><path d="m183.892 175.124h4.42v-5.516h-4.42z" fill="#c7c7c7"/><path d="m189.547 165.757h4.429v-5.515h-4.429z" fill="#c7c7c7"/><path d="m183.892 165.757h4.42v-5.515h-4.42z" fill="#c7c7c7"/><path d="m189.547 156.39h4.429v-5.515h-4.429z" fill="#c7c7c7"/><path d="m183.892 156.39h4.42v-5.515h-4.42z" fill="#c7c7c7"/><path d="m189.547 147.023h4.429v-5.515h-4.429z" fill="#c7c7c7"/><path d="m183.892 147.023h4.42v-5.515h-4.42z" fill="#c7c7c7"/><path d="m189.547 137.656h4.429v-5.515h-4.429z" fill="#c7c7c7"/><path d="m183.892 137.656h4.42v-5.515h-4.42z" fill="#c7c7c7"/><path d="m189.547 128.289h4.429v-5.515h-4.429z" fill="#c7c7c7"/><path d="m183.892 128.289h4.42v-5.515h-4.42z" fill="#c7c7c7"/><path d="m189.547 118.923h4.429v-5.516h-4.429z" fill="#c7c7c7"/><path d="m182.701 113.407h-4.421v5.516h4.421z" fill="#c7c7c7"/><path d="m182.701 122.774h-4.421v5.515h4.421z" fill="#c7c7c7"/><path d="m182.701 132.141h-4.421v5.515h4.421z" fill="#c7c7c7"/><path d="m182.701 141.508h-4.421v5.515h4.421z" fill="#c7c7c7"/><path d="m182.701 150.875h-4.421v5.515h4.421z" fill="#c7c7c7"/><path d="m182.701 160.242h-4.421v5.515h4.421z" fill="#c7c7c7"/><path d="m182.701 169.608h-4.421v5.516h4.421z" fill="#c7c7c7"/><path d="m182.701 178.975h-4.421v5.515h4.421z" fill="#c7c7c7"/><path d="m182.701 188.342h-4.421v5.515h4.421z" fill="#c7c7c7"/><path d="m182.701 197.709h-4.421v5.515h4.421z" fill="#c7c7c7"/><path d="m182.701 207.076h-4.421v5.515h4.421z" fill="#c7c7c7"/><path d="m182.701 216.443h-4.421v5.515h4.421z" fill="#c7c7c7"/><path d="m182.701 225.809h-4.421v5.515h4.421z" fill="#c7c7c7"/><path d="m182.701 235.176h-4.421v5.515h4.421z" fill="#c7c7c7"/><path d="m183.892 118.923h4.42v-5.516h-4.42z" fill="#c7c7c7"/><path d="m75.378 105.564h-28.751v147.636h28.751z" fill="#ebebeb"/><path d="m75.3854 102.621h-29.4459v2.943h29.4459z" fill="#c7c7c7"/><path d="m52.1423 109.896h-2.9128v143.304h2.9128z" fill="#fff"/><path d="m57.3025 109.896h-2.9129v143.304h2.9129z" fill="#fff"/><path d="m62.4626 109.896h-2.9128v143.304h2.9128z" fill="#fff"/><path d="m67.6228 109.896h-2.9128v143.304h2.9128z" fill="#fff"/><path d="m72.7834 109.896h-2.9128v143.304h2.9128z" fill="#fff"/><g fill="#ebebeb"><path d="m52.1423 113.607h-2.9128v5.803h2.9128z"/><path d="m57.3025 113.607h-2.9129v5.803h2.9129z"/><path d="m62.4626 113.607h-2.9128v5.803h2.9128z"/><path d="m67.6228 113.607h-2.9128v5.803h2.9128z"/><path d="m72.7834 113.607h-2.9128v5.803h2.9128z"/><path d="m52.1423 123.04h-2.9128v5.804h2.9128z"/><path d="m57.3025 123.04h-2.9129v5.804h2.9129z"/><path d="m62.4626 123.04h-2.9128v5.804h2.9128z"/><path d="m67.6228 123.04h-2.9128v5.804h2.9128z"/><path d="m72.7834 123.04h-2.9128v5.804h2.9128z"/><path d="m52.1423 132.474h-2.9128v5.803h2.9128z"/><path d="m57.3025 132.474h-2.9129v5.803h2.9129z"/><path d="m62.4626 132.474h-2.9128v5.803h2.9128z"/><path d="m67.6228 132.474h-2.9128v5.803h2.9128z"/><path d="m72.7834 132.474h-2.9128v5.803h2.9128z"/><path d="m52.1423 141.907h-2.9128v5.804h2.9128z"/><path d="m57.3025 141.907h-2.9129v5.804h2.9129z"/><path d="m62.4626 141.907h-2.9128v5.804h2.9128z"/><path d="m67.6228 141.907h-2.9128v5.804h2.9128z"/><path d="m72.7834 141.907h-2.9128v5.804h2.9128z"/><path d="m52.1423 151.34h-2.9128v5.804h2.9128z"/><path d="m57.3025 151.34h-2.9129v5.804h2.9129z"/><path d="m62.4626 151.34h-2.9128v5.804h2.9128z"/><path d="m67.6228 151.34h-2.9128v5.804h2.9128z"/><path d="m72.7834 151.34h-2.9128v5.804h2.9128z"/><path d="m52.1423 160.766h-2.9128v5.804h2.9128z"/><path d="m57.3025 160.766h-2.9129v5.804h2.9129z"/><path d="m62.4626 160.766h-2.9128v5.804h2.9128z"/><path d="m67.6228 160.766h-2.9128v5.804h2.9128z"/><path d="m72.7834 160.766h-2.9128v5.804h2.9128z"/><path d="m52.1423 170.2h-2.9128v5.803h2.9128z"/><path d="m57.3025 170.2h-2.9129v5.803h2.9129z"/><path d="m62.4626 170.2h-2.9128v5.803h2.9128z"/><path d="m67.6228 170.2h-2.9128v5.803h2.9128z"/><path d="m72.7834 170.2h-2.9128v5.803h2.9128z"/><path d="m52.1423 179.633h-2.9128v5.804h2.9128z"/><path d="m57.3025 179.633h-2.9129v5.804h2.9129z"/><path d="m62.4626 179.633h-2.9128v5.804h2.9128z"/><path d="m67.6228 179.633h-2.9128v5.804h2.9128z"/><path d="m72.7834 179.633h-2.9128v5.804h2.9128z"/><path d="m52.1423 189.067h-2.9128v5.803h2.9128z"/><path d="m57.3025 189.067h-2.9129v5.803h2.9129z"/><path d="m62.4626 189.067h-2.9128v5.803h2.9128z"/><path d="m67.6228 189.067h-2.9128v5.803h2.9128z"/><path d="m72.7834 189.067h-2.9128v5.803h2.9128z"/><path d="m52.1423 198.5h-2.9128v5.803h2.9128z"/><path d="m57.3025 198.5h-2.9129v5.803h2.9129z"/><path d="m62.4626 198.5h-2.9128v5.803h2.9128z"/><path d="m67.6228 198.5h-2.9128v5.803h2.9128z"/><path d="m72.7834 198.5h-2.9128v5.803h2.9128z"/><path d="m52.1423 207.933h-2.9128v5.804h2.9128z"/><path d="m57.3025 207.933h-2.9129v5.804h2.9129z"/><path d="m62.4626 207.933h-2.9128v5.804h2.9128z"/><path d="m67.6228 207.933h-2.9128v5.804h2.9128z"/><path d="m72.7834 207.933h-2.9128v5.804h2.9128z"/><path d="m52.1423 217.359h-2.9128v5.804h2.9128z"/><path d="m57.3025 217.359h-2.9129v5.804h2.9129z"/><path d="m62.4626 217.359h-2.9128v5.804h2.9128z"/><path d="m67.6228 217.359h-2.9128v5.804h2.9128z"/><path d="m72.7834 217.359h-2.9128v5.804h2.9128z"/><path d="m52.1423 226.793h-2.9128v5.803h2.9128z"/><path d="m57.3025 226.793h-2.9129v5.803h2.9129z"/><path d="m62.4626 226.793h-2.9128v5.803h2.9128z"/><path d="m67.6228 226.793h-2.9128v5.803h2.9128z"/><path d="m72.7834 226.793h-2.9128v5.803h2.9128z"/><path d="m52.1423 236.226h-2.9128v16.974h2.9128z"/><path d="m57.3025 236.226h-2.9129v16.974h2.9129z"/><path d="m62.4626 236.226h-2.9128v16.974h2.9128z"/><path d="m67.6228 236.226h-2.9128v16.974h2.9128z"/><path d="m72.7834 236.226h-2.9128v16.974h2.9128z"/></g><path d="m93.8459 105.564h-18.4602v147.636h18.4602z" fill="#dbdbdb"/><path d="m94.6443 102.621h-19.2586v2.943h19.2586z" fill="#c7c7c7"/><path d="m80.8933 109.896h-2.9128v143.304h2.9128z" fill="#c7c7c7"/><path d="m86.0534 109.896h-2.9128v143.304h2.9128z" fill="#c7c7c7"/><path d="m91.2141 109.896h-2.9128v143.304h2.9128z" fill="#c7c7c7"/><path d="m80.8933 113.607h-2.9128v5.803h2.9128z" fill="#dbdbdb"/><path d="m86.0534 113.607h-2.9128v5.803h2.9128z" fill="#dbdbdb"/><path d="m91.2141 113.607h-2.9128v5.803h2.9128z" fill="#dbdbdb"/><path d="m80.8933 123.04h-2.9128v5.804h2.9128z" fill="#dbdbdb"/><path d="m86.0534 123.04h-2.9128v5.804h2.9128z" fill="#dbdbdb"/><path d="m91.2141 123.04h-2.9128v5.804h2.9128z" fill="#dbdbdb"/><path d="m80.8933 132.474h-2.9128v5.803h2.9128z" fill="#dbdbdb"/><path d="m86.0534 132.474h-2.9128v5.803h2.9128z" fill="#dbdbdb"/><path d="m91.2141 132.474h-2.9128v5.803h2.9128z" fill="#dbdbdb"/><path d="m80.8933 141.907h-2.9128v5.804h2.9128z" fill="#dbdbdb"/><path d="m86.0534 141.907h-2.9128v5.804h2.9128z" fill="#dbdbdb"/><path d="m91.2141 141.907h-2.9128v5.804h2.9128z" fill="#dbdbdb"/><path d="m80.8933 151.34h-2.9128v5.804h2.9128z" fill="#dbdbdb"/><path d="m86.0534 151.34h-2.9128v5.804h2.9128z" fill="#dbdbdb"/><path d="m91.2141 151.34h-2.9128v5.804h2.9128z" fill="#dbdbdb"/><path d="m80.8933 160.766h-2.9128v5.804h2.9128z" fill="#dbdbdb"/><path d="m86.0534 160.766h-2.9128v5.804h2.9128z" fill="#dbdbdb"/><path d="m91.2141 160.766h-2.9128v5.804h2.9128z" fill="#dbdbdb"/><path d="m80.8933 170.2h-2.9128v5.803h2.9128z" fill="#dbdbdb"/><path d="m86.0534 170.2h-2.9128v5.803h2.9128z" fill="#dbdbdb"/><path d="m91.2141 170.2h-2.9128v5.803h2.9128z" fill="#dbdbdb"/><path d="m80.8933 179.633h-2.9128v5.804h2.9128z" fill="#dbdbdb"/><path d="m86.0534 179.633h-2.9128v5.804h2.9128z" fill="#dbdbdb"/><path d="m91.2141 179.633h-2.9128v5.804h2.9128z" fill="#dbdbdb"/><path d="m80.8933 189.067h-2.9128v5.803h2.9128z" fill="#dbdbdb"/><path d="m86.0534 189.067h-2.9128v5.803h2.9128z" fill="#dbdbdb"/><path d="m91.2141 189.067h-2.9128v5.803h2.9128z" fill="#dbdbdb"/><path d="m80.8933 198.5h-2.9128v5.803h2.9128z" fill="#dbdbdb"/><path d="m86.0534 198.5h-2.9128v5.803h2.9128z" fill="#dbdbdb"/><path d="m91.2141 198.5h-2.9128v5.803h2.9128z" fill="#dbdbdb"/><path d="m80.8933 207.933h-2.9128v5.804h2.9128z" fill="#dbdbdb"/><path d="m86.0534 207.933h-2.9128v5.804h2.9128z" fill="#dbdbdb"/><path d="m91.2141 207.933h-2.9128v5.804h2.9128z" fill="#dbdbdb"/><path d="m80.8933 217.359h-2.9128v5.804h2.9128z" fill="#dbdbdb"/><path d="m86.0534 217.359h-2.9128v5.804h2.9128z" fill="#dbdbdb"/><path d="m91.2141 217.359h-2.9128v5.804h2.9128z" fill="#dbdbdb"/><path d="m80.8933 226.793h-2.9128v5.803h2.9128z" fill="#dbdbdb"/><path d="m86.0534 226.793h-2.9128v5.803h2.9128z" fill="#dbdbdb"/><path d="m91.2141 226.793h-2.9128v5.803h2.9128z" fill="#dbdbdb"/><path d="m80.8933 236.226h-2.9128v16.974h2.9128z" fill="#dbdbdb"/><path d="m86.0534 236.226h-2.9128v16.974h2.9128z" fill="#dbdbdb"/><path d="m91.2141 236.226h-2.9128v16.974h2.9128z" fill="#dbdbdb"/><path d="m33.6597 149.781h-27.27249v103.419h27.27249z" fill="#ebebeb"/><path d="m33.6602 142.92h-23.3912v6.861h23.3912z" fill="#c7c7c7"/><path d="m30.6656 153.359h-21.29158v77.315h21.29158z" fill="#dbdbdb"/><path d="m30.6656 160.737h-21.29158v1.826h21.29158z" fill="#fff"/><path d="m30.6656 168.307h-21.29158v1.826h21.29158z" fill="#fff"/><path d="m30.6656 175.87h-21.29158v1.826h21.29158z" fill="#fff"/><path d="m30.6656 183.441h-21.29158v1.826h21.29158z" fill="#fff"/><path d="m30.6656 191.011h-21.29158v1.826h21.29158z" fill="#fff"/><path d="m30.6656 198.574h-21.29158v1.826h21.29158z" fill="#fff"/><path d="m30.6656 206.144h-21.29158v1.826h21.29158z" fill="#fff"/><path d="m30.6656 213.715h-21.29158v1.826h21.29158z" fill="#fff"/><path d="m30.6656 221.278h-21.29158v1.826h21.29158z" fill="#fff"/><path d="m30.6656 228.848h-21.29158v1.826h21.29158z" fill="#fff"/><path d="m50.7378 149.781h-17.0776v103.419h17.0776z" fill="#dbdbdb"/><path d="m48.1798 142.92h-14.5196v6.861h14.5196z" fill="#a6a6a6"/><path d="m49.1406 153.359h-13.1299v77.315h13.1299z" fill="#c7c7c7"/><path d="m49.1406 160.737h-13.1299v1.826h13.1299z" fill="#fff"/><path d="m49.1406 168.307h-13.1299v1.826h13.1299z" fill="#fff"/><path d="m49.1406 175.87h-13.1299v1.826h13.1299z" fill="#fff"/><path d="m49.1406 183.441h-13.1299v1.826h13.1299z" fill="#fff"/><path d="m49.1406 191.011h-13.1299v1.826h13.1299z" fill="#fff"/><path d="m49.1406 198.574h-13.1299v1.826h13.1299z" fill="#fff"/><path d="m49.1406 206.144h-13.1299v1.826h13.1299z" fill="#fff"/><path d="m49.1406 213.715h-13.1299v1.826h13.1299z" fill="#fff"/><path d="m49.1406 221.278h-13.1299v1.826h13.1299z" fill="#fff"/><path d="m49.1406 228.848h-13.1299v1.826h13.1299z" fill="#fff"/><path d="m264.622 151.525h-14.564v17.204h14.564z" fill="#dbdbdb"/><path d="m273.856 151.525h-9.234v17.839h9.234z" fill="#c7c7c7"/><path d="m274.469 159.118h-9.167v10.239h9.167z" fill="#dbdbdb"/><path d="m280.184 159.118h-5.714v10.239h5.714z" fill="#c7c7c7"/><path d="m268.023 167.612h-23.554v85.596h23.554z" fill="#ebebeb"/><path d="m254.568 171.287h-7.408v3.023h7.408z" fill="#fff"/><path d="m264.045 171.287h-7.407v3.023h7.407z" fill="#fff"/><path d="m254.568 176.425h-7.408v3.023h7.408z" fill="#fff"/><path d="m264.045 176.425h-7.407v3.023h7.407z" fill="#fff"/><path d="m254.568 181.563h-7.408v3.023h7.408z" fill="#fff"/><path d="m264.045 181.563h-7.407v3.023h7.407z" fill="#fff"/><path d="m254.568 186.701h-7.408v3.024h7.408z" fill="#fff"/><path d="m264.045 186.701h-7.407v3.024h7.407z" fill="#fff"/><path d="m254.568 191.839h-7.408v3.024h7.408z" fill="#fff"/><path d="m264.045 191.839h-7.407v3.024h7.407z" fill="#fff"/><path d="m254.568 196.977h-7.408v3.024h7.408z" fill="#fff"/><path d="m264.045 196.977h-7.407v3.024h7.407z" fill="#fff"/><path d="m254.568 202.115h-7.408v3.024h7.408z" fill="#fff"/><path d="m264.045 202.115h-7.407v3.024h7.407z" fill="#fff"/><path d="m254.568 207.253h-7.408v3.024h7.408z" fill="#fff"/><path d="m264.045 207.253h-7.407v3.024h7.407z" fill="#fff"/><path d="m254.568 212.391h-7.408v3.024h7.408z" fill="#fff"/><path d="m264.045 212.391h-7.407v3.024h7.407z" fill="#fff"/><path d="m254.568 217.529h-7.408v3.024h7.408z" fill="#fff"/><path d="m264.045 217.529h-7.407v3.024h7.407z" fill="#fff"/><path d="m254.568 222.66h-7.408v3.024h7.408z" fill="#fff"/><path d="m264.045 222.66h-7.407v3.024h7.407z" fill="#fff"/><path d="m254.568 227.798h-7.408v3.024h7.408z" fill="#fff"/><path d="m264.045 227.798h-7.407v3.024h7.407z" fill="#fff"/><path d="m254.568 232.936h-7.408v3.024h7.408z" fill="#fff"/><path d="m264.045 232.936h-7.407v3.024h7.407z" fill="#fff"/><path d="m254.568 238.074h-7.408v3.024h7.408z" fill="#fff"/><path d="m264.045 238.074h-7.407v3.024h7.407z" fill="#fff"/><path d="m287.104 167.612h-19.081v85.596h19.081z" fill="#c7c7c7"/><path d="m279.112 241.105h6.077v-3.023h-6.077z" fill="#ebebeb"/><path d="m271.335 241.105h6.077v-3.023h-6.077z" fill="#ebebeb"/><path d="m279.112 235.967h6.077v-3.024h-6.077z" fill="#ebebeb"/><path d="m271.335 235.967h6.077v-3.024h-6.077z" fill="#ebebeb"/><path d="m279.112 230.829h6.077v-3.024h-6.077z" fill="#ebebeb"/><path d="m271.335 230.829h6.077v-3.024h-6.077z" fill="#ebebeb"/><path d="m279.112 225.691h6.077v-3.024h-6.077z" fill="#ebebeb"/><path d="m271.335 225.691h6.077v-3.024h-6.077z" fill="#ebebeb"/><path d="m279.112 220.546h6.077v-3.024h-6.077z" fill="#ebebeb"/><path d="m271.335 220.546h6.077v-3.024h-6.077z" fill="#ebebeb"/><path d="m279.112 215.415h6.077v-3.024h-6.077z" fill="#ebebeb"/><path d="m271.335 215.415h6.077v-3.024h-6.077z" fill="#ebebeb"/><path d="m279.112 210.277h6.077v-3.024h-6.077z" fill="#ebebeb"/><path d="m271.335 210.277h6.077v-3.024h-6.077z" fill="#ebebeb"/><path d="m279.112 205.139h6.077v-3.024h-6.077z" fill="#ebebeb"/><path d="m271.335 205.139h6.077v-3.024h-6.077z" fill="#ebebeb"/><path d="m279.112 200.001h6.077v-3.024h-6.077z" fill="#ebebeb"/><path d="m271.335 200.001h6.077v-3.024h-6.077z" fill="#ebebeb"/><path d="m279.112 194.863h6.077v-3.024h-6.077z" fill="#ebebeb"/><path d="m271.335 194.863h6.077v-3.024h-6.077z" fill="#ebebeb"/><path d="m279.112 189.725h6.077v-3.024h-6.077z" fill="#ebebeb"/><path d="m271.335 189.725h6.077v-3.024h-6.077z" fill="#ebebeb"/><path d="m279.112 184.594h6.077v-3.024h-6.077z" fill="#ebebeb"/><path d="m271.335 184.594h6.077v-3.024h-6.077z" fill="#ebebeb"/><path d="m279.112 179.456h6.077v-3.024h-6.077z" fill="#ebebeb"/><path d="m271.335 179.456h6.077v-3.024h-6.077z" fill="#ebebeb"/><path d="m279.112 174.318h6.077v-3.024h-6.077z" fill="#ebebeb"/><path d="m271.335 174.318h6.077v-3.024h-6.077z" fill="#ebebeb"/><path d="m107.161 151.525h-14.5643v17.204h14.5643z" fill="#dbdbdb"/><path d="m116.394 151.525h-9.233v17.839h9.233z" fill="#c7c7c7"/><path d="m117.015 159.118h-9.167v10.239h9.167z" fill="#dbdbdb"/><path d="m122.723 159.118h-5.715v10.239h5.715z" fill="#c7c7c7"/><path d="m110.561 167.612h-23.5537v85.596h23.5537z" fill="#ebebeb"/><path d="m97.1059 171.287h-7.4077v3.023h7.4077z" fill="#fff"/><path d="m106.583 171.287h-7.4072v3.023h7.4072z" fill="#fff"/><path d="m97.1059 176.425h-7.4077v3.023h7.4077z" fill="#fff"/><path d="m106.583 176.425h-7.4072v3.023h7.4072z" fill="#fff"/><path d="m97.1059 181.563h-7.4077v3.023h7.4077z" fill="#fff"/><path d="m106.583 181.563h-7.4072v3.023h7.4072z" fill="#fff"/><path d="m97.1059 186.701h-7.4077v3.024h7.4077z" fill="#fff"/><path d="m106.583 186.701h-7.4072v3.024h7.4072z" fill="#fff"/><path d="m97.1059 191.839h-7.4077v3.024h7.4077z" fill="#fff"/><path d="m106.583 191.839h-7.4072v3.024h7.4072z" fill="#fff"/><path d="m97.1059 196.977h-7.4077v3.024h7.4077z" fill="#fff"/><path d="m106.583 196.977h-7.4072v3.024h7.4072z" fill="#fff"/><path d="m97.1059 202.115h-7.4077v3.024h7.4077z" fill="#fff"/><path d="m106.583 202.115h-7.4072v3.024h7.4072z" fill="#fff"/><path d="m97.1059 207.253h-7.4077v3.024h7.4077z" fill="#fff"/><path d="m106.583 207.253h-7.4072v3.024h7.4072z" fill="#fff"/><path d="m97.1059 212.391h-7.4077v3.024h7.4077z" fill="#fff"/><path d="m106.583 212.391h-7.4072v3.024h7.4072z" fill="#fff"/><path d="m97.1059 217.529h-7.4077v3.024h7.4077z" fill="#fff"/><path d="m106.583 217.529h-7.4072v3.024h7.4072z" fill="#fff"/><path d="m97.1059 222.66h-7.4077v3.024h7.4077z" fill="#fff"/><path d="m106.583 222.66h-7.4072v3.024h7.4072z" fill="#fff"/><path d="m97.1059 227.798h-7.4077v3.024h7.4077z" fill="#fff"/><path d="m106.583 227.798h-7.4072v3.024h7.4072z" fill="#fff"/><path d="m97.1059 232.936h-7.4077v3.024h7.4077z" fill="#fff"/><path d="m106.583 232.936h-7.4072v3.024h7.4072z" fill="#fff"/><path d="m97.1059 238.074h-7.4077v3.024h7.4077z" fill="#fff"/><path d="m106.583 238.074h-7.4072v3.024h7.4072z" fill="#fff"/><path d="m129.642 167.612h-19.081v85.596h19.081z" fill="#c7c7c7"/><path d="m121.651 241.105h6.077v-3.023h-6.077z" fill="#ebebeb"/><path d="m113.873 241.105h6.077v-3.023h-6.077z" fill="#ebebeb"/><path d="m121.651 235.967h6.077v-3.024h-6.077z" fill="#ebebeb"/><path d="m113.873 235.967h6.077v-3.024h-6.077z" fill="#ebebeb"/><path d="m121.651 230.829h6.077v-3.024h-6.077z" fill="#ebebeb"/><path d="m113.873 230.829h6.077v-3.024h-6.077z" fill="#ebebeb"/><path d="m121.651 225.691h6.077v-3.024h-6.077z" fill="#ebebeb"/><path d="m113.873 225.691h6.077v-3.024h-6.077z" fill="#ebebeb"/><path d="m121.651 220.546h6.077v-3.024h-6.077z" fill="#ebebeb"/><path d="m113.873 220.546h6.077v-3.024h-6.077z" fill="#ebebeb"/><path d="m121.651 215.415h6.077v-3.024h-6.077z" fill="#ebebeb"/><path d="m113.873 215.415h6.077v-3.024h-6.077z" fill="#ebebeb"/><path d="m121.651 210.277h6.077v-3.024h-6.077z" fill="#ebebeb"/><path d="m113.873 210.277h6.077v-3.024h-6.077z" fill="#ebebeb"/><path d="m121.651 205.139h6.077v-3.024h-6.077z" fill="#ebebeb"/><path d="m113.873 205.139h6.077v-3.024h-6.077z" fill="#ebebeb"/><path d="m121.651 200.001h6.077v-3.024h-6.077z" fill="#ebebeb"/><path d="m113.873 200.001h6.077v-3.024h-6.077z" fill="#ebebeb"/><path d="m121.651 194.863h6.077v-3.024h-6.077z" fill="#ebebeb"/><path d="m113.873 194.863h6.077v-3.024h-6.077z" fill="#ebebeb"/><path d="m121.651 189.725h6.077v-3.024h-6.077z" fill="#ebebeb"/><path d="m113.873 189.725h6.077v-3.024h-6.077z" fill="#ebebeb"/><path d="m121.651 184.594h6.077v-3.024h-6.077z" fill="#ebebeb"/><path d="m113.873 184.594h6.077v-3.024h-6.077z" fill="#ebebeb"/><path d="m121.651 179.456h6.077v-3.024h-6.077z" fill="#ebebeb"/><path d="m113.873 179.456h6.077v-3.024h-6.077z" fill="#ebebeb"/><path d="m121.651 174.318h6.077v-3.024h-6.077z" fill="#ebebeb"/><path d="m113.873 174.318h6.077v-3.024h-6.077z" fill="#ebebeb"/><path d="m220.397 197.428h-27.775v55.772h27.775z" fill="#37474f"/><path d="m201.907 202.256h-4.916v3.415h4.916z" fill="#455a64"/><path d="m201.907 209.552h-4.916v3.416h4.916z" fill="#455a64"/><path d="m201.907 216.849h-4.916v3.416h4.916z" fill="#455a64"/><path d="m201.907 224.153h-4.916v3.416h4.916z" fill="#455a64"/><path d="m201.907 231.45h-4.916v3.416h4.916z" fill="#455a64"/><path d="m201.907 238.747h-4.916v3.416h4.916z" fill="#455a64"/><path d="m201.907 246.044h-4.916v3.415h4.916z" fill="#455a64"/><path d="m208.975 202.256h-4.916v3.415h4.916z" fill="#455a64"/><path d="m208.975 209.552h-4.916v3.416h4.916z" fill="#455a64"/><path d="m208.975 216.849h-4.916v3.416h4.916z" fill="#455a64"/><path d="m208.975 224.153h-4.916v3.416h4.916z" fill="#455a64"/><path d="m208.975 231.45h-4.916v3.416h4.916z" fill="#455a64"/><path d="m208.975 238.747h-4.916v3.416h4.916z" fill="#455a64"/><path d="m208.975 246.044h-4.916v3.415h4.916z" fill="#455a64"/><path d="m216.035 202.256h-4.916v3.415h4.916z" fill="#455a64"/><path d="m216.035 209.552h-4.916v3.416h4.916z" fill="#455a64"/><path d="m216.035 216.849h-4.916v3.416h4.916z" fill="#455a64"/><path d="m216.035 224.153h-4.916v3.416h4.916z" fill="#455a64"/><path d="m216.035 231.45h-4.916v3.416h4.916z" fill="#455a64"/><path d="m216.035 238.747h-4.916v3.416h4.916z" fill="#455a64"/><path d="m216.035 246.044h-4.916v3.415h4.916z" fill="#455a64"/><path d="m220.404 191.617h-18.497v5.811h18.497z" fill="#455a64"/><path d="m220.397 188.017h-11.725v3.6h11.725z" fill="#37474f"/><path d="m239.885 197.428h-19.488v55.772h19.488z" fill="#263238"/><path d="m233.89 248.912h3.999v-3.415h-3.999z" fill="#37474f"/><path d="m233.89 241.623h3.999v-3.416h-3.999z" fill="#37474f"/><path d="m233.89 234.326h3.999v-3.416h-3.999z" fill="#37474f"/><path d="m233.89 227.022h3.999v-3.416h-3.999z" fill="#37474f"/><path d="m233.89 219.725h3.999v-3.416h-3.999z" fill="#37474f"/><path d="m233.89 212.421h3.999v-3.416h-3.999z" fill="#37474f"/><path d="m233.89 205.131h3.999v-3.415h-3.999z" fill="#37474f"/><path d="m228.138 248.912h3.999v-3.415h-3.999z" fill="#37474f"/><path d="m228.138 241.623h3.999v-3.416h-3.999z" fill="#37474f"/><path d="m228.138 234.326h3.999v-3.416h-3.999z" fill="#37474f"/><path d="m228.138 227.022h3.999v-3.416h-3.999z" fill="#37474f"/><path d="m228.138 219.725h3.999v-3.416h-3.999z" fill="#37474f"/><path d="m228.138 212.421h3.999v-3.416h-3.999z" fill="#37474f"/><path d="m228.138 205.131h3.999v-3.415h-3.999z" fill="#37474f"/><path d="m222.401 248.912h3.999v-3.415h-3.999z" fill="#37474f"/><path d="m222.401 241.623h3.999v-3.416h-3.999z" fill="#37474f"/><path d="m222.401 234.326h3.999v-3.416h-3.999z" fill="#37474f"/><path d="m222.401 227.022h3.999v-3.416h-3.999z" fill="#37474f"/><path d="m222.401 219.725h3.999v-3.416h-3.999z" fill="#37474f"/><path d="m222.401 212.421h3.999v-3.416h-3.999z" fill="#37474f"/><path d="m222.401 205.131h3.999v-3.415h-3.999z" fill="#37474f"/><path d="m236.935 191.617h-16.538v5.811h16.538z" fill="#37474f"/><path d="m229.357 188.017h-8.96v3.6h8.96z" fill="#263238"/><path d="m1.39014 256.63 36.80196-.177 36.8019-.067 73.604-.125 73.604.125 36.802.067 36.802.177-36.802.185-36.802.067-73.604.118-73.604-.118-36.8019-.067z" fill="#263238"/><path d="m295.939 253.2h-294.68216v3.43h294.68216z" fill="#c7c7c7"/><path d="m9.78074 253.2c.19709 1.135.19709 2.295 0 3.43-.207-1.134-.207-2.296 0-3.43z" fill="#263238"/><path d="m19.6947 253.2c.1971 1.135.1971 2.295 0 3.43-.1971-1.135-.1971-2.295 0-3.43z" fill="#263238"/><path d="m29.6083 253.2c.197 1.135.197 2.295 0 3.43-.1971-1.135-.1971-2.295 0-3.43z" fill="#263238"/><path d="m39.5223 253.2c.1971 1.135.1971 2.295 0 3.43-.1971-1.135-.1971-2.295 0-3.43z" fill="#263238"/><path d="m49.4438 253.2c.1971 1.135.1971 2.295 0 3.43-.207-1.134-.207-2.296 0-3.43z" fill="#263238"/><path d="m59.3573 253.2c.1971 1.135.1971 2.295 0 3.43-.1971-1.135-.1971-2.295 0-3.43z" fill="#263238"/><path d="m69.2713 253.2c.1971 1.135.1971 2.295 0 3.43-.197-1.135-.197-2.295 0-3.43z" fill="#263238"/><path d="m79.1854 253.2c.1971 1.135.1971 2.295 0 3.43-.1971-1.135-.1971-2.295 0-3.43z" fill="#263238"/><path d="m89.1064 253.2c.1971 1.135.1971 2.295 0 3.43-.207-1.134-.207-2.296 0-3.43z" fill="#263238"/><path d="m99.0209 253.2c.197 1.135.197 2.295 0 3.43-.1971-1.135-.1971-2.295 0-3.43z" fill="#263238"/><path d="m108.935 253.2c.197 1.135.197 2.295 0 3.43-.197-1.135-.197-2.295 0-3.43z" fill="#263238"/><path d="m118.848 253.2c.198 1.135.198 2.295 0 3.43-.197-1.135-.197-2.295 0-3.43z" fill="#263238"/><path d="m128.77 253.2c.197 1.135.197 2.295 0 3.43-.207-1.134-.207-2.296 0-3.43z" fill="#263238"/><path d="m138.684 253.2c.197 1.135.197 2.295 0 3.43-.197-1.135-.197-2.295 0-3.43z" fill="#263238"/><path d="m148.598 253.2c.197 1.135.197 2.295 0 3.43-.198-1.135-.198-2.295 0-3.43z" fill="#263238"/><path d="m158.512 253.2c.197 1.135.197 2.295 0 3.43-.198-1.135-.198-2.295 0-3.43z" fill="#263238"/><path d="m168.433 253.2c.197 1.135.197 2.295 0 3.43-.207-1.134-.207-2.296 0-3.43z" fill="#263238"/><path d="m178.347 253.2c.197 1.135.197 2.295 0 3.43-.198-1.135-.198-2.295 0-3.43z" fill="#263238"/><path d="m188.261 253.2c.197 1.135.197 2.295 0 3.43-.197-1.135-.197-2.295 0-3.43z" fill="#263238"/><path d="m198.175 253.2c.197 1.135.197 2.295 0 3.43-.197-1.135-.197-2.295 0-3.43z" fill="#263238"/><path d="m208.088 253.2c.207 1.134.207 2.296 0 3.43-.197-1.135-.197-2.295 0-3.43z" fill="#263238"/><path d="m218.01 253.2c.197 1.135.197 2.295 0 3.43-.197-1.135-.197-2.295 0-3.43z" fill="#263238"/><path d="m227.923 253.2c.197 1.135.197 2.295 0 3.43-.197-1.135-.197-2.295 0-3.43z" fill="#263238"/><path d="m237.837 253.2c.197 1.135.197 2.295 0 3.43-.197-1.135-.197-2.295 0-3.43z" fill="#263238"/><path d="m247.751 253.2c.207 1.134.207 2.296 0 3.43-.197-1.135-.197-2.295 0-3.43z" fill="#263238"/><path d="m257.673 253.2c.197 1.135.197 2.295 0 3.43-.197-1.135-.197-2.295 0-3.43z" fill="#263238"/><path d="m267.623 253.2c.197 1.135.197 2.295 0 3.43-.108-.565-.158-1.14-.148-1.715-.006-.575.044-1.149.148-1.715z" fill="#263238"/><path d="m277.501 253.2c.197 1.135.197 2.295 0 3.43-.197-1.135-.197-2.295 0-3.43z" fill="#263238"/><path d="m287.414 253.2c.207 1.134.207 2.296 0 3.43-.197-1.135-.197-2.295 0-3.43z" fill="#263238"/><path d="m32.1228 253.2h-16.2644s0-2.417 1.6338-3.061c.4352-.182.9171-.221 1.3758-.11.4586.11.8702.364 1.1748.724 0 0 .6506-4.436 3.6299-4.436 2.9794 0 4.421 3.822 4.421 3.822.2525-.366.6068-.652 1.0193-.82.4124-.168.865-.212 1.3021-.126 1.6412.222 1.7077 4.007 1.7077 4.007z" fill="#37474f"/><path d="m293.396 253.2s-.495-2.321-1.479-2.684c-.304-.08-.627-.055-.916.069-.29.125-.529.343-.681.619 0 0-.236-2.218-1.648-2.883-1.412-.666-2.469.695-2.469.695s-1.08-2.817-3.017-2.817-2.913 4.118-2.913 4.118-1.138-1.227-2.306-.532c-1.168.694-1.168 3.415-1.168 3.415z" fill="#37474f"/><path d="m141.641 253.2s-.495-2.321-1.478-2.684c-.306-.08-.63-.056-.921.068-.29.125-.531.343-.684.62 0 0-.229-2.218-1.641-2.883-1.412-.666-2.469.695-2.469.695s-1.087-2.817-3.017-2.817c-1.929 0-2.912 4.118-2.912 4.118s-1.139-1.227-2.307-.532c-1.168.694-1.175 3.415-1.175 3.415z" fill="#37474f"/><path d="m18.7857 253.2h-14.98541s.49533-2.114 1.47859-2.262c.30161-.03.60521.033.86968.181s.47704.374.6089.647c0 0-.04436-2.957 1.81127-3.445 1.85557-.488 3.40817 2.099 3.40817 2.099.3314-.416.7487-.755 1.2233-.995s.9954-.374 1.5268-.395c1.5895.097 1.9887 2.551 1.9887 2.551s1.4343-.85 2.07 1.619z" fill="#455a64"/><path d="m128.253 253.2h-14.986s.495-2.114 1.479-2.262c.301-.03.605.033.869.181.265.148.477.374.609.647 0 0-.044-2.957 1.812-3.445 1.855-.488 3.415 2.099 3.415 2.099.331-.416.749-.755 1.223-.995.475-.24.996-.374 1.527-.395 1.582.097 1.989 2.551 1.989 2.551s1.427-.85 2.063 1.619z" fill="#455a64"/><path d="m277.856 253.2h-9.212s0-1.368.932-1.73c.244-.108.517-.133.777-.072.261.062.494.206.664.412 0 0 .37-2.513 2.055-2.513 1.686 0 2.492 2.173 2.492 2.173.143-.208.344-.37.578-.465.233-.096.49-.122.738-.075.939.126.976 2.27.976 2.27z" fill="#455a64"/><path d="m165.21 253.2h-9.219s0-1.368.924-1.73c.249-.116.53-.145.798-.084.268.062.507.211.681.424 0 0 .37-2.513 2.055-2.513 1.686 0 2.492 2.173 2.492 2.173.143-.208.344-.37.577-.465.234-.096.49-.122.738-.075.917.126.954 2.27.954 2.27z" fill="#455a64"/><path d="m146 276.278c25.636 0 46.418-2.173 46.418-4.854s-20.782-4.855-46.418-4.855c-25.637 0-46.4189 2.174-46.4189 4.855s20.7819 4.854 46.4189 4.854z" fill="#eb696f"/><path d="m146.419 276.278c25.636 0 46.418-2.173 46.418-4.854s-20.782-4.855-46.418-4.855c-25.637 0-46.419 2.174-46.419 4.855s20.782 4.854 46.419 4.854z" fill="#fff" opacity=".7"/><path d="m150.43 157c-9.705 0-19.013 3.855-25.875 10.718-6.863 6.862-10.718 16.17-10.718 25.875 0 18.254 33.756 61.272 33.756 61.272h2.837s36.593-41.063 36.593-61.272c0-9.705-3.855-19.013-10.718-25.875-6.862-6.863-16.17-10.718-25.875-10.718zm0 54.464c-3.535 0-6.99-1.048-9.929-3.012-2.938-1.963-5.229-4.754-6.582-8.02-1.352-3.265-1.706-6.859-1.017-10.325.69-3.467 2.392-6.651 4.891-9.151 2.5-2.499 5.684-4.201 9.151-4.891 3.466-.689 7.059-.335 10.325 1.017 3.265 1.353 6.057 3.644 8.02 6.582 1.964 2.939 3.012 6.395 3.012 9.929 0 2.347-.462 4.671-1.36 6.839s-2.215 4.138-3.874 5.798c-1.66 1.659-3.63 2.976-5.798 3.874s-4.492 1.36-6.839 1.36z" fill="#2e353a" stroke="#2e353a" stroke-linecap="round" stroke-linejoin="round" stroke-width=".134471"/><path d="m147.593 157c-9.705 0-19.013 3.855-25.875 10.718-6.863 6.862-10.718 16.17-10.718 25.875 0 20.209 36.593 61.272 36.593 61.272s36.593-41.063 36.593-61.272c0-9.705-3.855-19.013-10.718-25.875-6.862-6.863-16.17-10.718-25.875-10.718zm0 54.464c-3.534 0-6.99-1.048-9.929-3.012-2.938-1.963-5.229-4.754-6.582-8.02-1.352-3.265-1.706-6.859-1.017-10.325.69-3.467 2.392-6.651 4.891-9.151 2.5-2.499 5.684-4.201 9.151-4.891 3.466-.689 7.06-.335 10.325 1.017 3.266 1.353 6.057 3.644 8.02 6.582 1.964 2.939 3.012 6.395 3.012 9.929 0 4.74-1.883 9.285-5.234 12.637-3.352 3.351-7.897 5.234-12.637 5.234z" fill="#eb696f" stroke="#2e353a" stroke-linecap="round" stroke-linejoin="round" stroke-width=".134471"/></svg>