<svg fill="none" height="221" viewBox="0 0 251 221" width="251" xmlns="http://www.w3.org/2000/svg"><path d="m214.054 97.1148c-49.049-28.3171-128.3082-28.3171-177.0395 0-48.7312 28.3172-48.474 74.2302.5473 102.5472s128.3132 28.322 177.0452 0c48.731-28.323 48.501-74.23-.553-102.5472z" fill="#f5f5f5"/><path d="m38.9849 189.843 27.31-15.767c.1842-.107.3371-.259.4435-.443.1063-.184.1623-.393.1623-.606 0-.212-.056-.421-.1623-.605-.1064-.184-.2593-.337-.4435-.443l-24.081-13.988c-.1835-.108-.3922-.164-.6047-.164-.2126 0-.4213.056-.6048.164l-27.923 16.117c-.1842.106-.3371.259-.4435.443-.1063.184-.1623.393-.1623.605 0 .213.056.422.1623.606.1064.184.2593.336.4435.443l23.4625 13.633c.3701.216.791.331 1.2198.332s.8502-.112 1.2212-.327z" fill="#e6e6e6"/><path d="m232.158 166.594c1.303.755 1.308 1.976 0 2.737l-5.325 3.07c-.729.372-1.537.566-2.356.566s-1.627-.194-2.356-.566l-58.429-33.763c-1.308-.75-1.314-1.976 0-2.736l5.325-3.076c.729-.372 1.537-.567 2.356-.567s1.626.195 2.356.567z" fill="#e6e6e6"/><path d="m215.761 171.421c1.308.756 1.314 1.976 0 2.737l-5.325 3.076c-.729.372-1.537.566-2.356.566s-1.626-.194-2.356-.566l-49.913-28.832c-1.303-.75-1.314-1.976 0-2.736l5.325-3.076c.729-.373 1.537-.567 2.356-.567s1.626.194 2.356.567z" fill="#e6e6e6"/><path d="m46.3843 16.531.0383 14.5745 1.7678 1.0289-.0493-16.6214z" fill="#f0f0f0"/><path d="m27.355 42.1171.0055 2.0414 20.83-12.0241-1.7677-1.0289z" fill="#f5f5f5"/><path d="m50.2977 11.8352-25.1263 14.4924.0602 21.5032 25.099-14.4924zm-22.9371 32.3233v-2.0415l-.0493-14.5744 19.0733-11.0116 1.7568-.9906.0493 16.6213z" fill="#e0e0e0"/><path d="m50.271 11.8352-1.7677-1.0289-25.099 14.4924 1.7678 1.0234z" fill="#f5f5f5"/><path d="m23.4033 25.2986.0602 21.5197 1.7678 1.0289-.0602-21.5251z" fill="#f0f0f0"/><path d="m46.3677 49.2429.0438 14.5745 1.7677 1.0235-.0492-16.6159z" fill="#f0f0f0"/><path d="m27.3442 74.8235.0055 2.0469 20.8301-12.0296-1.7678-1.0234z" fill="#f5f5f5"/><path d="m50.2591 44.5471-25.0989 14.4869.0602 21.5197 25.0771-14.4924zm-22.9098 32.3233v-2.0469l-.0383-14.5745 19.0678-11.0061 1.7623-1.018.0493 16.6159z" fill="#e0e0e0"/><path d="m50.2593 44.5417-1.7677-1.0235-25.099 14.4869 1.7677 1.029z" fill="#f5f5f5"/><path d="m23.3926 58.0052.0602 21.5196 1.7677 1.0289-.0602-21.5196z" fill="#f0f0f0"/><path d="m40.3258 22.0641 5.1993 4.0993.011 3.9953-17.3001 9.9881-.0109-4.0007 3.3002-6.5457 2.9609 2.2987-1.0508 3.2509 1.5214-2.8897z" fill="#e0e0e0"/><path d="m34.6396 24.0837c.8155-.4707 1.4777-.0931 1.4832.8428-.0278.5101-.1756 1.0065-.4314 1.4487-.2559.4423-.6125.8179-1.0408 1.0962-.8155.4707-1.4777.0931-1.4777-.8428.0267-.5097.1735-1.006.4284-1.4482.2549-.4423.6106-.8181 1.0383-1.0967z" fill="#e0e0e0"/><path d="m40.3096 54.776 5.1993 4.0938.0164 4.0007-17.3 9.9882-.0109-4.0008 3.2947-6.5511 2.9608 2.2987-1.0453 3.2509 1.516-2.8842z" fill="#e0e0e0"/><path d="m34.6284 56.7901c.8154-.4707 1.4777-.0931 1.4777.8428-.0254.5101-.1717 1.0068-.4267 1.4492-.255.4425-.6115.818-1.0401 1.0957-.8155.4707-1.4777.0931-1.4777-.8428.0254-.5101.1717-1.0068.4267-1.4492.255-.4425.6115-.818 1.0401-1.0957z" fill="#e0e0e0"/><path d="m242.892 34.4367c-.47-.9693-1.221-1.7743-2.156-2.3096l-56.185-31.962096c-.259-.0992685-.533-.1547571-.81-.16419045-2.89-.05472955-5.796 2.66532645-6.207 4.09924645-.093.18118-.142.38189-.142.5856v121.47234c0 .949.251 1.88.728 2.7s1.162 1.499 1.987 1.968l56.185 32.017c.069.034.141.063.214.088 3.354 1.423 6.923-1.533 6.923-4.63v-121.5c.004-.8187-.18-1.6275-.537-2.3643z" fill="#263238"/><path d="m177.541 4.10634c.41-1.43391 3.316-4.1539694 6.206-4.09923983.277.00943333.551.06491773.81.16418583l56.191 31.956614c.822.4742 1.506 1.1539 1.986 1.9723.479.8185.738 1.7475.75 2.6961v121.4997c0 3.098-3.568 6.053-6.923 4.63-.073-.024-.144-.054-.213-.087l-56.24-32.012c-.824-.469-1.508-1.149-1.984-1.969s-.726-1.751-.726-2.699v-121.46705c.001-.20372.05-.40443.143-.58561z" fill="#455a64"/><path d="m235.613 49.6405c-.001-.4744-.127-.9401-.366-1.3503-.238-.4102-.58-.7505-.991-.9867l-52.168-29.6744c-.204-.1158-.435-.1761-.67-.1749-.234.0012-.464.064-.667.182-.203.1179-.371.287-.488.4904-.117.2033-.178.4337-.179.6683v97.9931c.001.474.127.939.365 1.349.239.409.581.748.993.983l52.19 29.729c.205.115.436.175.671.174.235-.002.466-.065.669-.183.203-.119.372-.288.489-.492.118-.204.179-.435.179-.67z" fill="#eb696f"/><path d="m235.613 49.6405c-.001-.4744-.127-.9401-.366-1.3503-.238-.4102-.58-.7505-.991-.9867l-52.168-29.6744c-.204-.1158-.435-.1761-.67-.1749-.234.0012-.464.064-.667.182-.203.1179-.371.287-.488.4904-.117.2033-.178.4337-.179.6683v97.9931c.001.474.127.939.365 1.349.239.409.581.748.993.983l52.19 29.729c.205.115.436.175.671.174.235-.002.466-.065.669-.183.203-.119.372-.288.489-.492.118-.204.179-.435.179-.67z" fill="#000" opacity=".2"/><path d="m243.451 36.7955v121.4995c0 3.098-3.569 6.053-6.924 4.63.202.073.418.096.631.068s.415-.107.591-.23.32-.286.42-.476c.099-.19.152-.401.153-.615v-121.4997c-.003-1.0568-.319-2.0888-.908-2.9664l5.5-2.7364c.352.7252.535 1.5202.537 2.326z" fill="#000" opacity=".3"/><path d="m183.74.0224896c.277.0094333.551.0649219.81.1641904l56.196 31.94022c.935.5353 1.687 1.3402 2.157 2.3096l-5.501 2.7364c-.461-.7018-1.079-1.2865-1.806-1.7075l-56.191-31.94569c-.159-.09003-.336-.14635-.518-.1655s-.367-.00071-.542.05417-.336.14504-.475.26491c-.139.11988-.251.26691-.331.43203.405-1.43939 3.311-4.1594518 6.201-4.0828304z" fill="#fff" opacity=".1"/><path d="m200.926 23.5892c-.395-.2299-.723-.0548-.723.3995.013.2497.085.4927.21.7095.124.2168.298.4012.507.5383l11.023 6.3596c.394.2299.711.0383.711-.416-.012-.2457-.082-.4851-.205-.6982-.123-.2132-.294-.3941-.501-.5277z" fill="#263238"/><path d="m214.778 31.5851c-.395-.2244-.717-.0437-.717.4105.014.2473.086.4879.209.7026.124.2147.295.3977.502.5343.394.2299.722.0383.722-.4105-.014-.2479-.086-.4889-.211-.7037-.124-.2148-.298-.3974-.505-.5332z" fill="#263238"/><path d="m207.723 22.6643c-.788-.4543-1.429-.0931-1.429.81.025.4956.166.9785.412 1.4093.247.4308.591.7974 1.006 1.0699.788.4543 1.439.0821 1.445-.8264-.029-.4942-.174-.9746-.424-1.4024-.249-.4278-.595-.791-1.01-1.0604z" fill="#263238"/><path d="m207.718 137.066c-1.604-.925-2.901-.192-2.906 1.641.05 1.008.338 1.99.839 2.866.501.875 1.202 1.621 2.045 2.175 1.609.925 2.939.17 2.944-1.68-.06-1.005-.356-1.981-.864-2.85s-1.213-1.606-2.058-2.152z" fill="#263238"/><path d="m227.065 54.0627c-.068-.5481-.227-1.0809-.471-1.5762-.107-.2165-.23-.425-.367-.624-.412-.6065-.957-1.1117-1.592-1.4777l-50.997-29.0066-.077-.0329c-.068-.0227-.137-.041-.208-.0547-.15-.0302-.301-.0485-.454-.0547-.829-.0056-1.648.1817-2.392.5473-.727.3585-1.396.8234-1.986 1.3792l-.312.3119c-.416.4094-.737.9043-.942 1.4503-.04.0804-.071.1648-.093.2518-.027.0906-.04.1847-.038.2791v110.2965c.002.86.231 1.705.664 2.448.432.744 1.052 1.36 1.799 1.788l50.997 29.062c.063.03.129.055.197.076 3.043 1.292 6.283-1.39 6.283-4.203v-110.2966c.007-.188.003-.3762-.011-.5637z" fill="#eb696f"/><path d="m167.256 24.9529c.372-1.2971 3.01-3.7709 5.632-3.7162.252.006.502.054.739.1423l50.997 29.0067c.847.4903 1.529 1.2219 1.959 2.1016.33.6653.502 1.3975.504 2.1399v110.3018c0 2.813-3.24 5.473-6.283 4.203-.068-.02-.134-.046-.197-.076l-51.008-29.078c-.748-.426-1.369-1.043-1.802-1.787-.432-.744-.66-1.589-.661-2.449v-110.2583c-.001-.1838.04-.3653.12-.5308z" fill="#eb696f"/><path d="m227.065 54.6263v110.3017c0 2.813-3.24 5.473-6.283 4.204.184.07.382.094.577.071.196-.024.383-.095.544-.207.162-.112.294-.262.385-.437.09-.175.137-.369.136-.566v-110.3182c-.003-.9589-.288-1.8957-.821-2.6927l4.991-2.4957c.318.668.479 1.4.471 2.1399z" fill="#fff" opacity=".2"/><path d="m172.881 21.2304c.253.006.503.0541.739.1423l50.997 29.0067c.848.4903 1.53 1.2219 1.96 2.1016l-4.986 2.5012c-.418-.6384-.98-1.1691-1.642-1.5489l-50.997-29.0066c-.146-.0819-.307-.1327-.473-.1494-.166-.0166-.334.0014-.492.0528-.159.0514-.306.1352-.431.246s-.225.2462-.295.3978c.361-1.3244 2.999-3.7982 5.62-3.7435z" fill="#fff" opacity=".4"/><path d="m167.256 24.9529c.372-1.2971 3.01-3.7709 5.632-3.7162.252.006.502.054.739.1423l50.997 29.0067c.847.4903 1.529 1.2219 1.959 2.1016.33.6653.502 1.3975.504 2.1399v110.3018c0 2.813-3.24 5.473-6.283 4.203-.068-.02-.134-.046-.197-.076l-51.008-29.078c-.748-.426-1.369-1.043-1.802-1.787-.432-.744-.66-1.589-.661-2.449v-110.2583c-.001-.1838.04-.3653.12-.5308z" fill="#fff" opacity=".3"/><path d="m172.27 31.4758.569.3338.011-2.4574-.575-.3283z" fill="#fff"/><path d="m171.29 30.9121.569.3283.006-1.9866-.569-.3284z" fill="#fff"/><path d="m170.305 30.3428.569.3284.005-1.4722-.569-.3284z" fill="#fff"/><path d="m169.326 29.7791.569.3284v-.9961l-.569-.3283z" fill="#fff"/><path d="m174.393 32.7072 3.497 2.0195.006-2.0633-3.497-2.0195z" fill="#fff"/><path d="m179.631 35.7282 1.746 1.007.005-2.0578-1.746-1.0071z" fill="#fff"/><path d="m215.714 56.301.005-1.6583 1.878 1.0836-1.878-1.0836z" fill="#fff"/><path d="m215.714 56.301 1.877 1.0836.006-1.6583-1.878-1.0836z" fill="#eb696f"/><path d="m218.921 56.7389v-.6458l-3.546-2.0469v2.4519l3.546 2.0469v-.6458l.454.2627v-1.1603zm-1.33.6458-1.877-1.0946v-1.6419l1.877 1.0946z" fill="#fff"/><path d="m210.296 53.395 3.497 2.014.006-2.0578-3.498-2.0195z" fill="#fff"/><path d="m193.609 43.6367 3.497 2.0195.006-2.0579-3.498-2.0195z" fill="#fff"/><path d="m213.097 63.2408-51.386-29.6689c-.147-.1026-.318-.1672-.496-.1882-.179-.021-.36.0023-.527.0678h-.027l-1.095.6239.673.6677-.038 14.673v.3448 3.9569c.028.5152.176 1.0165.434 1.4634s.617.8268 1.049 1.1089l49.382 28.5634 1.9 1.8718 1.061-.6075c.039-.0178.076-.0399.11-.0657h.049c.12-.1117.213-.2489.273-.4014.059-.1525.084-.3165.072-.4798v-3.6231-.6786l.044-15.0123c-.021-.5222-.165-1.032-.422-1.487s-.619-.8421-1.056-1.1291z" fill="#eb696f"/><path d="m213.097 63.2408-51.386-29.6689c-.147-.1026-.318-.1672-.496-.1882-.179-.021-.36.0023-.527.0678h-.027l-1.095.6239.673.6677-.038 14.673v.3448 3.9569c.028.5152.176 1.0165.434 1.4634s.617.8268 1.049 1.1089l49.382 28.5634 1.9 1.8718 1.061-.6075c.039-.0178.076-.0399.11-.0657h.049c.12-.1117.213-.2489.273-.4014.059-.1525.084-.3165.072-.4798v-3.6231-.6786l.044-15.0123c-.021-.5222-.165-1.032-.422-1.487s-.619-.8421-1.056-1.1291z" fill="#000" opacity=".2"/><path d="m211.997 63.8592c.432.2822.791.6621 1.049 1.109s.406.9482.434 1.4633l-.044 15.0069-54.363-31.382v.6842l54.363 31.3764v3.6176c0 .9469-.673 1.33-1.494.8538l-51.396-29.647c-.432-.2816-.79-.6606-1.048-1.1065s-.407-.9461-.436-1.4603l.055-19.3141c0-.9413.668-1.3244 1.494-.8538z" fill="#eb696f"/><path d="m213.437 81.4384v.6841l-54.363-31.3819v-.6841z" fill="#eb696f"/><path d="m213.437 81.4384v.6841l-54.363-31.3819v-.6841z" fill="#fff" opacity=".04"/><path d="m186.882 68.5113-.006 1.6747-26.089-15.067.005-1.6693z" fill="#fff" opacity=".36"/><path d="m170.468 41.9839c.259.1693.474.3973.628.6655.155.2682.243.569.259.8779v10.0374c0 .5473-.4.7935-.898.509l-8.729-5.0461c-.26-.1675-.476-.3943-.631-.6616-.155-.2674-.245-.5677-.261-.8763l.027-10.0374c0-.5473.405-.7991.898-.5145z" fill="#fff" opacity=".6"/><path d="m202.37 61.4676-.005 2.1946-27.644-15.9591.005-2.1947z" fill="#fff" opacity=".36"/><path d="m190.138 62.1188-.006 2.1947-15.433-8.91.005-2.1946z" fill="#fff" opacity=".36"/><path d="m202.359 65.3206-.006 2.1891-27.644-15.9591.006-2.1892z" fill="#fff" opacity=".36"/><path d="m211.379 65.6927-.832.7443.979 2.0305-.821-.4761-.591-1.2807-.541.6294-.827-.4817 1.002-.8811-.799-1.6857.81.4652.426.9414.373-.4762z" fill="#fff" opacity=".25"/><path d="m213.097 90.5783-51.386-29.6689c-.148-.1017-.319-.1654-.497-.1854-.179-.02-.359.0041-.526.0704h-.027l-1.095.6239.673.6677-.038 14.673v.3448 3.957c.028.5142.178 1.0144.435 1.4603.258.4459.617.8249 1.048 1.1065l49.421 28.5364 1.899 1.871 1.062-.613c.038-.015.075-.036.109-.06l.049-.027c.12-.112.213-.249.273-.402.06-.152.084-.316.072-.479v-3.623-.685l.044-15.0064c-.033-.5162-.188-1.0172-.451-1.4623-.264-.4451-.629-.8217-1.065-1.099z" fill="#eb696f"/><path d="m213.097 90.5783-51.386-29.6689c-.148-.1017-.319-.1654-.497-.1854-.179-.02-.359.0041-.526.0704h-.027l-1.095.6239.673.6677-.038 14.673v.3448 3.957c.028.5142.178 1.0144.435 1.4603.258.4459.617.8249 1.048 1.1065l49.421 28.5364 1.899 1.871 1.062-.613c.038-.015.075-.036.109-.06l.049-.027c.12-.112.213-.249.273-.402.06-.152.084-.316.072-.479v-3.623-.685l.044-15.0064c-.033-.5162-.188-1.0172-.451-1.4623-.264-.4451-.629-.8217-1.065-1.099z" fill="#000" opacity=".2"/><path d="m211.997 91.2022c.432.2821.791.662 1.049 1.1089s.407.9483.434 1.4634l-.043 15.0065-54.363-31.3816v.6786l54.363 31.404v3.617c0 .947-.674 1.33-1.494.854l-51.386-29.6686c-.431-.2816-.79-.6607-1.048-1.1065-.257-.4459-.407-.9462-.435-1.4603l.054-19.3141c0-.9468.668-1.3299 1.495-.8538z" fill="#eb696f"/><path d="m213.437 108.781v.684l-54.363-31.387v-.6786z" fill="#eb696f"/><path d="m213.437 108.781v.684l-54.363-31.387v-.6786z" fill="#fff" opacity=".04"/><path d="m170.468 69.3268c.259.1693.474.3973.628.6655.155.2682.243.5689.259.8778v10.032c0 .5473-.4.7935-.898.5144l-8.729-5.0461c-.26-.168-.477-.3956-.632-.664-.155-.2683-.244-.5698-.26-.8793l.027-10.032c0-.5472.405-.799.898-.5144z" fill="#fff" opacity=".6"/><path d="m202.37 88.8104-.005 2.1947-27.644-15.9646.005-2.1947z" fill="#fff" opacity=".36"/><path d="m211.379 93.0356-.832.7443.979 2.025-.821-.4707-.591-1.2807-.541.624-.827-.4762 1.002-.8811-.799-1.6857.81.4652.426.9413.373-.4761z" fill="#fff" opacity=".25"/><path d="m160.792 80.7926-.005 1.6692 15.165 8.7568v-1.6748z" fill="#fff" opacity=".6"/><path d="m174.715 76.6988-.006 2.1947 13.185 7.6074v-2.1947z" fill="#fff" opacity=".6"/><path d="m213.097 145.642-51.386-29.669c-.147-.103-.318-.167-.496-.188-.179-.021-.36.002-.527.067h-.027l-1.095.624.673.668-.038 14.673v.345 3.957c.028.515.176 1.016.434 1.463s.617.827 1.049 1.109l49.421 28.53 1.899 1.872 1.062-.607.109-.06.049-.033c.12-.112.213-.249.273-.402.06-.152.084-.316.072-.479v-3.618-.684l.044-15.013c-.034-.515-.189-1.015-.452-1.459-.264-.444-.628-.82-1.064-1.096z" fill="#eb696f"/><path d="m213.097 145.642-51.386-29.669c-.147-.103-.318-.167-.496-.188-.179-.021-.36.002-.527.067h-.027l-1.095.624.673.668-.038 14.673v.345 3.957c.028.515.176 1.016.434 1.463s.617.827 1.049 1.109l49.421 28.53 1.899 1.872 1.062-.607.109-.06.049-.033c.12-.112.213-.249.273-.402.06-.152.084-.316.072-.479v-3.618-.684l.044-15.013c-.034-.515-.189-1.015-.452-1.459-.264-.444-.628-.82-1.064-1.096z" fill="#000" opacity=".2"/><path d="m211.997 146.266c.431.281.79.66 1.048 1.106s.407.946.435 1.46l-.043 15.013-54.363-31.377v.684l54.363 31.382v3.623c0 .942-.674 1.325-1.494.854l-51.386-29.669c-.432-.282-.791-.662-1.049-1.109s-.406-.948-.434-1.463l.054-19.309c0-.946.668-1.33 1.495-.853z" fill="#eb696f"/><path d="m213.437 163.845v.678l-54.363-31.382v-.684z" fill="#eb696f"/><path d="m213.437 163.845v.678l-54.363-31.382v-.684z" fill="#fff" opacity=".04"/><path d="m170.468 124.385c.259.169.474.397.628.666.154.268.243.568.259.877v10.037c0 .548-.4.794-.898.509l-8.729-5.04c-.26-.169-.476-.397-.631-.665s-.245-.569-.261-.878l.005-10.011c0-.547.405-.793.898-.509z" fill="#fff" opacity=".6"/><path d="m202.37 143.868-.005 2.195-27.644-15.959.005-2.195z" fill="#fff" opacity=".36"/><path d="m211.379 148.099-.832.744.979 2.025-.821-.47-.591-1.281-.541.624-.827-.476 1.002-.887-.799-1.686.81.471.426.942.373-.482z" fill="#fff" opacity=".25"/><path d="m160.792 135.851-.005 1.674 15.165 8.752v-1.675z" fill="#fff" opacity=".6"/><path d="m174.715 131.762-.006 2.189 5.961 3.437v-2.194z" fill="#fff" opacity=".6"/><path d="m213.097 117.921-51.386-29.6688c-.147-.1044-.318-.1698-.497-.1899s-.36.0057-.526.075h-.027l-1.095.6293.673.6623-.038 14.6781v.345 3.957c.028.514.178 1.015.435 1.46.258.446.617.825 1.048 1.107l49.421 28.536 1.899 1.872 1.062-.613.109-.061.049-.027c.121-.112.214-.25.274-.404.06-.153.084-.318.071-.482v-3.618-.684l.044-15.007c-.032-.517-.187-1.019-.45-1.465-.264-.447-.629-.824-1.066-1.102z" fill="#eb696f"/><path d="m213.097 117.921-51.386-29.6688c-.147-.1044-.318-.1698-.497-.1899s-.36.0057-.526.075h-.027l-1.095.6293.673.6623-.038 14.6781v.345 3.957c.028.514.178 1.015.435 1.46.258.446.617.825 1.048 1.107l49.421 28.536 1.899 1.872 1.062-.613.109-.061.049-.027c.121-.112.214-.25.274-.404.06-.153.084-.318.071-.482v-3.618-.684l.044-15.007c-.032-.517-.187-1.019-.45-1.465-.264-.447-.629-.824-1.066-1.102z" fill="#000" opacity=".2"/><path d="m211.997 118.545c.431.282.79.661 1.048 1.107s.407.946.435 1.46l-.043 15.012-54.363-31.387v.684l54.363 31.387v3.618c0 .947-.674 1.324-1.494.854l-51.386-29.669c-.431-.282-.79-.661-1.048-1.107-.257-.446-.407-.946-.435-1.46l.054-19.314c0-.9468.668-1.3299 1.495-.8538z" fill="#eb696f"/><path d="m213.437 136.124v.684l-54.363-31.387v-.684z" fill="#eb696f"/><path d="m213.437 136.124v.684l-54.363-31.387v-.684z" fill="#fff" opacity=".04"/><path d="m180.194 119.393-.006 1.67-19.401-11.258.005-1.67z" fill="#fff" opacity=".36"/><path d="m170.468 96.6641c.259.1697.474.3978.628.6659s.243.5687.259.8775v10.0375c0 .547-.4.794-.898.509l-8.729-5.041c-.26-.168-.477-.395-.632-.664-.155-.268-.244-.569-.26-.879l.027-10.032c0-.5473.405-.799.898-.5144z" fill="#fff" opacity=".6"/><path d="m202.37 116.148-.005 2.194-27.644-15.959.005-2.194z" fill="#fff" opacity=".36"/><path d="m197.494 121.095-.006 2.195-22.789-13.201.005-2.194z" fill="#fff" opacity=".36"/><path d="m202.359 120.001-.006 2.194-27.644-15.959.006-2.194z" fill="#fff" opacity=".36"/><path d="m211.379 120.378-.832.745.979 2.025-.821-.471-.591-1.281-.541.624-.827-.476 1.002-.881-.799-1.686.81.466.426.941.373-.476z" fill="#fff" opacity=".25"/><path d="m147 126.448c.118.601.465 1.133.969 1.483h.044c.498.285.985.142 1.045-.323z" fill="#fff"/><path d="m102.744 33.0686h32.105c1.516 0 2.744 1.2287 2.744 2.7444v20.2181c0 1.5157-1.228 2.7444-2.744 2.7444h-32.105c-1.516 0-2.7444-1.2287-2.7444-2.7444v-20.2181c0-1.5157 1.2284-2.7444 2.7444-2.7444z" fill="#eb696f"/><path d="m138.471 32.7721c.064-.0003.126-.0258.171-.0711l.441-.4386c.046-.0461.072-.1087.072-.1739 0-.0653-.026-.1279-.072-.174-.046-.0462-.109-.0721-.174-.0721s-.128.0259-.174.0721l-.438.441c-.046.046-.072.1081-.072.1728s.026.1268.072.1727c.023.0228.05.0407.08.0529.029.0122.061.0184.094.0182z" fill="#eb696f"/><path d="m139.135 34.3109h.619c.065 0 .128-.0258.174-.0717.046-.046.072-.1083.072-.1733s-.026-.1273-.072-.1733c-.046-.0459-.109-.0717-.174-.0717h-.619c-.065 0-.128.0258-.174.0717-.046.046-.072.1083-.072.1733s.026.1273.072.1733c.046.0459.109.0717.174.0717z" fill="#eb696f"/><path d="m136.909 32.1105c.063.0001.122-.0233.168-.0656.045-.0423.073-.1003.077-.1623l.045-.6199c.002-.0322-.002-.0646-.012-.0952-.011-.0306-.027-.0589-.048-.0833s-.047-.0443-.076-.0587c-.029-.0143-.06-.0228-.092-.025-.065-.0041-.129.0176-.177.0603-.049.0427-.079.103-.083.1676l-.047.6199c-.002.0322.002.0645.012.0952.011.0306.027.0589.048.0833.021.0243.047.0443.076.0586.029.0144.06.0229.092.0251z" fill="#eb696f"/><path d="m116.054 56.1315-9.858 9.8554v-9.8554z" fill="#eb696f"/><path d="m113.352 51.8139.49-2.0803c.124-.5469.124-1.1145 0-1.6614l-.681-2.9625c-.279-1.2633-.128-2.5835.429-3.7513.556-1.1679 1.487-2.1165 2.644-2.6956-.022-.0545-.041-.1101-.057-.1666-.04-.1798-.044-.3656-.013-.5471.032-.1814.099-.3548.198-.5103.098-.1556.227-.2901.377-.3961.151-.1059.321-.1811.501-.2214.179-.0402.365-.0446.547-.013.181.0316.354.0986.51.1973.155.0986.29.2269.396.3776.106.1506.181.3207.221.5004.013.0573.02.1154.022.174 1.294.0303 2.54.4912 3.542 1.3096 1.001.8184 1.701 1.9476 1.989 3.2088l.664 2.965c.122.5459.365 1.0575.711 1.4972l1.32 1.6785c.13.1646.215.3593.249.5658.033.2066.014.4183-.056.6155-.07.1971-.189.3733-.346.5121-.157.1387-.346.2356-.55.2816l-11.639 2.6072c-.204.0439-.415.0359-.614-.0235-.2-.0594-.381-.1681-.528-.3161-.146-.1481-.253-.3307-.31-.5309s-.062-.4115-.016-.6145z" fill="#fff"/><path d="m122.141 52.456c.089-.0196.181-.017.268.0076.088.0245.167.0701.233.1329.065.0627.114.1407.142.2269.028.0861.035.1779.019.2672-.067.3937-.249.7587-.524 1.0483-.275.2897-.63.491-1.02.5782-.39.0873-.796.0565-1.169-.0883-.372-.1447-.693-.397-.921-.7247-.052-.0738-.085-.1594-.097-.2491-.011-.0897 0-.1808.032-.2653s.085-.1597.153-.2192c.068-.0594.15-.1011.238-.1215z" fill="#fff"/><path d="m131.08 48.332c.061.0005.121-.0143.174-.043.054-.0287.099-.0704.132-.1212 1.158-1.7339 1.579-3.8565 1.171-5.9009-.407-2.0445-1.61-3.8433-3.344-5.0008-.081-.0539-.181-.0734-.276-.0541-.096.0193-.18.0758-.234.157-.054.0813-.073.1806-.054.2762s.076.1796.157.2335c1.57 1.0513 2.658 2.6826 3.025 4.5355.368 1.853-.015 3.7761-1.065 5.3469-.054.0809-.074.18-.055.2756s.075.1797.156.234c.063.0416.137.063.213.0613z" fill="#fff"/><path d="m129.524 47.2881c.06-.0004.119-.0155.172-.0442.053-.0286.098-.0698.132-.12.881-1.3208 1.201-2.9373.891-4.4944-.31-1.557-1.226-2.9273-2.545-3.8099-.041-.0269-.086-.0455-.133-.055-.048-.0094-.096-.0094-.144.0001-.047.0094-.092.0281-.133.055-.04.0268-.074.0614-.101.1016s-.046.0854-.055.1328c-.01.0474-.01.0963 0 .1437.009.0475.028.0926.055.1328s.061.0747.101.1016c1.159.7731 1.963 1.9746 2.235 3.3403.273 1.3658-.008 2.7838-.781 3.9422-.055.081-.075.1801-.056.2757.019.0955.075.1797.156.234.061.0408.133.0629.206.0637z" fill="#fff"/><path d="m127.966 46.2467c.06.0003.119-.0143.172-.0425.054-.0282.099-.0692.132-.1192.3-.4495.509-.9539.614-1.4841.105-.5303.105-1.0761-.002-1.6061-.106-.5301-.315-1.0341-.616-1.4831s-.688-.8342-1.138-1.1336c-.081-.0503-.178-.0672-.271-.0471-.093.02-.175.0755-.228.1546s-.073.1757-.057.2695c.017.0937.07.1773.147.2331.369.2465.686.5632.933.9322.246.3689.418.7829.505 1.2182.086.4353.087.8834 0 1.3188-.086.4353-.258.8493-.504 1.2184-.054.0811-.074.18-.055.2754s.075.1795.155.2343c.063.0416.138.0629.213.0612z" fill="#fff"/><path d="m109.89 53.4998c.082-.0002.162-.0279.226-.0788.065-.0508.11-.1218.13-.2017.019-.0798.012-.1639-.022-.2388-.034-.0748-.092-.1362-.165-.1742-1.679-.8674-2.945-2.3659-3.519-4.1662-.574-1.8002-.411-3.7549.456-5.4343.026-.0431.043-.0912.05-.1413.007-.05.004-.1009-.01-.1496-.014-.0486-.037-.0939-.069-.1331-.032-.0391-.072-.0712-.117-.0944-.045-.0231-.094-.0367-.144-.04-.051-.0033-.101.0039-.149.021-.047.0172-.091.0439-.127.0786-.037.0347-.066.0766-.086.1231-.473.9177-.761 1.9196-.847 2.9486-.086 1.0289.032 2.0647.346 3.0482.315.9834.82 1.8953 1.487 2.6835s1.483 1.4373 2.4 1.9102c.05.0243.104.0377.16.0392z" fill="#fff"/><path d="m110.749 51.836c.082-.0002.162-.0279.227-.0788.064-.0508.11-.1218.129-.2017.02-.0798.012-.1639-.022-.2388-.034-.0748-.092-.1361-.165-.1741-.613-.3162-1.158-.7501-1.603-1.2769-.446-.5269-.783-1.1364-.992-1.7936-.21-.6573-.288-1.3494-.23-2.0368.058-.6875.251-1.3567.568-1.9694.045-.0868.054-.1878.024-.2809-.03-.093-.095-.1705-.182-.2153-.086-.0449-.187-.0534-.281-.0238-.093.0297-.17.0951-.215.1818-.361.6985-.581 1.4614-.647 2.245-.066.7835.023 1.5724.262 2.3216s.623 1.4439 1.13 2.0445c.508.6005 1.129 1.0952 1.828 1.4556.052.0277.11.0421.169.0416z" fill="#fff"/><path d="m111.609 50.1722c.082-.0013.161-.0298.225-.0809.064-.0512.109-.1221.129-.2017.019-.0796.011-.1633-.022-.2381s-.091-.1364-.163-.1752c-.394-.203-.745-.4819-1.031-.8206-.287-.3386-.504-.7305-.639-1.1532s-.185-.8678-.148-1.3099.161-.8726.365-1.2666c.045-.0868.054-.1878.024-.2809-.03-.093-.095-.1705-.182-.2153-.087-.0449-.188-.0534-.281-.0238-.093.0297-.17.095-.215.1818-.499.9705-.592 2.0991-.259 3.1383.332 1.0392 1.063 1.9039 2.033 2.4044.051.0263.107.0405.164.0417z" fill="#fff"/><path d="m88.5 166.975c25.129 0 45.5-3.842 45.5-8.582s-20.371-8.582-45.5-8.582-45.5 3.842-45.5 8.582 20.371 8.582 45.5 8.582z" fill="#eb696f"/><path d="m88.5 166.975c25.129 0 45.5-3.842 45.5-8.582s-20.371-8.582-45.5-8.582-45.5 3.842-45.5 8.582 20.371 8.582 45.5 8.582z" fill="#fff" opacity=".8"/><path d="m71.572 122.426h-2.802v13.537h2.802z" fill="#263238"/><path d="m71.572 122.426h-2.802v13.537h2.802z" fill="#fff" opacity=".4"/><path d="m71.572 122.426h-2.802v13.537h2.802z" stroke="#dedede" stroke-linecap="round" stroke-linejoin="round" stroke-width=".247378"/><path d="m68.288 62.8699s-20.6902 1.4521-21.6552 2.8067c-.9649 1.3546-.2922 4.3468.4639 6.8612.7562 2.5143 8.2205 48.3442 10.2477 50.3712 2.0273 2.027 5.7061 1.549 10.0576 1.549 4.3514 0 27.4632-.872 27.4632-.872s1.8557.385 4.5463-.58c2.6905-.965 6.1885-2.514 6.6715-3.962.482-1.447.097-3.966-.39-3.966s-29.384-2.125-29.384-2.125z" fill="#263238"/><path d="m68.288 62.8699s-20.6902 1.4521-21.6552 2.8067c-.9649 1.3546-.2922 4.3468.4639 6.8612.7562 2.5143 8.2205 48.3442 10.2477 50.3712 2.0273 2.027 5.7061 1.549 10.0576 1.549 4.3514 0 27.4632-.872 27.4632-.872s1.8557.385 4.5463-.58c2.6905-.965 6.1885-2.514 6.6715-3.962.482-1.447.097-3.966-.39-3.966s-29.384-2.125-29.384-2.125z" fill="#fff" opacity=".8"/><g stroke-linecap="round" stroke-linejoin="round"><path d="m68.288 62.8699s-20.6902 1.4521-21.6552 2.8067c-.9649 1.3546-.2922 4.3468.4639 6.8612.7562 2.5143 8.2205 48.3442 10.2477 50.3712 2.0273 2.027 5.7061 1.549 10.0575 1.549 4.3515 0 27.4633-.872 27.4633-.872s1.8557.385 4.5463-.58c2.6905-.965 6.1885-2.514 6.6715-3.962.482-1.447.097-3.966-.39-3.966s-29.384-2.125-29.384-2.125z" stroke="#263238" stroke-width=".247378"/><path d="m68.0003 121.072c-4.5463 0-7.8308.292-8.6055-1.856s-7.7333-39.5433-8.8931-44.9571c-1.1597-5.4138-1.3546-7.8308-2.7092-8.5081-.2379-.0937-.4987-.1123-.7475-.0534-.2488.0588-.4736.1924-.6442.3828-.6124 1.4845 0 4.1752.7051 6.439.7747 2.5144 8.2205 48.3438 10.2477 50.3708 2.0273 2.028 5.7061 1.55 10.0575 1.55 4.3515 0 27.4541-.854 27.4541-.854 1.1999.164 2.4212.07 3.5813-.278.4345-.416.7317-.955.8519-1.544.1202-.59.0577-1.202-.1792-1.755-.5706-1.544-26.5773 1.063-31.1189 1.063z" fill="#a6a6a6" stroke="#263238" stroke-width=".247378"/><path d="m93.1953 48.8089c-1.5077-4.9267-5.8313-10.7069-11.5327-10.8044-4.9175-.0788-7.4226.8072-9.9137 7.5803-2.4912 6.773-11.0503 21.6366-11.0503 21.6366s.2783.0464.7562.1113c-.5753.6634-.9 1.0485-.9 1.0485s-2.8994 5.8035-5.3674 10.8786-1.016 12.6136 2.6118 17.2573c3.6277 4.6439 6.8148 3.6229 10.2941-.7283 3.4793-4.3514 15.8099-35.8183 15.8099-35.8183l4.0639-7.7426c.3154.3665.5659.5753.7097.5335.566-.1623 5.4045-1.0484 4.5185-3.9525z" fill="#263238" stroke="#263238" stroke-width=".247378"/><path d="m82.5947 38.7746s6.6571 4.6391 5.1911 6.5179" stroke="#fff" stroke-width=".185533"/><path d="m85.2526 44.643c-1.5847 2.3987-3.3628 4.6639-5.3164 6.7731-5.1911 5.7199-15.7032 11.0456-16.3713 13.8383" stroke="#fff" stroke-width=".185533"/><path d="m86.4542 42.4998c-.1769.3925-.3751.7751-.5938 1.1459" stroke="#fff" stroke-width=".185533"/><path d="m64.0847 62.6241c-1.183 1.3638-1.9809 2.6303-2.1155 3.5628" stroke="#fff" stroke-width=".185533"/><path d="m79.6665 39.3081s-.9278-.5288-2.3938 4.2587c-1.4659 4.7875-5.4555 12.2425-8.7817 14.9053-1.0115.8047-1.9808 1.661-2.9041 2.5655" stroke="#fff" stroke-width=".185533"/><path d="m57.859 81.5237c-.7701 3.4746-1.3917 8.1044-.2783 11.2914 1.9948 5.72 4.5231 4.7876 4.922 2.1294.399-2.6582-1.8556-2.7835-2.5283-1.8556-.6726.9278.9278 2.1293.9278 2.1293" stroke="#fff" stroke-width=".185533"/><path d="m59.1766 76.699s-.3758 1.0902-.8211 2.7556" stroke="#fff" stroke-width=".185533"/><path d="m95.2085 99.2031s8.5455-1.6932 9.9185-.5659.723 8.3878-2.983 10.3218c-3.7068 1.935-12.0942-.645-12.0942-.645z" fill="#fff" stroke="#263238" stroke-width=".247378"/><path d="m90.2909 107.252s9.1111 3.145 10.4011 5.103c1.289 1.958.566 12.498.241 17.095s-.404 18.705.886 22.977c1.29 4.273 2.097 6.694 2.904 7.743.807 1.048 4.917 3.224 4.597 3.869s-3.873.645-5.808.079c-1.934-.566-3.9476-2.821-5.6409-4.273-1.6932-1.452-2.0968-1.452-2.0968-1.452l.6448 5.103-.9696-.162s-.1577-3.303-.8072-5.08c-.6494-1.777-1.5309-2.013-.886-3.465.6448-1.453 3.3076-3.146 3.3076-3.146-.1943-3.591-.7349-7.155-1.6144-10.642-1.452-5.724-3.3865-8.628-3.6277-15.239-.2413-6.611 1.2108-8.708 1.2108-8.708l-9.6771.163z" fill="#fff" stroke="#263238" stroke-width=".247378"/><path d="m103.512 164.099c1.935.566 5.483.566 5.808-.079.279-.561-2.783-2.282-4.129-3.409-.34.068-.687.102-1.034.102-1.448 0-4.031-1.369-6.852-4.435-1.4196-1.541-1.7768-2.733-1.7814-3.54-.7201.542-1.3217 1.226-1.7675 2.009-.6449 1.452.2412 1.693.886 3.465.6449 1.772.8072 5.08.8072 5.08l.9696.162-.6448-5.103s.4036 0 2.0968 1.452c1.6933 1.452 3.7071 3.73 5.6411 4.296z" fill="#263238" stroke="#263238" stroke-width=".247378"/></g><path d="m99.9675 98.6372c3.9475-.7237 5.4785-.4036 6.2075.6448.728 1.048 2.013 11.853 2.096 17.661.084 5.808 2.9 13.059 3.466 17.656.506 3.618 1.595 7.131 3.224 10.401.97 2.013 2.5 2.013 3.066 2.904s-2.096 1.044-3.548 1.044-4.598-2.176-5.484-3.948c-.23-.501-.565-.948-.982-1.309-.417-.362-.906-.63-1.435-.788 0 0-.241 4.175-.566 4.356-.324.181-.566-.246-.566-.246s0-2.658-.079-3.869c-.078-1.21-.807-3.145-.886-4.11s2.742-2.259 2.742-2.259-1.392-6.852-2.5-9.742c-1.109-2.89-4.7555-8.643-6.6111-13.073s-.4639-10.967-.4639-10.967" fill="#fff"/><g stroke="#263238" stroke-linecap="round" stroke-linejoin="round"><g stroke-width=".247378"><path d="m99.9675 98.6372c3.9475-.7237 5.4785-.4036 6.2075.6448.728 1.048 2.013 11.853 2.096 17.661.084 5.808 2.9 13.059 3.466 17.656.506 3.618 1.595 7.131 3.224 10.401.97 2.013 2.5 2.013 3.066 2.904s-2.096 1.044-3.548 1.044-4.598-2.176-5.484-3.948c-.23-.501-.565-.948-.982-1.309-.417-.362-.906-.63-1.435-.788 0 0-.241 4.175-.566 4.356-.324.181-.566-.246-.566-.246s0-2.658-.079-3.869c-.078-1.21-.807-3.145-.886-4.11s2.742-2.259 2.742-2.259-1.392-6.852-2.5-9.742c-1.109-2.89-4.7555-8.643-6.6111-13.073s-.4639-10.967-.4639-10.967"/><path d="m115.69 146.086c-.391.34-.877.552-1.392.607-1.127.079-3.386-1.21-5.725-4.676-1.702-2.528-1.906-4.24-1.892-4.982-.812.427-2.278 1.294-2.218 1.999.079.965.807 2.9.886 4.11.079 1.211.079 3.869.079 3.869s.246.404.566.246c.32-.157.566-4.356.566-4.356.529.157 1.019.425 1.436.786.417.362.752.809.981 1.311.886 1.772 4.031 3.948 5.483 3.948s4.111-.158 3.549-1.044c-.413-.686-1.433-.849-2.319-1.818z" fill="#263238"/><path d="m84.0836 66.7111c.5336.2895.9976.6918 1.3597 1.1789.3622.4871.6137 1.0474.7372 1.6417.399 2.018 1.2062 22.5737 1.4474 22.9773s6.0308 5.1633 6.0308 5.1633l-1.8557 2.1757s-5.9658-2.904-7.8214-4.4349c-1.8557-1.5309-2.5794-2.1758-2.2546-4.8386.3247-2.6628 1.2061-15.8842 1.2061-17.8975 0-2.0134-.0603-6.9262 1.1505-5.9659z" fill="#eb696f"/><path d="m75.3807 62.5034s-7.6591 2.8206-10.5632 3.869c-2.904 1.0485-5.8081.8072-5.9658 1.6933s1.9345 12.2564 3.4654 17.0115c1.5309 4.755 2.5004 7.7426 2.2592 9.2781s-6.773 9.8397-4.9174 17.4147c1.8556 7.576 14.0285 7.256 21.284 7.177s6.9586-.404 6.9586-.404l9.19-19.5904-12.1775 1.7724s-4.9963-3.7115-4.5138-5.7249c.4824-2.0133 2.8252-6.1282 3.3865-8.3039s1.452-7.0931.6448-10.2384 1.132-8.8699-.3201-9.7421c-1.452-.8721-7.1256-4.2123-8.7307-4.2123z" fill="#eb696f"/><path d="m64.4229 105.123s3.5767-2.71 7.9235-2.13 14.8914 4.175 14.8914 4.175"/><path d="m62.1968 105.025s.9695-2.129 4.1751-2.997"/><path d="m93.6772 97.6722c1.0256-.2426 2.0777-.3548 3.1314-.334.925.0369 1.8316.2703 2.6594.6846.828.4143 1.558 1.0001 2.142 1.7185 0 0 .404 1.0347-.264 1.0997s-2.0509-.724-3.322-.789c-.8381-.0558-1.67-.1831-2.4865-.3803 0 0 1.5355 1.2713 1.067 1.3913-.4686.121-1.8557-.598-2.3984-.798-.5428-.199-1.7351-.3985-2.2686-.9273-.5334-.5289 1.7397-1.6655 1.7397-1.6655z" fill="#fff"/></g><path d="m101.308 100.544c-.562-.392-1.154-.7381-1.7719-1.0347-.5938-.218-2.4726-.5613-2.4726-.5613" stroke-width=".123689"/><path d="m97.9082 98.3449s1.6283.5149 2.2918.8118c.53.3093 1.001.7098 1.392 1.1833" stroke-width=".123689"/><path d="m72.4352 63.4963s-1.8557 1.336.1994 8.0534c1.1784 3.8226 5.7246 15.7218 5.8035 15.077.0789-.6449 1.2108-8.1462 1.1273-12.2565-.0151-3.3441-.5584-6.6648-1.6098-9.8394-.8071-2.1758-3.9061-2.6443-5.5204-1.0345z" fill="#fff" stroke-width=".247378"/><path d="m71.5024 65.5003c.0988 1.3917.343 2.7693.7284 4.1102.5613 1.6933 1.3685 3.4701 1.3685 3.4701s2.7417-2.2593 2.9829-2.2593c.2413 0 2.9829 1.4521 2.9829 1.1273-.2812-2.296-.7655-4.5626-1.4473-6.773-.9696-3.0618-3.535-3.92-4.9824-2.7835-1.4474 1.1366-1.633 3.1082-1.633 3.1082z" fill="#fff" stroke-width=".247378"/><path d="m76.1091 58.5695-1.9485 5.5669c.1346.4361.3016.9742.464 1.6794.6448 2.4169 1.9344 5.6411 2.3195 5.8034.385.1624-.2412-2.7417.4036-5.1586.6448-2.417 2.018-5.9705 2.0968-6.2117l-2.6628-1.8046z" fill="#fff" stroke-width=".247378"/><path d="m86.9225 46.0905c-1.7953 2.3195-4.2308 5.3117-6.388 7.557-4.0313 4.1752-4.7829 4.6391-4.0685 5.0427 1.0438.9278 4.203 3.7669 5.3582 4.3097 1.3917.6448 1.9345-.6449 4.0313-2.5794 2.0969-1.9345 4.0314-7.8214 3.6278-9.6771-.4103-1.7566-1.2962-3.3664-2.5608-4.6529z" fill="#fff" stroke-width=".247378"/><path d="m86.7422 53.8098s-.8861 1.9345-.8861 3.0618.2412 1.0485 0 1.132-1.8556-.7284-1.8556-.7284" stroke-width=".247378"/><path d="m82.8722 59.052s-1.6144-.2459-1.8556-1.7768" stroke-width=".247378"/></g><path d="m84.1444 54.1531c-.1346.3294-.3619.5521-.5057.4918s-.1531-.3758 0-.7052c.1531-.3293.3572-.5474.501-.4917s.1346.3804.0047.7051z" fill="#263238"/><path d="m87.6513 55.2108c.1337-.3301.1246-.6452-.0203-.7039-.1448-.0586-.3706.1614-.5043.4916-.1336.3301-.1245.6452.0204.7039.1448.0586.3706-.1615.5042-.4916z" fill="#263238"/><path d="m82.8032 51.713s1.6098-1.2897 2.6582-.6448" stroke="#263238" stroke-linecap="round" stroke-linejoin="round" stroke-width=".247378"/><path d="m87.79 51.9542s1.2108-.1624 1.2897 1.2897" stroke="#263238" stroke-linecap="round" stroke-linejoin="round" stroke-width=".247378"/><path d="m98.5205 76.1145 1.5355-7.339 3.79-.566-1.447 6.8287z" fill="#263238" stroke="#263238" stroke-linecap="round" stroke-linejoin="round" stroke-width=".247378"/><path d="m89.1636 83.3793 5.8174-3.2474 1.8556-5.0287c.4527-.2493.9828-.3189 1.4845-.1949.4119.1595.8481.2474 1.2897.2598l3.5442-1.0345s.325-.1948.325.4639c0 .6588-.195.9-.645 1.4799s-.464 1.4195-.645 2.3195-1.29 1.5495-2.129 1.8046c-.8399.2552-3.6141 1.9994-3.9991 2.2592-.3851.2598-6.1932 3.5443-6.1932 3.5443z" fill="#fff" stroke="#263238" stroke-linecap="round" stroke-linejoin="round" stroke-width=".247378"/><path d="m99.6289 75.1496-2.1943.8999" stroke="#263238" stroke-linecap="round" stroke-linejoin="round" stroke-width=".247378"/><path d="m60.5356 73.8042s9.1112 22.2676 9.9972 23.0609c.8861.7932 20.4815-10.7024 20.4815-10.7024l-2.0133-3.7901-14.7569 4.9221-7.2555-16.8538" fill="#eb696f"/><path d="m60.5356 73.8042s9.1112 22.2676 9.9972 23.0609c.8861.7932 20.4815-10.7024 20.4815-10.7024l-2.0133-3.7901-14.7569 4.9221-7.2555-16.8538" stroke="#263238" stroke-linecap="round" stroke-linejoin="round" stroke-width=".247378"/><path d="m90.1378 159.07-13.0914-4.866c2.9226-.58 10.591-2.097 11.0595-2.097.5845 0 .0974-1.545.0974-1.545l-15.3692.975v-16.349h-5.5112v16.214l-13.5368-.26-.1949 1.16 10.1921 2.055-15.1187 6.356v1.447l22.4299-5.483 19.1408 4.175z" fill="#263238" stroke="#263238" stroke-linecap="round" stroke-linejoin="round" stroke-width=".247378"/><path d="m51.5637 162.986c0 .258-.0767.511-.2205.727-.1437.215-.348.382-.5871.481-.239.099-.5021.125-.7558.075-.2538-.051-.4869-.175-.6699-.358-.1829-.183-.3075-.416-.358-.67s-.0246-.517.0744-.756c.0991-.239.2667-.443.4819-.587.2151-.144.468-.22.7268-.22.172-.001.3423.032.5013.098.159.065.3035.162.4251.283.1216.122.2179.266.2835.425.0655.159.0989.33.0983.502z" fill="#263238" stroke="#263238" stroke-linecap="round" stroke-linejoin="round" stroke-width=".247378"/><path d="m90.4299 161.729c0 .258-.0767.511-.2205.726-.1437.215-.348.383-.5871.482-.239.099-.5021.125-.7558.075-.2538-.051-.4869-.175-.6699-.358-.1829-.183-.3075-.416-.358-.67s-.0246-.517.0745-.756c.099-.239.2667-.443.4818-.587s.4681-.221.7268-.221c.172 0 .3424.033.5014.099.1589.065.3034.161.425.283s.2179.266.2835.425c.0655.159.0989.33.0983.502z" fill="#263238" stroke="#263238" stroke-linecap="round" stroke-linejoin="round" stroke-width=".247378"/><path d="m55.818 153.364c.0009.192-.0551.38-.1611.54s-.2571.285-.4342.359-.3721.094-.5605.057c-.1884-.036-.3616-.128-.4977-.264-.136-.135-.2288-.308-.2666-.496s-.0189-.384.0544-.561c.0732-.177.1975-.329.357-.436.1596-.107.3472-.164.5392-.164.2563 0 .5022.102.6839.283s.2844.426.2856.682z" fill="#263238" stroke="#263238" stroke-linecap="round" stroke-linejoin="round" stroke-width=".247378"/><path d="m88.3981 153.072c.0009.192-.0553.38-.1615.54-.1061.161-.2575.286-.4349.36-.1773.074-.3727.093-.5612.056s-.3617-.13-.4975-.266c-.1359-.136-.2283-.309-.2656-.497-.0373-.189-.0177-.384.0563-.561.0739-.178.1989-.329.3591-.435.1601-.107.3482-.163.5404-.162.2559 0 .5013.102.6823.283.1809.181.2826.426.2826.682z" fill="#263238" stroke="#263238" stroke-linecap="round" stroke-linejoin="round" stroke-width=".247378"/><path d="m60.2144 172.083 2.3369 1.358-.0109-2.698z" fill="#e6e6e6"/><path d="m62.4474 144.554-22.7018 13.103z" fill="#cfcfcf"/><path d="m62.5403 170.742v2.699l2.43-1.401-.0821-31.716-27.6001 15.937.0876 31.71 2.4299-1.401v-2.698l20.4087-11.805zm-22.7949-13.085 22.7019-13.103.0273 10.284-22.6963 13.135zm.0384 13.102 22.7018-13.108v.033 10.256l-22.6745 13.103z" fill="#e0e0e0"/><path d="m62.5129 167.94-.0274-10.256v-.027l-22.7018 13.102.0274 10.284z" fill="#e0e0e0"/><path d="m62.4748 154.838-.0274-10.284-22.7018 13.103.0328 10.289z" fill="#e0e0e0"/><path d="m37.2884 156.261-24.0975-14.005.0876 31.716 24.0974 13.999z" fill="#e0e0e0"/><path d="m37.2884 156.261 27.6001-15.937-24.0975-14.006-27.6001 15.938z" fill="#e0e0e0"/><path d="m60.2144 172.083 2.3369 1.358-.0109-2.698z" fill="#fff" opacity=".2"/><path d="m62.4474 144.554-22.7018 13.103z" fill="#cfcfcf"/><path d="m62.5129 167.94-.0274-10.256v-.027l-22.7018 13.102.0274 10.284z" fill="#fff" opacity=".8"/><path d="m62.4748 154.838-.0274-10.284-22.7018 13.103.0328 10.289z" fill="#fff" opacity=".8"/><path d="m55.0483 152.649-.0109-1.418-7.8592 4.537.0055 1.423z" fill="#e0e0e0"/><path d="m55.0483 165.571-.0109-1.423-7.8592 4.537.0055 1.423z" fill="#e0e0e0"/><path d="m37.2884 156.261-24.0975-14.005.0876 31.716 24.0974 13.999z" fill="#fff" opacity=".2"/><path d="m37.2884 156.261 27.6001-15.937-24.0975-14.006-27.6001 15.938z" fill="#fff" opacity=".4"/><path d="m31.9356 134.501c3.0649-1.774 8.0179-1.774 11.0609 0 3.0429 1.773 3.0265 4.635-.0384 6.408-3.0648 1.774-8.0178 1.768-11.0608 0-3.043-1.767-3.0265-4.641.0383-6.408z" fill="#000" opacity=".05"/><path d="m29.276 123.358 8.4065.246 8.4119-.246c.3612 5.681-.7498 11.465-2.2767 14.295-.3551.724-.9297 1.318-1.6419 1.697-2.4793 1.434-6.491 1.434-8.9538 0-.7255-.382-1.3032-.994-1.6419-1.741-1.5652-2.84-2.6653-8.592-2.3041-14.251z" fill="#fff"/><path d="m31.7605 119.921c-3.2838 1.904-3.3166 4.986-.0438 6.89 3.2728 1.905 8.598 1.899 11.8927 0 3.2948-1.899 3.2838-4.986.0384-6.89-3.2455-1.905-8.5926-1.899-11.8873 0z" fill="#ebebeb"/><path d="m33.0634 120.676c-2.5723 1.489-2.5832 3.891-.0328 5.374 2.5504 1.484 6.7098 1.484 9.304 0 2.5942-1.483 2.5833-3.885.0329-5.374s-6.7372-1.483-9.3041 0z" fill="#e0e0e0"/><path d="m33.0634 120.676c-2.5723 1.489-2.5832 3.891-.0328 5.374 2.5504 1.484 6.7098 1.484 9.304 0 2.5942-1.483 2.5833-3.885.0329-5.374s-6.7372-1.483-9.3041 0z" fill="#000" opacity=".0225"/><path d="m38.3883 123.604c-.6743.562-1.4721.957-2.3282 1.152s-1.7461.185-2.5975-.03c-.8205-.251-1.5658-.702-2.1686-1.312-.6029-.611-1.0444-1.362-1.2848-2.185.9953-.473 1.9067-1.105 2.6982-1.872-1.2643-.318-2.5927-.27-3.8311.137-.3424-.538-.5478-1.151-.5984-1.787-.0505-.635.0553-1.273.3083-1.858 1.4351-.639 3.0493-.751 4.559-.318-.6263-.547-1.3591-.958-2.1522-1.207-.7932-.25-1.6294-.333-2.456-.243-.1229-2.411.2496-4.821 1.0946-7.082 3.136.164 6.1735 1.511 7.2024 2.485.045 1.122-.073 2.244-.3503 3.333.4048-.208.7505-.514 1.005-.891s.4096-.813.4508-1.266c1.9648.493 2.8022 1.473 3.1087 2.217-.2817 1.395-.9211 2.692-1.8554 3.765 1.839-.547 2.5887-2.61 2.5887-2.61 1.8225 4.291 1.4777 9.151-3.3932 9.572z" fill="#eb696f"/><path d="m38.3883 123.604c-.6743.562-1.4721.957-2.3282 1.152s-1.7461.185-2.5975-.03c-.8205-.251-1.5658-.702-2.1686-1.312-.6029-.611-1.0444-1.362-1.2848-2.185.9953-.473 1.9067-1.105 2.6982-1.872-1.2643-.318-2.5927-.27-3.8311.137-.3424-.538-.5478-1.151-.5984-1.787-.0505-.635.0553-1.273.3083-1.858 1.4351-.639 3.0493-.751 4.559-.318-.6263-.547-1.3591-.958-2.1522-1.207-.7932-.25-1.6294-.333-2.456-.243-.1229-2.411.2496-4.821 1.0946-7.082 3.136.164 6.1735 1.511 7.2024 2.485.045 1.122-.073 2.244-.3503 3.333.4048-.208.7505-.514 1.005-.891s.4096-.813.4508-1.266c1.9648.493 2.8022 1.473 3.1087 2.217-.2817 1.395-.9211 2.692-1.8554 3.765 1.839-.547 2.5887-2.61 2.5887-2.61 1.8225 4.291 1.4777 9.151-3.3932 9.572z" fill="#000" opacity=".2"/><path d="m38.3883 123.604c-.6743.562-1.4721.957-2.3282 1.152s-1.7461.185-2.5975-.03c-.8205-.251-1.5658-.702-2.1686-1.312-.6029-.611-1.0444-1.362-1.2848-2.185.9953-.473 1.9067-1.105 2.6982-1.872-1.2643-.318-2.5927-.27-3.8311.137-.3424-.538-.5478-1.151-.5984-1.787-.0505-.635.0553-1.273.3083-1.858 1.4351-.639 3.0493-.751 4.559-.318-.6263-.547-1.3591-.958-2.1522-1.207-.7932-.25-1.6294-.333-2.456-.243-.1229-2.411.2496-4.821 1.0946-7.082 3.136.164 6.1735 1.511 7.2024 2.485.045 1.122-.073 2.244-.3503 3.333.4048-.208.7505-.514 1.005-.891s.4096-.813.4508-1.266c1.9648.493 2.8022 1.473 3.1087 2.217-.2817 1.395-.9211 2.692-1.8554 3.765 1.839-.547 2.5887-2.61 2.5887-2.61 1.8225 4.291 1.4777 9.151-3.3932 9.572z" fill="#fff" opacity=".3"/><path d="m38.4981 124.069c.0479-.005.0919-.029.1234-.065.0314-.037.0479-.084.0463-.132-.3011-3.957-2.5669-10.492-7.9687-15.871-.0163-.017-.0359-.031-.0575-.04s-.0449-.014-.0684-.014c-.0234 0-.0467.005-.0683.014s-.0412.023-.0575.04c-.0171.016-.0306.036-.0398.058-.0093.022-.014.046-.014.07s.0047.048.014.07c.0092.022.0227.042.0398.059 5.3306 5.319 7.5636 11.756 7.8591 15.652.0021.023.0087.046.0195.066.0107.021.0254.039.0432.054.0178.014.0384.026.0605.032.0221.007.0454.009.0684.007z" fill="#f5f5f5"/><path d="m37.0145 125.722c.6286.514 1.37.872 2.1634 1.044.7934.173 1.6164.155 2.4016-.052.7853-.206 1.5104-.596 2.1163-1.136.6058-.541 1.0751-1.217 1.3694-1.974-.8994-.405-1.7231-.96-2.4354-1.642 1.1924-.284 2.439-.246 3.6121.11.3546-.454.5871-.991.6752-1.56.0882-.569.029-1.152-.1717-1.691-1.3653-.563-2.8791-.653-4.3017-.258 1.2661-.989 2.8597-1.462 4.4604-1.324.2739-2.126.0682-4.286-.602-6.321-2.9882.18-5.9436 1.417-6.9725 2.293-.1151.987-.0745 1.986.1204 2.961-.3607-.174-.6667-.444-.8847-.78-.2181-.335-.3399-.725-.3522-1.125-1.8718.454-2.7365 1.33-3.0484 1.992.1769 1.229.7009 2.381 1.5105 3.322-.5247-.19-.9996-.497-1.3891-.897s-.6836-.883-.8603-1.412c-1.9648 3.803-1.9319 8.083 2.5887 8.45z" fill="#eb696f"/><path d="m37.0145 125.722c.6286.514 1.37.872 2.1634 1.044.7934.173 1.6164.155 2.4016-.052.7853-.206 1.5104-.596 2.1163-1.136.6058-.541 1.0751-1.217 1.3694-1.974-.8994-.405-1.7231-.96-2.4354-1.642 1.1924-.284 2.439-.246 3.6121.11.3546-.454.5871-.991.6752-1.56.0882-.569.029-1.152-.1717-1.691-1.3653-.563-2.8791-.653-4.3017-.258 1.2661-.989 2.8597-1.462 4.4604-1.324.2739-2.126.0682-4.286-.602-6.321-2.9882.18-5.9436 1.417-6.9725 2.293-.1151.987-.0745 1.986.1204 2.961-.3607-.174-.6667-.444-.8847-.78-.2181-.335-.3399-.725-.3522-1.125-1.8718.454-2.7365 1.33-3.0484 1.992.1769 1.229.7009 2.381 1.5105 3.322-.5247-.19-.9996-.497-1.3891-.897s-.6836-.883-.8603-1.412c-1.9648 3.803-1.9319 8.083 2.5887 8.45z" fill="#fff" opacity=".3"/><path d="m36.8943 126.154c.0432 0 .0849-.016.1178-.044.033-.028.0552-.066.0628-.109.5145-3.448 3.0156-9.173 8.3846-13.95.017-.017.0305-.037.0398-.059.0092-.022.014-.046.014-.07s-.0048-.048-.014-.07c-.0093-.022-.0228-.042-.0398-.059-.0164-.017-.0359-.03-.0575-.039-.0217-.009-.0449-.014-.0684-.014s-.0467.005-.0684.014c-.0216.009-.0412.022-.0575.039-5.4401 4.849-7.9796 10.662-8.505 14.17-.0062.047.0064.095.0351.133.0286.037.0711.062.1182.069z" fill="#fff"/><path d="m88.3707 54.0129c-.814-.2524-1.6596.0941-1.9987.8825-.0516.2499.8725.7856 1.784.9738.9114.1882 1.8546-.2225 1.888-.3842.0349-.1691-.3684-1.1107-1.6733-1.4721zm-5.6233-1.1611c-1.3414-.185-2.0754.4375-2.1255.6801-.0349.169.7494.9364 1.58 1.1079s1.9721.0623 2.0237-.1876c.001-.8582-.7191-1.528-1.4782-1.6004zm5.507 5.8811c-1.404-.2899-1.9739-2.132-3.2971-2.4052-1.3231-.2732-2.6569 1.1758-3.9801.9026-1.7347-.3582-2.6522-2.1877-2.0724-4.9957.3582-1.7348.9613-2.1314 3.1885-1.6715 2.2273.4599 2.6271 1.4928 3.7003 1.7144s1.923-.5533 4.0768-.1086c2.1537.4447 2.6072 1.1438 2.2657 2.7977-.5798 2.808-2.1469 4.1245-3.8817 3.7663z" fill="#eb696f"/></svg>