<svg fill="none" height="24" viewBox="0 0 24 24" width="24" xmlns="http://www.w3.org/2000/svg"><path d="m12 2c5.523 0 10 4.477 10 10s-4.477 10-10 10c-1.596.0022-3.16917-.3792-4.58699-1.112l-3.826 1.067c-.21346.0596-.43892.0613-.65328.0051-.21436-.0563-.40991-.1685-.56661-.3252-.15671-.1567-.26894-.3523-.32518-.5666-.05625-.2144-.0545-.4398.00507-.6533l1.068-3.823c-.73465-1.4191-1.11708-2.9941-1.115-4.592 0-5.523 4.477-10 9.99999-10zm0 1.5c-2.25433 0-4.41634.89553-6.0104 2.48959s-2.48959 3.75607-2.48959 6.01041c0 1.47.373 2.883 1.073 4.137l.15.27-1.112 3.984 3.987-1.112.27.15c1.13438.6307 2.39809.9932 3.69439 1.0598 1.2962.0666 2.5904-.1646 3.7834-.6757 1.1931-.5112 2.2532-1.2887 3.0992-2.2731.8459-.9844 1.4552-2.1494 1.7811-3.4057.3259-1.2564.3597-2.5707.0989-3.8421-.2607-1.27147-.8092-2.46631-1.6034-3.49293-.7941-1.02663-1.8128-1.85775-2.9779-2.42965-1.1651-.57189-2.4458-.86937-3.7437-.86962zm-3.24999 9.5h4.49799c.19.0001.3729.0722.5118.202.1389.1297.2233.3073.2362.4969.013.1896-.0465.377-.1664.5244s-.2913.2438-.4796.2697l-.102.007h-4.49799c-.19002-.0001-.37294-.0722-.51179-.202-.13885-.1297-.22329-.3073-.23624-.4969s.04654-.377.16646-.5244.29132-.2438.47957-.2697l.102-.007h4.49799zm0-3.5h6.50499c.1899.00031.3727.07267.5114.20248.1386.12981.2229.30742.2357.49692s-.0468.3768-.1667.5241-.2912.2436-.4794.2695l-.101.007h-6.50499c-.19002-.0001-.37294-.0722-.51179-.202-.13885-.1297-.22329-.3073-.23624-.4969s.04654-.37699.16646-.5244.29132-.2438.47957-.2697l.102-.007h6.50499z" fill="#8f0115" opacity=".2"/></svg>