<svg fill="none" height="24" viewBox="0 0 24 24" width="24" xmlns="http://www.w3.org/2000/svg"><path d="m22 19.9999v-7.826c.0001-.5445-.111-1.0832-.3265-1.5833-.2155-.5-.5307-.95078-.9265-1.32469l-7.373-6.968c-.3713-.35108-.863-.54669-1.374-.54669s-1.0027.19561-1.374.54669l-7.373 6.968c-.39578.37391-.71105.82469-.9265 1.32469-.21546.5001-.32656 1.0388-.3265 1.5833v7.826c0 .5304.21071 1.0391.58579 1.4142.37507.3751.88378.5858 1.41421.5858h16c.5304 0 1.0391-.2107 1.4142-.5858s.5858-.8838.5858-1.4142z" stroke="#8f0115" stroke-linecap="round" stroke-linejoin="round" stroke-width="2"/></svg>