<svg fill="none" height="27" viewBox="0 0 30 27" width="30" xmlns="http://www.w3.org/2000/svg"><g fill="#fff"><path d="m29.85 13c0-.165-.09-.33-.135-.495-.0694-.2911-.1597-.5769-.27-.855-.075-.18-.18-.36-.27-.555s-.225-.45-.36-.66-.315-.315-.315-.43503c0-.12-.3-.375-.465-.555s-.315-.3-.48-.45l-.555-.495-.54-.36c-.212-.12973-.4325-.24499-.66-.345l-.585-.27c-.245-.09074-.4955-.16589-.75-.225-.2016-.0593-.4071-.10441-.615-.135l-.345-.165c-.6121-1.76842-1.7601-3.30207-3.2845-4.38756-1.5244-1.08548-3.3492-1.668806-5.2205-1.668806s-3.6961.583326-5.2205 1.668806c-1.52436 1.08549-2.67244 2.61914-3.2845 4.38756l-.27.075c-.2079.03059-.4134.0757-.615.135-.2545.05911-.505.13426-.75.225l-.585.27c-.22752.10001-.44802.21527-.66.345l-.54.45-.555.465c-.165.15-.33.285-.48.45s-.315.375-.465.555c-.15.18003-.27.34503-.39.54003s-.24.435-.36.66-.195.375-.27.555c-.110337.2781-.200569.5639-.27.855 0 .165-.105.33-.135.495-.0933652.4694-.1435744.9464-.15 1.425.00703186.4579.0521878.9145.135 1.365 0 .15.075.285.105.435.074141.2947.164274.5851.27.87l.18.435c.132042.2892.282345.5698.45.84l.21.33c.02158.042.04667.0822.075.12l.075.105c.6986.9314 1.60448 1.6875 2.6459 2.2082 1.04141.5207 2.18976.7918 3.3541.7918h4.5v-2.055c-.4558.2644-.9731.404-1.5.405-.81262-.0076-1.58919-.3366-2.16-.915-.27406-.2835-.48954-.6183-.63412-.9852-.14457-.3668-.2154-.7586-.20843-1.1529.00696-.3942.09159-.7833.24903-1.1448s.38461-.6885.66852-.9621l4.5-4.35c.5599-.5397 1.3074-.84083 2.085-.84003.7944.00333 1.555.32163 2.115.88503l4.5 4.5c.5588.5621.8724 1.3224.8724 2.115 0 .7925-.3136 1.5529-.8724 2.115-.56.5634-1.3206.8816-2.115.885-.5277.0049-1.0465-.1352-1.5-.405v1.905h4.5c1.1643 0 2.3127-.2711 3.3541-.7918s1.9473-1.2768 2.6459-2.2082l.075-.075c.0283-.0379.0534-.078.075-.12l.21-.33c.1677-.2702.318-.5508.45-.84l.18-.435c.1057-.2849.1959-.5753.27-.87 0-.15.075-.285.105-.435.0845-.4604.1296-.927.135-1.395-.0017-.5037-.052-1.006-.15-1.5z"/><path d="m16.065 11.9351c-.2804-.2748-.6574-.4288-1.05-.4288s-.7696.154-1.05.4288l-4.50001 4.35c-.15916.1314-.28952.2941-.38291.4781-.09339.1841-.1478.3854-.15985.5914-.01204.206.01856.4122.08987.6059.07131.1936.18182.3705.32459.5195.14278.1489.31477.2669.5052.3464.19041.0794.39521.1188.60151.1155.2064-.0033.4098-.0491.5976-.1345.1878-.0855.356-.2088.494-.3623l1.965-1.905v8.46c0 .3979.158.7794.4393 1.0607s.6629.4393 1.0607.4393.7793-.158 1.0607-.4393c.2813-.2813.4393-.6628.4393-1.0607v-8.385l1.935 1.95c.1394.1406.3053.2522.4881.3284.1828.0761.3789.1153.5769.1153s.3941-.0392.5769-.1153c.1827-.0762.3486-.1878.4881-.3284.1406-.1394.2522-.3053.3283-.4881.0762-.1828.1154-.3788.1154-.5769 0-.198-.0392-.394-.1154-.5768-.0761-.1828-.1877-.3487-.3283-.4882z"/></g></svg>