<svg width="353" height="122" viewBox="0 0 353 122" fill="none" xmlns="http://www.w3.org/2000/svg">
<g clip-path="url(#clip0_152_862)" filter="url(#filter0_d_152_862)">
<rect x="16" width="321" height="90" rx="16" fill="#018F64" fill-opacity="0.8"/>
<path d="M38.6797 36.3965C38.6797 34.8574 38.998 33.7207 39.6348 32.9863C40.2754 32.252 41.1777 31.8848 42.3418 31.8848C43.4043 31.8848 44.2129 32.1523 44.7676 32.6875C45.3223 33.2188 45.5996 34.1914 45.5996 35.6055C45.5996 37.1445 45.2793 38.2812 44.6387 39.0156C44.002 39.75 43.1016 40.1172 41.9375 40.1172C40.875 40.1172 40.0664 39.8516 39.5117 39.3203C38.957 38.7891 38.6797 37.8145 38.6797 36.3965ZM40.1152 35.8574C40.1152 37.1621 40.291 38.0566 40.6426 38.541C40.998 39.0215 41.5234 39.2617 42.2188 39.2617C42.8633 39.2617 43.3477 39.0176 43.6719 38.5293C44 38.041 44.1641 37.2461 44.1641 36.1445C44.1641 34.8242 43.9863 33.9277 43.6309 33.4551C43.2793 32.9785 42.7559 32.7402 42.0605 32.7402C41.416 32.7402 40.9297 32.9844 40.6016 33.4727C40.2773 33.9609 40.1152 34.7559 40.1152 35.8574ZM47.8202 32.002H49.6835C50.3124 33.1387 50.9042 34.1758 51.4589 35.1133C52.0175 36.0469 52.6249 37.1621 53.2812 38.459V35.2188C53.2812 34.0195 53.2675 33.1484 53.2402 32.6055H52.6366C52.5859 32.4727 52.5605 32.3496 52.5605 32.2363C52.5605 32.1543 52.58 32.0957 52.6191 32.0605C52.662 32.0215 52.7304 32.002 52.8241 32.002H55.0273C55.0741 32.1191 55.0976 32.2324 55.0976 32.3418C55.0976 32.4395 55.078 32.5078 55.039 32.5469C54.9999 32.5859 54.9316 32.6055 54.8339 32.6055H54.3593C54.332 33.1484 54.3183 34.043 54.3183 35.2891V39.5254C54.3183 39.7559 54.2831 39.9023 54.2128 39.9648C54.1464 40.0273 53.9882 40.0586 53.7382 40.0586C53.2538 40.0586 52.9745 40.0391 52.9003 40C52.83 39.9648 52.3554 39.2402 51.4765 37.8262C50.6015 36.4121 49.8671 35.0898 49.2734 33.8594C49.2734 37.0078 49.287 38.8535 49.3144 39.3965H49.8886C49.9394 39.5137 49.9648 39.627 49.9648 39.7363C49.9648 39.834 49.9452 39.9023 49.9062 39.9414C49.8671 39.9805 49.7968 40 49.6952 40H47.5155C47.4648 39.8672 47.4394 39.7441 47.4394 39.6309C47.4394 39.5488 47.4589 39.4902 47.498 39.4551C47.5409 39.416 47.6093 39.3965 47.703 39.3965H48.1952C48.2226 38.8535 48.2362 37.4609 48.2362 35.2188C48.2362 34.0195 48.2206 33.1484 48.1894 32.6055H47.6327C47.582 32.4727 47.5566 32.3496 47.5566 32.2363C47.5566 32.1543 47.5761 32.0957 47.6152 32.0605C47.6581 32.0215 47.7265 32.002 47.8202 32.002ZM57.119 32.002H62.1346C62.3573 32.002 62.5096 32.0332 62.5916 32.0957C62.6737 32.1582 62.7147 32.2832 62.7147 32.4707C62.7147 32.709 62.6405 32.9551 62.492 33.209C61.7537 32.9082 60.7381 32.7578 59.4452 32.7578H58.9354C58.908 33.1992 58.8963 34.0762 58.9002 35.3887H61.9647C62.0155 35.541 62.0409 35.7012 62.0409 35.8691C62.0409 35.9785 62.0213 36.0527 61.9823 36.0918C61.9432 36.127 61.867 36.1445 61.7537 36.1445H58.8944C58.8983 37.832 58.912 38.8652 58.9354 39.2441H59.7557C61.0018 39.2441 61.9803 39.1074 62.6912 38.834C62.8162 39.0488 62.8787 39.2715 62.8787 39.502C62.8787 39.6738 62.8221 39.8008 62.7088 39.8828C62.5955 39.9609 62.3651 40 62.0174 40L56.9315 40.0059C56.8807 39.873 56.8553 39.748 56.8553 39.6309C56.8553 39.5527 56.8748 39.4961 56.9139 39.4609C56.9569 39.4219 57.0252 39.4023 57.119 39.4023H57.5526C57.5799 38.8555 57.5936 37.4609 57.5936 35.2188C57.5936 34.0195 57.5799 33.1484 57.5526 32.6055H56.9315C56.8807 32.4727 56.8553 32.3496 56.8553 32.2363C56.8553 32.1543 56.8748 32.0957 56.9139 32.0605C56.9569 32.0215 57.0252 32.002 57.119 32.002ZM74.4684 32.6055C74.07 33.3438 73.2848 34.9395 72.113 37.3926C72.113 38.1855 72.1266 38.8535 72.154 39.3965H73.0212C73.072 39.5137 73.0973 39.627 73.0973 39.7363C73.0973 39.834 73.0778 39.9023 73.0387 39.9414C72.9997 39.9805 72.9294 40 72.8278 40H69.9274C69.8805 39.8672 69.8571 39.7441 69.8571 39.6309C69.8571 39.5488 69.8766 39.4902 69.9157 39.4551C69.9587 39.416 70.027 39.3965 70.1208 39.3965H70.7653C70.7966 38.8535 70.8122 38.2227 70.8122 37.5039C69.527 34.9258 68.6872 33.293 68.2927 32.6055H67.8356C67.7887 32.4727 67.7653 32.3496 67.7653 32.2363C67.7653 32.1543 67.7848 32.0957 67.8239 32.0605C67.8669 32.0215 67.9352 32.002 68.029 32.002H70.3903C70.4372 32.1191 70.4606 32.2324 70.4606 32.3418C70.4606 32.4395 70.4411 32.5078 70.402 32.5469C70.363 32.5859 70.2946 32.6055 70.197 32.6055H69.8981C70.07 33.1211 70.3864 33.9102 70.8473 34.9727C71.3122 36.0352 71.5661 36.5664 71.6091 36.5664C71.652 36.5664 71.8766 36.0508 72.2829 35.0195C72.693 33.9844 72.9743 33.1797 73.1266 32.6055H72.6169C72.5661 32.4727 72.5407 32.3496 72.5407 32.2363C72.5407 32.1543 72.5602 32.0957 72.5993 32.0605C72.6423 32.0215 72.7106 32.002 72.8044 32.002H74.9313C74.9782 32.1191 75.0016 32.2324 75.0016 32.3418C75.0016 32.4395 74.9821 32.5078 74.943 32.5469C74.904 32.5859 74.8356 32.6055 74.738 32.6055H74.4684ZM76.6715 32.002H81.6871C81.9098 32.002 82.0621 32.0332 82.1441 32.0957C82.2262 32.1582 82.2672 32.2832 82.2672 32.4707C82.2672 32.709 82.193 32.9551 82.0445 33.209C81.3063 32.9082 80.2906 32.7578 78.9977 32.7578H78.4879C78.4605 33.1992 78.4488 34.0762 78.4527 35.3887H81.5172C81.568 35.541 81.5934 35.7012 81.5934 35.8691C81.5934 35.9785 81.5738 36.0527 81.5348 36.0918C81.4957 36.127 81.4195 36.1445 81.3063 36.1445H78.4469C78.4508 37.832 78.4645 38.8652 78.4879 39.2441H79.3082C80.5543 39.2441 81.5328 39.1074 82.2438 38.834C82.3688 39.0488 82.4313 39.2715 82.4313 39.502C82.4313 39.6738 82.3746 39.8008 82.2613 39.8828C82.148 39.9609 81.9176 40 81.5699 40L76.484 40.0059C76.4332 39.873 76.4078 39.748 76.4078 39.6309C76.4078 39.5527 76.4273 39.4961 76.4664 39.4609C76.5094 39.4219 76.5777 39.4023 76.6715 39.4023H77.1051C77.1324 38.8555 77.1461 37.4609 77.1461 35.2188C77.1461 34.0195 77.1324 33.1484 77.1051 32.6055H76.484C76.4332 32.4727 76.4078 32.3496 76.4078 32.2363C76.4078 32.1543 76.4273 32.0957 76.4664 32.0605C76.5094 32.0215 76.5777 32.002 76.6715 32.002ZM87.271 31.9141C87.7124 31.9141 87.9624 31.9316 88.021 31.9668C88.0796 31.998 88.4741 33.0898 89.2046 35.2422C89.9351 37.3906 90.4292 38.7754 90.687 39.3965H91.2027C91.2495 39.5137 91.273 39.627 91.273 39.7363C91.273 39.834 91.2534 39.9023 91.2144 39.9414C91.1753 39.9805 91.107 40 91.0093 40H88.5777C88.5269 39.8672 88.5015 39.7441 88.5015 39.6309C88.5015 39.5488 88.521 39.4902 88.5601 39.4551C88.603 39.416 88.6714 39.3965 88.7652 39.3965H89.0816C89.0073 39.0488 88.8198 38.3809 88.5191 37.3926H85.8765C85.603 38.373 85.439 39.041 85.3843 39.3965H85.9292C85.9761 39.5137 85.9995 39.627 85.9995 39.7363C85.9995 39.834 85.98 39.9023 85.9409 39.9414C85.9019 39.9805 85.8335 40 85.7359 40H83.5796C83.5327 39.8672 83.5093 39.7441 83.5093 39.6309C83.5093 39.5488 83.5288 39.4902 83.5679 39.4551C83.6109 39.416 83.6792 39.3965 83.773 39.3965H84.1128C84.3706 38.6855 84.7984 37.4023 85.396 35.5469C85.9937 33.6875 86.3628 32.6172 86.5034 32.3359C86.6441 32.0547 86.8999 31.9141 87.271 31.9141ZM86.0816 36.6367H88.2905C87.5796 34.375 87.1968 33.2441 87.1421 33.2441C87.0913 33.2441 86.7378 34.375 86.0816 36.6367ZM94.6713 35.8926H95.1635C95.8432 35.8926 96.3569 35.7734 96.7045 35.5352C97.0561 35.2969 97.2319 34.9414 97.2319 34.4688C97.2319 33.9141 97.0737 33.5078 96.7573 33.25C96.4409 32.9883 95.9877 32.8574 95.3979 32.8574C95.1284 32.8574 94.9018 32.877 94.7182 32.916C94.687 33.252 94.6713 34.043 94.6713 35.2891V35.8926ZM94.7182 39.3965H95.5561C95.603 39.5137 95.6264 39.627 95.6264 39.7363C95.6264 39.834 95.6069 39.9023 95.5678 39.9414C95.5288 39.9805 95.4604 40 95.3627 40H92.6088C92.558 39.8672 92.5327 39.7441 92.5327 39.6309C92.5327 39.5488 92.5522 39.4902 92.5913 39.4551C92.6342 39.416 92.7026 39.3965 92.7963 39.3965H93.3295C93.3608 38.8535 93.3764 37.4609 93.3764 35.2188C93.3764 34.0195 93.3608 33.1484 93.3295 32.6055H92.6498C92.603 32.4727 92.5795 32.3496 92.5795 32.2363C92.5795 32.1543 92.5991 32.0957 92.6381 32.0605C92.6811 32.0215 92.7495 32.002 92.8432 32.002H95.3686C96.56 32.002 97.4077 32.166 97.9116 32.4941C98.4155 32.8223 98.6674 33.3398 98.6674 34.0469C98.6674 35.1289 98.019 35.8672 96.7221 36.2617C97.0932 36.375 97.394 36.584 97.6245 36.8887C97.8549 37.1895 98.0971 37.6211 98.351 38.1836C98.6088 38.7461 98.81 39.0918 98.9545 39.2207C99.103 39.3457 99.312 39.4043 99.5815 39.3965C99.6635 39.6777 99.6538 39.8691 99.5522 39.9707C99.4506 40.0684 99.1987 40.1172 98.7963 40.1172C98.3315 40.1172 97.9975 40.0566 97.7944 39.9355C97.5913 39.8145 97.3784 39.3848 97.1557 38.6465C96.937 37.9043 96.7045 37.3828 96.4584 37.082C96.2123 36.7812 95.8569 36.6309 95.392 36.6309C95.1498 36.6309 94.9096 36.6504 94.6713 36.6895C94.6791 38.0371 94.6948 38.9395 94.7182 39.3965Z" fill="white"/>
<path d="M46.2393 56.7529C45.3506 56.7699 44.6989 56.9561 44.2842 57.3115C43.8695 57.667 43.6621 58.1579 43.6621 58.7842C43.6621 59.4697 43.8652 59.9902 44.2715 60.3457C44.6862 60.6927 45.3421 61.027 46.2393 61.3486V56.7529ZM46.6963 74.7041C46.417 74.848 45.9769 74.9199 45.376 74.9199C45.0374 74.9199 44.8005 74.848 44.665 74.7041C44.5296 74.5602 44.4619 74.3021 44.4619 73.9297V72.2412C42.9385 72.2158 41.7663 72.0762 40.9453 71.8223C40.1328 71.5684 39.7266 71.0394 39.7266 70.2354C39.7266 69.5244 40.0186 68.8939 40.6025 68.3438C41.9398 69.0208 43.2262 69.4652 44.4619 69.6768V64.7129C42.8623 64.2474 41.7028 63.6253 40.9834 62.8467C40.264 62.068 39.9043 61.0566 39.9043 59.8125C39.9043 58.1367 40.4629 56.8503 41.5801 55.9531C42.7057 55.0475 44.0641 54.5524 45.6553 54.4678V52.0557C46.1123 51.9118 46.5228 51.8398 46.8867 51.8398C47.3438 51.8398 47.623 51.916 47.7246 52.0684C47.8346 52.2207 47.8896 52.4238 47.8896 52.6777V54.4424C49.4046 54.4847 50.4837 54.6201 51.127 54.8486C51.7702 55.0687 52.0918 55.5469 52.0918 56.2832C52.0918 56.9857 51.8337 57.6162 51.3174 58.1748C50.0732 57.6162 48.9307 57.2354 47.8896 57.0322V61.8057C49.3285 62.2373 50.5049 62.8001 51.4189 63.4941C52.3415 64.1797 52.8027 65.3434 52.8027 66.9854C52.8027 68.5765 52.2399 69.8122 51.1143 70.6924C49.9971 71.5641 48.5244 72.0592 46.6963 72.1777V74.7041ZM46.1123 69.8418C47.221 69.8164 47.9827 69.6598 48.3975 69.3721C48.8206 69.0843 49.0322 68.6019 49.0322 67.9248C49.0322 67.1377 48.7233 66.5452 48.1055 66.1475C47.4876 65.7412 46.8232 65.4238 46.1123 65.1953V69.8418ZM56.6708 72C56.4254 71.5007 56.3027 70.8363 56.3027 70.0068C56.3027 68.6188 56.8105 67.417 57.8261 66.4014C58.8502 65.3773 60.234 64.1924 61.9775 62.8467C63.7294 61.4925 64.6054 60.2695 64.6054 59.1777C64.6054 58.2806 64.3261 57.6374 63.7675 57.248C63.2089 56.8503 62.5064 56.6514 61.6601 56.6514C61.0168 56.6514 60.4286 56.7021 59.8954 56.8037C59.5992 57.3623 59.4215 57.6628 59.3622 57.7051C59.303 57.7389 59.0237 57.8151 58.5243 57.9336C58.0335 58.0521 57.6611 58.014 57.4071 57.8193C57.1617 57.6162 56.9247 57.265 56.6962 56.7656C56.4762 56.2578 56.3661 55.8346 56.3661 55.4961C56.3661 55.2845 56.4296 55.1406 56.5566 55.0645C56.692 54.9883 57.3352 54.8613 58.4862 54.6836C59.6373 54.5059 61.0042 54.417 62.5868 54.417C64.5758 54.417 66.1331 54.7428 67.2587 55.3945C68.3928 56.0378 68.9599 57.1846 68.9599 58.835C68.9599 59.8844 68.6721 60.8789 68.0966 61.8184C67.5211 62.7578 66.1669 63.9596 64.0341 65.4238C61.9098 66.888 60.8941 68.3734 60.9872 69.8799H61.4316C64.1399 69.8799 66.4166 69.4229 68.2616 68.5088C68.7187 69.2282 68.9472 69.9137 68.9472 70.5654C68.9472 71.1156 68.7737 71.4922 68.4267 71.6953C68.0797 71.8984 67.373 72 66.3066 72H56.6708ZM78.7694 65.2969C76.6366 65.2969 75.1258 64.8949 74.2371 64.0908C73.3569 63.2868 72.9168 62.14 72.9168 60.6504C72.9168 58.8138 73.5685 57.3158 74.8719 56.1562C76.1753 54.9967 77.9569 54.417 80.2166 54.417C82.5526 54.417 84.2284 54.9798 85.244 56.1055C86.2596 57.2311 86.7674 59.0762 86.7674 61.6406C86.7674 65.2715 85.9718 67.9502 84.3807 69.6768C82.7896 71.3949 80.187 72.2539 76.5731 72.2539C74.9819 72.2539 74.0213 72.1566 73.6912 71.9619C73.3612 71.7673 73.1961 71.4202 73.1961 70.9209C73.1961 70.3031 73.4035 69.7106 73.8182 69.1436C74.8931 69.5921 76.0018 69.8164 77.1444 69.8164C78.9217 69.8164 80.242 69.3636 81.1053 68.458C81.7062 67.8232 82.0955 66.5791 82.2733 64.7256C81.1307 65.1064 79.9627 65.2969 78.7694 65.2969ZM82.3875 62.0469C82.3875 60.3372 82.1506 59.0465 81.6766 58.1748C81.2026 57.2946 80.4494 56.8545 79.4168 56.8545C78.6297 56.8545 78.0796 57.0745 77.7664 57.5146C77.4533 57.9548 77.2967 58.6064 77.2967 59.4697C77.2967 60.8154 77.6564 61.7507 78.3758 62.2754C79.1037 62.8001 80.4367 62.9736 82.3748 62.7959C82.3833 62.5589 82.3875 62.3092 82.3875 62.0469ZM95.7009 65.2969C93.5681 65.2969 92.0574 64.8949 91.1687 64.0908C90.2885 63.2868 89.8484 62.14 89.8484 60.6504C89.8484 58.8138 90.5001 57.3158 91.8035 56.1562C93.1069 54.9967 94.8884 54.417 97.1482 54.417C99.4841 54.417 101.16 54.9798 102.176 56.1055C103.191 57.2311 103.699 59.0762 103.699 61.6406C103.699 65.2715 102.903 67.9502 101.312 69.6768C99.7211 71.3949 97.1186 72.2539 93.5047 72.2539C91.9135 72.2539 90.9529 72.1566 90.6228 71.9619C90.2927 71.7673 90.1277 71.4202 90.1277 70.9209C90.1277 70.3031 90.3351 69.7106 90.7498 69.1436C91.8246 69.5921 92.9334 69.8164 94.0759 69.8164C95.8533 69.8164 97.1736 69.3636 98.0369 68.458C98.6378 67.8232 99.0271 66.5791 99.2048 64.7256C98.0623 65.1064 96.8943 65.2969 95.7009 65.2969ZM99.3191 62.0469C99.3191 60.3372 99.0821 59.0465 98.6082 58.1748C98.1342 57.2946 97.381 56.8545 96.3484 56.8545C95.5613 56.8545 95.0112 57.0745 94.698 57.5146C94.3849 57.9548 94.2283 58.6064 94.2283 59.4697C94.2283 60.8154 94.588 61.7507 95.3074 62.2754C96.0352 62.8001 97.3683 62.9736 99.3064 62.7959C99.3149 62.5589 99.3191 62.3092 99.3191 62.0469ZM111.591 72.2539C110.771 72.2539 110.17 72.1016 109.789 71.7969C109.408 71.4837 109.217 71.0352 109.217 70.4512C109.217 69.8672 109.425 69.4229 109.84 69.1182C110.263 68.8135 110.847 68.6611 111.591 68.6611C112.412 68.6611 113.013 68.8135 113.394 69.1182C113.775 69.4229 113.966 69.8672 113.966 70.4512C113.966 71.0352 113.754 71.4837 113.331 71.7969C112.916 72.1016 112.336 72.2539 111.591 72.2539ZM124.943 65.2969C122.81 65.2969 121.299 64.8949 120.411 64.0908C119.531 63.2868 119.09 62.14 119.09 60.6504C119.09 58.8138 119.742 57.3158 121.046 56.1562C122.349 54.9967 124.13 54.417 126.39 54.417C128.726 54.417 130.402 54.9798 131.418 56.1055C132.433 57.2311 132.941 59.0762 132.941 61.6406C132.941 65.2715 132.145 67.9502 130.554 69.6768C128.963 71.3949 126.361 72.2539 122.747 72.2539C121.156 72.2539 120.195 72.1566 119.865 71.9619C119.535 71.7673 119.37 71.4202 119.37 70.9209C119.37 70.3031 119.577 69.7106 119.992 69.1436C121.067 69.5921 122.175 69.8164 123.318 69.8164C125.095 69.8164 126.416 69.3636 127.279 68.458C127.88 67.8232 128.269 66.5791 128.447 64.7256C127.304 65.1064 126.136 65.2969 124.943 65.2969ZM128.561 62.0469C128.561 60.3372 128.324 59.0465 127.85 58.1748C127.376 57.2946 126.623 56.8545 125.59 56.8545C124.803 56.8545 124.253 57.0745 123.94 57.5146C123.627 57.9548 123.47 58.6064 123.47 59.4697C123.47 60.8154 123.83 61.7507 124.549 62.2754C125.277 62.8001 126.61 62.9736 128.548 62.7959C128.557 62.5589 128.561 62.3092 128.561 62.0469ZM141.875 65.2969C139.742 65.2969 138.231 64.8949 137.342 64.0908C136.462 63.2868 136.022 62.14 136.022 60.6504C136.022 58.8138 136.674 57.3158 137.977 56.1562C139.28 54.9967 141.062 54.417 143.322 54.417C145.658 54.417 147.334 54.9798 148.349 56.1055C149.365 57.2311 149.873 59.0762 149.873 61.6406C149.873 65.2715 149.077 67.9502 147.486 69.6768C145.895 71.3949 143.292 72.2539 139.678 72.2539C138.087 72.2539 137.126 72.1566 136.796 71.9619C136.466 71.7673 136.301 71.4202 136.301 70.9209C136.301 70.3031 136.509 69.7106 136.923 69.1436C137.998 69.5921 139.107 69.8164 140.25 69.8164C142.027 69.8164 143.347 69.3636 144.21 68.458C144.811 67.8232 145.201 66.5791 145.378 64.7256C144.236 65.1064 143.068 65.2969 141.875 65.2969ZM145.493 62.0469C145.493 60.3372 145.256 59.0465 144.782 58.1748C144.308 57.2946 143.555 56.8545 142.522 56.8545C141.735 56.8545 141.185 57.0745 140.872 57.5146C140.558 57.9548 140.402 58.6064 140.402 59.4697C140.402 60.8154 140.762 61.7507 141.481 62.2754C142.209 62.8001 143.542 62.9736 145.48 62.7959C145.488 62.5589 145.493 62.3092 145.493 62.0469ZM160.347 73.8359L160.019 74.7422C159.795 74.7266 159.459 74.638 159.011 74.4766C158.844 74.4193 158.748 74.3411 158.722 74.2422C158.691 74.1484 158.709 74.0052 158.777 73.8125L163.87 59.8438C164.162 59.8854 164.485 59.9688 164.839 60.0938C165.037 60.1667 165.149 60.2474 165.175 60.3359C165.201 60.4245 165.188 60.5443 165.136 60.6953L160.347 73.8359ZM173.14 61.1797C174.27 61.1797 175.054 61.2474 175.491 61.3828C175.929 61.513 176.148 61.7682 176.148 62.1484C176.148 62.4974 176.007 62.8073 175.726 63.0781C174.632 62.5781 173.616 62.3281 172.679 62.3281C172.017 62.3281 171.549 62.4609 171.273 62.7266C171.002 62.987 170.866 63.349 170.866 63.8125C170.866 64.2969 171.028 64.6823 171.351 64.9688C171.679 65.2552 172.299 65.5417 173.21 65.8281C174.288 66.151 175.103 66.5234 175.655 66.9453C176.213 67.362 176.507 68.0391 176.538 68.9766C176.538 70.0234 176.179 70.8151 175.46 71.3516C174.747 71.888 173.653 72.1562 172.179 72.1562C171.153 72.1562 170.374 72.0833 169.843 71.9375C169.312 71.7917 169.046 71.5208 169.046 71.125C169.046 70.7656 169.197 70.4479 169.499 70.1719C170.53 70.7344 171.603 71.0156 172.718 71.0156C173.484 71.0156 174.028 70.8906 174.351 70.6406C174.674 70.3906 174.835 70.0052 174.835 69.4844C174.835 68.8594 174.601 68.3906 174.132 68.0781C173.668 67.7656 172.926 67.4479 171.905 67.125C170.916 66.8229 170.21 66.4453 169.788 65.9922C169.372 65.5339 169.163 64.9349 169.163 64.1953C169.163 63.2734 169.504 62.5417 170.187 62C170.874 61.4531 171.859 61.1797 173.14 61.1797ZM181.97 61.2188C182.558 61.2188 182.892 61.2422 182.97 61.2891C183.048 61.3307 183.574 62.7865 184.548 65.6562C185.522 68.5208 186.181 70.3672 186.525 71.1953H187.212C187.275 71.3516 187.306 71.5026 187.306 71.6484C187.306 71.7786 187.28 71.8698 187.228 71.9219C187.176 71.974 187.084 72 186.954 72H183.712C183.644 71.8229 183.61 71.6589 183.61 71.5078C183.61 71.3984 183.637 71.3203 183.689 71.2734C183.746 71.2214 183.837 71.1953 183.962 71.1953H184.384C184.285 70.7318 184.035 69.8411 183.634 68.5234H180.11C179.746 69.8307 179.527 70.7214 179.454 71.1953H180.181C180.243 71.3516 180.275 71.5026 180.275 71.6484C180.275 71.7786 180.248 71.8698 180.196 71.9219C180.144 71.974 180.053 72 179.923 72H177.048C176.985 71.8229 176.954 71.6589 176.954 71.5078C176.954 71.3984 176.98 71.3203 177.032 71.2734C177.09 71.2214 177.181 71.1953 177.306 71.1953H177.759C178.103 70.2474 178.673 68.5365 179.47 66.0625C180.267 63.5833 180.759 62.1562 180.946 61.7812C181.134 61.4062 181.475 61.2188 181.97 61.2188ZM183.329 67.5156C182.381 64.5 181.871 62.9922 181.798 62.9922C181.73 62.9922 181.259 64.5 180.384 67.5156H183.329ZM197.112 61.3359C197.175 61.4922 197.206 61.6432 197.206 61.7891C197.206 61.9193 197.18 62.0104 197.128 62.0625C197.076 62.1146 196.985 62.1406 196.855 62.1406H196.495C196.183 63.0885 195.631 64.8229 194.839 67.3438C194.052 69.8646 193.56 71.2917 193.362 71.625C193.17 71.9531 192.813 72.1172 192.292 72.1172C191.688 72.1172 191.352 72.0964 191.284 72.0547C191.222 72.013 190.727 70.5599 189.8 67.6953C188.873 64.8255 188.232 62.974 187.878 62.1406H187.269C187.201 61.9635 187.167 61.7995 187.167 61.6484C187.167 61.5391 187.193 61.4609 187.245 61.4141C187.302 61.362 187.394 61.3359 187.519 61.3359H190.667C190.735 61.4922 190.769 61.6432 190.769 61.7891C190.769 61.9193 190.743 62.0104 190.69 62.0625C190.638 62.1146 190.545 62.1406 190.409 62.1406H190.019C190.164 62.8021 190.605 64.3438 191.339 66.7656C192.078 69.1823 192.485 70.3906 192.558 70.3906C192.631 70.3906 192.993 69.1875 193.644 66.7812C194.295 64.375 194.651 62.8281 194.714 62.1406H194.026C193.959 61.9635 193.925 61.7995 193.925 61.6484C193.925 61.5391 193.951 61.4609 194.003 61.4141C194.06 61.362 194.151 61.3359 194.276 61.3359H197.112ZM204.755 61.3359C205.052 61.3359 205.255 61.3776 205.364 61.4609C205.474 61.5443 205.528 61.7109 205.528 61.9609C205.528 62.2786 205.429 62.6068 205.231 62.9453C204.247 62.5443 202.893 62.3438 201.169 62.3438H200.489C200.453 62.9323 200.437 64.1016 200.442 65.8516H204.528C204.596 66.0547 204.63 66.2682 204.63 66.4922C204.63 66.638 204.604 66.737 204.552 66.7891C204.5 66.8359 204.398 66.8594 204.247 66.8594H200.435C200.44 69.1094 200.458 70.487 200.489 70.9922H201.583C203.244 70.9922 204.549 70.8099 205.497 70.4453C205.664 70.7318 205.747 71.0286 205.747 71.3359C205.747 71.5651 205.672 71.7344 205.52 71.8438C205.369 71.9479 205.062 72 204.599 72L197.817 72.0078C197.75 71.8307 197.716 71.6641 197.716 71.5078C197.716 71.4036 197.742 71.3281 197.794 71.2812C197.851 71.2292 197.942 71.2031 198.067 71.2031H198.645C198.682 70.474 198.7 68.6146 198.7 65.625C198.7 64.026 198.682 62.8646 198.645 62.1406H197.817C197.75 61.9635 197.716 61.7995 197.716 61.6484C197.716 61.5391 197.742 61.4609 197.794 61.4141C197.851 61.362 197.942 61.3359 198.067 61.3359H204.755ZM217.956 62.2969C217.341 62.3125 216.891 62.4531 216.604 62.7188C216.323 62.9844 216.182 63.349 216.182 63.8125C216.182 64.2812 216.326 64.6484 216.612 64.9141C216.904 65.1745 217.352 65.4193 217.956 65.6484V62.2969ZM218.385 73.6641C218.25 73.7318 218.044 73.7656 217.768 73.7656C217.591 73.7656 217.474 73.7266 217.417 73.6484C217.359 73.5703 217.331 73.4271 217.331 73.2188V72.1562C216.383 72.1458 215.651 72.0703 215.135 71.9297C214.62 71.7891 214.362 71.5208 214.362 71.125C214.362 70.7656 214.516 70.4479 214.823 70.1719C215.604 70.6042 216.44 70.8672 217.331 70.9609V67.1719C216.263 66.8281 215.521 66.4323 215.104 65.9844C214.693 65.5312 214.487 64.9349 214.487 64.1953C214.487 63.2786 214.802 62.5651 215.432 62.0547C216.068 61.5443 216.844 61.2656 217.76 61.2188V59.7266C217.969 59.6641 218.159 59.6328 218.331 59.6328C218.544 59.6328 218.677 59.6719 218.729 59.75C218.787 59.8229 218.815 59.9349 218.815 60.0859V61.1875C219.753 61.2031 220.43 61.2734 220.846 61.3984C221.263 61.5182 221.471 61.7682 221.471 62.1484C221.471 62.4974 221.331 62.8073 221.05 63.0781C220.273 62.724 219.529 62.4974 218.815 62.3984V65.9141C219.753 66.2214 220.492 66.5807 221.034 66.9922C221.581 67.3984 221.854 68.0807 221.854 69.0391C221.854 69.987 221.542 70.7214 220.917 71.2422C220.297 71.7578 219.453 72.0495 218.385 72.1172V73.6641ZM218.19 71.0156C218.888 70.9948 219.391 70.8646 219.698 70.625C220.005 70.3854 220.159 70.0052 220.159 69.4844C220.159 68.8802 219.956 68.4349 219.55 68.1484C219.143 67.862 218.69 67.6302 218.19 67.4531V71.0156ZM223.645 72C223.541 71.7396 223.489 71.4297 223.489 71.0703C223.489 70.1641 223.757 69.401 224.294 68.7812C224.835 68.1562 225.702 67.4115 226.895 66.5469C228.088 65.6771 228.684 64.8464 228.684 64.0547C228.684 63.4193 228.486 62.9583 228.09 62.6719C227.695 62.3854 227.182 62.2422 226.551 62.2422C226.088 62.2422 225.679 62.2734 225.325 62.3359C225.174 62.638 225.083 62.7995 225.051 62.8203C225.025 62.8411 224.885 62.888 224.63 62.9609C224.374 63.0286 224.184 63.0156 224.059 62.9219C223.939 62.8229 223.822 62.6432 223.708 62.3828C223.598 62.1224 223.544 61.9141 223.544 61.7578C223.544 61.6536 223.575 61.5833 223.637 61.5469C223.705 61.5104 224.057 61.4401 224.692 61.3359C225.327 61.2318 226.083 61.1797 226.958 61.1797C228.072 61.1797 228.952 61.3672 229.598 61.7422C230.249 62.112 230.575 62.8125 230.575 63.8438C230.575 64.4583 230.411 65.0469 230.083 65.6094C229.755 66.1667 228.898 66.9141 227.512 67.8516C226.127 68.7891 225.473 69.8359 225.551 70.9922H226.176C227.853 70.9922 229.215 70.7526 230.262 70.2734C230.476 70.6224 230.583 70.9557 230.583 71.2734C230.583 71.5443 230.507 71.7344 230.356 71.8438C230.205 71.9479 229.895 72 229.426 72H223.645ZM236.178 72.1562C234.887 72.1562 233.915 71.8307 233.264 71.1797C232.618 70.5286 232.295 69.2656 232.295 67.3906C232.295 65.1562 232.676 63.5625 233.436 62.6094C234.197 61.6562 235.316 61.1797 236.795 61.1797C238.056 61.1797 239.009 61.5052 239.655 62.1562C240.306 62.8073 240.631 64.1094 240.631 66.0625C240.631 68.2188 240.251 69.7734 239.491 70.7266C238.73 71.6797 237.626 72.1562 236.178 72.1562ZM236.42 62.3203C235.712 62.3203 235.165 62.6146 234.78 63.2031C234.4 63.7865 234.21 64.8906 234.21 66.5156C234.21 68.3021 234.397 69.5 234.772 70.1094C235.152 70.7135 235.746 71.0156 236.553 71.0156C237.256 71.0156 237.793 70.724 238.163 70.1406C238.532 69.5521 238.717 68.4844 238.717 66.9375C238.717 65.125 238.527 63.9036 238.147 63.2734C237.767 62.638 237.191 62.3203 236.42 62.3203Z" fill="white"/>
<path d="M213.253 68H241.28V68.7969H213.253V68Z" fill="white"/>
<path d="M305.748 7.02321C305.605 7.04524 305.131 7.19948 304.701 7.37575C304.283 7.541 303.434 7.79439 302.828 7.92659C302.223 8.05878 301.209 8.3342 300.57 8.5325C299.931 8.74182 298.455 9.18248 297.287 9.51299C294.07 10.4494 292.715 10.9892 287.68 13.3248C286.017 14.0959 284.221 14.8891 283.692 15.0654C282.426 15.5171 281.919 15.7815 281.335 16.3213C280.685 16.9272 280.376 17.4781 279.859 19.0645C279.605 19.8136 279.275 20.6729 279.11 20.9814L278.812 21.5322L277.16 21.5432C275.232 21.5652 271.938 21.9288 270.252 22.3144C269.602 22.4576 268.952 22.5788 268.787 22.5788C268.434 22.5788 267.762 22.9203 267.443 23.2618C267.079 23.6474 266.661 24.6389 266.573 25.2999C266.418 26.5228 266.782 27.4812 269.04 31.943C271.122 36.0412 271.927 37.4954 273.172 39.4343C274.141 40.9436 275.672 43.7749 276.355 45.3172C276.785 46.2977 276.785 46.3197 276.664 47.0248C276.454 48.2366 276.388 48.2917 274.405 48.6883C272.466 49.0849 270.957 49.7569 269.437 50.9027C268.511 51.5967 268.379 51.6628 267.906 51.6628C267.63 51.6628 267.432 51.751 267.234 51.9382C267.079 52.0925 266.573 52.467 266.11 52.7865C264.446 53.9102 263.785 54.7365 263.389 56.2347C263.146 57.1271 263.047 59.1542 263.212 59.9364C263.532 61.4677 264.556 62.8007 266.341 64.0015C268.489 65.4557 268.622 65.632 269.261 67.9124C270.186 71.1954 270.417 74.6436 269.889 77.1554C269.459 79.1825 269.183 79.7774 267.597 82.179C266.749 83.468 266.165 84.7239 266.033 85.5391C265.978 85.9027 266.099 85.7264 266.672 84.6468C267.3 83.4349 268.831 81.1325 268.919 81.2316C268.941 81.2536 268.864 81.8155 268.743 82.4655C268.622 83.1265 268.434 84.2612 268.346 84.9883C268.126 86.6849 267.983 87.423 267.784 87.9408C267.696 88.1611 267.63 88.5467 267.63 88.778C267.63 89.2848 267.134 90.2873 265.757 92.5898C264.259 95.1016 262.948 97.988 261.736 101.458C261.45 102.273 260.712 104.212 260.117 105.755C259.511 107.297 258.773 109.236 258.464 110.051C258.035 111.23 257.836 111.627 257.495 111.979C256.922 112.574 256.041 114.061 255.622 115.141C255.435 115.626 255.137 116.672 254.95 117.465C254.774 118.27 254.531 119.239 254.41 119.636C253.837 121.575 253.187 124.472 253.077 125.673C252.956 126.874 252.967 127.083 253.187 128.284C253.485 129.859 253.551 130.013 254.344 131.17C255.148 132.327 255.776 132.878 256.999 133.473C258.762 134.332 260.546 134.596 262.397 134.288C262.761 134.222 263.532 134.101 264.127 134.013C264.711 133.924 265.801 133.66 266.55 133.418C267.289 133.186 268.159 132.966 268.467 132.922C268.776 132.889 269.404 132.724 269.844 132.569C270.296 132.426 271.111 132.228 271.673 132.14C272.224 132.041 273.138 131.875 273.711 131.754C274.273 131.633 275.011 131.534 275.342 131.534C275.672 131.534 276.399 131.457 276.939 131.369C279.297 130.961 279.848 130.884 280.575 130.818C281.004 130.785 281.709 130.652 282.161 130.531C282.69 130.399 283.351 130.322 283.979 130.322C284.53 130.322 285.378 130.245 285.863 130.157C286.336 130.058 287.086 129.991 287.515 130.002C288.408 130.025 290.302 129.903 290.446 129.815C290.501 129.782 290.864 129.793 291.239 129.826L291.922 129.903L292.913 131.787C293.464 132.823 294.18 134.09 294.522 134.607C295.348 135.885 296.846 137.626 297.651 138.287C298.576 139.036 300.845 140.303 301.595 140.501C303.357 140.964 304.602 140.986 306.111 140.579C306.552 140.457 307.224 140.314 307.61 140.248C308.094 140.171 308.535 140.006 308.976 139.73C309.438 139.444 309.813 139.312 310.265 139.256C310.683 139.201 311.069 139.069 311.366 138.871C311.62 138.706 312.005 138.54 312.226 138.507C312.765 138.419 313.426 138.089 313.911 137.648C314.187 137.406 314.462 137.273 314.826 137.229C315.354 137.152 316.037 136.899 317.404 136.26C317.778 136.084 318.153 135.94 318.23 135.94C318.296 135.94 318.681 135.786 319.078 135.588C319.475 135.401 320.092 135.18 320.455 135.103C320.819 135.037 321.27 134.927 321.447 134.861C322.174 134.596 324.344 134.365 325.391 134.442C326.691 134.541 327.781 134.332 329.18 133.715C330.535 133.131 331.45 132.47 333.091 130.906C334.49 129.562 335.206 129.022 336.286 128.493L336.914 128.196L338.677 129.044C340.164 129.771 340.55 129.914 341.144 129.958C341.839 130.013 341.861 130.013 342.301 129.617C342.654 129.297 342.852 128.945 343.304 127.843C343.612 127.094 343.91 126.18 343.954 125.816C344.207 124.009 343.403 121.949 341.96 120.682C340.693 119.57 339.944 119.448 337.531 119.966C334.865 120.517 333.973 120.649 332.573 120.671C331.472 120.682 331.196 120.649 330.943 120.484C330.778 120.385 330.646 120.22 330.646 120.132C330.646 119.845 332.75 118.115 333.73 117.609C334.259 117.333 334.876 116.893 335.162 116.617L335.647 116.11L335.273 115.714C334.358 114.777 333.763 114.678 333.257 115.394C333.091 115.637 332.717 116.155 332.43 116.551C331.527 117.796 330.227 118.49 327.308 119.261C326.503 119.471 325.534 119.79 325.148 119.988C324.311 120.396 323.419 121.211 323.319 121.674C323.275 121.85 323.121 122.236 322.978 122.522C322.603 123.227 322.482 124.076 322.614 124.99C322.669 125.398 322.692 125.75 322.669 125.772C322.57 125.871 319.827 125.067 317.591 124.285C316.93 124.053 316.126 123.8 315.817 123.723L315.255 123.591L315.189 122.941C315.013 121.31 313.482 118.556 312.38 117.906C311.653 117.477 310.793 117.454 308.502 117.829C306.552 118.138 304.47 118.237 303.644 118.06C303.236 117.983 303.236 117.972 303.027 117.069C302.906 116.573 302.828 116.132 302.85 116.088C302.895 116 305.241 114.601 305.913 114.26C306.166 114.138 306.839 113.885 307.411 113.698C307.995 113.511 308.612 113.224 308.822 113.048L309.185 112.75L308.788 112.056C308.105 110.911 307.896 110.9 306.794 111.924C306.332 112.343 305.737 112.838 305.472 113.026C304.459 113.72 302.476 114.48 302.388 114.205C302.366 114.127 302.145 113.279 301.892 112.31C301.65 111.34 301.22 109.798 300.945 108.895C300.041 105.854 299.16 101.844 298.873 99.4202C298.598 97.1507 298.301 96.1702 297.023 93.4932C296.439 92.2593 296.34 91.9729 296.307 91.3119C296.285 90.8161 296.174 90.3424 295.998 89.9348C295.844 89.5933 295.546 88.8662 295.326 88.3043C295.117 87.7535 294.819 87.0484 294.665 86.7289C294.522 86.4205 294.401 86.112 294.401 86.0459C294.401 85.9908 294.279 85.8476 294.136 85.7374C293.916 85.5612 292.968 83.8756 292.968 83.6443C292.968 83.6112 293.376 83.9637 293.883 84.4485C294.896 85.44 295.59 85.9908 295.679 85.8917C295.723 85.8586 295.458 85.3188 295.095 84.6908C293.916 82.6638 293.795 82.4104 293.949 82.2562C294.059 82.157 294.103 82.168 294.191 82.3112C294.29 82.4875 294.621 82.5977 294.621 82.4655C294.621 82.4324 294.346 81.9807 294.004 81.4409C293.09 79.9867 292.451 78.5986 292.131 77.3758C291.878 76.3953 291.856 76.1309 291.9 74.853C291.977 72.8589 292.274 71.9115 293.938 68.5294C295.051 66.2489 296.042 64.4752 297.309 62.5143C297.97 61.4787 298.091 61.2253 298.091 60.7957C298.102 60.4101 298.29 59.9364 298.918 58.6474C299.369 57.744 299.887 56.7525 300.085 56.4551C300.273 56.1466 300.746 55.2873 301.143 54.5272C301.539 53.767 302.134 52.6323 302.476 51.9933C303.137 50.7595 303.875 49.118 304.47 47.5867C305.362 45.2842 305.803 42.9817 305.913 40.0953C306.122 34.0912 306.2 32.7692 306.453 30.8964C306.794 28.4397 307.125 25.355 307.345 22.6889C307.588 19.6814 307.72 18.6018 308.017 17.0154C308.7 13.4239 308.755 13.0273 308.755 11.7273C308.766 10.2731 308.59 9.36977 308.061 8.19098C307.841 7.71727 307.643 7.45287 307.389 7.29863C307.015 7.06728 306.255 6.94611 305.748 7.02321ZM300.68 15.9137C300.68 15.9467 300.559 16.2111 300.416 16.4976C300.019 17.2797 299.534 18.745 299.193 20.1551C299.028 20.8492 298.873 21.4661 298.84 21.5102C298.807 21.5652 298.587 21.2458 298.345 20.7941C297.607 19.428 296.472 18.084 295.414 17.3238C294.852 16.9052 294.709 16.9713 297.265 16.5196C298.323 16.3323 299.49 16.112 299.854 16.0349C300.691 15.8476 300.68 15.8476 300.68 15.9137ZM278.261 28.3625C278.305 28.7591 278.305 29.2879 278.272 29.5413C278.195 30.0371 278.404 31.7226 278.537 31.7226C278.592 31.7226 278.669 31.8218 278.702 31.943C278.735 32.0641 278.845 32.1633 278.944 32.1633C279.087 32.1633 279.11 32.2624 279.054 32.8023C279.01 33.1548 278.911 33.6175 278.812 33.8488C278.724 34.0692 278.669 34.2675 278.702 34.2675C278.735 34.2785 278.79 34.2895 278.845 34.3005C279.154 34.3666 279.33 34.598 279.385 35.0387C279.451 35.4903 279.44 35.5124 279.264 35.3691C279.154 35.281 278.977 35.0276 278.856 34.8183C278.735 34.598 278.482 34.1683 278.294 33.8709C278.008 33.3972 275.816 28.8693 275.749 28.6049C275.727 28.5278 277.854 27.6795 278.118 27.6575C278.151 27.6465 278.228 27.9659 278.261 28.3625ZM280.112 35.7657C280.145 35.942 280.211 36.1734 280.255 36.2945C280.321 36.4929 280.31 36.5039 280.145 36.3386C279.936 36.1513 279.748 35.281 279.936 35.3912C280.002 35.4352 280.079 35.6005 280.112 35.7657ZM284.453 36.6691C285.114 37.3521 285.279 37.5945 285.367 38.0021C285.51 38.7513 285.609 41.3402 285.488 41.5165C285.411 41.6376 285.257 41.6487 284.706 41.5715L284.023 41.4724L283.648 40.7563C283.064 39.6106 282.459 37.0106 282.723 36.7462C282.778 36.6912 282.833 36.57 282.833 36.5039C282.833 36.1183 283.042 35.8208 283.34 35.8208C283.56 35.8208 283.825 36.0302 284.453 36.6691ZM283.241 107.154C284.067 108.839 285.103 110.889 285.543 111.704C285.984 112.519 286.601 113.83 286.909 114.623C287.526 116.166 289.443 121.167 289.443 121.222C289.443 121.31 284.177 120.198 281.952 119.636C279.473 119.019 278.305 118.765 276.939 118.578C275.397 118.369 273.149 118.182 273.017 118.27C272.852 118.369 272.907 118.237 273.249 117.653C273.436 117.333 274.207 115.89 274.967 114.425C276.686 111.131 276.686 111.131 278.008 109.148C278.603 108.256 279.418 106.9 279.815 106.129C280.387 105.05 280.652 104.675 280.993 104.422C281.236 104.245 281.5 104.102 281.588 104.102C281.665 104.102 282.37 105.402 283.241 107.154ZM257.01 114.127C256.635 115.218 256.294 116.088 256.228 116.066C256.008 115.989 256.129 114.744 256.415 114.105C256.669 113.566 257.55 112.144 257.649 112.144C257.66 112.144 257.374 113.037 257.01 114.127Z" fill="white" fill-opacity="0.3"/>
</g>
<defs>
<filter id="filter0_d_152_862" x="0" y="0" width="353" height="122" filterUnits="userSpaceOnUse" color-interpolation-filters="sRGB">
<feFlood flood-opacity="0" result="BackgroundImageFix"/>
<feColorMatrix in="SourceAlpha" type="matrix" values="0 0 0 0 0 0 0 0 0 0 0 0 0 0 0 0 0 0 127 0" result="hardAlpha"/>
<feOffset dy="16"/>
<feGaussianBlur stdDeviation="8"/>
<feColorMatrix type="matrix" values="0 0 0 0 0.8 0 0 0 0 0.8 0 0 0 0 0.8 0 0 0 0.25 0"/>
<feBlend mode="normal" in2="BackgroundImageFix" result="effect1_dropShadow_152_862"/>
<feBlend mode="normal" in="SourceGraphic" in2="effect1_dropShadow_152_862" result="shape"/>
</filter>
<clipPath id="clip0_152_862">
<rect width="321" height="90" fill="white" transform="translate(16)"/>
</clipPath>
</defs>
</svg>
