<svg width="353" height="122" viewBox="0 0 353 122" fill="none" xmlns="http://www.w3.org/2000/svg">
<g clip-path="url(#clip0_152_857)" filter="url(#filter0_d_152_857)">
<rect x="16" width="321" height="90" rx="16" fill="#7B018F" fill-opacity="0.8"/>
<path d="M46.2393 56.7529C45.3506 56.7699 44.6989 56.9561 44.2842 57.3115C43.8695 57.667 43.6621 58.1579 43.6621 58.7842C43.6621 59.4697 43.8652 59.9902 44.2715 60.3457C44.6862 60.6927 45.3421 61.027 46.2393 61.3486V56.7529ZM46.6963 74.7041C46.417 74.848 45.9769 74.9199 45.376 74.9199C45.0374 74.9199 44.8005 74.848 44.665 74.7041C44.5296 74.5602 44.4619 74.3021 44.4619 73.9297V72.2412C42.9385 72.2158 41.7663 72.0762 40.9453 71.8223C40.1328 71.5684 39.7266 71.0394 39.7266 70.2354C39.7266 69.5244 40.0186 68.8939 40.6025 68.3438C41.9398 69.0208 43.2262 69.4652 44.4619 69.6768V64.7129C42.8623 64.2474 41.7028 63.6253 40.9834 62.8467C40.264 62.068 39.9043 61.0566 39.9043 59.8125C39.9043 58.1367 40.4629 56.8503 41.5801 55.9531C42.7057 55.0475 44.0641 54.5524 45.6553 54.4678V52.0557C46.1123 51.9118 46.5228 51.8398 46.8867 51.8398C47.3438 51.8398 47.623 51.916 47.7246 52.0684C47.8346 52.2207 47.8896 52.4238 47.8896 52.6777V54.4424C49.4046 54.4847 50.4837 54.6201 51.127 54.8486C51.7702 55.0687 52.0918 55.5469 52.0918 56.2832C52.0918 56.9857 51.8337 57.6162 51.3174 58.1748C50.0732 57.6162 48.9307 57.2354 47.8896 57.0322V61.8057C49.3285 62.2373 50.5049 62.8001 51.4189 63.4941C52.3415 64.1797 52.8027 65.3434 52.8027 66.9854C52.8027 68.5765 52.2399 69.8122 51.1143 70.6924C49.9971 71.5641 48.5244 72.0592 46.6963 72.1777V74.7041ZM46.1123 65.1953V69.8418C47.221 69.8164 47.9827 69.6598 48.3975 69.3721C48.8206 69.0843 49.0322 68.6019 49.0322 67.9248C49.0322 67.1377 48.7233 66.5452 48.1055 66.1475C47.4876 65.7412 46.8232 65.4238 46.1123 65.1953ZM66.3066 72H56.6708C56.4254 71.5007 56.3027 70.8363 56.3027 70.0068C56.3027 68.6188 56.8105 67.417 57.8261 66.4014C58.8502 65.3773 60.234 64.1924 61.9775 62.8467C63.7294 61.4925 64.6054 60.2695 64.6054 59.1777C64.6054 58.2806 64.3261 57.6374 63.7675 57.248C63.2089 56.8503 62.5064 56.6514 61.6601 56.6514C61.0168 56.6514 60.4286 56.7021 59.8954 56.8037C59.5992 57.3623 59.4215 57.6628 59.3622 57.7051C59.303 57.7389 59.0237 57.8151 58.5243 57.9336C58.0335 58.0521 57.6611 58.014 57.4071 57.8193C57.1617 57.6162 56.9247 57.265 56.6962 56.7656C56.4762 56.2578 56.3661 55.8346 56.3661 55.4961C56.3661 55.2845 56.4296 55.1406 56.5566 55.0645C56.692 54.9883 57.3352 54.8613 58.4862 54.6836C59.6373 54.5059 61.0042 54.417 62.5868 54.417C64.5758 54.417 66.1331 54.7428 67.2587 55.3945C68.3928 56.0378 68.9599 57.1846 68.9599 58.835C68.9599 59.8844 68.6721 60.8789 68.0966 61.8184C67.5211 62.7578 66.1669 63.9596 64.0341 65.4238C61.9098 66.888 60.8941 68.3734 60.9872 69.8799H61.4316C64.1399 69.8799 66.4166 69.4229 68.2616 68.5088C68.7187 69.2282 68.9472 69.9137 68.9472 70.5654C68.9472 71.1156 68.7737 71.4922 68.4267 71.6953C68.0797 71.8984 67.373 72 66.3066 72ZM78.7694 65.2969C76.6366 65.2969 75.1258 64.8949 74.2371 64.0908C73.3569 63.2868 72.9168 62.14 72.9168 60.6504C72.9168 58.8138 73.5685 57.3158 74.8719 56.1562C76.1753 54.9967 77.9569 54.417 80.2166 54.417C82.5526 54.417 84.2284 54.9798 85.244 56.1055C86.2596 57.2311 86.7674 59.0762 86.7674 61.6406C86.7674 65.2715 85.9718 67.9502 84.3807 69.6768C82.7896 71.3949 80.187 72.2539 76.5731 72.2539C74.9819 72.2539 74.0213 72.1566 73.6912 71.9619C73.3612 71.7673 73.1961 71.4202 73.1961 70.9209C73.1961 70.3031 73.4035 69.7106 73.8182 69.1436C74.8931 69.5921 76.0018 69.8164 77.1444 69.8164C78.9217 69.8164 80.242 69.3636 81.1053 68.458C81.7062 67.8232 82.0955 66.5791 82.2733 64.7256C81.1307 65.1064 79.9627 65.2969 78.7694 65.2969ZM82.3875 62.0469C82.3875 60.3372 82.1506 59.0465 81.6766 58.1748C81.2026 57.2946 80.4494 56.8545 79.4168 56.8545C78.6297 56.8545 78.0796 57.0745 77.7664 57.5146C77.4533 57.9548 77.2967 58.6064 77.2967 59.4697C77.2967 60.8154 77.6564 61.7507 78.3758 62.2754C79.1037 62.8001 80.4367 62.9736 82.3748 62.7959C82.3833 62.5589 82.3875 62.3092 82.3875 62.0469ZM94.6599 72.2539C93.839 72.2539 93.238 72.1016 92.8572 71.7969C92.4763 71.4837 92.2859 71.0352 92.2859 70.4512C92.2859 69.8672 92.4933 69.4229 92.908 69.1182C93.3311 68.8135 93.9151 68.6611 94.6599 68.6611C95.4809 68.6611 96.0818 68.8135 96.4627 69.1182C96.8435 69.4229 97.0339 69.8672 97.0339 70.4512C97.0339 71.0352 96.8224 71.4837 96.3992 71.7969C95.9845 72.1016 95.4047 72.2539 94.6599 72.2539ZM108.011 65.2969C105.879 65.2969 104.368 64.8949 103.479 64.0908C102.599 63.2868 102.159 62.14 102.159 60.6504C102.159 58.8138 102.811 57.3158 104.114 56.1562C105.417 54.9967 107.199 54.417 109.459 54.417C111.795 54.417 113.47 54.9798 114.486 56.1055C115.502 57.2311 116.009 59.0762 116.009 61.6406C116.009 65.2715 115.214 67.9502 113.623 69.6768C112.032 71.3949 109.429 72.2539 105.815 72.2539C104.224 72.2539 103.263 72.1566 102.933 71.9619C102.603 71.7673 102.438 71.4202 102.438 70.9209C102.438 70.3031 102.646 69.7106 103.06 69.1436C104.135 69.5921 105.244 69.8164 106.386 69.8164C108.164 69.8164 109.484 69.3636 110.347 68.458C110.948 67.8232 111.338 66.5791 111.515 64.7256C110.373 65.1064 109.205 65.2969 108.011 65.2969ZM111.63 62.0469C111.63 60.3372 111.393 59.0465 110.919 58.1748C110.445 57.2946 109.691 56.8545 108.659 56.8545C107.872 56.8545 107.322 57.0745 107.008 57.5146C106.695 57.9548 106.539 58.6064 106.539 59.4697C106.539 60.8154 106.898 61.7507 107.618 62.2754C108.346 62.8001 109.679 62.9736 111.617 62.7959C111.625 62.5589 111.63 62.3092 111.63 62.0469ZM124.943 65.2969C122.81 65.2969 121.299 64.8949 120.411 64.0908C119.531 63.2868 119.09 62.14 119.09 60.6504C119.09 58.8138 119.742 57.3158 121.046 56.1562C122.349 54.9967 124.13 54.417 126.39 54.417C128.726 54.417 130.402 54.9798 131.418 56.1055C132.433 57.2311 132.941 59.0762 132.941 61.6406C132.941 65.2715 132.145 67.9502 130.554 69.6768C128.963 71.3949 126.361 72.2539 122.747 72.2539C121.156 72.2539 120.195 72.1566 119.865 71.9619C119.535 71.7673 119.37 71.4202 119.37 70.9209C119.37 70.3031 119.577 69.7106 119.992 69.1436C121.067 69.5921 122.175 69.8164 123.318 69.8164C125.095 69.8164 126.416 69.3636 127.279 68.458C127.88 67.8232 128.269 66.5791 128.447 64.7256C127.304 65.1064 126.136 65.2969 124.943 65.2969ZM128.561 62.0469C128.561 60.3372 128.324 59.0465 127.85 58.1748C127.376 57.2946 126.623 56.8545 125.59 56.8545C124.803 56.8545 124.253 57.0745 123.94 57.5146C123.627 57.9548 123.47 58.6064 123.47 59.4697C123.47 60.8154 123.83 61.7507 124.549 62.2754C125.277 62.8001 126.61 62.9736 128.548 62.7959C128.557 62.5589 128.561 62.3092 128.561 62.0469ZM143.415 73.8359L143.087 74.7422C142.863 74.7266 142.527 74.638 142.08 74.4766C141.913 74.4193 141.817 74.3411 141.79 74.2422C141.759 74.1484 141.777 74.0052 141.845 73.8125L146.939 59.8438C147.231 59.8854 147.553 59.9688 147.908 60.0938C148.106 60.1667 148.218 60.2474 148.244 60.3359C148.27 60.4245 148.257 60.5443 148.205 60.6953L143.415 73.8359ZM156.208 61.1797C157.338 61.1797 158.122 61.2474 158.56 61.3828C158.997 61.513 159.216 61.7682 159.216 62.1484C159.216 62.4974 159.075 62.8073 158.794 63.0781C157.7 62.5781 156.685 62.3281 155.747 62.3281C155.086 62.3281 154.617 62.4609 154.341 62.7266C154.07 62.987 153.935 63.349 153.935 63.8125C153.935 64.2969 154.096 64.6823 154.419 64.9688C154.747 65.2552 155.367 65.5417 156.279 65.8281C157.357 66.151 158.172 66.5234 158.724 66.9453C159.281 67.362 159.575 68.0391 159.607 68.9766C159.607 70.0234 159.247 70.8151 158.529 71.3516C157.815 71.888 156.721 72.1562 155.247 72.1562C154.221 72.1562 153.443 72.0833 152.911 71.9375C152.38 71.7917 152.115 71.5208 152.115 71.125C152.115 70.7656 152.266 70.4479 152.568 70.1719C153.599 70.7344 154.672 71.0156 155.786 71.0156C156.552 71.0156 157.096 70.8906 157.419 70.6406C157.742 70.3906 157.904 70.0052 157.904 69.4844C157.904 68.8594 157.669 68.3906 157.2 68.0781C156.737 67.7656 155.995 67.4479 154.974 67.125C153.984 66.8229 153.279 66.4453 152.857 65.9922C152.44 65.5339 152.232 64.9349 152.232 64.1953C152.232 63.2734 152.573 62.5417 153.255 62C153.943 61.4531 154.927 61.1797 156.208 61.1797ZM165.038 61.2188C165.627 61.2188 165.96 61.2422 166.038 61.2891C166.116 61.3307 166.642 62.7865 167.616 65.6562C168.59 68.5208 169.249 70.3672 169.593 71.1953H170.28C170.343 71.3516 170.374 71.5026 170.374 71.6484C170.374 71.7786 170.348 71.8698 170.296 71.9219C170.244 71.974 170.153 72 170.023 72H166.78C166.713 71.8229 166.679 71.6589 166.679 71.5078C166.679 71.3984 166.705 71.3203 166.757 71.2734C166.814 71.2214 166.905 71.1953 167.03 71.1953H167.452C167.353 70.7318 167.103 69.8411 166.702 68.5234H163.179C162.814 69.8307 162.596 70.7214 162.523 71.1953H163.249C163.312 71.3516 163.343 71.5026 163.343 71.6484C163.343 71.7786 163.317 71.8698 163.265 71.9219C163.213 71.974 163.122 72 162.991 72H160.116C160.054 71.8229 160.023 71.6589 160.023 71.5078C160.023 71.3984 160.049 71.3203 160.101 71.2734C160.158 71.2214 160.249 71.1953 160.374 71.1953H160.827C161.171 70.2474 161.741 68.5365 162.538 66.0625C163.335 63.5833 163.827 62.1562 164.015 61.7812C164.202 61.4062 164.543 61.2188 165.038 61.2188ZM163.452 67.5156H166.398C165.45 64.5 164.939 62.9922 164.866 62.9922C164.799 62.9922 164.327 64.5 163.452 67.5156ZM176.407 61.3359H179.243C179.306 61.4922 179.337 61.6432 179.337 61.7891C179.337 61.9193 179.311 62.0104 179.259 62.0625C179.207 62.1146 179.116 62.1406 178.985 62.1406H178.626C178.314 63.0885 177.762 64.8229 176.97 67.3438C176.183 69.8646 175.691 71.2917 175.493 71.625C175.301 71.9531 174.944 72.1172 174.423 72.1172C173.819 72.1172 173.483 72.0964 173.415 72.0547C173.353 72.013 172.858 70.5599 171.931 67.6953C171.004 64.8255 170.363 62.974 170.009 62.1406H169.4C169.332 61.9635 169.298 61.7995 169.298 61.6484C169.298 61.5391 169.324 61.4609 169.376 61.4141C169.433 61.362 169.525 61.3359 169.65 61.3359H172.798C172.866 61.4922 172.9 61.6432 172.9 61.7891C172.9 61.9193 172.873 62.0104 172.821 62.0625C172.769 62.1146 172.676 62.1406 172.54 62.1406H172.15C172.295 62.8021 172.735 64.3438 173.47 66.7656C174.209 69.1823 174.616 70.3906 174.689 70.3906C174.762 70.3906 175.123 69.1875 175.775 66.7812C176.426 64.375 176.782 62.8281 176.845 62.1406H176.157C176.09 61.9635 176.056 61.7995 176.056 61.6484C176.056 61.5391 176.082 61.4609 176.134 61.4141C176.191 61.362 176.282 61.3359 176.407 61.3359ZM180.198 61.3359H186.886C187.183 61.3359 187.386 61.3776 187.495 61.4609C187.605 61.5443 187.659 61.7109 187.659 61.9609C187.659 62.2786 187.56 62.6068 187.362 62.9453C186.378 62.5443 185.024 62.3438 183.3 62.3438H182.62C182.584 62.9323 182.568 64.1016 182.573 65.8516H186.659C186.727 66.0547 186.761 66.2682 186.761 66.4922C186.761 66.638 186.735 66.737 186.683 66.7891C186.631 66.8359 186.529 66.8594 186.378 66.8594H182.565C182.571 69.1094 182.589 70.487 182.62 70.9922H183.714C185.375 70.9922 186.68 70.8099 187.628 70.4453C187.795 70.7318 187.878 71.0286 187.878 71.3359C187.878 71.5651 187.802 71.7344 187.651 71.8438C187.5 71.9479 187.193 72 186.73 72L179.948 72.0078C179.881 71.8307 179.847 71.6641 179.847 71.5078C179.847 71.4036 179.873 71.3281 179.925 71.2812C179.982 71.2292 180.073 71.2031 180.198 71.2031H180.776C180.813 70.474 180.831 68.6146 180.831 65.625C180.831 64.026 180.813 62.8646 180.776 62.1406H179.948C179.881 61.9635 179.847 61.7995 179.847 61.6484C179.847 61.5391 179.873 61.4609 179.925 61.4141C179.982 61.362 180.073 61.3359 180.198 61.3359ZM200.087 62.2969C199.472 62.3125 199.022 62.4531 198.735 62.7188C198.454 62.9844 198.313 63.349 198.313 63.8125C198.313 64.2812 198.457 64.6484 198.743 64.9141C199.035 65.1745 199.483 65.4193 200.087 65.6484V62.2969ZM200.516 73.6641C200.381 73.7318 200.175 73.7656 199.899 73.7656C199.722 73.7656 199.605 73.7266 199.548 73.6484C199.49 73.5703 199.462 73.4271 199.462 73.2188V72.1562C198.514 72.1458 197.782 72.0703 197.266 71.9297C196.751 71.7891 196.493 71.5208 196.493 71.125C196.493 70.7656 196.647 70.4479 196.954 70.1719C197.735 70.6042 198.571 70.8672 199.462 70.9609V67.1719C198.394 66.8281 197.652 66.4323 197.235 65.9844C196.824 65.5312 196.618 64.9349 196.618 64.1953C196.618 63.2786 196.933 62.5651 197.563 62.0547C198.199 61.5443 198.975 61.2656 199.891 61.2188V59.7266C200.1 59.6641 200.29 59.6328 200.462 59.6328C200.675 59.6328 200.808 59.6719 200.86 59.75C200.917 59.8229 200.946 59.9349 200.946 60.0859V61.1875C201.884 61.2031 202.561 61.2734 202.977 61.3984C203.394 61.5182 203.602 61.7682 203.602 62.1484C203.602 62.4974 203.462 62.8073 203.18 63.0781C202.404 62.724 201.66 62.4974 200.946 62.3984V65.9141C201.884 66.2214 202.623 66.5807 203.165 66.9922C203.712 67.3984 203.985 68.0807 203.985 69.0391C203.985 69.987 203.673 70.7214 203.048 71.2422C202.428 71.7578 201.584 72.0495 200.516 72.1172V73.6641ZM200.321 67.4531V71.0156C201.019 70.9948 201.522 70.8646 201.829 70.625C202.136 70.3854 202.29 70.0052 202.29 69.4844C202.29 68.8802 202.087 68.4349 201.68 68.1484C201.274 67.862 200.821 67.6302 200.321 67.4531ZM208.581 71.1953C208.622 70.4714 208.643 68.4453 208.643 65.1172C208.643 64.1224 208.633 63.5182 208.612 63.3047C208.591 63.0859 208.544 62.9245 208.471 62.8203C208.398 62.7161 208.284 62.6484 208.128 62.6172C207.971 62.5859 207.747 62.5703 207.456 62.5703H206.87C206.807 62.4557 206.776 62.3359 206.776 62.2109C206.776 61.9245 207.138 61.7083 207.862 61.5625C208.586 61.4115 209.167 61.3359 209.604 61.3359C209.828 61.3359 209.992 61.362 210.096 61.4141C210.206 61.4609 210.279 61.5521 210.315 61.6875C210.352 61.8229 210.37 62.0339 210.37 62.3203V65.7188C210.37 68.6458 210.388 70.4714 210.425 71.1953H212.206C212.273 71.3307 212.307 71.4766 212.307 71.6328C212.307 71.7734 212.279 71.8698 212.221 71.9219C212.164 71.974 212.052 72 211.885 72H206.839C206.771 71.8333 206.737 71.6771 206.737 71.5312C206.737 71.4167 206.766 71.3333 206.823 71.2812C206.88 71.224 206.974 71.1953 207.104 71.1953H208.581ZM218.309 72.1562C217.018 72.1562 216.046 71.8307 215.395 71.1797C214.749 70.5286 214.426 69.2656 214.426 67.3906C214.426 65.1562 214.807 63.5625 215.567 62.6094C216.327 61.6562 217.447 61.1797 218.926 61.1797C220.187 61.1797 221.14 61.5052 221.786 62.1562C222.437 62.8073 222.762 64.1094 222.762 66.0625C222.762 68.2188 222.382 69.7734 221.622 70.7266C220.861 71.6797 219.757 72.1562 218.309 72.1562ZM218.551 62.3203C217.843 62.3203 217.296 62.6146 216.911 63.2031C216.531 63.7865 216.34 64.8906 216.34 66.5156C216.34 68.3021 216.528 69.5 216.903 70.1094C217.283 70.7135 217.877 71.0156 218.684 71.0156C219.387 71.0156 219.924 70.724 220.294 70.1406C220.663 69.5521 220.848 68.4844 220.848 66.9375C220.848 65.125 220.658 63.9036 220.278 63.2734C219.898 62.638 219.322 62.3203 218.551 62.3203Z" fill="white"/>
<path d="M195.384 68H223.411V68.7969H195.384V68Z" fill="white"/>
<path d="M38.6797 36.3965C38.6797 34.8574 38.998 33.7207 39.6348 32.9863C40.2754 32.252 41.1777 31.8848 42.3418 31.8848C43.4043 31.8848 44.2129 32.1523 44.7676 32.6875C45.3223 33.2188 45.5996 34.1914 45.5996 35.6055C45.5996 37.1445 45.2793 38.2812 44.6387 39.0156C44.002 39.75 43.1016 40.1172 41.9375 40.1172C40.875 40.1172 40.0664 39.8516 39.5117 39.3203C38.957 38.7891 38.6797 37.8145 38.6797 36.3965ZM40.1152 35.8574C40.1152 37.1621 40.291 38.0566 40.6426 38.541C40.998 39.0215 41.5234 39.2617 42.2188 39.2617C42.8633 39.2617 43.3477 39.0176 43.6719 38.5293C44 38.041 44.1641 37.2461 44.1641 36.1445C44.1641 34.8242 43.9863 33.9277 43.6309 33.4551C43.2793 32.9785 42.7559 32.7402 42.0605 32.7402C41.416 32.7402 40.9297 32.9844 40.6016 33.4727C40.2773 33.9609 40.1152 34.7559 40.1152 35.8574ZM47.8202 32.002H49.6835C50.3124 33.1387 50.9042 34.1758 51.4589 35.1133C52.0175 36.0469 52.6249 37.1621 53.2812 38.459V35.2188C53.2812 34.0195 53.2675 33.1484 53.2402 32.6055H52.6366C52.5859 32.4727 52.5605 32.3496 52.5605 32.2363C52.5605 32.1543 52.58 32.0957 52.6191 32.0605C52.662 32.0215 52.7304 32.002 52.8241 32.002H55.0273C55.0741 32.1191 55.0976 32.2324 55.0976 32.3418C55.0976 32.4395 55.078 32.5078 55.039 32.5469C54.9999 32.5859 54.9316 32.6055 54.8339 32.6055H54.3593C54.332 33.1484 54.3183 34.043 54.3183 35.2891V39.5254C54.3183 39.7559 54.2831 39.9023 54.2128 39.9648C54.1464 40.0273 53.9882 40.0586 53.7382 40.0586C53.2538 40.0586 52.9745 40.0391 52.9003 40C52.83 39.9648 52.3554 39.2402 51.4765 37.8262C50.6015 36.4121 49.8671 35.0898 49.2734 33.8594C49.2734 37.0078 49.287 38.8535 49.3144 39.3965H49.8886C49.9394 39.5137 49.9648 39.627 49.9648 39.7363C49.9648 39.834 49.9452 39.9023 49.9062 39.9414C49.8671 39.9805 49.7968 40 49.6952 40H47.5155C47.4648 39.8672 47.4394 39.7441 47.4394 39.6309C47.4394 39.5488 47.4589 39.4902 47.498 39.4551C47.5409 39.416 47.6093 39.3965 47.703 39.3965H48.1952C48.2226 38.8535 48.2362 37.4609 48.2362 35.2188C48.2362 34.0195 48.2206 33.1484 48.1894 32.6055H47.6327C47.582 32.4727 47.5566 32.3496 47.5566 32.2363C47.5566 32.1543 47.5761 32.0957 47.6152 32.0605C47.6581 32.0215 47.7265 32.002 47.8202 32.002ZM57.119 32.002H62.1346C62.3573 32.002 62.5096 32.0332 62.5916 32.0957C62.6737 32.1582 62.7147 32.2832 62.7147 32.4707C62.7147 32.709 62.6405 32.9551 62.492 33.209C61.7537 32.9082 60.7381 32.7578 59.4452 32.7578H58.9354C58.908 33.1992 58.8963 34.0762 58.9002 35.3887H61.9647C62.0155 35.541 62.0409 35.7012 62.0409 35.8691C62.0409 35.9785 62.0213 36.0527 61.9823 36.0918C61.9432 36.127 61.867 36.1445 61.7537 36.1445H58.8944C58.8983 37.832 58.912 38.8652 58.9354 39.2441H59.7557C61.0018 39.2441 61.9803 39.1074 62.6912 38.834C62.8162 39.0488 62.8787 39.2715 62.8787 39.502C62.8787 39.6738 62.8221 39.8008 62.7088 39.8828C62.5955 39.9609 62.3651 40 62.0174 40L56.9315 40.0059C56.8807 39.873 56.8553 39.748 56.8553 39.6309C56.8553 39.5527 56.8748 39.4961 56.9139 39.4609C56.9569 39.4219 57.0252 39.4023 57.119 39.4023H57.5526C57.5799 38.8555 57.5936 37.4609 57.5936 35.2188C57.5936 34.0195 57.5799 33.1484 57.5526 32.6055H56.9315C56.8807 32.4727 56.8553 32.3496 56.8553 32.2363C56.8553 32.1543 56.8748 32.0957 56.9139 32.0605C56.9569 32.0215 57.0252 32.002 57.119 32.002ZM68.4567 32.002H70.8649C71.0524 32.6816 71.3141 33.5449 71.6501 34.5918C71.986 35.6387 72.2477 36.4941 72.4352 37.1582C72.6227 37.8184 72.7302 38.1484 72.7575 38.1484C72.7848 38.1484 73.0466 37.3066 73.5427 35.623C74.0387 33.9395 74.3708 32.7324 74.5387 32.002H76.9118C76.9587 32.1191 76.9821 32.2324 76.9821 32.3418C76.9821 32.4395 76.9626 32.5078 76.9235 32.5469C76.8845 32.5859 76.8161 32.6055 76.7184 32.6055H76.3317C76.3161 33.3242 76.3278 34.5 76.3669 36.1328C76.4059 37.7656 76.445 38.8535 76.4841 39.3965H77.0524C77.1032 39.5137 77.1286 39.627 77.1286 39.7363C77.1286 39.834 77.1091 39.9023 77.07 39.9414C77.0309 39.9805 76.9606 40 76.8591 40H74.5622C74.5114 39.8672 74.486 39.7441 74.486 39.6309C74.486 39.5488 74.5055 39.4902 74.5446 39.4551C74.5876 39.416 74.6559 39.3965 74.7497 39.3965H75.0954C75.1266 38.7168 75.113 36.6504 75.0544 33.1973C74.7497 34.3691 74.3981 35.5625 73.9997 36.7773C73.6012 37.9922 73.3376 38.7109 73.2087 38.9336C73.0798 39.1562 72.8708 39.2676 72.5817 39.2676C72.1677 39.2676 71.9352 39.252 71.8845 39.2207C71.8376 39.1895 71.5759 38.5078 71.0993 37.1758C70.6266 35.8398 70.2106 34.5039 69.8512 33.168C69.8395 36.6406 69.8473 38.7168 69.8747 39.3965H70.4196C70.4665 39.5137 70.4899 39.627 70.4899 39.7363C70.4899 39.834 70.4704 39.9023 70.4313 39.9414C70.3923 39.9805 70.3239 40 70.2262 40H68.07C68.0231 39.8672 67.9997 39.7441 67.9997 39.6309C67.9997 39.5488 68.0192 39.4902 68.0583 39.4551C68.1012 39.416 68.1696 39.3965 68.2634 39.3965H68.6911C68.7341 38.8535 68.7731 37.7656 68.8083 36.1328C68.8473 34.5 68.863 33.3242 68.8552 32.6055H68.2634C68.2165 32.4727 68.193 32.3496 68.193 32.2363C68.193 32.1543 68.2126 32.0957 68.2516 32.0605C68.2946 32.0215 68.363 32.002 68.4567 32.002ZM78.8805 36.3965C78.8805 34.8574 79.1988 33.7207 79.8355 32.9863C80.4762 32.252 81.3785 31.8848 82.5426 31.8848C83.6051 31.8848 84.4137 32.1523 84.9684 32.6875C85.523 33.2188 85.8004 34.1914 85.8004 35.6055C85.8004 37.1445 85.4801 38.2812 84.8395 39.0156C84.2027 39.75 83.3023 40.1172 82.1383 40.1172C81.0758 40.1172 80.2672 39.8516 79.7125 39.3203C79.1578 38.7891 78.8805 37.8145 78.8805 36.3965ZM80.316 35.8574C80.316 37.1621 80.4918 38.0566 80.8434 38.541C81.1988 39.0215 81.7242 39.2617 82.4195 39.2617C83.0641 39.2617 83.5484 39.0176 83.8727 38.5293C84.2008 38.041 84.3648 37.2461 84.3648 36.1445C84.3648 34.8242 84.1871 33.9277 83.8316 33.4551C83.4801 32.9785 82.9566 32.7402 82.2613 32.7402C81.6168 32.7402 81.1305 32.9844 80.8023 33.4727C80.4781 33.9609 80.316 34.7559 80.316 35.8574ZM88.021 32.002H89.8843C90.5132 33.1387 91.105 34.1758 91.6597 35.1133C92.2183 36.0469 92.8257 37.1621 93.482 38.459V35.2188C93.482 34.0195 93.4683 33.1484 93.4409 32.6055H92.8374C92.7866 32.4727 92.7612 32.3496 92.7612 32.2363C92.7612 32.1543 92.7808 32.0957 92.8198 32.0605C92.8628 32.0215 92.9312 32.002 93.0249 32.002H95.228C95.2749 32.1191 95.2984 32.2324 95.2984 32.3418C95.2984 32.4395 95.2788 32.5078 95.2398 32.5469C95.2007 32.5859 95.1323 32.6055 95.0347 32.6055H94.5601C94.5327 33.1484 94.5191 34.043 94.5191 35.2891V39.5254C94.5191 39.7559 94.4839 39.9023 94.4136 39.9648C94.3472 40.0273 94.189 40.0586 93.939 40.0586C93.4546 40.0586 93.1753 40.0391 93.1011 40C93.0308 39.9648 92.5562 39.2402 91.6773 37.8262C90.8023 36.4121 90.0679 35.0898 89.4741 33.8594C89.4741 37.0078 89.4878 38.8535 89.5152 39.3965H90.0894C90.1402 39.5137 90.1655 39.627 90.1655 39.7363C90.1655 39.834 90.146 39.9023 90.107 39.9414C90.0679 39.9805 89.9976 40 89.896 40H87.7163C87.6655 39.8672 87.6402 39.7441 87.6402 39.6309C87.6402 39.5488 87.6597 39.4902 87.6987 39.4551C87.7417 39.416 87.8101 39.3965 87.9038 39.3965H88.396C88.4234 38.8535 88.437 37.4609 88.437 35.2188C88.437 34.0195 88.4214 33.1484 88.3902 32.6055H87.8335C87.7827 32.4727 87.7573 32.3496 87.7573 32.2363C87.7573 32.1543 87.7769 32.0957 87.8159 32.0605C87.8589 32.0215 87.9273 32.002 88.021 32.002ZM99.3354 39.3965C99.3666 38.8535 99.3823 37.4609 99.3823 35.2188C99.3823 34.0195 99.3666 33.1992 99.3354 32.7578C97.9487 32.8164 97.1655 32.8457 96.9858 32.8457C96.8139 32.8457 96.6948 32.8184 96.6284 32.7637C96.562 32.709 96.5288 32.6055 96.5288 32.4531C96.5288 32.2344 96.5834 31.9961 96.6928 31.7383C97.3569 31.9141 98.3198 32.002 99.5815 32.002H103.244C103.415 32.002 103.535 32.0312 103.601 32.0898C103.671 32.1445 103.706 32.2461 103.706 32.3945C103.706 32.668 103.626 32.9277 103.466 33.1738C102.814 32.8965 101.966 32.7578 100.923 32.7578H100.724C100.693 33.1992 100.677 34.043 100.677 35.2891C100.677 37.4844 100.693 38.8535 100.724 39.3965H101.562C101.609 39.5137 101.632 39.627 101.632 39.7363C101.632 39.834 101.613 39.9023 101.574 39.9414C101.535 39.9805 101.466 40 101.369 40H98.4975C98.4467 39.8672 98.4213 39.7441 98.4213 39.6309C98.4213 39.5488 98.4409 39.4902 98.4799 39.4551C98.5229 39.416 98.5913 39.3965 98.685 39.3965H99.3354ZM105.201 32.002H107.667C107.714 32.1191 107.738 32.2324 107.738 32.3418C107.738 32.4395 107.718 32.5078 107.679 32.5469C107.64 32.5859 107.572 32.6055 107.474 32.6055H107.058C107.031 33.1484 107.017 34.0762 107.017 35.3887H110.492C110.488 34.0762 110.472 33.1484 110.445 32.6055H109.841C109.79 32.4727 109.765 32.3496 109.765 32.2363C109.765 32.1543 109.785 32.0957 109.824 32.0605C109.867 32.0215 109.935 32.002 110.029 32.002H112.495C112.542 32.1191 112.566 32.2324 112.566 32.3418C112.566 32.4395 112.546 32.5078 112.507 32.5469C112.468 32.5859 112.4 32.6055 112.302 32.6055H111.827C111.8 33.1484 111.786 34.043 111.786 35.2891C111.786 37.4844 111.802 38.8535 111.833 39.3965H112.495C112.542 39.5137 112.566 39.627 112.566 39.7363C112.566 39.834 112.546 39.9023 112.507 39.9414C112.468 39.9805 112.4 40 112.302 40H109.841C109.79 39.8672 109.765 39.7441 109.765 39.6309C109.765 39.5488 109.785 39.4902 109.824 39.4551C109.867 39.416 109.935 39.3965 110.029 39.3965H110.445C110.472 38.9355 110.488 37.8516 110.492 36.1445H107.017C107.021 37.8477 107.036 38.9316 107.064 39.3965H107.667C107.714 39.5137 107.738 39.627 107.738 39.7363C107.738 39.834 107.718 39.9023 107.679 39.9414C107.64 39.9805 107.572 40 107.474 40H105.013C104.962 39.8672 104.937 39.7441 104.937 39.6309C104.937 39.5488 104.956 39.4902 104.995 39.4551C105.038 39.416 105.107 39.3965 105.201 39.3965H105.675C105.706 38.8535 105.722 37.4609 105.722 35.2188C105.718 34.0195 105.702 33.1484 105.675 32.6055H105.013C104.962 32.4727 104.937 32.3496 104.937 32.2363C104.937 32.1543 104.956 32.0957 104.995 32.0605C105.038 32.0215 105.107 32.002 105.201 32.002Z" fill="white"/>
<path d="M287.566 5.18462C286.283 5.53064 283.961 6.74173 282.952 7.57796C281.337 8.91882 280.703 9.94247 278.439 14.8301C277.516 16.8342 277.271 17.4686 276.81 19.1987C276.608 19.9196 276.594 20.2079 276.724 20.6116C276.868 21.0874 276.824 21.2172 276.233 22.3418C275.887 23.005 275.599 23.7259 275.599 23.9277C275.599 24.1584 275.815 24.5765 276.118 24.9514L276.637 25.5858L276.277 26.0471C275.296 27.3447 275.181 28.2819 275.931 28.9884C276.176 29.2335 276.536 29.5074 276.709 29.5939C277.098 29.7958 277.978 29.7958 278.353 29.6083C278.497 29.5218 278.627 29.5074 278.627 29.5795C278.627 29.7813 277.92 31.4682 277.387 32.5063C276.911 33.4579 276.897 33.4867 276.075 33.7174C273.307 34.496 272.225 34.9573 271.158 35.7935C268.851 37.6246 268.203 40.7677 267.813 51.8117C267.64 56.5696 267.539 57.9104 266.977 62.2646C266.66 64.8165 266.602 65.8402 266.602 68.8247C266.602 72.1264 266.631 72.53 267.064 75.0964C267.583 78.1818 267.885 81.0365 268.044 84.0354C268.087 85.1456 268.231 86.3423 268.347 86.6883C268.635 87.5678 270.207 91.302 271.648 94.5748L272.86 97.343L272.643 99.0443C271.879 105.129 271.706 108.632 271.706 118.782C271.706 123.857 271.634 128.399 271.562 129.307C271.403 130.893 270.365 135.377 267.712 145.816C265.939 152.794 265.478 155.072 263.704 165.64C263.113 169.129 262.536 172.445 262.421 173.022C261.844 175.689 261.152 179.769 261.037 181.081C260.965 181.889 260.835 182.826 260.749 183.172C260.59 183.792 260.561 183.821 259.235 184.441C258.499 184.787 257.764 185.205 257.606 185.378C257.216 185.811 257 186.531 257 187.425C257 188.074 257.072 188.276 257.404 188.636C257.721 188.997 257.966 189.098 258.802 189.213C261.816 189.631 266.862 189.083 267.511 188.247C267.684 188.045 268.058 186.762 268.477 185.061C269.702 179.914 270.351 178.4 271.072 178.991C271.533 179.38 272.038 181.99 272.211 184.888C272.341 187.281 272.398 187.598 272.687 187.555C272.816 187.526 273.09 187.469 273.292 187.425L273.653 187.353L273.595 183.662C273.537 179.568 273.653 178.457 274.316 176.223C274.546 175.444 274.734 174.651 274.734 174.464C274.734 174.233 274.446 173.901 273.725 173.296C271.634 171.58 270.409 169.663 270.409 168.12C270.409 167.01 270.654 166.419 273.696 160.233C276.709 154.091 278.482 150.17 279.146 148.195C279.477 147.2 279.751 145.917 279.996 144.143C280.587 140.063 281.15 138.03 282.361 135.608C283.082 134.18 284.105 131.571 284.524 130.086C284.697 129.495 284.927 128.139 285.057 127.072C285.417 123.958 286.254 120.224 287.854 114.673C289.642 108.474 291.04 104.855 292.367 102.966C292.756 102.418 293.059 101.726 293.318 100.803L293.708 99.4625L294.371 99.4192L295.034 99.3759L295.207 100.428C295.683 103.312 296.995 108.358 297.745 110.146C298.999 113.188 301.291 122.012 301.911 126.135C302.647 131.182 302.791 131.729 303.699 133.272C304.579 134.743 305.674 137.006 306.006 138.001C306.165 138.491 306.439 139.558 306.612 140.38C307.044 142.442 308.63 147.171 311.254 154.178C314.296 162.324 315.032 164.688 315.406 167.543C315.652 169.374 315.435 170.874 314.585 173.354C313.936 175.213 313.921 175.343 313.993 176.453C314.051 177.088 314.253 178.414 314.469 179.409C314.83 181.081 314.859 181.485 314.873 184.989C314.873 187.065 314.916 188.795 314.959 188.824C315.003 188.867 315.262 188.939 315.551 188.997L316.07 189.098L316.156 188.319C316.214 187.901 316.257 187.166 316.271 186.69C316.286 186.214 316.329 185.666 316.387 185.464C316.473 185.162 316.531 185.234 316.747 186.041C316.891 186.56 317.05 187.411 317.093 187.944C317.122 188.478 317.237 188.982 317.338 189.069C317.857 189.501 324.317 189.602 325.701 189.213C326.537 188.968 326.739 188.723 326.926 187.714C327.142 186.531 326.897 185.479 326.003 183.821C324.792 181.572 324.317 179.784 323.264 173.411C322.154 166.707 322.024 165.64 321.88 162.036C321.678 157.191 321.303 153.5 320.582 149.348C320.063 146.421 319.66 144.72 317.108 134.829C316.315 131.758 315.464 128.298 315.233 127.116L314.786 124.982L314.671 116.98C314.426 100.472 314.325 99.6355 311.629 92.2824C310.749 89.8746 309.913 87.9859 309.12 86.6162L308.861 86.1693L309.538 84.4536C309.913 83.5164 311.009 80.9068 311.961 78.6576C313.835 74.2169 314.267 72.7896 314.527 70.252C314.758 67.8298 314.585 66.5611 313.027 59.5829C311.557 53.0084 311.297 51.6243 311.067 49.5049C310.764 46.6646 309.351 42.2527 308.125 40.3063C307.664 39.571 306.986 39.1241 304.939 38.2446L303.368 37.5525L303.425 36.9326C303.468 36.5865 303.497 35.2457 303.483 33.9337C303.468 31.3385 303.195 29.4065 302.69 28.3828L302.402 27.7917L302.791 26.2922C303.065 25.2109 303.195 24.2737 303.238 23.0482L303.31 21.3181L302.56 19.8186C302.142 18.9824 301.19 16.8774 300.441 15.1329C298.422 10.4327 297.413 8.45744 296.649 7.6933C295.423 6.45338 293.03 5.47296 291.747 5.67482C291.372 5.73248 291.112 5.67482 290.709 5.4153C290.017 4.96835 288.676 4.86742 287.566 5.18462ZM303.642 58.0114C304.982 60.6931 307.462 67.0513 307.462 67.8154C307.462 67.9596 307.26 68.6805 307.03 69.4158C306.467 71.1027 306.208 72.6598 306.02 75.2983C305.948 76.4373 305.862 77.4033 305.819 77.4321C305.732 77.5186 305.098 76.5094 304.824 75.8461C304.708 75.5722 303.843 74.1593 302.906 72.7031C300.801 69.4302 300.297 68.4498 300.181 67.3973C300.138 66.9504 300.037 66.0709 299.951 65.4221C299.835 64.6003 299.85 63.9226 299.965 63.0432C300.224 61.1112 300.585 59.1648 300.686 59.1648C300.873 59.1648 302.402 61.4428 302.531 61.9186L302.661 62.4088L302.863 61.8321C302.964 61.5149 303.05 60.794 303.05 60.2173C303.05 59.3378 302.978 59.0494 302.589 58.2853C302.185 57.5067 302.128 57.2472 302.128 56.2956V55.1999L302.43 55.7045C302.603 55.9784 303.151 57.0165 303.642 58.0114ZM274.2 70.2953C274.719 71.3334 274.892 72.804 274.979 76.7689C275.022 78.8739 275.008 81.8151 274.95 83.2857C274.849 85.953 274.849 85.9963 274.532 85.8953C273.912 85.7223 273.148 85.1168 273.061 84.7275C273.004 84.5112 273.061 83.5164 273.206 82.5216C273.393 81.1519 273.451 79.7389 273.436 76.8121C273.422 72.2417 273.552 69.6609 273.782 69.733C273.869 69.7618 274.056 70.0069 274.2 70.2953Z" fill="white" fill-opacity="0.3"/>
</g>
<defs>
<filter id="filter0_d_152_857" x="0" y="0" width="353" height="122" filterUnits="userSpaceOnUse" color-interpolation-filters="sRGB">
<feFlood flood-opacity="0" result="BackgroundImageFix"/>
<feColorMatrix in="SourceAlpha" type="matrix" values="0 0 0 0 0 0 0 0 0 0 0 0 0 0 0 0 0 0 127 0" result="hardAlpha"/>
<feOffset dy="16"/>
<feGaussianBlur stdDeviation="8"/>
<feColorMatrix type="matrix" values="0 0 0 0 0.8 0 0 0 0 0.8 0 0 0 0 0.8 0 0 0 0.25 0"/>
<feBlend mode="normal" in2="BackgroundImageFix" result="effect1_dropShadow_152_857"/>
<feBlend mode="normal" in="SourceGraphic" in2="effect1_dropShadow_152_857" result="shape"/>
</filter>
<clipPath id="clip0_152_857">
<rect width="321" height="90" fill="white" transform="translate(16)"/>
</clipPath>
</defs>
</svg>
