<svg width="353" height="122" viewBox="0 0 353 122" fill="none" xmlns="http://www.w3.org/2000/svg">
<g clip-path="url(#clip0_152_856)" filter="url(#filter0_d_152_856)">
<rect x="16" width="321" height="90" rx="16" fill="#8F0115" fill-opacity="0.8"/>
<path d="M46.2393 56.7529C45.3506 56.7699 44.6989 56.9561 44.2842 57.3115C43.8695 57.667 43.6621 58.1579 43.6621 58.7842C43.6621 59.4697 43.8652 59.9902 44.2715 60.3457C44.6862 60.6927 45.3421 61.027 46.2393 61.3486V56.7529ZM46.6963 74.7041C46.417 74.848 45.9769 74.9199 45.376 74.9199C45.0374 74.9199 44.8005 74.848 44.665 74.7041C44.5296 74.5602 44.4619 74.3021 44.4619 73.9297V72.2412C42.9385 72.2158 41.7663 72.0762 40.9453 71.8223C40.1328 71.5684 39.7266 71.0394 39.7266 70.2354C39.7266 69.5244 40.0186 68.8939 40.6025 68.3438C41.9398 69.0208 43.2262 69.4652 44.4619 69.6768V64.7129C42.8623 64.2474 41.7028 63.6253 40.9834 62.8467C40.264 62.068 39.9043 61.0566 39.9043 59.8125C39.9043 58.1367 40.4629 56.8503 41.5801 55.9531C42.7057 55.0475 44.0641 54.5524 45.6553 54.4678V52.0557C46.1123 51.9118 46.5228 51.8398 46.8867 51.8398C47.3438 51.8398 47.623 51.916 47.7246 52.0684C47.8346 52.2207 47.8896 52.4238 47.8896 52.6777V54.4424C49.4046 54.4847 50.4837 54.6201 51.127 54.8486C51.7702 55.0687 52.0918 55.5469 52.0918 56.2832C52.0918 56.9857 51.8337 57.6162 51.3174 58.1748C50.0732 57.6162 48.9307 57.2354 47.8896 57.0322V61.8057C49.3285 62.2373 50.5049 62.8001 51.4189 63.4941C52.3415 64.1797 52.8027 65.3434 52.8027 66.9854C52.8027 68.5765 52.2399 69.8122 51.1143 70.6924C49.9971 71.5641 48.5244 72.0592 46.6963 72.1777V74.7041ZM46.1123 65.1953V69.8418C47.221 69.8164 47.9827 69.6598 48.3975 69.3721C48.8206 69.0843 49.0322 68.6019 49.0322 67.9248C49.0322 67.1377 48.7233 66.5452 48.1055 66.1475C47.4876 65.7412 46.8232 65.4238 46.1123 65.1953ZM61.8378 65.2969C59.705 65.2969 58.1943 64.8949 57.3056 64.0908C56.4254 63.2868 55.9853 62.14 55.9853 60.6504C55.9853 58.8138 56.637 57.3158 57.9404 56.1562C59.2437 54.9967 61.0253 54.417 63.2851 54.417C65.621 54.417 67.2968 54.9798 68.3124 56.1055C69.328 57.2311 69.8359 59.0762 69.8359 61.6406C69.8359 65.2715 69.0403 67.9502 67.4491 69.6768C65.858 71.3949 63.2555 72.2539 59.6415 72.2539C58.0504 72.2539 57.0898 72.1566 56.7597 71.9619C56.4296 71.7673 56.2646 71.4202 56.2646 70.9209C56.2646 70.3031 56.4719 69.7106 56.8866 69.1436C57.9615 69.5921 59.0702 69.8164 60.2128 69.8164C61.9902 69.8164 63.3105 69.3636 64.1737 68.458C64.7747 67.8232 65.164 66.5791 65.3417 64.7256C64.1991 65.1064 63.0312 65.2969 61.8378 65.2969ZM65.456 62.0469C65.456 60.3372 65.219 59.0465 64.745 58.1748C64.2711 57.2946 63.5178 56.8545 62.4853 56.8545C61.6982 56.8545 61.148 57.0745 60.8349 57.5146C60.5217 57.9548 60.3652 58.6064 60.3652 59.4697C60.3652 60.8154 60.7249 61.7507 61.4443 62.2754C62.1721 62.8001 63.5051 62.9736 65.4433 62.7959C65.4517 62.5589 65.456 62.3092 65.456 62.0469ZM77.7284 72.2539C76.9074 72.2539 76.3065 72.1016 75.9256 71.7969C75.5448 71.4837 75.3543 71.0352 75.3543 70.4512C75.3543 69.8672 75.5617 69.4229 75.9764 69.1182C76.3996 68.8135 76.9836 68.6611 77.7284 68.6611C78.5493 68.6611 79.1502 68.8135 79.5311 69.1182C79.912 69.4229 80.1024 69.8672 80.1024 70.4512C80.1024 71.0352 79.8908 71.4837 79.4676 71.7969C79.0529 72.1016 78.4732 72.2539 77.7284 72.2539ZM91.0798 65.2969C88.947 65.2969 87.4363 64.8949 86.5476 64.0908C85.6674 63.2868 85.2273 62.14 85.2273 60.6504C85.2273 58.8138 85.879 57.3158 87.1824 56.1562C88.4858 54.9967 90.2673 54.417 92.5271 54.417C94.863 54.417 96.5388 54.9798 97.5545 56.1055C98.5701 57.2311 99.0779 59.0762 99.0779 61.6406C99.0779 65.2715 98.2823 67.9502 96.6912 69.6768C95.1 71.3949 92.4975 72.2539 88.8836 72.2539C87.2924 72.2539 86.3318 72.1566 86.0017 71.9619C85.6716 71.7673 85.5066 71.4202 85.5066 70.9209C85.5066 70.3031 85.714 69.7106 86.1287 69.1436C87.2035 69.5921 88.3123 69.8164 89.4548 69.8164C91.2322 69.8164 92.5525 69.3636 93.4158 68.458C94.0167 67.8232 94.406 66.5791 94.5838 64.7256C93.4412 65.1064 92.2732 65.2969 91.0798 65.2969ZM94.698 62.0469C94.698 60.3372 94.461 59.0465 93.9871 58.1748C93.5131 57.2946 92.7599 56.8545 91.7273 56.8545C90.9402 56.8545 90.3901 57.0745 90.0769 57.5146C89.7638 57.9548 89.6072 58.6064 89.6072 59.4697C89.6072 60.8154 89.9669 61.7507 90.6863 62.2754C91.4142 62.8001 92.7472 62.9736 94.6853 62.7959C94.6938 62.5589 94.698 62.3092 94.698 62.0469ZM108.011 65.2969C105.879 65.2969 104.368 64.8949 103.479 64.0908C102.599 63.2868 102.159 62.14 102.159 60.6504C102.159 58.8138 102.811 57.3158 104.114 56.1562C105.417 54.9967 107.199 54.417 109.459 54.417C111.795 54.417 113.47 54.9798 114.486 56.1055C115.502 57.2311 116.009 59.0762 116.009 61.6406C116.009 65.2715 115.214 67.9502 113.623 69.6768C112.032 71.3949 109.429 72.2539 105.815 72.2539C104.224 72.2539 103.263 72.1566 102.933 71.9619C102.603 71.7673 102.438 71.4202 102.438 70.9209C102.438 70.3031 102.646 69.7106 103.06 69.1436C104.135 69.5921 105.244 69.8164 106.386 69.8164C108.164 69.8164 109.484 69.3636 110.347 68.458C110.948 67.8232 111.338 66.5791 111.515 64.7256C110.373 65.1064 109.205 65.2969 108.011 65.2969ZM111.63 62.0469C111.63 60.3372 111.393 59.0465 110.919 58.1748C110.445 57.2946 109.691 56.8545 108.659 56.8545C107.872 56.8545 107.322 57.0745 107.008 57.5146C106.695 57.9548 106.539 58.6064 106.539 59.4697C106.539 60.8154 106.898 61.7507 107.618 62.2754C108.346 62.8001 109.679 62.9736 111.617 62.7959C111.625 62.5589 111.63 62.3092 111.63 62.0469Z" fill="white"/>
<path d="M38.6797 36.3965C38.6797 34.8574 38.998 33.7207 39.6348 32.9863C40.2754 32.252 41.1777 31.8848 42.3418 31.8848C43.4043 31.8848 44.2129 32.1523 44.7676 32.6875C45.3223 33.2188 45.5996 34.1914 45.5996 35.6055C45.5996 37.1445 45.2793 38.2812 44.6387 39.0156C44.002 39.75 43.1016 40.1172 41.9375 40.1172C40.875 40.1172 40.0664 39.8516 39.5117 39.3203C38.957 38.7891 38.6797 37.8145 38.6797 36.3965ZM40.1152 35.8574C40.1152 37.1621 40.291 38.0566 40.6426 38.541C40.998 39.0215 41.5234 39.2617 42.2188 39.2617C42.8633 39.2617 43.3477 39.0176 43.6719 38.5293C44 38.041 44.1641 37.2461 44.1641 36.1445C44.1641 34.8242 43.9863 33.9277 43.6309 33.4551C43.2793 32.9785 42.7559 32.7402 42.0605 32.7402C41.416 32.7402 40.9297 32.9844 40.6016 33.4727C40.2773 33.9609 40.1152 34.7559 40.1152 35.8574ZM47.8202 32.002H49.6835C50.3124 33.1387 50.9042 34.1758 51.4589 35.1133C52.0175 36.0469 52.6249 37.1621 53.2812 38.459V35.2188C53.2812 34.0195 53.2675 33.1484 53.2402 32.6055H52.6366C52.5859 32.4727 52.5605 32.3496 52.5605 32.2363C52.5605 32.1543 52.58 32.0957 52.6191 32.0605C52.662 32.0215 52.7304 32.002 52.8241 32.002H55.0273C55.0741 32.1191 55.0976 32.2324 55.0976 32.3418C55.0976 32.4395 55.078 32.5078 55.039 32.5469C54.9999 32.5859 54.9316 32.6055 54.8339 32.6055H54.3593C54.332 33.1484 54.3183 34.043 54.3183 35.2891V39.5254C54.3183 39.7559 54.2831 39.9023 54.2128 39.9648C54.1464 40.0273 53.9882 40.0586 53.7382 40.0586C53.2538 40.0586 52.9745 40.0391 52.9003 40C52.83 39.9648 52.3554 39.2402 51.4765 37.8262C50.6015 36.4121 49.8671 35.0898 49.2734 33.8594C49.2734 37.0078 49.287 38.8535 49.3144 39.3965H49.8886C49.9394 39.5137 49.9648 39.627 49.9648 39.7363C49.9648 39.834 49.9452 39.9023 49.9062 39.9414C49.8671 39.9805 49.7968 40 49.6952 40H47.5155C47.4648 39.8672 47.4394 39.7441 47.4394 39.6309C47.4394 39.5488 47.4589 39.4902 47.498 39.4551C47.5409 39.416 47.6093 39.3965 47.703 39.3965H48.1952C48.2226 38.8535 48.2362 37.4609 48.2362 35.2188C48.2362 34.0195 48.2206 33.1484 48.1894 32.6055H47.6327C47.582 32.4727 47.5566 32.3496 47.5566 32.2363C47.5566 32.1543 47.5761 32.0957 47.6152 32.0605C47.6581 32.0215 47.7265 32.002 47.8202 32.002ZM57.119 32.002H62.1346C62.3573 32.002 62.5096 32.0332 62.5916 32.0957C62.6737 32.1582 62.7147 32.2832 62.7147 32.4707C62.7147 32.709 62.6405 32.9551 62.492 33.209C61.7537 32.9082 60.7381 32.7578 59.4452 32.7578H58.9354C58.908 33.1992 58.8963 34.0762 58.9002 35.3887H61.9647C62.0155 35.541 62.0409 35.7012 62.0409 35.8691C62.0409 35.9785 62.0213 36.0527 61.9823 36.0918C61.9432 36.127 61.867 36.1445 61.7537 36.1445H58.8944C58.8983 37.832 58.912 38.8652 58.9354 39.2441H59.7557C61.0018 39.2441 61.9803 39.1074 62.6912 38.834C62.8162 39.0488 62.8787 39.2715 62.8787 39.502C62.8787 39.6738 62.8221 39.8008 62.7088 39.8828C62.5955 39.9609 62.3651 40 62.0174 40L56.9315 40.0059C56.8807 39.873 56.8553 39.748 56.8553 39.6309C56.8553 39.5527 56.8748 39.4961 56.9139 39.4609C56.9569 39.4219 57.0252 39.4023 57.119 39.4023H57.5526C57.5799 38.8555 57.5936 37.4609 57.5936 35.2188C57.5936 34.0195 57.5799 33.1484 57.5526 32.6055H56.9315C56.8807 32.4727 56.8553 32.3496 56.8553 32.2363C56.8553 32.1543 56.8748 32.0957 56.9139 32.0605C56.9569 32.0215 57.0252 32.002 57.119 32.002ZM76.2614 32.002H78.2712C78.322 32.1191 78.3473 32.2324 78.3473 32.3418C78.3473 32.4395 78.3278 32.5078 78.2887 32.5469C78.2497 32.5859 78.1794 32.6055 78.0778 32.6055H77.7848C77.5856 33.3945 77.2692 34.7148 76.8356 36.5664C76.4059 38.418 76.1208 39.4688 75.9802 39.7188C75.8395 39.9648 75.5739 40.0879 75.1833 40.0879C74.7028 40.0879 74.4372 40.0723 74.3864 40.041C74.3395 40.0098 74.113 38.959 73.7067 36.8887C73.3005 34.8145 73.0837 33.7773 73.0563 33.7773C73.0329 33.7773 72.8376 34.7051 72.4704 36.5605C72.1071 38.416 71.8552 39.4688 71.7145 39.7188C71.5739 39.9648 71.3083 40.0879 70.9177 40.0879C70.4645 40.0879 70.2126 40.0723 70.1618 40.041C70.1149 40.0098 69.8356 38.9395 69.3239 36.8301C68.8161 34.7168 68.4489 33.3086 68.2223 32.6055H67.7653C67.7145 32.4727 67.6891 32.3496 67.6891 32.2363C67.6891 32.1543 67.7087 32.0957 67.7477 32.0605C67.7907 32.0215 67.8591 32.002 67.9528 32.002H70.3141C70.3649 32.1191 70.3903 32.2324 70.3903 32.3418C70.3903 32.4395 70.3708 32.5078 70.3317 32.5469C70.2927 32.5859 70.2223 32.6055 70.1208 32.6055H69.7985C69.8688 33.1797 70.0915 34.3555 70.4665 36.1328C70.8454 37.9062 71.0622 38.793 71.1169 38.793C71.1716 38.793 71.4098 37.6777 71.8317 35.4473C72.2536 33.2168 72.488 32.0859 72.5348 32.0547C72.5856 32.0195 72.8903 32.002 73.4489 32.002C73.695 32.002 73.8571 32.0488 73.9352 32.1426C74.0173 32.2324 74.2692 33.3633 74.6911 35.5352C75.1169 37.707 75.3571 38.793 75.4118 38.793C75.4665 38.793 75.6598 37.9102 75.9919 36.1445C76.3239 34.3789 76.5134 33.1992 76.5602 32.6055H76.0739C76.0231 32.4727 75.9977 32.3496 75.9977 32.2363C75.9977 32.1543 76.0173 32.0957 76.0563 32.0605C76.0993 32.0215 76.1677 32.002 76.2614 32.002ZM79.9176 32.002H84.9332C85.1559 32.002 85.3082 32.0332 85.3902 32.0957C85.4723 32.1582 85.5133 32.2832 85.5133 32.4707C85.5133 32.709 85.4391 32.9551 85.2906 33.209C84.5523 32.9082 83.5367 32.7578 82.2438 32.7578H81.734C81.7066 33.1992 81.6949 34.0762 81.6988 35.3887H84.7633C84.8141 35.541 84.8395 35.7012 84.8395 35.8691C84.8395 35.9785 84.8199 36.0527 84.7809 36.0918C84.7418 36.127 84.6656 36.1445 84.5523 36.1445H81.693C81.6969 37.832 81.7105 38.8652 81.734 39.2441H82.5543C83.8004 39.2441 84.7789 39.1074 85.4898 38.834C85.6148 39.0488 85.6773 39.2715 85.6773 39.502C85.6773 39.6738 85.6207 39.8008 85.5074 39.8828C85.3941 39.9609 85.1637 40 84.816 40L79.7301 40.0059C79.6793 39.873 79.6539 39.748 79.6539 39.6309C79.6539 39.5527 79.6734 39.4961 79.7125 39.4609C79.7555 39.4219 79.8238 39.4023 79.9176 39.4023H80.3512C80.3785 38.8555 80.3922 37.4609 80.3922 35.2188C80.3922 34.0195 80.3785 33.1484 80.3512 32.6055H79.7301C79.6793 32.4727 79.6539 32.3496 79.6539 32.2363C79.6539 32.1543 79.6734 32.0957 79.7125 32.0605C79.7555 32.0215 79.8238 32.002 79.9176 32.002ZM87.5171 32.002H92.5327C92.7554 32.002 92.9077 32.0332 92.9898 32.0957C93.0718 32.1582 93.1128 32.2832 93.1128 32.4707C93.1128 32.709 93.0386 32.9551 92.8902 33.209C92.1519 32.9082 91.1362 32.7578 89.8433 32.7578H89.3335C89.3062 33.1992 89.2945 34.0762 89.2984 35.3887H92.3628C92.4136 35.541 92.439 35.7012 92.439 35.8691C92.439 35.9785 92.4195 36.0527 92.3804 36.0918C92.3413 36.127 92.2652 36.1445 92.1519 36.1445H89.2925C89.2964 37.832 89.3101 38.8652 89.3335 39.2441H90.1538C91.3999 39.2441 92.3784 39.1074 93.0894 38.834C93.2144 39.0488 93.2769 39.2715 93.2769 39.502C93.2769 39.6738 93.2202 39.8008 93.107 39.8828C92.9937 39.9609 92.7632 40 92.4155 40L87.3296 40.0059C87.2788 39.873 87.2534 39.748 87.2534 39.6309C87.2534 39.5527 87.273 39.4961 87.312 39.4609C87.355 39.4219 87.4234 39.4023 87.5171 39.4023H87.9507C87.978 38.8555 87.9917 37.4609 87.9917 35.2188C87.9917 34.0195 87.978 33.1484 87.9507 32.6055H87.3296C87.2788 32.4727 87.2534 32.3496 87.2534 32.2363C87.2534 32.1543 87.273 32.0957 87.312 32.0605C87.355 32.0215 87.4234 32.002 87.5171 32.002ZM99.769 32.0078L101.884 32.002C101.935 32.1191 101.96 32.2324 101.96 32.3418C101.96 32.4395 101.941 32.5078 101.902 32.5469C101.863 32.5859 101.792 32.6055 101.691 32.6055H101.374L98.8139 35.2891C99.9272 37.0352 100.611 38.0918 100.865 38.459C101.119 38.8223 101.322 39.0703 101.474 39.2031C101.63 39.332 101.816 39.3965 102.031 39.3965C102.105 39.666 102.097 39.8535 102.007 39.959C101.917 40.0645 101.681 40.1172 101.298 40.1172C100.83 40.1172 100.509 40.0645 100.337 39.959C100.169 39.8535 99.9916 39.6152 99.8041 39.2441C99.6205 38.873 99.0346 37.8105 98.0463 36.0566L96.9975 37.3047C97.0014 38.2656 97.0151 38.9629 97.0385 39.3965H97.6713C97.7182 39.5137 97.7416 39.627 97.7416 39.7363C97.7416 39.834 97.7221 39.9023 97.683 39.9414C97.644 39.9805 97.5756 40 97.478 40H94.9291C94.8784 39.8672 94.853 39.7441 94.853 39.6309C94.853 39.5488 94.8725 39.4902 94.9116 39.4551C94.9545 39.416 95.0229 39.3965 95.1166 39.3965H95.6498C95.6811 38.8535 95.6967 37.4609 95.6967 35.2188C95.6967 34.0195 95.6811 33.1484 95.6498 32.6055H94.9291C94.8823 32.4727 94.8588 32.3496 94.8588 32.2363C94.8588 32.1543 94.8784 32.0957 94.9174 32.0605C94.9604 32.0215 95.0288 32.002 95.1225 32.002H97.6713C97.7221 32.1191 97.7475 32.2324 97.7475 32.3418C97.7475 32.4395 97.728 32.5078 97.6889 32.5469C97.6498 32.5859 97.5795 32.6055 97.478 32.6055H97.0385C97.0112 33.1484 96.9975 34.3145 96.9975 36.1035C97.4428 35.6348 97.9545 35.084 98.5327 34.4512C99.1108 33.8145 99.6303 33.2012 100.091 32.6113H99.5815C99.5307 32.4785 99.5053 32.3535 99.5053 32.2363C99.5053 32.1582 99.5248 32.1016 99.5639 32.0664C99.6069 32.0273 99.6752 32.0078 99.769 32.0078Z" fill="white"/>
<path d="M316.788 38.5544C309.809 34.7237 301.421 36.3159 296.845 42.8987C295.905 45.0899 303.363 51.7197 311.354 55.1453C319.346 58.571 328.746 56.5737 329.354 55.1559C329.99 53.6736 328.057 44.3005 316.788 38.5544ZM267.485 17.4203C255.553 13.221 247.671 17.5477 246.759 19.6745C246.124 21.1568 251.869 29.6463 259.151 32.768C266.434 35.8898 277.086 37.0231 278.026 34.8318C279.638 26.9783 274.298 19.5016 267.485 17.4203ZM306.905 81.5419C294.596 76.2653 292.82 58.3388 281.219 53.3661C269.619 48.3934 254.702 59.1646 243.102 54.1919C227.892 47.6721 222.912 29.2114 233.465 4.59221C239.985 -10.6175 246.246 -13.1214 265.774 -4.75065C285.302 3.62011 287.032 13.8218 296.441 17.8552C305.851 21.8886 315.077 16.3835 333.96 24.478C352.843 32.5725 355.688 39.8187 349.472 54.3195C338.919 78.9387 322.115 88.0617 306.905 81.5419Z" fill="white" fill-opacity="0.3"/>
</g>
<defs>
<filter id="filter0_d_152_856" x="0" y="0" width="353" height="122" filterUnits="userSpaceOnUse" color-interpolation-filters="sRGB">
<feFlood flood-opacity="0" result="BackgroundImageFix"/>
<feColorMatrix in="SourceAlpha" type="matrix" values="0 0 0 0 0 0 0 0 0 0 0 0 0 0 0 0 0 0 127 0" result="hardAlpha"/>
<feOffset dy="16"/>
<feGaussianBlur stdDeviation="8"/>
<feColorMatrix type="matrix" values="0 0 0 0 0.8 0 0 0 0 0.8 0 0 0 0 0.8 0 0 0 0.25 0"/>
<feBlend mode="normal" in2="BackgroundImageFix" result="effect1_dropShadow_152_856"/>
<feBlend mode="normal" in="SourceGraphic" in2="effect1_dropShadow_152_856" result="shape"/>
</filter>
<clipPath id="clip0_152_856">
<rect width="321" height="90" fill="white" transform="translate(16)"/>
</clipPath>
</defs>
</svg>
