<svg width="353" height="122" viewBox="0 0 353 122" fill="none" xmlns="http://www.w3.org/2000/svg">
<g clip-path="url(#clip0_152_862)" filter="url(#filter0_d_152_862)">
<rect x="16" width="321" height="90" rx="16" fill="#018F64" fill-opacity="0.8"/>
<path d="M38.6797 36.3965C38.6797 34.8574 38.998 33.7207 39.6348 32.9863C40.2754 32.252 41.1777 31.8848 42.3418 31.8848C43.4043 31.8848 44.2129 32.1523 44.7676 32.6875C45.3223 33.2188 45.5996 34.1914 45.5996 35.6055C45.5996 37.1445 45.2793 38.2812 44.6387 39.0156C44.002 39.75 43.1016 40.1172 41.9375 40.1172C40.875 40.1172 40.0664 39.8516 39.5117 39.3203C38.957 38.7891 38.6797 37.8145 38.6797 36.3965ZM40.1152 35.8574C40.1152 37.1621 40.291 38.0566 40.6426 38.541C40.998 39.0215 41.5234 39.2617 42.2188 39.2617C42.8633 39.2617 43.3477 39.0176 43.6719 38.5293C44 38.041 44.1641 37.2461 44.1641 36.1445C44.1641 34.8242 43.9863 33.9277 43.6309 33.4551C43.2793 32.9785 42.7559 32.7402 42.0605 32.7402C41.416 32.7402 40.9297 32.9844 40.6016 33.4727C40.2773 33.9609 40.1152 34.7559 40.1152 35.8574ZM47.8202 32.002H49.6835C50.3124 33.1387 50.9042 34.1758 51.4589 35.1133C52.0175 36.0469 52.6249 37.1621 53.2812 38.459V35.2188C53.2812 34.0195 53.2675 33.1484 53.2402 32.6055H52.6366C52.5859 32.4727 52.5605 32.3496 52.5605 32.2363C52.5605 32.1543 52.58 32.0957 52.6191 32.0605C52.662 32.0215 52.7304 32.002 52.8241 32.002H55.0273C55.0741 32.1191 55.0976 32.2324 55.0976 32.3418C55.0976 32.4395 55.078 32.5078 55.039 32.5469C54.9999 32.5859 54.9316 32.6055 54.8339 32.6055H54.3593C54.332 33.1484 54.3183 34.043 54.3183 35.2891V39.5254C54.3183 39.7559 54.2831 39.9023 54.2128 39.9648C54.1464 40.0273 53.9882 40.0586 53.7382 40.0586C53.2538 40.0586 52.9745 40.0391 52.9003 40C52.83 39.9648 52.3554 39.2402 51.4765 37.8262C50.6015 36.4121 49.8671 35.0898 49.2734 33.8594C49.2734 37.0078 49.287 38.8535 49.3144 39.3965H49.8886C49.9394 39.5137 49.9648 39.627 49.9648 39.7363C49.9648 39.834 49.9452 39.9023 49.9062 39.9414C49.8671 39.9805 49.7968 40 49.6952 40H47.5155C47.4648 39.8672 47.4394 39.7441 47.4394 39.6309C47.4394 39.5488 47.4589 39.4902 47.498 39.4551C47.5409 39.416 47.6093 39.3965 47.703 39.3965H48.1952C48.2226 38.8535 48.2362 37.4609 48.2362 35.2188C48.2362 34.0195 48.2206 33.1484 48.1894 32.6055H47.6327C47.582 32.4727 47.5566 32.3496 47.5566 32.2363C47.5566 32.1543 47.5761 32.0957 47.6152 32.0605C47.6581 32.0215 47.7265 32.002 47.8202 32.002ZM57.119 32.002H62.1346C62.3573 32.002 62.5096 32.0332 62.5916 32.0957C62.6737 32.1582 62.7147 32.2832 62.7147 32.4707C62.7147 32.709 62.6405 32.9551 62.492 33.209C61.7537 32.9082 60.7381 32.7578 59.4452 32.7578H58.9354C58.908 33.1992 58.8963 34.0762 58.9002 35.3887H61.9647C62.0155 35.541 62.0409 35.7012 62.0409 35.8691C62.0409 35.9785 62.0213 36.0527 61.9823 36.0918C61.9432 36.127 61.867 36.1445 61.7537 36.1445H58.8944C58.8983 37.832 58.912 38.8652 58.9354 39.2441H59.7557C61.0018 39.2441 61.9803 39.1074 62.6912 38.834C62.8162 39.0488 62.8787 39.2715 62.8787 39.502C62.8787 39.6738 62.8221 39.8008 62.7088 39.8828C62.5955 39.9609 62.3651 40 62.0174 40L56.9315 40.0059C56.8807 39.873 56.8553 39.748 56.8553 39.6309C56.8553 39.5527 56.8748 39.4961 56.9139 39.4609C56.9569 39.4219 57.0252 39.4023 57.119 39.4023H57.5526C57.5799 38.8555 57.5936 37.4609 57.5936 35.2188C57.5936 34.0195 57.5799 33.1484 57.5526 32.6055H56.9315C56.8807 32.4727 56.8553 32.3496 56.8553 32.2363C56.8553 32.1543 56.8748 32.0957 56.9139 32.0605C56.9569 32.0215 57.0252 32.002 57.119 32.002ZM74.4684 32.6055C74.07 33.3438 73.2848 34.9395 72.113 37.3926C72.113 38.1855 72.1266 38.8535 72.154 39.3965H73.0212C73.072 39.5137 73.0973 39.627 73.0973 39.7363C73.0973 39.834 73.0778 39.9023 73.0387 39.9414C72.9997 39.9805 72.9294 40 72.8278 40H69.9274C69.8805 39.8672 69.8571 39.7441 69.8571 39.6309C69.8571 39.5488 69.8766 39.4902 69.9157 39.4551C69.9587 39.416 70.027 39.3965 70.1208 39.3965H70.7653C70.7966 38.8535 70.8122 38.2227 70.8122 37.5039C69.527 34.9258 68.6872 33.293 68.2927 32.6055H67.8356C67.7887 32.4727 67.7653 32.3496 67.7653 32.2363C67.7653 32.1543 67.7848 32.0957 67.8239 32.0605C67.8669 32.0215 67.9352 32.002 68.029 32.002H70.3903C70.4372 32.1191 70.4606 32.2324 70.4606 32.3418C70.4606 32.4395 70.4411 32.5078 70.402 32.5469C70.363 32.5859 70.2946 32.6055 70.197 32.6055H69.8981C70.07 33.1211 70.3864 33.9102 70.8473 34.9727C71.3122 36.0352 71.5661 36.5664 71.6091 36.5664C71.652 36.5664 71.8766 36.0508 72.2829 35.0195C72.693 33.9844 72.9743 33.1797 73.1266 32.6055H72.6169C72.5661 32.4727 72.5407 32.3496 72.5407 32.2363C72.5407 32.1543 72.5602 32.0957 72.5993 32.0605C72.6423 32.0215 72.7106 32.002 72.8044 32.002H74.9313C74.9782 32.1191 75.0016 32.2324 75.0016 32.3418C75.0016 32.4395 74.9821 32.5078 74.943 32.5469C74.904 32.5859 74.8356 32.6055 74.738 32.6055H74.4684ZM76.6715 32.002H81.6871C81.9098 32.002 82.0621 32.0332 82.1441 32.0957C82.2262 32.1582 82.2672 32.2832 82.2672 32.4707C82.2672 32.709 82.193 32.9551 82.0445 33.209C81.3063 32.9082 80.2906 32.7578 78.9977 32.7578H78.4879C78.4605 33.1992 78.4488 34.0762 78.4527 35.3887H81.5172C81.568 35.541 81.5934 35.7012 81.5934 35.8691C81.5934 35.9785 81.5738 36.0527 81.5348 36.0918C81.4957 36.127 81.4195 36.1445 81.3063 36.1445H78.4469C78.4508 37.832 78.4645 38.8652 78.4879 39.2441H79.3082C80.5543 39.2441 81.5328 39.1074 82.2438 38.834C82.3688 39.0488 82.4313 39.2715 82.4313 39.502C82.4313 39.6738 82.3746 39.8008 82.2613 39.8828C82.148 39.9609 81.9176 40 81.5699 40L76.484 40.0059C76.4332 39.873 76.4078 39.748 76.4078 39.6309C76.4078 39.5527 76.4273 39.4961 76.4664 39.4609C76.5094 39.4219 76.5777 39.4023 76.6715 39.4023H77.1051C77.1324 38.8555 77.1461 37.4609 77.1461 35.2188C77.1461 34.0195 77.1324 33.1484 77.1051 32.6055H76.484C76.4332 32.4727 76.4078 32.3496 76.4078 32.2363C76.4078 32.1543 76.4273 32.0957 76.4664 32.0605C76.5094 32.0215 76.5777 32.002 76.6715 32.002ZM87.271 31.9141C87.7124 31.9141 87.9624 31.9316 88.021 31.9668C88.0796 31.998 88.4741 33.0898 89.2046 35.2422C89.9351 37.3906 90.4292 38.7754 90.687 39.3965H91.2027C91.2495 39.5137 91.273 39.627 91.273 39.7363C91.273 39.834 91.2534 39.9023 91.2144 39.9414C91.1753 39.9805 91.107 40 91.0093 40H88.5777C88.5269 39.8672 88.5015 39.7441 88.5015 39.6309C88.5015 39.5488 88.521 39.4902 88.5601 39.4551C88.603 39.416 88.6714 39.3965 88.7652 39.3965H89.0816C89.0073 39.0488 88.8198 38.3809 88.5191 37.3926H85.8765C85.603 38.373 85.439 39.041 85.3843 39.3965H85.9292C85.9761 39.5137 85.9995 39.627 85.9995 39.7363C85.9995 39.834 85.98 39.9023 85.9409 39.9414C85.9019 39.9805 85.8335 40 85.7359 40H83.5796C83.5327 39.8672 83.5093 39.7441 83.5093 39.6309C83.5093 39.5488 83.5288 39.4902 83.5679 39.4551C83.6109 39.416 83.6792 39.3965 83.773 39.3965H84.1128C84.3706 38.6855 84.7984 37.4023 85.396 35.5469C85.9937 33.6875 86.3628 32.6172 86.5034 32.3359C86.6441 32.0547 86.8999 31.9141 87.271 31.9141ZM86.0816 36.6367H88.2905C87.5796 34.375 87.1968 33.2441 87.1421 33.2441C87.0913 33.2441 86.7378 34.375 86.0816 36.6367ZM94.6713 35.8926H95.1635C95.8432 35.8926 96.3569 35.7734 96.7045 35.5352C97.0561 35.2969 97.2319 34.9414 97.2319 34.4688C97.2319 33.9141 97.0737 33.5078 96.7573 33.25C96.4409 32.9883 95.9877 32.8574 95.3979 32.8574C95.1284 32.8574 94.9018 32.877 94.7182 32.916C94.687 33.252 94.6713 34.043 94.6713 35.2891V35.8926ZM94.7182 39.3965H95.5561C95.603 39.5137 95.6264 39.627 95.6264 39.7363C95.6264 39.834 95.6069 39.9023 95.5678 39.9414C95.5288 39.9805 95.4604 40 95.3627 40H92.6088C92.558 39.8672 92.5327 39.7441 92.5327 39.6309C92.5327 39.5488 92.5522 39.4902 92.5913 39.4551C92.6342 39.416 92.7026 39.3965 92.7963 39.3965H93.3295C93.3608 38.8535 93.3764 37.4609 93.3764 35.2188C93.3764 34.0195 93.3608 33.1484 93.3295 32.6055H92.6498C92.603 32.4727 92.5795 32.3496 92.5795 32.2363C92.5795 32.1543 92.5991 32.0957 92.6381 32.0605C92.6811 32.0215 92.7495 32.002 92.8432 32.002H95.3686C96.56 32.002 97.4077 32.166 97.9116 32.4941C98.4155 32.8223 98.6674 33.3398 98.6674 34.0469C98.6674 35.1289 98.019 35.8672 96.7221 36.2617C97.0932 36.375 97.394 36.584 97.6245 36.8887C97.8549 37.1895 98.0971 37.6211 98.351 38.1836C98.6088 38.7461 98.81 39.0918 98.9545 39.2207C99.103 39.3457 99.312 39.4043 99.5815 39.3965C99.6635 39.6777 99.6538 39.8691 99.5522 39.9707C99.4506 40.0684 99.1987 40.1172 98.7963 40.1172C98.3315 40.1172 97.9975 40.0566 97.7944 39.9355C97.5913 39.8145 97.3784 39.3848 97.1557 38.6465C96.937 37.9043 96.7045 37.3828 96.4584 37.082C96.2123 36.7812 95.8569 36.6309 95.392 36.6309C95.1498 36.6309 94.9096 36.6504 94.6713 36.6895C94.6791 38.0371 94.6948 38.9395 94.7182 39.3965Z" fill="white"/>
<path d="M46.2393 56.7529C45.3506 56.7699 44.6989 56.9561 44.2842 57.3115C43.8695 57.667 43.6621 58.1579 43.6621 58.7842C43.6621 59.4697 43.8652 59.9902 44.2715 60.3457C44.6862 60.6927 45.3421 61.027 46.2393 61.3486V56.7529ZM46.6963 74.7041C46.417 74.848 45.9769 74.9199 45.376 74.9199C45.0374 74.9199 44.8005 74.848 44.665 74.7041C44.5296 74.5602 44.4619 74.3021 44.4619 73.9297V72.2412C42.9385 72.2158 41.7663 72.0762 40.9453 71.8223C40.1328 71.5684 39.7266 71.0394 39.7266 70.2354C39.7266 69.5244 40.0186 68.8939 40.6025 68.3438C41.9398 69.0208 43.2262 69.4652 44.4619 69.6768V64.7129C42.8623 64.2474 41.7028 63.6253 40.9834 62.8467C40.264 62.068 39.9043 61.0566 39.9043 59.8125C39.9043 58.1367 40.4629 56.8503 41.5801 55.9531C42.7057 55.0475 44.0641 54.5524 45.6553 54.4678V52.0557C46.1123 51.9118 46.5228 51.8398 46.8867 51.8398C47.3438 51.8398 47.623 51.916 47.7246 52.0684C47.8346 52.2207 47.8896 52.4238 47.8896 52.6777V54.4424C49.4046 54.4847 50.4837 54.6201 51.127 54.8486C51.7702 55.0687 52.0918 55.5469 52.0918 56.2832C52.0918 56.9857 51.8337 57.6162 51.3174 58.1748C50.0732 57.6162 48.9307 57.2354 47.8896 57.0322V61.8057C49.3285 62.2373 50.5049 62.8001 51.4189 63.4941C52.3415 64.1797 52.8027 65.3434 52.8027 66.9854C52.8027 68.5765 52.2399 69.8122 51.1143 70.6924C49.9971 71.5641 48.5244 72.0592 46.6963 72.1777V74.7041ZM46.1123 65.1953V69.8418C47.221 69.8164 47.9827 69.6598 48.3975 69.3721C48.8206 69.0843 49.0322 68.6019 49.0322 67.9248C49.0322 67.1377 48.7233 66.5452 48.1055 66.1475C47.4876 65.7412 46.8232 65.4238 46.1123 65.1953ZM61.8378 65.2969C59.705 65.2969 58.1943 64.8949 57.3056 64.0908C56.4254 63.2868 55.9853 62.14 55.9853 60.6504C55.9853 58.8138 56.637 57.3158 57.9404 56.1562C59.2437 54.9967 61.0253 54.417 63.2851 54.417C65.621 54.417 67.2968 54.9798 68.3124 56.1055C69.328 57.2311 69.8359 59.0762 69.8359 61.6406C69.8359 65.2715 69.0403 67.9502 67.4491 69.6768C65.858 71.3949 63.2555 72.2539 59.6415 72.2539C58.0504 72.2539 57.0898 72.1566 56.7597 71.9619C56.4296 71.7673 56.2646 71.4202 56.2646 70.9209C56.2646 70.3031 56.4719 69.7106 56.8866 69.1436C57.9615 69.5921 59.0702 69.8164 60.2128 69.8164C61.9902 69.8164 63.3105 69.3636 64.1737 68.458C64.7747 67.8232 65.164 66.5791 65.3417 64.7256C64.1991 65.1064 63.0312 65.2969 61.8378 65.2969ZM65.456 62.0469C65.456 60.3372 65.219 59.0465 64.745 58.1748C64.2711 57.2946 63.5178 56.8545 62.4853 56.8545C61.6982 56.8545 61.148 57.0745 60.8349 57.5146C60.5217 57.9548 60.3652 58.6064 60.3652 59.4697C60.3652 60.8154 60.7249 61.7507 61.4443 62.2754C62.1721 62.8001 63.5051 62.9736 65.4433 62.7959C65.4517 62.5589 65.456 62.3092 65.456 62.0469ZM78.7694 65.2969C76.6366 65.2969 75.1258 64.8949 74.2371 64.0908C73.3569 63.2868 72.9168 62.14 72.9168 60.6504C72.9168 58.8138 73.5685 57.3158 74.8719 56.1562C76.1753 54.9967 77.9569 54.417 80.2166 54.417C82.5526 54.417 84.2284 54.9798 85.244 56.1055C86.2596 57.2311 86.7674 59.0762 86.7674 61.6406C86.7674 65.2715 85.9718 67.9502 84.3807 69.6768C82.7896 71.3949 80.187 72.2539 76.5731 72.2539C74.9819 72.2539 74.0213 72.1566 73.6912 71.9619C73.3612 71.7673 73.1961 71.4202 73.1961 70.9209C73.1961 70.3031 73.4035 69.7106 73.8182 69.1436C74.8931 69.5921 76.0018 69.8164 77.1444 69.8164C78.9217 69.8164 80.242 69.3636 81.1053 68.458C81.7062 67.8232 82.0955 66.5791 82.2733 64.7256C81.1307 65.1064 79.9627 65.2969 78.7694 65.2969ZM82.3875 62.0469C82.3875 60.3372 82.1506 59.0465 81.6766 58.1748C81.2026 57.2946 80.4494 56.8545 79.4168 56.8545C78.6297 56.8545 78.0796 57.0745 77.7664 57.5146C77.4533 57.9548 77.2967 58.6064 77.2967 59.4697C77.2967 60.8154 77.6564 61.7507 78.3758 62.2754C79.1037 62.8001 80.4367 62.9736 82.3748 62.7959C82.3833 62.5589 82.3875 62.3092 82.3875 62.0469ZM94.6599 72.2539C93.839 72.2539 93.238 72.1016 92.8572 71.7969C92.4763 71.4837 92.2859 71.0352 92.2859 70.4512C92.2859 69.8672 92.4933 69.4229 92.908 69.1182C93.3311 68.8135 93.9151 68.6611 94.6599 68.6611C95.4809 68.6611 96.0818 68.8135 96.4627 69.1182C96.8435 69.4229 97.0339 69.8672 97.0339 70.4512C97.0339 71.0352 96.8224 71.4837 96.3992 71.7969C95.9845 72.1016 95.4047 72.2539 94.6599 72.2539ZM108.011 65.2969C105.879 65.2969 104.368 64.8949 103.479 64.0908C102.599 63.2868 102.159 62.14 102.159 60.6504C102.159 58.8138 102.811 57.3158 104.114 56.1562C105.417 54.9967 107.199 54.417 109.459 54.417C111.795 54.417 113.47 54.9798 114.486 56.1055C115.502 57.2311 116.009 59.0762 116.009 61.6406C116.009 65.2715 115.214 67.9502 113.623 69.6768C112.032 71.3949 109.429 72.2539 105.815 72.2539C104.224 72.2539 103.263 72.1566 102.933 71.9619C102.603 71.7673 102.438 71.4202 102.438 70.9209C102.438 70.3031 102.646 69.7106 103.06 69.1436C104.135 69.5921 105.244 69.8164 106.386 69.8164C108.164 69.8164 109.484 69.3636 110.347 68.458C110.948 67.8232 111.338 66.5791 111.515 64.7256C110.373 65.1064 109.205 65.2969 108.011 65.2969ZM111.63 62.0469C111.63 60.3372 111.393 59.0465 110.919 58.1748C110.445 57.2946 109.691 56.8545 108.659 56.8545C107.872 56.8545 107.322 57.0745 107.008 57.5146C106.695 57.9548 106.539 58.6064 106.539 59.4697C106.539 60.8154 106.898 61.7507 107.618 62.2754C108.346 62.8001 109.679 62.9736 111.617 62.7959C111.625 62.5589 111.63 62.3092 111.63 62.0469ZM124.943 65.2969C122.81 65.2969 121.299 64.8949 120.411 64.0908C119.531 63.2868 119.09 62.14 119.09 60.6504C119.09 58.8138 119.742 57.3158 121.046 56.1562C122.349 54.9967 124.13 54.417 126.39 54.417C128.726 54.417 130.402 54.9798 131.418 56.1055C132.433 57.2311 132.941 59.0762 132.941 61.6406C132.941 65.2715 132.145 67.9502 130.554 69.6768C128.963 71.3949 126.361 72.2539 122.747 72.2539C121.156 72.2539 120.195 72.1566 119.865 71.9619C119.535 71.7673 119.37 71.4202 119.37 70.9209C119.37 70.3031 119.577 69.7106 119.992 69.1436C121.067 69.5921 122.175 69.8164 123.318 69.8164C125.095 69.8164 126.416 69.3636 127.279 68.458C127.88 67.8232 128.269 66.5791 128.447 64.7256C127.304 65.1064 126.136 65.2969 124.943 65.2969ZM128.561 62.0469C128.561 60.3372 128.324 59.0465 127.85 58.1748C127.376 57.2946 126.623 56.8545 125.59 56.8545C124.803 56.8545 124.253 57.0745 123.94 57.5146C123.627 57.9548 123.47 58.6064 123.47 59.4697C123.47 60.8154 123.83 61.7507 124.549 62.2754C125.277 62.8001 126.61 62.9736 128.548 62.7959C128.557 62.5589 128.561 62.3092 128.561 62.0469ZM143.415 73.8359L143.087 74.7422C142.863 74.7266 142.527 74.638 142.08 74.4766C141.913 74.4193 141.817 74.3411 141.79 74.2422C141.759 74.1484 141.777 74.0052 141.845 73.8125L146.939 59.8438C147.231 59.8854 147.553 59.9688 147.908 60.0938C148.106 60.1667 148.218 60.2474 148.244 60.3359C148.27 60.4245 148.257 60.5443 148.205 60.6953L143.415 73.8359ZM156.208 61.1797C157.338 61.1797 158.122 61.2474 158.56 61.3828C158.997 61.513 159.216 61.7682 159.216 62.1484C159.216 62.4974 159.075 62.8073 158.794 63.0781C157.7 62.5781 156.685 62.3281 155.747 62.3281C155.086 62.3281 154.617 62.4609 154.341 62.7266C154.07 62.987 153.935 63.349 153.935 63.8125C153.935 64.2969 154.096 64.6823 154.419 64.9688C154.747 65.2552 155.367 65.5417 156.279 65.8281C157.357 66.151 158.172 66.5234 158.724 66.9453C159.281 67.362 159.575 68.0391 159.607 68.9766C159.607 70.0234 159.247 70.8151 158.529 71.3516C157.815 71.888 156.721 72.1562 155.247 72.1562C154.221 72.1562 153.443 72.0833 152.911 71.9375C152.38 71.7917 152.115 71.5208 152.115 71.125C152.115 70.7656 152.266 70.4479 152.568 70.1719C153.599 70.7344 154.672 71.0156 155.786 71.0156C156.552 71.0156 157.096 70.8906 157.419 70.6406C157.742 70.3906 157.904 70.0052 157.904 69.4844C157.904 68.8594 157.669 68.3906 157.2 68.0781C156.737 67.7656 155.995 67.4479 154.974 67.125C153.984 66.8229 153.279 66.4453 152.857 65.9922C152.44 65.5339 152.232 64.9349 152.232 64.1953C152.232 63.2734 152.573 62.5417 153.255 62C153.943 61.4531 154.927 61.1797 156.208 61.1797ZM165.038 61.2188C165.627 61.2188 165.96 61.2422 166.038 61.2891C166.116 61.3307 166.642 62.7865 167.616 65.6562C168.59 68.5208 169.249 70.3672 169.593 71.1953H170.28C170.343 71.3516 170.374 71.5026 170.374 71.6484C170.374 71.7786 170.348 71.8698 170.296 71.9219C170.244 71.974 170.153 72 170.023 72H166.78C166.713 71.8229 166.679 71.6589 166.679 71.5078C166.679 71.3984 166.705 71.3203 166.757 71.2734C166.814 71.2214 166.905 71.1953 167.03 71.1953H167.452C167.353 70.7318 167.103 69.8411 166.702 68.5234H163.179C162.814 69.8307 162.596 70.7214 162.523 71.1953H163.249C163.312 71.3516 163.343 71.5026 163.343 71.6484C163.343 71.7786 163.317 71.8698 163.265 71.9219C163.213 71.974 163.122 72 162.991 72H160.116C160.054 71.8229 160.023 71.6589 160.023 71.5078C160.023 71.3984 160.049 71.3203 160.101 71.2734C160.158 71.2214 160.249 71.1953 160.374 71.1953H160.827C161.171 70.2474 161.741 68.5365 162.538 66.0625C163.335 63.5833 163.827 62.1562 164.015 61.7812C164.202 61.4062 164.543 61.2188 165.038 61.2188ZM163.452 67.5156H166.398C165.45 64.5 164.939 62.9922 164.866 62.9922C164.799 62.9922 164.327 64.5 163.452 67.5156ZM176.407 61.3359H179.243C179.306 61.4922 179.337 61.6432 179.337 61.7891C179.337 61.9193 179.311 62.0104 179.259 62.0625C179.207 62.1146 179.116 62.1406 178.985 62.1406H178.626C178.314 63.0885 177.762 64.8229 176.97 67.3438C176.183 69.8646 175.691 71.2917 175.493 71.625C175.301 71.9531 174.944 72.1172 174.423 72.1172C173.819 72.1172 173.483 72.0964 173.415 72.0547C173.353 72.013 172.858 70.5599 171.931 67.6953C171.004 64.8255 170.363 62.974 170.009 62.1406H169.4C169.332 61.9635 169.298 61.7995 169.298 61.6484C169.298 61.5391 169.324 61.4609 169.376 61.4141C169.433 61.362 169.525 61.3359 169.65 61.3359H172.798C172.866 61.4922 172.9 61.6432 172.9 61.7891C172.9 61.9193 172.873 62.0104 172.821 62.0625C172.769 62.1146 172.676 62.1406 172.54 62.1406H172.15C172.295 62.8021 172.735 64.3438 173.47 66.7656C174.209 69.1823 174.616 70.3906 174.689 70.3906C174.762 70.3906 175.123 69.1875 175.775 66.7812C176.426 64.375 176.782 62.8281 176.845 62.1406H176.157C176.09 61.9635 176.056 61.7995 176.056 61.6484C176.056 61.5391 176.082 61.4609 176.134 61.4141C176.191 61.362 176.282 61.3359 176.407 61.3359ZM180.198 61.3359H186.886C187.183 61.3359 187.386 61.3776 187.495 61.4609C187.605 61.5443 187.659 61.7109 187.659 61.9609C187.659 62.2786 187.56 62.6068 187.362 62.9453C186.378 62.5443 185.024 62.3438 183.3 62.3438H182.62C182.584 62.9323 182.568 64.1016 182.573 65.8516H186.659C186.727 66.0547 186.761 66.2682 186.761 66.4922C186.761 66.638 186.735 66.737 186.683 66.7891C186.631 66.8359 186.529 66.8594 186.378 66.8594H182.565C182.571 69.1094 182.589 70.487 182.62 70.9922H183.714C185.375 70.9922 186.68 70.8099 187.628 70.4453C187.795 70.7318 187.878 71.0286 187.878 71.3359C187.878 71.5651 187.802 71.7344 187.651 71.8438C187.5 71.9479 187.193 72 186.73 72L179.948 72.0078C179.881 71.8307 179.847 71.6641 179.847 71.5078C179.847 71.4036 179.873 71.3281 179.925 71.2812C179.982 71.2292 180.073 71.2031 180.198 71.2031H180.776C180.813 70.474 180.831 68.6146 180.831 65.625C180.831 64.026 180.813 62.8646 180.776 62.1406H179.948C179.881 61.9635 179.847 61.7995 179.847 61.6484C179.847 61.5391 179.873 61.4609 179.925 61.4141C179.982 61.362 180.073 61.3359 180.198 61.3359ZM200.087 62.2969C199.472 62.3125 199.022 62.4531 198.735 62.7188C198.454 62.9844 198.313 63.349 198.313 63.8125C198.313 64.2812 198.457 64.6484 198.743 64.9141C199.035 65.1745 199.483 65.4193 200.087 65.6484V62.2969ZM200.516 73.6641C200.381 73.7318 200.175 73.7656 199.899 73.7656C199.722 73.7656 199.605 73.7266 199.548 73.6484C199.49 73.5703 199.462 73.4271 199.462 73.2188V72.1562C198.514 72.1458 197.782 72.0703 197.266 71.9297C196.751 71.7891 196.493 71.5208 196.493 71.125C196.493 70.7656 196.647 70.4479 196.954 70.1719C197.735 70.6042 198.571 70.8672 199.462 70.9609V67.1719C198.394 66.8281 197.652 66.4323 197.235 65.9844C196.824 65.5312 196.618 64.9349 196.618 64.1953C196.618 63.2786 196.933 62.5651 197.563 62.0547C198.199 61.5443 198.975 61.2656 199.891 61.2188V59.7266C200.1 59.6641 200.29 59.6328 200.462 59.6328C200.675 59.6328 200.808 59.6719 200.86 59.75C200.917 59.8229 200.946 59.9349 200.946 60.0859V61.1875C201.884 61.2031 202.561 61.2734 202.977 61.3984C203.394 61.5182 203.602 61.7682 203.602 62.1484C203.602 62.4974 203.462 62.8073 203.18 63.0781C202.404 62.724 201.66 62.4974 200.946 62.3984V65.9141C201.884 66.2214 202.623 66.5807 203.165 66.9922C203.712 67.3984 203.985 68.0807 203.985 69.0391C203.985 69.987 203.673 70.7214 203.048 71.2422C202.428 71.7578 201.584 72.0495 200.516 72.1172V73.6641ZM200.321 67.4531V71.0156C201.019 70.9948 201.522 70.8646 201.829 70.625C202.136 70.3854 202.29 70.0052 202.29 69.4844C202.29 68.8802 202.087 68.4349 201.68 68.1484C201.274 67.862 200.821 67.6302 200.321 67.4531ZM211.557 72H205.776C205.672 71.7396 205.62 71.4297 205.62 71.0703C205.62 70.1641 205.888 69.401 206.425 68.7812C206.966 68.1562 207.833 67.4115 209.026 66.5469C210.219 65.6771 210.815 64.8464 210.815 64.0547C210.815 63.4193 210.617 62.9583 210.221 62.6719C209.826 62.3854 209.313 62.2422 208.682 62.2422C208.219 62.2422 207.81 62.2734 207.456 62.3359C207.305 62.638 207.214 62.7995 207.182 62.8203C207.156 62.8411 207.016 62.888 206.76 62.9609C206.505 63.0286 206.315 63.0156 206.19 62.9219C206.07 62.8229 205.953 62.6432 205.839 62.3828C205.729 62.1224 205.675 61.9141 205.675 61.7578C205.675 61.6536 205.706 61.5833 205.768 61.5469C205.836 61.5104 206.188 61.4401 206.823 61.3359C207.458 61.2318 208.214 61.1797 209.089 61.1797C210.203 61.1797 211.083 61.3672 211.729 61.7422C212.38 62.112 212.706 62.8125 212.706 63.8438C212.706 64.4583 212.542 65.0469 212.214 65.6094C211.885 66.1667 211.029 66.9141 209.643 67.8516C208.258 68.7891 207.604 69.8359 207.682 70.9922H208.307C209.984 70.9922 211.346 70.7526 212.393 70.2734C212.607 70.6224 212.714 70.9557 212.714 71.2734C212.714 71.5443 212.638 71.7344 212.487 71.8438C212.336 71.9479 212.026 72 211.557 72ZM218.309 72.1562C217.018 72.1562 216.046 71.8307 215.395 71.1797C214.749 70.5286 214.426 69.2656 214.426 67.3906C214.426 65.1562 214.807 63.5625 215.567 62.6094C216.327 61.6562 217.447 61.1797 218.926 61.1797C220.187 61.1797 221.14 61.5052 221.786 62.1562C222.437 62.8073 222.762 64.1094 222.762 66.0625C222.762 68.2188 222.382 69.7734 221.622 70.7266C220.861 71.6797 219.757 72.1562 218.309 72.1562ZM218.551 62.3203C217.843 62.3203 217.296 62.6146 216.911 63.2031C216.531 63.7865 216.34 64.8906 216.34 66.5156C216.34 68.3021 216.528 69.5 216.903 70.1094C217.283 70.7135 217.877 71.0156 218.684 71.0156C219.387 71.0156 219.924 70.724 220.294 70.1406C220.663 69.5521 220.848 68.4844 220.848 66.9375C220.848 65.125 220.658 63.9036 220.278 63.2734C219.898 62.638 219.322 62.3203 218.551 62.3203Z" fill="white"/>
<path d="M195.384 68H223.411V68.7969H195.384V68Z" fill="white"/>
<path d="M305.748 7.02321C305.605 7.04524 305.131 7.19948 304.701 7.37575C304.283 7.541 303.434 7.79439 302.828 7.92659C302.223 8.05878 301.209 8.3342 300.57 8.5325C299.931 8.74182 298.455 9.18248 297.287 9.51299C294.07 10.4494 292.715 10.9892 287.68 13.3248C286.017 14.0959 284.221 14.8891 283.692 15.0654C282.426 15.5171 281.919 15.7815 281.335 16.3213C280.685 16.9272 280.376 17.4781 279.859 19.0645C279.605 19.8136 279.275 20.6729 279.11 20.9814L278.812 21.5322L277.16 21.5432C275.232 21.5652 271.938 21.9288 270.252 22.3144C269.602 22.4576 268.952 22.5788 268.787 22.5788C268.434 22.5788 267.762 22.9203 267.443 23.2618C267.079 23.6474 266.661 24.6389 266.573 25.2999C266.418 26.5228 266.782 27.4812 269.04 31.943C271.122 36.0412 271.927 37.4954 273.172 39.4343C274.141 40.9436 275.672 43.7749 276.355 45.3172C276.785 46.2977 276.785 46.3197 276.664 47.0248C276.454 48.2366 276.388 48.2917 274.405 48.6883C272.466 49.0849 270.957 49.7569 269.437 50.9027C268.511 51.5967 268.379 51.6628 267.906 51.6628C267.63 51.6628 267.432 51.751 267.234 51.9382C267.079 52.0925 266.573 52.467 266.11 52.7865C264.446 53.9102 263.785 54.7365 263.389 56.2347C263.146 57.1271 263.047 59.1542 263.212 59.9364C263.532 61.4677 264.556 62.8007 266.341 64.0015C268.489 65.4557 268.622 65.632 269.261 67.9124C270.186 71.1954 270.417 74.6436 269.889 77.1554C269.459 79.1825 269.183 79.7774 267.597 82.179C266.749 83.468 266.165 84.7239 266.033 85.5391C265.978 85.9027 266.099 85.7264 266.672 84.6468C267.3 83.4349 268.831 81.1325 268.919 81.2316C268.941 81.2536 268.864 81.8155 268.743 82.4655C268.622 83.1265 268.434 84.2612 268.346 84.9883C268.126 86.6849 267.983 87.423 267.784 87.9408C267.696 88.1611 267.63 88.5467 267.63 88.778C267.63 89.2848 267.134 90.2873 265.757 92.5898C264.259 95.1016 262.948 97.988 261.736 101.458C261.45 102.273 260.712 104.212 260.117 105.755C259.511 107.297 258.773 109.236 258.464 110.051C258.035 111.23 257.836 111.627 257.495 111.979C256.922 112.574 256.041 114.061 255.622 115.141C255.435 115.626 255.137 116.672 254.95 117.465C254.774 118.27 254.531 119.239 254.41 119.636C253.837 121.575 253.187 124.472 253.077 125.673C252.956 126.874 252.967 127.083 253.187 128.284C253.485 129.859 253.551 130.013 254.344 131.17C255.148 132.327 255.776 132.878 256.999 133.473C258.762 134.332 260.546 134.596 262.397 134.288C262.761 134.222 263.532 134.101 264.127 134.013C264.711 133.924 265.801 133.66 266.55 133.418C267.289 133.186 268.159 132.966 268.467 132.922C268.776 132.889 269.404 132.724 269.844 132.569C270.296 132.426 271.111 132.228 271.673 132.14C272.224 132.041 273.138 131.875 273.711 131.754C274.273 131.633 275.011 131.534 275.342 131.534C275.672 131.534 276.399 131.457 276.939 131.369C279.297 130.961 279.848 130.884 280.575 130.818C281.004 130.785 281.709 130.652 282.161 130.531C282.69 130.399 283.351 130.322 283.979 130.322C284.53 130.322 285.378 130.245 285.863 130.157C286.336 130.058 287.086 129.991 287.515 130.002C288.408 130.025 290.302 129.903 290.446 129.815C290.501 129.782 290.864 129.793 291.239 129.826L291.922 129.903L292.913 131.787C293.464 132.823 294.18 134.09 294.522 134.607C295.348 135.885 296.846 137.626 297.651 138.287C298.576 139.036 300.845 140.303 301.595 140.501C303.357 140.964 304.602 140.986 306.111 140.579C306.552 140.457 307.224 140.314 307.61 140.248C308.094 140.171 308.535 140.006 308.976 139.73C309.438 139.444 309.813 139.312 310.265 139.256C310.683 139.201 311.069 139.069 311.366 138.871C311.62 138.706 312.005 138.54 312.226 138.507C312.765 138.419 313.426 138.089 313.911 137.648C314.187 137.406 314.462 137.273 314.826 137.229C315.354 137.152 316.037 136.899 317.404 136.26C317.778 136.084 318.153 135.94 318.23 135.94C318.296 135.94 318.681 135.786 319.078 135.588C319.475 135.401 320.092 135.18 320.455 135.103C320.819 135.037 321.27 134.927 321.447 134.861C322.174 134.596 324.344 134.365 325.391 134.442C326.691 134.541 327.781 134.332 329.18 133.715C330.535 133.131 331.45 132.47 333.091 130.906C334.49 129.562 335.206 129.022 336.286 128.493L336.914 128.196L338.677 129.044C340.164 129.771 340.55 129.914 341.144 129.958C341.839 130.013 341.861 130.013 342.301 129.617C342.654 129.297 342.852 128.945 343.304 127.843C343.612 127.094 343.91 126.18 343.954 125.816C344.207 124.009 343.403 121.949 341.96 120.682C340.693 119.57 339.944 119.448 337.531 119.966C334.865 120.517 333.973 120.649 332.573 120.671C331.472 120.682 331.196 120.649 330.943 120.484C330.778 120.385 330.646 120.22 330.646 120.132C330.646 119.845 332.75 118.115 333.73 117.609C334.259 117.333 334.876 116.893 335.162 116.617L335.647 116.11L335.273 115.714C334.358 114.777 333.763 114.678 333.257 115.394C333.091 115.637 332.717 116.155 332.43 116.551C331.527 117.796 330.227 118.49 327.308 119.261C326.503 119.471 325.534 119.79 325.148 119.988C324.311 120.396 323.419 121.211 323.319 121.674C323.275 121.85 323.121 122.236 322.978 122.522C322.603 123.227 322.482 124.076 322.614 124.99C322.669 125.398 322.692 125.75 322.669 125.772C322.57 125.871 319.827 125.067 317.591 124.285C316.93 124.053 316.126 123.8 315.817 123.723L315.255 123.591L315.189 122.941C315.013 121.31 313.482 118.556 312.38 117.906C311.653 117.477 310.793 117.454 308.502 117.829C306.552 118.138 304.47 118.237 303.644 118.06C303.236 117.983 303.236 117.972 303.027 117.069C302.906 116.573 302.828 116.132 302.85 116.088C302.895 116 305.241 114.601 305.913 114.26C306.166 114.138 306.839 113.885 307.411 113.698C307.995 113.511 308.612 113.224 308.822 113.048L309.185 112.75L308.788 112.056C308.105 110.911 307.896 110.9 306.794 111.924C306.332 112.343 305.737 112.838 305.472 113.026C304.459 113.72 302.476 114.48 302.388 114.205C302.366 114.127 302.145 113.279 301.892 112.31C301.65 111.34 301.22 109.798 300.945 108.895C300.041 105.854 299.16 101.844 298.873 99.4202C298.598 97.1507 298.301 96.1702 297.023 93.4932C296.439 92.2593 296.34 91.9729 296.307 91.3119C296.285 90.8161 296.174 90.3424 295.998 89.9348C295.844 89.5933 295.546 88.8662 295.326 88.3043C295.117 87.7535 294.819 87.0484 294.665 86.7289C294.522 86.4205 294.401 86.112 294.401 86.0459C294.401 85.9908 294.279 85.8476 294.136 85.7374C293.916 85.5612 292.968 83.8756 292.968 83.6443C292.968 83.6112 293.376 83.9637 293.883 84.4485C294.896 85.44 295.59 85.9908 295.679 85.8917C295.723 85.8586 295.458 85.3188 295.095 84.6908C293.916 82.6638 293.795 82.4104 293.949 82.2562C294.059 82.157 294.103 82.168 294.191 82.3112C294.29 82.4875 294.621 82.5977 294.621 82.4655C294.621 82.4324 294.346 81.9807 294.004 81.4409C293.09 79.9867 292.451 78.5986 292.131 77.3758C291.878 76.3953 291.856 76.1309 291.9 74.853C291.977 72.8589 292.274 71.9115 293.938 68.5294C295.051 66.2489 296.042 64.4752 297.309 62.5143C297.97 61.4787 298.091 61.2253 298.091 60.7957C298.102 60.4101 298.29 59.9364 298.918 58.6474C299.369 57.744 299.887 56.7525 300.085 56.4551C300.273 56.1466 300.746 55.2873 301.143 54.5272C301.539 53.767 302.134 52.6323 302.476 51.9933C303.137 50.7595 303.875 49.118 304.47 47.5867C305.362 45.2842 305.803 42.9817 305.913 40.0953C306.122 34.0912 306.2 32.7692 306.453 30.8964C306.794 28.4397 307.125 25.355 307.345 22.6889C307.588 19.6814 307.72 18.6018 308.017 17.0154C308.7 13.4239 308.755 13.0273 308.755 11.7273C308.766 10.2731 308.59 9.36977 308.061 8.19098C307.841 7.71727 307.643 7.45287 307.389 7.29863C307.015 7.06728 306.255 6.94611 305.748 7.02321ZM300.68 15.9137C300.68 15.9467 300.559 16.2111 300.416 16.4976C300.019 17.2797 299.534 18.745 299.193 20.1551C299.028 20.8492 298.873 21.4661 298.84 21.5102C298.807 21.5652 298.587 21.2458 298.345 20.7941C297.607 19.428 296.472 18.084 295.414 17.3238C294.852 16.9052 294.709 16.9713 297.265 16.5196C298.323 16.3323 299.49 16.112 299.854 16.0349C300.691 15.8476 300.68 15.8476 300.68 15.9137ZM278.261 28.3625C278.305 28.7591 278.305 29.2879 278.272 29.5413C278.195 30.0371 278.404 31.7226 278.537 31.7226C278.592 31.7226 278.669 31.8218 278.702 31.943C278.735 32.0641 278.845 32.1633 278.944 32.1633C279.087 32.1633 279.11 32.2624 279.054 32.8023C279.01 33.1548 278.911 33.6175 278.812 33.8488C278.724 34.0692 278.669 34.2675 278.702 34.2675C278.735 34.2785 278.79 34.2895 278.845 34.3005C279.154 34.3666 279.33 34.598 279.385 35.0387C279.451 35.4903 279.44 35.5124 279.264 35.3691C279.154 35.281 278.977 35.0276 278.856 34.8183C278.735 34.598 278.482 34.1683 278.294 33.8709C278.008 33.3972 275.816 28.8693 275.749 28.6049C275.727 28.5278 277.854 27.6795 278.118 27.6575C278.151 27.6465 278.228 27.9659 278.261 28.3625ZM280.112 35.7657C280.145 35.942 280.211 36.1734 280.255 36.2945C280.321 36.4929 280.31 36.5039 280.145 36.3386C279.936 36.1513 279.748 35.281 279.936 35.3912C280.002 35.4352 280.079 35.6005 280.112 35.7657ZM284.453 36.6691C285.114 37.3521 285.279 37.5945 285.367 38.0021C285.51 38.7513 285.609 41.3402 285.488 41.5165C285.411 41.6376 285.257 41.6487 284.706 41.5715L284.023 41.4724L283.648 40.7563C283.064 39.6106 282.459 37.0106 282.723 36.7462C282.778 36.6912 282.833 36.57 282.833 36.5039C282.833 36.1183 283.042 35.8208 283.34 35.8208C283.56 35.8208 283.825 36.0302 284.453 36.6691ZM283.241 107.154C284.067 108.839 285.103 110.889 285.543 111.704C285.984 112.519 286.601 113.83 286.909 114.623C287.526 116.166 289.443 121.167 289.443 121.222C289.443 121.31 284.177 120.198 281.952 119.636C279.473 119.019 278.305 118.765 276.939 118.578C275.397 118.369 273.149 118.182 273.017 118.27C272.852 118.369 272.907 118.237 273.249 117.653C273.436 117.333 274.207 115.89 274.967 114.425C276.686 111.131 276.686 111.131 278.008 109.148C278.603 108.256 279.418 106.9 279.815 106.129C280.387 105.05 280.652 104.675 280.993 104.422C281.236 104.245 281.5 104.102 281.588 104.102C281.665 104.102 282.37 105.402 283.241 107.154ZM257.01 114.127C256.635 115.218 256.294 116.088 256.228 116.066C256.008 115.989 256.129 114.744 256.415 114.105C256.669 113.566 257.55 112.144 257.649 112.144C257.66 112.144 257.374 113.037 257.01 114.127Z" fill="white" fill-opacity="0.3"/>
</g>
<defs>
<filter id="filter0_d_152_862" x="0" y="0" width="353" height="122" filterUnits="userSpaceOnUse" color-interpolation-filters="sRGB">
<feFlood flood-opacity="0" result="BackgroundImageFix"/>
<feColorMatrix in="SourceAlpha" type="matrix" values="0 0 0 0 0 0 0 0 0 0 0 0 0 0 0 0 0 0 127 0" result="hardAlpha"/>
<feOffset dy="16"/>
<feGaussianBlur stdDeviation="8"/>
<feColorMatrix type="matrix" values="0 0 0 0 0.8 0 0 0 0 0.8 0 0 0 0 0.8 0 0 0 0.25 0"/>
<feBlend mode="normal" in2="BackgroundImageFix" result="effect1_dropShadow_152_862"/>
<feBlend mode="normal" in="SourceGraphic" in2="effect1_dropShadow_152_862" result="shape"/>
</filter>
<clipPath id="clip0_152_862">
<rect width="321" height="90" fill="white" transform="translate(16)"/>
</clipPath>
</defs>
</svg>
