<svg width="20" height="20" viewBox="0 0 20 20" fill="none" xmlns="http://www.w3.org/2000/svg">
<g id="Iconly/Bold/Camera">
<g id="Camera">
<path id="Camera_2" fill-rule="evenodd" clip-rule="evenodd" d="M14.5334 5.197C14.5667 5.25527 14.6251 5.29689 14.7001 5.29689C16.7001 5.29689 18.3334 6.92841 18.3334 8.92619V13.8707C18.3334 15.8685 16.7001 17.5 14.7001 17.5H5.30008C3.29175 17.5 1.66675 15.8685 1.66675 13.8707V8.92619C1.66675 6.92841 3.29175 5.29689 5.30008 5.29689C5.36675 5.29689 5.43341 5.2636 5.45841 5.197L5.50841 5.09711C5.53714 5.03666 5.56662 4.97457 5.59654 4.91153C5.80973 4.46248 6.0456 3.96567 6.19175 3.6737C6.57508 2.92453 7.22508 2.50832 8.03341 2.5H11.9584C12.7667 2.50832 13.4251 2.92453 13.8084 3.6737C13.9397 3.93592 14.1397 4.35833 14.3324 4.76545C14.3722 4.84942 14.4116 4.93274 14.4501 5.01387L14.5334 5.197ZM13.925 8.3934C13.925 8.8096 14.2583 9.14256 14.675 9.14256C15.0916 9.14256 15.4333 8.8096 15.4333 8.3934C15.4333 7.97719 15.0916 7.6359 14.675 7.6359C14.2583 7.6359 13.925 7.97719 13.925 8.3934ZM8.55843 9.6836C8.95009 9.29237 9.45843 9.08427 10.0001 9.08427C10.5418 9.08427 11.0501 9.29237 11.4334 9.67528C11.8168 10.0582 12.0251 10.566 12.0251 11.107C12.0168 12.2224 11.1168 13.1298 10.0001 13.1298C9.45843 13.1298 8.95009 12.9217 8.56676 12.5388C8.18343 12.1559 7.97509 11.6481 7.97509 11.107V11.0987C7.96676 10.5743 8.17509 10.0665 8.55843 9.6836ZM12.3083 13.4212C11.7167 14.0122 10.9 14.3784 10 14.3784C9.125 14.3784 8.30834 14.0371 7.68334 13.4212C7.06667 12.7968 6.725 11.9811 6.725 11.1071C6.71667 10.2414 7.05834 9.42559 7.675 8.80129C8.3 8.17698 9.125 7.83569 10 7.83569C10.875 7.83569 11.7 8.17698 12.3167 8.79296C12.9333 9.41727 13.275 10.2414 13.275 11.1071C13.2667 12.0144 12.9 12.8301 12.3083 13.4212Z" fill="white"/>
</g>
</g>
</svg>
