<svg width="20" height="20" viewBox="0 0 20 20" fill="none" xmlns="http://www.w3.org/2000/svg">
<path d="M4.5 3C3.83696 3 3.20107 3.26339 2.73223 3.73223C2.26339 4.20107 2 4.83696 2 5.5V14.5C2 15.163 2.26339 15.7989 2.73223 16.2678C3.20107 16.7366 3.83696 17 4.5 17H15.5C16.163 17 16.7989 16.7366 17.2678 16.2678C17.7366 15.7989 18 15.163 18 14.5V5.5C18 4.83696 17.7366 4.20107 17.2678 3.73223C16.7989 3.26339 16.163 3 15.5 3H4.5ZM8.765 7.076L12.765 9.578C12.8358 9.6224 12.8943 9.68383 12.9352 9.75668C12.9761 9.82952 12.9981 9.91146 12.9992 9.99501C13.0003 10.0785 12.9805 10.161 12.9415 10.2349C12.9025 10.3088 12.8456 10.3718 12.776 10.418L8.776 13.067C8.70065 13.1169 8.61318 13.1454 8.52291 13.1496C8.43263 13.1537 8.34293 13.1333 8.26332 13.0905C8.18372 13.0477 8.1172 12.9842 8.07083 12.9066C8.02446 12.8291 7.99999 12.7404 8 12.65V7.5C8 7.41075 8.02389 7.32312 8.06919 7.24622C8.11449 7.16932 8.17955 7.10595 8.25762 7.06268C8.33568 7.01941 8.4239 6.99783 8.51312 7.00017C8.60235 7.00251 8.68931 7.0287 8.765 7.076Z" fill="white"/>
</svg>
