<svg width="32" height="32" viewBox="0 0 32 32" fill="none" xmlns="http://www.w3.org/2000/svg">
<path d="M11.2 6.12384C11.4454 5.68216 11.8044 5.31413 12.2399 5.05789C12.6753 4.80165 13.1714 4.66652 13.6767 4.6665H18.3233C18.8286 4.66652 19.3247 4.80165 19.7601 5.05789C20.1956 5.31413 20.5546 5.68216 20.8 6.12384L21.6573 7.6665H24.1667C25.1833 7.6665 26.1584 8.07037 26.8772 8.78926C27.5961 9.50815 28 10.4832 28 11.4998V16.0292C26.6072 15.137 24.9874 14.664 23.3333 14.6665C22.546 14.6665 21.7827 14.7718 21.0573 14.9685C20.7612 14.0875 20.2399 13.2992 19.5452 12.6817C18.8505 12.0642 18.0065 11.639 17.0969 11.4481C16.1872 11.2573 15.2435 11.3076 14.3592 11.5939C13.475 11.8801 12.6809 12.3926 12.0556 13.0803C11.4304 13.768 10.9958 14.6072 10.7948 15.5147C10.5938 16.4222 10.6335 17.3664 10.9099 18.2538C11.1863 19.1412 11.6898 19.941 12.3705 20.5739C13.0512 21.2067 13.8855 21.6507 14.7907 21.8618C14.5144 23.4823 14.7016 25.1478 15.3307 26.6665H7.83333C6.81667 26.6665 5.84165 26.2626 5.12276 25.5437C4.40387 24.8249 4 23.8498 4 22.8332V11.4998C4 10.4832 4.40387 9.50815 5.12276 8.78926C5.84165 8.07037 6.81667 7.6665 7.83333 7.6665H10.3427L11.2 6.12384Z" fill="white"/>
<path d="M15.9999 13C15.0936 12.9987 14.2189 13.3332 13.5447 13.9388C12.8704 14.5444 12.4443 15.3783 12.3486 16.2796C12.2529 17.1808 12.4944 18.0856 13.0265 18.8193C13.5586 19.553 14.3435 20.0636 15.2299 20.2527C16.0107 18.2071 17.5344 16.5314 19.4966 15.56C19.2611 14.8173 18.7953 14.1688 18.1667 13.7085C17.538 13.2483 16.7791 13.0001 15.9999 13Z" fill="white"/>
<path d="M23.3333 30.6667C27.3833 30.6667 30.6667 27.3833 30.6667 23.3333C30.6667 19.2833 27.3833 16 23.3333 16C19.2833 16 16 19.2833 16 23.3333C16 27.3833 19.2833 30.6667 23.3333 30.6667ZM23.3333 18.6667C23.5101 18.6667 23.6797 18.7369 23.8047 18.8619C23.9298 18.987 24 19.1565 24 19.3333V22.6667H27.3333C27.5101 22.6667 27.6797 22.7369 27.8047 22.8619C27.9298 22.987 28 23.1565 28 23.3333C28 23.5101 27.9298 23.6797 27.8047 23.8047C27.6797 23.9298 27.5101 24 27.3333 24H24V27.3333C24 27.5101 23.9298 27.6797 23.8047 27.8047C23.6797 27.9298 23.5101 28 23.3333 28C23.1565 28 22.987 27.9298 22.8619 27.8047C22.7369 27.6797 22.6667 27.5101 22.6667 27.3333V24H19.3333C19.1565 24 18.987 23.9298 18.8619 23.8047C18.7369 23.6797 18.6667 23.5101 18.6667 23.3333C18.6667 23.1565 18.7369 22.987 18.8619 22.8619C18.987 22.7369 19.1565 22.6667 19.3333 22.6667H22.6667V19.3333C22.6667 19.1565 22.7369 18.987 22.8619 18.8619C22.987 18.7369 23.1565 18.6667 23.3333 18.6667Z" fill="white"/>
</svg>
