<svg width="96" height="48" viewBox="0 0 96 48" fill="none" xmlns="http://www.w3.org/2000/svg">
<path d="M68.4267 14.9867C62.4 14.4 57.0133 18.0267 55.7867 24C55.7867 25.8133 62.9867 28.2133 69.6 28.2133C76.2133 28.2133 82.1867 24 82.1867 22.8267C82.1867 21.6 78.0267 15.6267 68.4267 14.9867ZM27.6267 14.9867C18.0267 15.6267 13.8133 21.0133 13.8133 22.7733C13.8133 24 20.3733 28.2133 26.4 28.2133C32.4267 28.2133 40.2133 25.8133 40.2133 24C38.9867 18.0267 33.0133 14.4 27.6267 14.9867ZM74.4 48C64.2133 48 57.6 36 48 36C38.4 36 31.2 48 21.6 48C9.01334 48 0 36.5867 0 16.2133C0 3.62667 3.62667 0 19.7867 0C35.9467 0 40.2133 6.61333 48 6.61333C55.7867 6.61333 60.5867 0 76.2133 0C91.84 0 96 4.21333 96 16.2133C96 36.5867 86.9867 48 74.4 48Z" fill="#8F0115" fill-opacity="0.6"/>
</svg>
