<svg width="20" height="20" viewBox="0 0 20 20" fill="none" xmlns="http://www.w3.org/2000/svg">
<path d="M8.95825 6.66675C8.61659 6.66675 8.33325 6.95008 8.33325 7.29175V11.2001C8.33325 11.4917 8.48325 11.7584 8.72492 11.9084L11.7583 13.7751C11.8931 13.8569 12.0549 13.8817 12.208 13.8442C12.3612 13.8067 12.4931 13.7099 12.5749 13.5751C12.6567 13.4403 12.6816 13.2785 12.6441 13.1253C12.6065 12.9722 12.5097 12.8402 12.3749 12.7584L9.58325 11.0834V7.29175C9.58325 6.95008 9.29992 6.66675 8.95825 6.66675Z" fill="white"/>
<path d="M14.9334 9.99992C15.059 10.8282 15.0036 11.6739 14.7711 12.4787C14.5385 13.2835 14.1342 14.0284 13.5862 14.662C13.0381 15.2956 12.3592 15.8029 11.5963 16.1489C10.8334 16.495 10.0045 16.6716 9.16675 16.6666C5.91675 16.6666 3.33341 14.0833 3.33341 10.8333C3.33341 7.58325 5.91675 4.99992 9.16675 4.99992C9.75008 4.99992 10.3084 5.08325 10.8334 5.24159V3.52492C10.3001 3.39992 9.74175 3.33325 9.16675 3.33325C5.00008 3.33325 1.66675 6.66659 1.66675 10.8333C1.66675 14.9999 5.00008 18.3333 9.16675 18.3333C10.2232 18.3376 11.2685 18.1179 12.2337 17.6885C13.1989 17.2591 14.062 16.6298 14.7661 15.8423C15.4702 15.0547 15.9992 14.1267 16.3182 13.1196C16.6372 12.1125 16.739 11.0492 16.6167 9.99992H14.9334Z" fill="white"/>
<path d="M18.3333 4.16675H16.6667V2.50008C16.6667 2.04175 16.2917 1.66675 15.8333 1.66675C15.375 1.66675 15 2.04175 15 2.50008V4.16675H13.3333C12.875 4.16675 12.5 4.54175 12.5 5.00008C12.5 5.45841 12.875 5.83341 13.3333 5.83341H15V7.50008C15 7.95841 15.375 8.33341 15.8333 8.33341C16.2917 8.33341 16.6667 7.95841 16.6667 7.50008V5.83341H18.3333C18.7917 5.83341 19.1667 5.45841 19.1667 5.00008C19.1667 4.54175 18.7917 4.16675 18.3333 4.16675Z" fill="white"/>
</svg>
