<svg width="12" height="14" viewBox="0 0 12 14" fill="none" xmlns="http://www.w3.org/2000/svg">
<path d="M6.97374 0.839273C6.93893 0.668761 6.84629 0.515511 6.71147 0.40546C6.57666 0.295409 6.40796 0.235316 6.23394 0.235352H0.81374C0.613527 0.235352 0.421515 0.314886 0.279944 0.456457C0.138372 0.598029 0.0588379 0.790041 0.0588379 0.990254V12.3138C0.0588379 12.514 0.138372 12.706 0.279944 12.8476C0.421515 12.9892 0.613527 13.0687 0.81374 13.0687C1.01395 13.0687 1.20596 12.9892 1.34754 12.8476C1.48911 12.706 1.56864 12.514 1.56864 12.3138V7.78437H5.79609L5.97727 8.69025C6.04521 9.04355 6.35698 9.29795 6.71707 9.29418H10.6275C10.8277 9.29418 11.0197 9.21464 11.1613 9.07307C11.3028 8.9315 11.3824 8.73949 11.3824 8.53927V2.50006C11.3824 2.29984 11.3028 2.10783 11.1613 1.96626C11.0197 1.82469 10.8277 1.74516 10.6275 1.74516H7.15492L6.97374 0.839273Z" fill="white"/>
</svg>
