<svg width="32" height="32" viewBox="0 0 32 32" fill="none" xmlns="http://www.w3.org/2000/svg">
<path fill-rule="evenodd" clip-rule="evenodd" d="M2.66663 16.0201C2.66663 8.99624 8.27996 2.66675 16.0266 2.66675C23.6 2.66675 29.3333 8.87606 29.3333 15.9801C29.3333 24.2191 22.6133 29.3334 16 29.3334C13.8133 29.3334 11.3866 28.7459 9.43996 27.5975C8.75996 27.1835 8.18663 26.8764 7.45329 27.1168L4.75996 27.918C4.07996 28.1316 3.46663 27.5975 3.66663 26.8764L4.55996 23.8852C4.70663 23.4713 4.67996 23.0306 4.46663 22.6834C3.31996 20.5736 2.66663 18.2635 2.66663 16.0201ZM14.2666 16.0199C14.2666 16.968 15.0266 17.7292 15.9733 17.7425C16.9199 17.7425 17.6799 16.968 17.6799 16.0333C17.6799 15.0852 16.9199 14.3241 15.9733 14.3241C15.0399 14.3107 14.2666 15.0852 14.2666 16.0199ZM20.4132 16.0334C20.4132 16.9681 21.1732 17.7426 22.1199 17.7426C23.0666 17.7426 23.8266 16.9681 23.8266 16.0334C23.8266 15.0853 23.0666 14.3241 22.1199 14.3241C21.1732 14.3241 20.4132 15.0853 20.4132 16.0334ZM9.82662 17.7427C8.89329 17.7427 8.11995 16.9682 8.11995 16.0334C8.11995 15.0854 8.87995 14.3242 9.82662 14.3242C10.7733 14.3242 11.5333 15.0854 11.5333 16.0334C11.5333 16.9682 10.7733 17.7293 9.82662 17.7427Z" fill="#AE0D13"/>
</svg>
