<svg width="8" height="13" viewBox="0 0 8 13" fill="none" xmlns="http://www.w3.org/2000/svg">
<path d="M3.49753 10.3318L3.58288 8.94485C3.60584 8.57175 3.61732 8.38521 3.57652 8.22992C3.49921 7.93569 3.29217 7.69265 3.01397 7.56956C2.86714 7.50459 2.68114 7.48627 2.30914 7.44964C1.71453 7.39108 1.41722 7.3618 1.23042 7.25413C0.87407 7.04873 0.67983 6.64609 0.74087 6.23934C0.772867 6.02612 0.935001 5.7752 1.25927 5.27335L3.21585 2.24531L3.21585 2.24531C3.7972 1.3456 4.08787 0.895751 4.34452 0.980107C4.60116 1.06446 4.56826 1.59905 4.50247 2.66821L4.41712 4.05515C4.39416 4.42825 4.38268 4.61479 4.42348 4.77008C4.50079 5.06431 4.70783 5.30735 4.98603 5.43044C5.13286 5.49541 5.31886 5.51373 5.69086 5.55036H5.69086C6.28547 5.60892 6.58278 5.6382 6.76958 5.74587C7.12593 5.95127 7.32017 6.35391 7.25913 6.76066C7.22713 6.97388 7.065 7.2248 6.74073 7.72665L4.78415 10.7547C4.2028 11.6544 3.91213 12.1042 3.65548 12.0199C3.39884 11.9355 3.43174 11.401 3.49753 10.3318Z" fill="#7A008F"/>
</svg>
