<svg fill="none" height="34" viewBox="0 0 34 34" width="34" xmlns="http://www.w3.org/2000/svg"><path d="m16.2502 22.7466.1698-2.5461c.0534-.8015.0801-1.2022-.1211-1.4904-.0372-.0533-.0794-.1028-.1262-.1478-.2532-.2439-.6531-.2802-1.4531-.3529-1.3275-.1207-1.9913-.1811-2.255-.596-.0472-.0741-.0843-.1541-.1105-.2379-.1468-.4693.2354-1.0153.9999-2.1073l3.1239-4.4628c.5811-.83023.8717-1.24537 1.1224-1.15709.2506.08827.2169.59389.1495 1.60509l-.1698 2.5461c-.0534.8015-.0801 1.2022.1211 1.4904.0372.0533.0794.1028.1262.1478.2532.2439.6531.2802 1.4531.3529 1.3275.1207 1.9913.1811 2.255.596.0472.0741.0843.1541.1105.2379.1468.4693-.2354 1.0153-.9999 2.1073l-3.1239 4.4628c-.5811.8302-.8717 1.2454-1.1224 1.1571-.2506-.0883-.2169-.5939-.1495-1.6051z" fill="#fff"/><path d="m22.9583 9.66699-1.375 1.83331h1.8334l-1.375 1.8334" stroke="#7e869e" stroke-linecap="round" stroke-linejoin="round" stroke-opacity=".5"/><path d="m11.9583 20.667-1.375 1.8333h1.8334l-1.375 1.8334" stroke="#7e869e" stroke-linecap="round" stroke-linejoin="round" stroke-opacity=".5"/><path d="m17 0c9.3891 0 17 7.61052 17 16.9991 0 9.3887-7.6109 16.9992-17 16.9992-2.7132.0037-5.3876-.6446-7.79789-1.8903l-6.5042 1.8138c-.36288.1013-.74616.1042-1.11057.0086-.3644-.0956-.69684-.2864-.96324-.5528s-.457186-.5988-.5528096-.9632c-.095624-.3644-.0926477-.7476.0086238-1.1105l1.8155958-6.4987c-1.248897-2.4123-1.89902696-5.0897-1.89549569-7.8061 0-9.38858 7.61089569-16.9991 16.99998569-16.9991zm0 2.54987c-3.8324 0-7.50778 1.52233-10.21768 4.2321-2.7099 2.70976-4.23231 6.38503-4.23231 10.21713 0 2.4989.6341 4.9009 1.8241 7.0326l.255.459-1.8904 6.7724 6.7779-1.8903.459.255c1.92849 1.0721 4.07679 1.6884 6.28039 1.8016s4.4038-.2798 6.4319-1.1487c2.0282-.8689 3.8304-2.1907 5.2685-3.864 1.4381-1.6734 2.4739-3.6538 3.0279-5.7895.554-2.1356.6116-4.3698.1683-6.5312-.4434-2.1614-1.3758-4.19249-2.7258-5.93766s-3.0818-3.15801-5.0625-4.13018c-1.9808-.97218-4.1578-1.47787-6.3643-1.47829z" fill="#fff"/></svg>