<svg width="26" height="26" viewBox="0 0 26 26" fill="none" xmlns="http://www.w3.org/2000/svg">
<path d="M19.0506 5.94949C18.9578 5.85714 18.8406 5.7932 18.7127 5.76519C18.5848 5.73718 18.4516 5.74626 18.3287 5.79137L3.20369 11.2914C3.07325 11.3408 2.96095 11.4288 2.8817 11.5436C2.80245 11.6585 2.76001 11.7947 2.76001 11.9342C2.76001 12.0737 2.80245 12.2099 2.8817 12.3247C2.96095 12.4395 3.07325 12.5275 3.20369 12.577L9.10931 14.9351L13.4681 10.5626L14.4374 11.532L10.0581 15.9114L12.4231 21.817C12.474 21.9449 12.5622 22.0546 12.6762 22.1318C12.7902 22.209 12.9247 22.2502 13.0624 22.2501C13.2014 22.2473 13.3362 22.2024 13.4491 22.1214C13.562 22.0404 13.6477 21.9271 13.6949 21.7964L19.1949 6.67137C19.2418 6.54973 19.2531 6.41729 19.2275 6.28948C19.202 6.16167 19.1406 6.04375 19.0506 5.94949Z" fill="white"/>
</svg>
