<svg width="18" height="18" viewBox="0 0 18 18" fill="none" xmlns="http://www.w3.org/2000/svg">
<path d="M17.0506 0.949491C16.9578 0.857142 16.8406 0.793202 16.7127 0.765191C16.5848 0.737179 16.4516 0.74626 16.3287 0.791366L1.20369 6.29137C1.07325 6.34084 0.960947 6.42883 0.8817 6.54365C0.802452 6.65846 0.76001 6.79467 0.76001 6.93418C0.76001 7.07369 0.802452 7.20989 0.8817 7.32471C0.960947 7.43952 1.07325 7.52751 1.20369 7.57699L7.10931 9.93512L11.4681 5.56262L12.4374 6.53199L8.05806 10.9114L10.4231 16.817C10.474 16.9449 10.5622 17.0546 10.6762 17.1318C10.7902 17.209 10.9247 17.2502 11.0624 17.2501C11.2014 17.2473 11.3362 17.2024 11.4491 17.1214C11.562 17.0404 11.6477 16.9271 11.6949 16.7964L17.1949 1.67137C17.2418 1.54973 17.2531 1.41729 17.2275 1.28948C17.202 1.16167 17.1406 1.04375 17.0506 0.949491Z" fill="white"/>
</svg>
