<svg width="28" height="28" viewBox="0 0 28 28" fill="none" xmlns="http://www.w3.org/2000/svg">
<path fill-rule="evenodd" clip-rule="evenodd" d="M23.8026 15.8435C24.2199 16.0652 24.5418 16.4152 24.7683 16.7652C25.2095 17.4885 25.1737 18.3752 24.7445 19.1568L23.9099 20.5568C23.4687 21.3035 22.6461 21.7702 21.7995 21.7702C21.3822 21.7702 20.9172 21.6535 20.5357 21.4202C20.2257 21.2218 19.868 21.1518 19.4865 21.1518C18.3061 21.1518 17.3166 22.1202 17.2808 23.2752C17.2808 24.6168 16.1839 25.6668 14.8128 25.6668H13.1912C11.8082 25.6668 10.7113 24.6168 10.7113 23.2752C10.6875 22.1202 9.69786 21.1518 8.5175 21.1518C8.12404 21.1518 7.76636 21.2218 7.46829 21.4202C7.08676 21.6535 6.60984 21.7702 6.20447 21.7702C5.34602 21.7702 4.52335 21.3035 4.0822 20.5568L3.25953 19.1568C2.81838 18.3985 2.79454 17.4885 3.23568 16.7652C3.42645 16.4152 3.78413 16.0652 4.18951 15.8435C4.52335 15.6802 4.73796 15.4118 4.94065 15.0968C5.53679 14.0935 5.1791 12.7752 4.16566 12.1802C2.9853 11.5152 2.60377 10.0335 3.28337 8.8785L4.0822 7.50183C4.77373 6.34683 6.25216 5.9385 7.44444 6.61516C8.48173 7.17516 9.82901 6.80183 10.4371 5.81016C10.6278 5.4835 10.7351 5.1335 10.7113 4.7835C10.6875 4.3285 10.8186 3.89683 11.0451 3.54683C11.4863 2.8235 12.2851 2.35683 13.1555 2.3335H14.8366C15.7189 2.3335 16.5177 2.8235 16.9589 3.54683C17.1735 3.89683 17.3166 4.3285 17.2808 4.7835C17.2569 5.1335 17.3642 5.4835 17.555 5.81016C18.1631 6.80183 19.5104 7.17516 20.5596 6.61516C21.7399 5.9385 23.2303 6.34683 23.9099 7.50183L24.7087 8.8785C25.4002 10.0335 25.0187 11.5152 23.8264 12.1802C22.813 12.7752 22.4553 14.0935 23.0634 15.0968C23.2541 15.4118 23.4687 15.6802 23.8026 15.8435ZM10.6279 14.0119C10.6279 15.8435 12.1421 17.3019 14.0139 17.3019C15.8858 17.3019 17.3643 15.8435 17.3643 14.0119C17.3643 12.1802 15.8858 10.7102 14.0139 10.7102C12.1421 10.7102 10.6279 12.1802 10.6279 14.0119Z" fill="#8F0115"/>
</svg>
