<svg width="28" height="28" viewBox="0 0 28 28" fill="none" xmlns="http://www.w3.org/2000/svg">
<path d="M9.06736 2.8455L10.3227 2.44417C11.501 2.0685 12.7575 2.67634 13.2627 3.864L14.2649 6.23C14.7012 7.26017 14.4597 8.47233 13.6652 9.226L11.4555 11.3237C11.5909 12.579 12.0132 13.8145 12.7202 15.0302C13.3919 16.2064 14.2929 17.2359 15.3697 18.0577L18.0239 17.171C19.0307 16.8362 20.1262 17.2223 20.7422 18.1288L22.1807 20.2405C22.8982 21.2952 22.7699 22.7488 21.8797 23.6425L20.9254 24.6003C19.9757 25.5535 18.6189 25.9 17.3647 25.508C14.4025 24.584 11.6795 21.8412 9.19453 17.2795C6.70603 12.7108 5.82753 8.83283 6.5602 5.65017C6.8682 4.31084 7.82136 3.24334 9.06736 2.8455Z" fill="#8F0115"/>
</svg>
