<svg width="18" height="18" viewBox="0 0 18 18" fill="none" xmlns="http://www.w3.org/2000/svg">
<path d="M3 4.5H11.25C12.075 4.5 12.75 5.175 12.75 6V12C12.75 12.825 12.075 13.5 11.25 13.5H3C2.175 13.5 1.5 12.825 1.5 12V6C1.5 5.175 2.175 4.5 3 4.5Z" fill="white"/>
<path d="M16.5 12.19C16.5 12.6015 16.0511 12.8556 15.6982 12.6439L13.007 11.0292C12.8476 10.9335 12.75 10.7612 12.75 10.5753V7.42475C12.75 7.23879 12.8476 7.06646 13.007 6.97078L15.6982 5.35607C16.0511 5.14436 16.5 5.39853 16.5 5.81004V12.19Z" fill="#EFEFEF"/>
</svg>
